%TF.GenerationSoftware,KiCad,Pcbnew,7.0.6-7.0.6~ubuntu22.04.1*%
%TF.CreationDate,2023-09-05T14:51:30+08:00*%
%TF.ProjectId,ECU_Module,4543555f-4d6f-4647-956c-652e6b696361,rev?*%
%TF.SameCoordinates,Original*%
%TF.FileFunction,Legend,Bot*%
%TF.FilePolarity,Positive*%
%FSLAX46Y46*%
G04 Gerber Fmt 4.6, Leading zero omitted, Abs format (unit mm)*
G04 Created by KiCad (PCBNEW 7.0.6-7.0.6~ubuntu22.04.1) date 2023-09-05 14:51:30*
%MOMM*%
%LPD*%
G01*
G04 APERTURE LIST*
%ADD10C,0.150000*%
%ADD11C,0.120000*%
G04 APERTURE END LIST*
D10*
X164960419Y-69398684D02*
X164912800Y-69446303D01*
X164912800Y-69446303D02*
X164865180Y-69589160D01*
X164865180Y-69589160D02*
X164865180Y-69684398D01*
X164865180Y-69684398D02*
X164912800Y-69827255D01*
X164912800Y-69827255D02*
X165008038Y-69922493D01*
X165008038Y-69922493D02*
X165103276Y-69970112D01*
X165103276Y-69970112D02*
X165293752Y-70017731D01*
X165293752Y-70017731D02*
X165436609Y-70017731D01*
X165436609Y-70017731D02*
X165627085Y-69970112D01*
X165627085Y-69970112D02*
X165722323Y-69922493D01*
X165722323Y-69922493D02*
X165817561Y-69827255D01*
X165817561Y-69827255D02*
X165865180Y-69684398D01*
X165865180Y-69684398D02*
X165865180Y-69589160D01*
X165865180Y-69589160D02*
X165817561Y-69446303D01*
X165817561Y-69446303D02*
X165769942Y-69398684D01*
X164865180Y-68493922D02*
X164865180Y-68970112D01*
X164865180Y-68970112D02*
X165865180Y-68970112D01*
X164865180Y-68160588D02*
X165865180Y-68160588D01*
X164865180Y-67589160D02*
X165436609Y-68017731D01*
X165865180Y-67589160D02*
X165293752Y-68160588D01*
X162325180Y-70779635D02*
X163325180Y-70779635D01*
X163325180Y-70779635D02*
X162610895Y-70446302D01*
X162610895Y-70446302D02*
X163325180Y-70112969D01*
X163325180Y-70112969D02*
X162325180Y-70112969D01*
X162325180Y-69636778D02*
X163325180Y-69636778D01*
X162372800Y-69208207D02*
X162325180Y-69065350D01*
X162325180Y-69065350D02*
X162325180Y-68827255D01*
X162325180Y-68827255D02*
X162372800Y-68732017D01*
X162372800Y-68732017D02*
X162420419Y-68684398D01*
X162420419Y-68684398D02*
X162515657Y-68636779D01*
X162515657Y-68636779D02*
X162610895Y-68636779D01*
X162610895Y-68636779D02*
X162706133Y-68684398D01*
X162706133Y-68684398D02*
X162753752Y-68732017D01*
X162753752Y-68732017D02*
X162801371Y-68827255D01*
X162801371Y-68827255D02*
X162848990Y-69017731D01*
X162848990Y-69017731D02*
X162896609Y-69112969D01*
X162896609Y-69112969D02*
X162944228Y-69160588D01*
X162944228Y-69160588D02*
X163039466Y-69208207D01*
X163039466Y-69208207D02*
X163134704Y-69208207D01*
X163134704Y-69208207D02*
X163229942Y-69160588D01*
X163229942Y-69160588D02*
X163277561Y-69112969D01*
X163277561Y-69112969D02*
X163325180Y-69017731D01*
X163325180Y-69017731D02*
X163325180Y-68779636D01*
X163325180Y-68779636D02*
X163277561Y-68636779D01*
X163325180Y-68017731D02*
X163325180Y-67827255D01*
X163325180Y-67827255D02*
X163277561Y-67732017D01*
X163277561Y-67732017D02*
X163182323Y-67636779D01*
X163182323Y-67636779D02*
X162991847Y-67589160D01*
X162991847Y-67589160D02*
X162658514Y-67589160D01*
X162658514Y-67589160D02*
X162468038Y-67636779D01*
X162468038Y-67636779D02*
X162372800Y-67732017D01*
X162372800Y-67732017D02*
X162325180Y-67827255D01*
X162325180Y-67827255D02*
X162325180Y-68017731D01*
X162325180Y-68017731D02*
X162372800Y-68112969D01*
X162372800Y-68112969D02*
X162468038Y-68208207D01*
X162468038Y-68208207D02*
X162658514Y-68255826D01*
X162658514Y-68255826D02*
X162991847Y-68255826D01*
X162991847Y-68255826D02*
X163182323Y-68208207D01*
X163182323Y-68208207D02*
X163277561Y-68112969D01*
X163277561Y-68112969D02*
X163325180Y-68017731D01*
X159785180Y-70779635D02*
X160785180Y-70779635D01*
X160785180Y-70779635D02*
X160070895Y-70446302D01*
X160070895Y-70446302D02*
X160785180Y-70112969D01*
X160785180Y-70112969D02*
X159785180Y-70112969D01*
X160785180Y-69446302D02*
X160785180Y-69255826D01*
X160785180Y-69255826D02*
X160737561Y-69160588D01*
X160737561Y-69160588D02*
X160642323Y-69065350D01*
X160642323Y-69065350D02*
X160451847Y-69017731D01*
X160451847Y-69017731D02*
X160118514Y-69017731D01*
X160118514Y-69017731D02*
X159928038Y-69065350D01*
X159928038Y-69065350D02*
X159832800Y-69160588D01*
X159832800Y-69160588D02*
X159785180Y-69255826D01*
X159785180Y-69255826D02*
X159785180Y-69446302D01*
X159785180Y-69446302D02*
X159832800Y-69541540D01*
X159832800Y-69541540D02*
X159928038Y-69636778D01*
X159928038Y-69636778D02*
X160118514Y-69684397D01*
X160118514Y-69684397D02*
X160451847Y-69684397D01*
X160451847Y-69684397D02*
X160642323Y-69636778D01*
X160642323Y-69636778D02*
X160737561Y-69541540D01*
X160737561Y-69541540D02*
X160785180Y-69446302D01*
X159832800Y-68636778D02*
X159785180Y-68493921D01*
X159785180Y-68493921D02*
X159785180Y-68255826D01*
X159785180Y-68255826D02*
X159832800Y-68160588D01*
X159832800Y-68160588D02*
X159880419Y-68112969D01*
X159880419Y-68112969D02*
X159975657Y-68065350D01*
X159975657Y-68065350D02*
X160070895Y-68065350D01*
X160070895Y-68065350D02*
X160166133Y-68112969D01*
X160166133Y-68112969D02*
X160213752Y-68160588D01*
X160213752Y-68160588D02*
X160261371Y-68255826D01*
X160261371Y-68255826D02*
X160308990Y-68446302D01*
X160308990Y-68446302D02*
X160356609Y-68541540D01*
X160356609Y-68541540D02*
X160404228Y-68589159D01*
X160404228Y-68589159D02*
X160499466Y-68636778D01*
X160499466Y-68636778D02*
X160594704Y-68636778D01*
X160594704Y-68636778D02*
X160689942Y-68589159D01*
X160689942Y-68589159D02*
X160737561Y-68541540D01*
X160737561Y-68541540D02*
X160785180Y-68446302D01*
X160785180Y-68446302D02*
X160785180Y-68208207D01*
X160785180Y-68208207D02*
X160737561Y-68065350D01*
X159785180Y-67636778D02*
X160785180Y-67636778D01*
X158197561Y-69684398D02*
X158245180Y-69779636D01*
X158245180Y-69779636D02*
X158245180Y-69922493D01*
X158245180Y-69922493D02*
X158197561Y-70065350D01*
X158197561Y-70065350D02*
X158102323Y-70160588D01*
X158102323Y-70160588D02*
X158007085Y-70208207D01*
X158007085Y-70208207D02*
X157816609Y-70255826D01*
X157816609Y-70255826D02*
X157673752Y-70255826D01*
X157673752Y-70255826D02*
X157483276Y-70208207D01*
X157483276Y-70208207D02*
X157388038Y-70160588D01*
X157388038Y-70160588D02*
X157292800Y-70065350D01*
X157292800Y-70065350D02*
X157245180Y-69922493D01*
X157245180Y-69922493D02*
X157245180Y-69827255D01*
X157245180Y-69827255D02*
X157292800Y-69684398D01*
X157292800Y-69684398D02*
X157340419Y-69636779D01*
X157340419Y-69636779D02*
X157673752Y-69636779D01*
X157673752Y-69636779D02*
X157673752Y-69827255D01*
X157245180Y-69208207D02*
X158245180Y-69208207D01*
X158245180Y-69208207D02*
X157245180Y-68636779D01*
X157245180Y-68636779D02*
X158245180Y-68636779D01*
X157245180Y-68160588D02*
X158245180Y-68160588D01*
X158245180Y-68160588D02*
X158245180Y-67922493D01*
X158245180Y-67922493D02*
X158197561Y-67779636D01*
X158197561Y-67779636D02*
X158102323Y-67684398D01*
X158102323Y-67684398D02*
X158007085Y-67636779D01*
X158007085Y-67636779D02*
X157816609Y-67589160D01*
X157816609Y-67589160D02*
X157673752Y-67589160D01*
X157673752Y-67589160D02*
X157483276Y-67636779D01*
X157483276Y-67636779D02*
X157388038Y-67684398D01*
X157388038Y-67684398D02*
X157292800Y-67779636D01*
X157292800Y-67779636D02*
X157245180Y-67922493D01*
X157245180Y-67922493D02*
X157245180Y-68160588D01*
X155657561Y-69684398D02*
X155705180Y-69779636D01*
X155705180Y-69779636D02*
X155705180Y-69922493D01*
X155705180Y-69922493D02*
X155657561Y-70065350D01*
X155657561Y-70065350D02*
X155562323Y-70160588D01*
X155562323Y-70160588D02*
X155467085Y-70208207D01*
X155467085Y-70208207D02*
X155276609Y-70255826D01*
X155276609Y-70255826D02*
X155133752Y-70255826D01*
X155133752Y-70255826D02*
X154943276Y-70208207D01*
X154943276Y-70208207D02*
X154848038Y-70160588D01*
X154848038Y-70160588D02*
X154752800Y-70065350D01*
X154752800Y-70065350D02*
X154705180Y-69922493D01*
X154705180Y-69922493D02*
X154705180Y-69827255D01*
X154705180Y-69827255D02*
X154752800Y-69684398D01*
X154752800Y-69684398D02*
X154800419Y-69636779D01*
X154800419Y-69636779D02*
X155133752Y-69636779D01*
X155133752Y-69636779D02*
X155133752Y-69827255D01*
X154705180Y-69208207D02*
X155705180Y-69208207D01*
X155705180Y-69208207D02*
X154705180Y-68636779D01*
X154705180Y-68636779D02*
X155705180Y-68636779D01*
X154705180Y-68160588D02*
X155705180Y-68160588D01*
X155705180Y-68160588D02*
X155705180Y-67922493D01*
X155705180Y-67922493D02*
X155657561Y-67779636D01*
X155657561Y-67779636D02*
X155562323Y-67684398D01*
X155562323Y-67684398D02*
X155467085Y-67636779D01*
X155467085Y-67636779D02*
X155276609Y-67589160D01*
X155276609Y-67589160D02*
X155133752Y-67589160D01*
X155133752Y-67589160D02*
X154943276Y-67636779D01*
X154943276Y-67636779D02*
X154848038Y-67684398D01*
X154848038Y-67684398D02*
X154752800Y-67779636D01*
X154752800Y-67779636D02*
X154705180Y-67922493D01*
X154705180Y-67922493D02*
X154705180Y-68160588D01*
X152688990Y-70208208D02*
X152641371Y-70065351D01*
X152641371Y-70065351D02*
X152593752Y-70017732D01*
X152593752Y-70017732D02*
X152498514Y-69970113D01*
X152498514Y-69970113D02*
X152355657Y-69970113D01*
X152355657Y-69970113D02*
X152260419Y-70017732D01*
X152260419Y-70017732D02*
X152212800Y-70065351D01*
X152212800Y-70065351D02*
X152165180Y-70160589D01*
X152165180Y-70160589D02*
X152165180Y-70541541D01*
X152165180Y-70541541D02*
X153165180Y-70541541D01*
X153165180Y-70541541D02*
X153165180Y-70208208D01*
X153165180Y-70208208D02*
X153117561Y-70112970D01*
X153117561Y-70112970D02*
X153069942Y-70065351D01*
X153069942Y-70065351D02*
X152974704Y-70017732D01*
X152974704Y-70017732D02*
X152879466Y-70017732D01*
X152879466Y-70017732D02*
X152784228Y-70065351D01*
X152784228Y-70065351D02*
X152736609Y-70112970D01*
X152736609Y-70112970D02*
X152688990Y-70208208D01*
X152688990Y-70208208D02*
X152688990Y-70541541D01*
X152450895Y-69589160D02*
X152450895Y-69112970D01*
X152165180Y-69684398D02*
X153165180Y-69351065D01*
X153165180Y-69351065D02*
X152165180Y-69017732D01*
X153165180Y-68827255D02*
X153165180Y-68255827D01*
X152165180Y-68541541D02*
X153165180Y-68541541D01*
X153165180Y-68065350D02*
X153165180Y-67493922D01*
X152165180Y-67779636D02*
X153165180Y-67779636D01*
X165865180Y-60622744D02*
X165865180Y-60432268D01*
X165865180Y-60432268D02*
X165817561Y-60337030D01*
X165817561Y-60337030D02*
X165722323Y-60241792D01*
X165722323Y-60241792D02*
X165531847Y-60194173D01*
X165531847Y-60194173D02*
X165198514Y-60194173D01*
X165198514Y-60194173D02*
X165008038Y-60241792D01*
X165008038Y-60241792D02*
X164912800Y-60337030D01*
X164912800Y-60337030D02*
X164865180Y-60432268D01*
X164865180Y-60432268D02*
X164865180Y-60622744D01*
X164865180Y-60622744D02*
X164912800Y-60717982D01*
X164912800Y-60717982D02*
X165008038Y-60813220D01*
X165008038Y-60813220D02*
X165198514Y-60860839D01*
X165198514Y-60860839D02*
X165531847Y-60860839D01*
X165531847Y-60860839D02*
X165722323Y-60813220D01*
X165722323Y-60813220D02*
X165817561Y-60717982D01*
X165817561Y-60717982D02*
X165865180Y-60622744D01*
X165769942Y-59813220D02*
X165817561Y-59765601D01*
X165817561Y-59765601D02*
X165865180Y-59670363D01*
X165865180Y-59670363D02*
X165865180Y-59432268D01*
X165865180Y-59432268D02*
X165817561Y-59337030D01*
X165817561Y-59337030D02*
X165769942Y-59289411D01*
X165769942Y-59289411D02*
X165674704Y-59241792D01*
X165674704Y-59241792D02*
X165579466Y-59241792D01*
X165579466Y-59241792D02*
X165436609Y-59289411D01*
X165436609Y-59289411D02*
X164865180Y-59860839D01*
X164865180Y-59860839D02*
X164865180Y-59241792D01*
X162420419Y-60241792D02*
X162372800Y-60289411D01*
X162372800Y-60289411D02*
X162325180Y-60432268D01*
X162325180Y-60432268D02*
X162325180Y-60527506D01*
X162325180Y-60527506D02*
X162372800Y-60670363D01*
X162372800Y-60670363D02*
X162468038Y-60765601D01*
X162468038Y-60765601D02*
X162563276Y-60813220D01*
X162563276Y-60813220D02*
X162753752Y-60860839D01*
X162753752Y-60860839D02*
X162896609Y-60860839D01*
X162896609Y-60860839D02*
X163087085Y-60813220D01*
X163087085Y-60813220D02*
X163182323Y-60765601D01*
X163182323Y-60765601D02*
X163277561Y-60670363D01*
X163277561Y-60670363D02*
X163325180Y-60527506D01*
X163325180Y-60527506D02*
X163325180Y-60432268D01*
X163325180Y-60432268D02*
X163277561Y-60289411D01*
X163277561Y-60289411D02*
X163229942Y-60241792D01*
X162372800Y-59860839D02*
X162325180Y-59717982D01*
X162325180Y-59717982D02*
X162325180Y-59479887D01*
X162325180Y-59479887D02*
X162372800Y-59384649D01*
X162372800Y-59384649D02*
X162420419Y-59337030D01*
X162420419Y-59337030D02*
X162515657Y-59289411D01*
X162515657Y-59289411D02*
X162610895Y-59289411D01*
X162610895Y-59289411D02*
X162706133Y-59337030D01*
X162706133Y-59337030D02*
X162753752Y-59384649D01*
X162753752Y-59384649D02*
X162801371Y-59479887D01*
X162801371Y-59479887D02*
X162848990Y-59670363D01*
X162848990Y-59670363D02*
X162896609Y-59765601D01*
X162896609Y-59765601D02*
X162944228Y-59813220D01*
X162944228Y-59813220D02*
X163039466Y-59860839D01*
X163039466Y-59860839D02*
X163134704Y-59860839D01*
X163134704Y-59860839D02*
X163229942Y-59813220D01*
X163229942Y-59813220D02*
X163277561Y-59765601D01*
X163277561Y-59765601D02*
X163325180Y-59670363D01*
X163325180Y-59670363D02*
X163325180Y-59432268D01*
X163325180Y-59432268D02*
X163277561Y-59289411D01*
X160737561Y-60289411D02*
X160785180Y-60384649D01*
X160785180Y-60384649D02*
X160785180Y-60527506D01*
X160785180Y-60527506D02*
X160737561Y-60670363D01*
X160737561Y-60670363D02*
X160642323Y-60765601D01*
X160642323Y-60765601D02*
X160547085Y-60813220D01*
X160547085Y-60813220D02*
X160356609Y-60860839D01*
X160356609Y-60860839D02*
X160213752Y-60860839D01*
X160213752Y-60860839D02*
X160023276Y-60813220D01*
X160023276Y-60813220D02*
X159928038Y-60765601D01*
X159928038Y-60765601D02*
X159832800Y-60670363D01*
X159832800Y-60670363D02*
X159785180Y-60527506D01*
X159785180Y-60527506D02*
X159785180Y-60432268D01*
X159785180Y-60432268D02*
X159832800Y-60289411D01*
X159832800Y-60289411D02*
X159880419Y-60241792D01*
X159880419Y-60241792D02*
X160213752Y-60241792D01*
X160213752Y-60241792D02*
X160213752Y-60432268D01*
X159785180Y-59813220D02*
X160785180Y-59813220D01*
X160785180Y-59813220D02*
X159785180Y-59241792D01*
X159785180Y-59241792D02*
X160785180Y-59241792D01*
X159785180Y-58765601D02*
X160785180Y-58765601D01*
X160785180Y-58765601D02*
X160785180Y-58527506D01*
X160785180Y-58527506D02*
X160737561Y-58384649D01*
X160737561Y-58384649D02*
X160642323Y-58289411D01*
X160642323Y-58289411D02*
X160547085Y-58241792D01*
X160547085Y-58241792D02*
X160356609Y-58194173D01*
X160356609Y-58194173D02*
X160213752Y-58194173D01*
X160213752Y-58194173D02*
X160023276Y-58241792D01*
X160023276Y-58241792D02*
X159928038Y-58289411D01*
X159928038Y-58289411D02*
X159832800Y-58384649D01*
X159832800Y-58384649D02*
X159785180Y-58527506D01*
X159785180Y-58527506D02*
X159785180Y-58765601D01*
X158197561Y-60289411D02*
X158245180Y-60384649D01*
X158245180Y-60384649D02*
X158245180Y-60527506D01*
X158245180Y-60527506D02*
X158197561Y-60670363D01*
X158197561Y-60670363D02*
X158102323Y-60765601D01*
X158102323Y-60765601D02*
X158007085Y-60813220D01*
X158007085Y-60813220D02*
X157816609Y-60860839D01*
X157816609Y-60860839D02*
X157673752Y-60860839D01*
X157673752Y-60860839D02*
X157483276Y-60813220D01*
X157483276Y-60813220D02*
X157388038Y-60765601D01*
X157388038Y-60765601D02*
X157292800Y-60670363D01*
X157292800Y-60670363D02*
X157245180Y-60527506D01*
X157245180Y-60527506D02*
X157245180Y-60432268D01*
X157245180Y-60432268D02*
X157292800Y-60289411D01*
X157292800Y-60289411D02*
X157340419Y-60241792D01*
X157340419Y-60241792D02*
X157673752Y-60241792D01*
X157673752Y-60241792D02*
X157673752Y-60432268D01*
X157245180Y-59813220D02*
X158245180Y-59813220D01*
X158245180Y-59813220D02*
X157245180Y-59241792D01*
X157245180Y-59241792D02*
X158245180Y-59241792D01*
X157245180Y-58765601D02*
X158245180Y-58765601D01*
X158245180Y-58765601D02*
X158245180Y-58527506D01*
X158245180Y-58527506D02*
X158197561Y-58384649D01*
X158197561Y-58384649D02*
X158102323Y-58289411D01*
X158102323Y-58289411D02*
X158007085Y-58241792D01*
X158007085Y-58241792D02*
X157816609Y-58194173D01*
X157816609Y-58194173D02*
X157673752Y-58194173D01*
X157673752Y-58194173D02*
X157483276Y-58241792D01*
X157483276Y-58241792D02*
X157388038Y-58289411D01*
X157388038Y-58289411D02*
X157292800Y-58384649D01*
X157292800Y-58384649D02*
X157245180Y-58527506D01*
X157245180Y-58527506D02*
X157245180Y-58765601D01*
X154800419Y-60241792D02*
X154752800Y-60289411D01*
X154752800Y-60289411D02*
X154705180Y-60432268D01*
X154705180Y-60432268D02*
X154705180Y-60527506D01*
X154705180Y-60527506D02*
X154752800Y-60670363D01*
X154752800Y-60670363D02*
X154848038Y-60765601D01*
X154848038Y-60765601D02*
X154943276Y-60813220D01*
X154943276Y-60813220D02*
X155133752Y-60860839D01*
X155133752Y-60860839D02*
X155276609Y-60860839D01*
X155276609Y-60860839D02*
X155467085Y-60813220D01*
X155467085Y-60813220D02*
X155562323Y-60765601D01*
X155562323Y-60765601D02*
X155657561Y-60670363D01*
X155657561Y-60670363D02*
X155705180Y-60527506D01*
X155705180Y-60527506D02*
X155705180Y-60432268D01*
X155705180Y-60432268D02*
X155657561Y-60289411D01*
X155657561Y-60289411D02*
X155609942Y-60241792D01*
X155705180Y-59622744D02*
X155705180Y-59432268D01*
X155705180Y-59432268D02*
X155657561Y-59337030D01*
X155657561Y-59337030D02*
X155562323Y-59241792D01*
X155562323Y-59241792D02*
X155371847Y-59194173D01*
X155371847Y-59194173D02*
X155038514Y-59194173D01*
X155038514Y-59194173D02*
X154848038Y-59241792D01*
X154848038Y-59241792D02*
X154752800Y-59337030D01*
X154752800Y-59337030D02*
X154705180Y-59432268D01*
X154705180Y-59432268D02*
X154705180Y-59622744D01*
X154705180Y-59622744D02*
X154752800Y-59717982D01*
X154752800Y-59717982D02*
X154848038Y-59813220D01*
X154848038Y-59813220D02*
X155038514Y-59860839D01*
X155038514Y-59860839D02*
X155371847Y-59860839D01*
X155371847Y-59860839D02*
X155562323Y-59813220D01*
X155562323Y-59813220D02*
X155657561Y-59717982D01*
X155657561Y-59717982D02*
X155705180Y-59622744D01*
X154705180Y-58765601D02*
X155705180Y-58765601D01*
X154705180Y-57813221D02*
X154705180Y-58289411D01*
X154705180Y-58289411D02*
X155705180Y-58289411D01*
X152688990Y-60479887D02*
X152688990Y-60813220D01*
X152165180Y-60813220D02*
X153165180Y-60813220D01*
X153165180Y-60813220D02*
X153165180Y-60337030D01*
X153165180Y-59956077D02*
X152355657Y-59956077D01*
X152355657Y-59956077D02*
X152260419Y-59908458D01*
X152260419Y-59908458D02*
X152212800Y-59860839D01*
X152212800Y-59860839D02*
X152165180Y-59765601D01*
X152165180Y-59765601D02*
X152165180Y-59575125D01*
X152165180Y-59575125D02*
X152212800Y-59479887D01*
X152212800Y-59479887D02*
X152260419Y-59432268D01*
X152260419Y-59432268D02*
X152355657Y-59384649D01*
X152355657Y-59384649D02*
X153165180Y-59384649D01*
X152688990Y-58908458D02*
X152688990Y-58575125D01*
X152165180Y-58432268D02*
X152165180Y-58908458D01*
X152165180Y-58908458D02*
X153165180Y-58908458D01*
X153165180Y-58908458D02*
X153165180Y-58432268D01*
X152165180Y-57527506D02*
X152165180Y-58003696D01*
X152165180Y-58003696D02*
X153165180Y-58003696D01*
D11*
%TO.C,R20*%
X169042500Y-103674724D02*
X169042500Y-103165276D01*
X170087500Y-103674724D02*
X170087500Y-103165276D01*
%TO.C,R2*%
X184372500Y-111170276D02*
X184372500Y-111679724D01*
X183327500Y-111170276D02*
X183327500Y-111679724D01*
%TO.C,C13*%
X172082500Y-89751267D02*
X172082500Y-89458733D01*
X173102500Y-89751267D02*
X173102500Y-89458733D01*
%TO.C,D3*%
X133415000Y-117485000D02*
X133415000Y-115025000D01*
X134885000Y-117485000D02*
X133415000Y-117485000D01*
X134885000Y-115025000D02*
X134885000Y-117485000D01*
%TO.C,R17*%
X164187500Y-103674724D02*
X164187500Y-103165276D01*
X165232500Y-103674724D02*
X165232500Y-103165276D01*
%TO.C,R19*%
X167487500Y-103674724D02*
X167487500Y-103165276D01*
X168532500Y-103674724D02*
X168532500Y-103165276D01*
%TO.C,R21*%
X161922500Y-103165276D02*
X161922500Y-103674724D01*
X160877500Y-103165276D02*
X160877500Y-103674724D01*
%TO.C,R8*%
X169082500Y-91125276D02*
X169082500Y-91634724D01*
X168037500Y-91125276D02*
X168037500Y-91634724D01*
%TO.C,R16*%
X162437500Y-103674724D02*
X162437500Y-103165276D01*
X163482500Y-103674724D02*
X163482500Y-103165276D01*
%TO.C,R18*%
X165932500Y-103674724D02*
X165932500Y-103165276D01*
X166977500Y-103674724D02*
X166977500Y-103165276D01*
%TO.C,C16*%
X164856267Y-100510000D02*
X164563733Y-100510000D01*
X164856267Y-99490000D02*
X164563733Y-99490000D01*
%TO.C,C15*%
X172082500Y-93211267D02*
X172082500Y-92918733D01*
X173102500Y-93211267D02*
X173102500Y-92918733D01*
%TO.C,R3*%
X134672500Y-111170276D02*
X134672500Y-111679724D01*
X133627500Y-111170276D02*
X133627500Y-111679724D01*
%TO.C,R5*%
X167054724Y-80162500D02*
X166545276Y-80162500D01*
X167054724Y-79117500D02*
X166545276Y-79117500D01*
%TO.C,C14*%
X170552500Y-93211267D02*
X170552500Y-92918733D01*
X171572500Y-93211267D02*
X171572500Y-92918733D01*
%TO.C,D1*%
X183115000Y-117485000D02*
X183115000Y-115025000D01*
X184585000Y-117485000D02*
X183115000Y-117485000D01*
X184585000Y-115025000D02*
X184585000Y-117485000D01*
%TO.C,R1*%
X149754724Y-111512500D02*
X149245276Y-111512500D01*
X149754724Y-110467500D02*
X149245276Y-110467500D01*
%TO.C,Q2*%
X163037500Y-79030000D02*
X162387500Y-79030000D01*
X163037500Y-79030000D02*
X163687500Y-79030000D01*
X163037500Y-82150000D02*
X161362500Y-82150000D01*
X163037500Y-82150000D02*
X163687500Y-82150000D01*
%TO.C,Q1*%
X170587500Y-82150000D02*
X171237500Y-82150000D01*
X170587500Y-82150000D02*
X169937500Y-82150000D01*
X170587500Y-79030000D02*
X172262500Y-79030000D01*
X170587500Y-79030000D02*
X169937500Y-79030000D01*
%TO.C,R4*%
X166545276Y-81017500D02*
X167054724Y-81017500D01*
X166545276Y-82062500D02*
X167054724Y-82062500D01*
%TD*%
M02*
