%TF.GenerationSoftware,KiCad,Pcbnew,7.0.8-7.0.8~ubuntu22.04.1*%
%TF.CreationDate,2023-11-06T20:13:05+08:00*%
%TF.ProjectId,ECU,4543552e-6b69-4636-9164-5f7063625858,rev?*%
%TF.SameCoordinates,Original*%
%TF.FileFunction,Copper,L2,Bot*%
%TF.FilePolarity,Positive*%
%FSLAX46Y46*%
G04 Gerber Fmt 4.6, Leading zero omitted, Abs format (unit mm)*
G04 Created by KiCad (PCBNEW 7.0.8-7.0.8~ubuntu22.04.1) date 2023-11-06 20:13:05*
%MOMM*%
%LPD*%
G01*
G04 APERTURE LIST*
G04 Aperture macros list*
%AMRoundRect*
0 Rectangle with rounded corners*
0 $1 Rounding radius*
0 $2 $3 $4 $5 $6 $7 $8 $9 X,Y pos of 4 corners*
0 Add a 4 corners polygon primitive as box body*
4,1,4,$2,$3,$4,$5,$6,$7,$8,$9,$2,$3,0*
0 Add four circle primitives for the rounded corners*
1,1,$1+$1,$2,$3*
1,1,$1+$1,$4,$5*
1,1,$1+$1,$6,$7*
1,1,$1+$1,$8,$9*
0 Add four rect primitives between the rounded corners*
20,1,$1+$1,$2,$3,$4,$5,0*
20,1,$1+$1,$4,$5,$6,$7,0*
20,1,$1+$1,$6,$7,$8,$9,0*
20,1,$1+$1,$8,$9,$2,$3,0*%
G04 Aperture macros list end*
%TA.AperFunction,ComponentPad*%
%ADD10RoundRect,0.250000X0.600000X0.725000X-0.600000X0.725000X-0.600000X-0.725000X0.600000X-0.725000X0*%
%TD*%
%TA.AperFunction,ComponentPad*%
%ADD11O,1.700000X1.950000*%
%TD*%
%TA.AperFunction,ComponentPad*%
%ADD12RoundRect,0.250000X-0.750000X0.600000X-0.750000X-0.600000X0.750000X-0.600000X0.750000X0.600000X0*%
%TD*%
%TA.AperFunction,ComponentPad*%
%ADD13O,2.000000X1.700000*%
%TD*%
%TA.AperFunction,ComponentPad*%
%ADD14RoundRect,0.250000X1.850000X-1.330000X1.850000X1.330000X-1.850000X1.330000X-1.850000X-1.330000X0*%
%TD*%
%TA.AperFunction,ComponentPad*%
%ADD15O,4.200000X3.160000*%
%TD*%
%TA.AperFunction,ComponentPad*%
%ADD16R,1.400000X1.400000*%
%TD*%
%TA.AperFunction,ComponentPad*%
%ADD17C,1.400000*%
%TD*%
%TA.AperFunction,ComponentPad*%
%ADD18C,3.000000*%
%TD*%
%TA.AperFunction,ComponentPad*%
%ADD19RoundRect,0.250000X-1.850000X1.330000X-1.850000X-1.330000X1.850000X-1.330000X1.850000X1.330000X0*%
%TD*%
%TA.AperFunction,ComponentPad*%
%ADD20R,1.700000X1.700000*%
%TD*%
%TA.AperFunction,ComponentPad*%
%ADD21O,1.700000X1.700000*%
%TD*%
%TA.AperFunction,SMDPad,CuDef*%
%ADD22RoundRect,0.225000X0.225000X0.250000X-0.225000X0.250000X-0.225000X-0.250000X0.225000X-0.250000X0*%
%TD*%
%TA.AperFunction,SMDPad,CuDef*%
%ADD23RoundRect,0.225000X-0.250000X0.225000X-0.250000X-0.225000X0.250000X-0.225000X0.250000X0.225000X0*%
%TD*%
%TA.AperFunction,ViaPad*%
%ADD24C,0.500000*%
%TD*%
%TA.AperFunction,Conductor*%
%ADD25C,1.000000*%
%TD*%
%TA.AperFunction,Conductor*%
%ADD26C,0.250000*%
%TD*%
%TA.AperFunction,Conductor*%
%ADD27C,3.000000*%
%TD*%
%TA.AperFunction,Conductor*%
%ADD28C,0.500000*%
%TD*%
%TA.AperFunction,Conductor*%
%ADD29C,1.500000*%
%TD*%
G04 APERTURE END LIST*
D10*
%TO.P,J1,1,Pin_1*%
%TO.N,GND*%
X154600000Y-72700000D03*
D11*
%TO.P,J1,2,Pin_2*%
%TO.N,/IAT*%
X152100000Y-72700000D03*
%TO.P,J1,3,Pin_3*%
%TO.N,/MPS*%
X149600000Y-72700000D03*
%TO.P,J1,4,Pin_4*%
%TO.N,/TPS*%
X147100000Y-72700000D03*
%TO.P,J1,5,Pin_5*%
%TO.N,/AFR*%
X144600000Y-72700000D03*
%TO.P,J1,6,Pin_6*%
%TO.N,+5V*%
X142100000Y-72700000D03*
%TD*%
D12*
%TO.P,J8,1,Pin_1*%
%TO.N,Net-(J8-Pin_1)*%
X149225000Y-118151250D03*
D13*
%TO.P,J8,2,Pin_2*%
%TO.N,GND*%
X149225000Y-120651250D03*
%TD*%
D14*
%TO.P,J5,1,Pin_1*%
%TO.N,-BATT*%
X165380000Y-124210000D03*
D15*
%TO.P,J5,2,Pin_2*%
%TO.N,+BATT*%
X165380000Y-120250000D03*
%TD*%
D10*
%TO.P,J3,1,Pin_1*%
%TO.N,GND*%
X129600000Y-72700000D03*
D11*
%TO.P,J3,2,Pin_2*%
%TO.N,/FSPI_CS*%
X127100000Y-72700000D03*
%TO.P,J3,3,Pin_3*%
%TO.N,/FSPI_MOSI*%
X124600000Y-72700000D03*
%TO.P,J3,4,Pin_4*%
%TO.N,/FSPI_CLK*%
X122100000Y-72700000D03*
%TO.P,J3,5,Pin_5*%
%TO.N,/FSPI_MISO*%
X119600000Y-72700000D03*
%TO.P,J3,6,Pin_6*%
%TO.N,+5V*%
X117100000Y-72700000D03*
%TD*%
D16*
%TO.P,J4,1,VBUS*%
%TO.N,Net-(D7-A)*%
X128410000Y-87900000D03*
D17*
%TO.P,J4,2,D-*%
%TO.N,/USB_D-*%
X128410000Y-85400000D03*
%TO.P,J4,3,D+*%
%TO.N,/USB_D+*%
X125210000Y-85400000D03*
%TO.P,J4,4,GND*%
%TO.N,GND*%
X125210000Y-87900000D03*
D18*
%TO.P,J4,5,Shield*%
X125700000Y-80630000D03*
X125700000Y-92670000D03*
%TD*%
D19*
%TO.P,J6,1,Pin_1*%
%TO.N,/COIL*%
X209690000Y-83300000D03*
D15*
%TO.P,J6,2,Pin_2*%
%TO.N,+BATT*%
X209690000Y-87260000D03*
%TO.P,J6,3,Pin_3*%
%TO.N,/FUEL*%
X209690000Y-91220000D03*
%TO.P,J6,4,Pin_4*%
%TO.N,+BATT*%
X209690000Y-95180000D03*
%TO.P,J6,5,Pin_5*%
%TO.N,/PUMP*%
X209690000Y-99140000D03*
%TO.P,J6,6,Pin_6*%
%TO.N,+BATT*%
X209690000Y-103100000D03*
%TD*%
D20*
%TO.P,JP1,1,A*%
%TO.N,Net-(IC4-IO0)*%
X117000000Y-118010000D03*
D21*
%TO.P,JP1,2,B*%
%TO.N,GND*%
X117000000Y-115470000D03*
%TD*%
D22*
%TO.P,C21,2*%
%TO.N,+3.3V*%
X147300000Y-83612500D03*
%TO.P,C21,1*%
%TO.N,GND*%
X148850000Y-83612500D03*
%TD*%
D23*
%TO.P,C13,1*%
%TO.N,GND*%
X147180000Y-132050000D03*
%TO.P,C13,2*%
%TO.N,+3.3V*%
X147180000Y-133600000D03*
%TD*%
D24*
%TO.N,+3.3V*%
X143830000Y-131320000D03*
%TO.N,GND*%
X158530000Y-128540000D03*
%TO.N,+3.3V*%
X157800000Y-130790000D03*
%TO.N,GND*%
X139070000Y-96760000D03*
%TO.N,+3.3V*%
X137530000Y-97260000D03*
%TO.N,GND*%
X139760000Y-100750000D03*
X138220000Y-100750000D03*
X171640000Y-136550000D03*
X145500000Y-81112500D03*
X121900000Y-116150000D03*
X170500000Y-83250000D03*
X147600000Y-89812500D03*
X134620000Y-124610000D03*
X132750000Y-103500000D03*
X202300000Y-137350000D03*
X142700000Y-135000000D03*
X207800000Y-138625000D03*
X204675000Y-126600000D03*
X192775000Y-133700000D03*
X124340000Y-74220000D03*
X146670000Y-136940000D03*
X169840000Y-137750000D03*
X180000000Y-79000000D03*
X181800000Y-79000000D03*
X178200000Y-109600000D03*
X171040000Y-138350000D03*
X171040000Y-136550000D03*
X182575000Y-135800000D03*
X180600000Y-109600000D03*
X124100000Y-85950000D03*
X146100000Y-89812500D03*
X170440000Y-138350000D03*
X178800000Y-109600000D03*
X172240000Y-138950000D03*
X171640000Y-138950000D03*
X172240000Y-136550000D03*
X135260000Y-121250000D03*
X149900000Y-81112500D03*
X170440000Y-136550000D03*
X144750500Y-134470000D03*
X182400000Y-112400000D03*
X182400000Y-109600000D03*
X178200000Y-97200000D03*
X131475000Y-103500000D03*
X172840000Y-136550000D03*
X170000000Y-86400000D03*
X150670000Y-134810000D03*
X183600000Y-79000000D03*
X165750000Y-85300000D03*
X181800000Y-81800000D03*
X132200000Y-98950000D03*
X182400000Y-94400000D03*
X180600000Y-97200000D03*
X183000000Y-97200000D03*
X183000000Y-112400000D03*
X178800000Y-112400000D03*
X148350000Y-80262500D03*
X135000000Y-96800000D03*
X196175000Y-134300000D03*
X178800000Y-79000000D03*
X181800000Y-109600000D03*
X172840000Y-137750000D03*
X182400000Y-79000000D03*
X209775000Y-141400000D03*
X151200000Y-81112500D03*
X122575000Y-94975000D03*
X178200000Y-94400000D03*
X183600000Y-112400000D03*
X196175000Y-127600000D03*
X134000000Y-103500000D03*
X192775000Y-127600000D03*
X131450000Y-121250000D03*
X167300000Y-87650000D03*
X179400000Y-81800000D03*
X204675000Y-121800000D03*
X183000000Y-81800000D03*
X178200000Y-79000000D03*
X169840000Y-137150000D03*
X183600000Y-81800000D03*
X139700000Y-119800000D03*
X193400000Y-134300000D03*
X137200000Y-121250000D03*
X128309617Y-126181430D03*
X172840000Y-138950000D03*
X119490000Y-112310000D03*
X135450000Y-103500000D03*
X169840000Y-138350000D03*
X172840000Y-138350000D03*
X119500000Y-109760000D03*
X181800000Y-94400000D03*
X152100000Y-81497741D03*
X159490000Y-133620000D03*
X191500000Y-130625000D03*
X179400000Y-94400000D03*
X180000000Y-81800000D03*
X180500000Y-138625000D03*
X198950000Y-134300000D03*
X130200000Y-100800000D03*
X122580000Y-97540000D03*
X170440000Y-137150000D03*
X209775000Y-135900000D03*
X178200000Y-112400000D03*
X133990000Y-121250000D03*
X181800000Y-112400000D03*
X144000000Y-86112500D03*
X180000000Y-112400000D03*
X190000000Y-142200000D03*
X179400000Y-97200000D03*
X146670000Y-135760000D03*
X183000000Y-79000000D03*
X178800000Y-97200000D03*
X183000000Y-109600000D03*
X171640000Y-137150000D03*
X142900000Y-132900000D03*
X122040000Y-74230000D03*
X121900000Y-117400000D03*
X148350000Y-84662500D03*
X130180000Y-121250000D03*
X180600000Y-94400000D03*
X180000000Y-97200000D03*
X179400000Y-109600000D03*
X136800000Y-96800000D03*
X138450000Y-103800000D03*
X183600000Y-97200000D03*
X181200000Y-94400000D03*
X128910000Y-121250000D03*
X183600000Y-109600000D03*
X182400000Y-97200000D03*
X131478798Y-126336394D03*
X144600000Y-81497741D03*
X202700000Y-124200000D03*
X181200000Y-109600000D03*
X169840000Y-138950000D03*
X130900000Y-90000000D03*
X136600614Y-124818063D03*
X179400000Y-79000000D03*
X132720000Y-121250000D03*
X180600000Y-112400000D03*
X171040000Y-137750000D03*
X180600000Y-81800000D03*
X151900000Y-82812500D03*
X119510000Y-111050000D03*
X121900000Y-118575000D03*
X180000000Y-109600000D03*
X127640000Y-121250000D03*
X183000000Y-94400000D03*
X178200000Y-81800000D03*
X196175000Y-133600000D03*
X149100000Y-89812500D03*
X171640000Y-137750000D03*
X170440000Y-137750000D03*
X118000000Y-143207532D03*
X122000000Y-103675000D03*
X172240000Y-137750000D03*
X172840000Y-137150000D03*
X211800000Y-138625000D03*
X171040000Y-138950000D03*
X144800000Y-82812500D03*
X132720000Y-124260000D03*
X206700000Y-124200000D03*
X181200000Y-79000000D03*
X118000000Y-142400000D03*
X181200000Y-81800000D03*
X146800000Y-81112500D03*
X202300000Y-142200000D03*
X126850000Y-74260000D03*
X126150500Y-126066976D03*
X167300000Y-83250000D03*
X118300000Y-114500000D03*
X171640000Y-138350000D03*
X119380000Y-74230000D03*
X171040000Y-137150000D03*
X136900000Y-88000000D03*
X180600000Y-79000000D03*
X138500000Y-118300000D03*
X172240000Y-138350000D03*
X178800000Y-94400000D03*
X139800000Y-108675000D03*
X179400000Y-112400000D03*
X180000000Y-94400000D03*
X178800000Y-81800000D03*
X184700000Y-138625000D03*
X181800000Y-97200000D03*
X181200000Y-97200000D03*
X181200000Y-112400000D03*
X190000000Y-137350000D03*
X119470000Y-108520000D03*
X119500000Y-117200000D03*
X128950000Y-100800000D03*
X183600000Y-94400000D03*
X202300000Y-139775000D03*
X182575000Y-141500000D03*
X170440000Y-138950000D03*
X172240000Y-137150000D03*
X182400000Y-81800000D03*
X167700000Y-85300000D03*
X190000000Y-139775000D03*
X169840000Y-136550000D03*
%TO.N,+3.3V*%
X134100000Y-82200000D03*
X131700000Y-127000000D03*
X147600000Y-88812500D03*
X149100000Y-88812500D03*
X137180000Y-125210000D03*
X118000000Y-122000000D03*
X144100000Y-137900000D03*
X128740000Y-125630000D03*
X140800000Y-112725000D03*
X118000000Y-123000000D03*
X147300000Y-82712500D03*
X140800000Y-111150000D03*
X146100000Y-88812500D03*
X126700000Y-125630000D03*
X133150000Y-98950000D03*
X147490000Y-136350000D03*
X148190000Y-133600000D03*
X134210448Y-124042928D03*
X118000000Y-124000000D03*
%TO.N,+5V*%
X164600000Y-143200000D03*
X165600000Y-143200000D03*
X166600000Y-143200000D03*
%TO.N,+BATT*%
X155700000Y-93600000D03*
X155700000Y-108000000D03*
X217100000Y-123350000D03*
X155700000Y-100800000D03*
X217100000Y-126370000D03*
X217100000Y-124860000D03*
%TO.N,Net-(D7-A)*%
X114740000Y-117385000D03*
X114740000Y-118285000D03*
X122580000Y-99670000D03*
X114740000Y-119185000D03*
%TO.N,+BATT*%
X170850000Y-92200000D03*
X170850000Y-91250000D03*
%TD*%
D25*
%TO.N,+3.3V*%
X140800000Y-90556497D02*
X140800000Y-88820000D01*
X140800000Y-88820000D02*
X140800000Y-82200000D01*
X146100000Y-88812500D02*
X140807500Y-88812500D01*
X140807500Y-88812500D02*
X140800000Y-88820000D01*
X145700000Y-129600000D02*
X145700000Y-131360000D01*
X145700000Y-131360000D02*
X145700000Y-133600000D01*
D26*
X143830000Y-131320000D02*
X145660000Y-131320000D01*
X145660000Y-131320000D02*
X145700000Y-131360000D01*
D27*
%TO.N,+BATT*%
X182790000Y-104410000D02*
X170900000Y-104410000D01*
X170900000Y-104410000D02*
X157900000Y-104410000D01*
D28*
X170850000Y-91250000D02*
X170850000Y-104360000D01*
X170850000Y-104360000D02*
X170900000Y-104410000D01*
D25*
%TO.N,+3.3V*%
X145700000Y-128700000D02*
X145700000Y-129600000D01*
D26*
X157800000Y-130790000D02*
X149690000Y-130790000D01*
X149690000Y-130790000D02*
X148500000Y-129600000D01*
X148500000Y-129600000D02*
X145700000Y-129600000D01*
D29*
%TO.N,+5V*%
X151900000Y-92600000D02*
X151900000Y-118530000D01*
X165600000Y-143200000D02*
X165600000Y-132230000D01*
X165600000Y-132230000D02*
X151900000Y-118530000D01*
X164600000Y-143200000D02*
X166600000Y-143200000D01*
D25*
%TO.N,+3.3V*%
X137540000Y-98960000D02*
X140800000Y-98960000D01*
X133160000Y-98960000D02*
X137540000Y-98960000D01*
D28*
X137530000Y-97260000D02*
X137530000Y-98950000D01*
X137530000Y-98950000D02*
X137540000Y-98960000D01*
D25*
X140800000Y-110900000D02*
X140800000Y-98960000D01*
X140800000Y-98960000D02*
X140800000Y-97700000D01*
D26*
X133150000Y-98950000D02*
X133160000Y-98960000D01*
D25*
X124500000Y-117050000D02*
X137300000Y-117050000D01*
D26*
X137180000Y-126380000D02*
X137200000Y-126400000D01*
X132700000Y-126000000D02*
X132700000Y-125900000D01*
D25*
X136100000Y-126400000D02*
X143400000Y-126400000D01*
X140800000Y-97700000D02*
X140800000Y-91900000D01*
X145700000Y-133600000D02*
X145700000Y-134700000D01*
D26*
X134210448Y-124042928D02*
X132700000Y-125553376D01*
D25*
X136100000Y-126400000D02*
X137200000Y-126400000D01*
X123200000Y-118350000D02*
X124500000Y-117050000D01*
X140800000Y-113550000D02*
X140800000Y-112725000D01*
X145700000Y-134700000D02*
X145700000Y-136340000D01*
X143400000Y-126400000D02*
X145700000Y-128700000D01*
D26*
X134100000Y-82200000D02*
X140800000Y-82200000D01*
X144100000Y-137900000D02*
X145700000Y-137900000D01*
D25*
X126700000Y-124500000D02*
X128800000Y-124500000D01*
D29*
X118000000Y-124000000D02*
X118000000Y-122000000D01*
D25*
X126700000Y-124500000D02*
X123200000Y-124500000D01*
X123200000Y-124500000D02*
X123200000Y-118350000D01*
D26*
X147300000Y-88512500D02*
X147600000Y-88812500D01*
X128740000Y-124560000D02*
X128800000Y-124500000D01*
X137180000Y-125210000D02*
X137180000Y-126380000D01*
D29*
X118500000Y-124500000D02*
X123200000Y-124500000D01*
D26*
X145710000Y-136350000D02*
X145700000Y-136340000D01*
D25*
X140800000Y-112725000D02*
X140800000Y-110900000D01*
X128800000Y-124500000D02*
X131300000Y-124500000D01*
D26*
X148190000Y-133600000D02*
X145700000Y-133600000D01*
D25*
X131300000Y-124500000D02*
X132700000Y-125900000D01*
D26*
X131700000Y-127000000D02*
X132700000Y-126000000D01*
D25*
X137300000Y-117050000D02*
X140800000Y-113550000D01*
X145700000Y-136340000D02*
X145700000Y-137900000D01*
D26*
X128740000Y-125630000D02*
X128740000Y-124560000D01*
D25*
X147600000Y-88812500D02*
X149100000Y-88812500D01*
X133200000Y-126400000D02*
X136100000Y-126400000D01*
D26*
X132700000Y-125553376D02*
X132700000Y-125900000D01*
X126700000Y-125630000D02*
X126700000Y-124500000D01*
D29*
X118500000Y-124500000D02*
X118000000Y-124000000D01*
D25*
X140800000Y-90556497D02*
X140800000Y-91900000D01*
X146100000Y-88812500D02*
X147600000Y-88812500D01*
X132700000Y-125900000D02*
X133200000Y-126400000D01*
D26*
X147300000Y-82712500D02*
X147300000Y-88512500D01*
X147490000Y-136350000D02*
X145710000Y-136350000D01*
D29*
%TO.N,+5V*%
X142100000Y-68600000D02*
X158500000Y-68600000D01*
X117100000Y-68600000D02*
X117100000Y-72700000D01*
X158500000Y-68600000D02*
X158500000Y-86000000D01*
X142100000Y-68600000D02*
X117100000Y-68600000D01*
X158500000Y-86000000D02*
X151900000Y-92600000D01*
X142100000Y-72700000D02*
X142100000Y-68600000D01*
D28*
%TO.N,+BATT*%
X157800000Y-108000000D02*
X157900000Y-107900000D01*
D27*
X217100000Y-95200000D02*
X217100000Y-87300000D01*
X157900000Y-107900000D02*
X157900000Y-115550000D01*
X157900000Y-107900000D02*
X157900000Y-104410000D01*
X217100000Y-124860000D02*
X217100000Y-123350000D01*
X192020000Y-95180000D02*
X182790000Y-104410000D01*
X216700000Y-103100000D02*
X217100000Y-103500000D01*
D28*
X155700000Y-93600000D02*
X157900000Y-93600000D01*
D27*
X157900000Y-115550000D02*
X162600000Y-120250000D01*
X162600000Y-120250000D02*
X165380000Y-120250000D01*
X209690000Y-95180000D02*
X217080000Y-95180000D01*
X209690000Y-103100000D02*
X216700000Y-103100000D01*
X217100000Y-126370000D02*
X217100000Y-124860000D01*
X157900000Y-104410000D02*
X157900000Y-100700000D01*
X217060000Y-87260000D02*
X209690000Y-87260000D01*
D28*
X155700000Y-108000000D02*
X157800000Y-108000000D01*
D27*
X217080000Y-95180000D02*
X217100000Y-95200000D01*
X217100000Y-87300000D02*
X217060000Y-87260000D01*
X217100000Y-103500000D02*
X217100000Y-95200000D01*
X217100000Y-123350000D02*
X217100000Y-103500000D01*
D28*
X155700000Y-100800000D02*
X157800000Y-100800000D01*
X157800000Y-100800000D02*
X157900000Y-100700000D01*
D27*
X157900000Y-100700000D02*
X157900000Y-93600000D01*
X209690000Y-95180000D02*
X192020000Y-95180000D01*
D25*
%TO.N,Net-(D7-A)*%
X122580000Y-99670000D02*
X125800000Y-99670000D01*
X128410000Y-97060000D02*
X128410000Y-87900000D01*
X125800000Y-99670000D02*
X128410000Y-97060000D01*
X116430000Y-99670000D02*
X114740000Y-101360000D01*
X114740000Y-101360000D02*
X114740000Y-119185000D01*
X122580000Y-99670000D02*
X116430000Y-99670000D01*
%TD*%
%TA.AperFunction,Conductor*%
%TO.N,GND*%
G36*
X119002695Y-50000735D02*
G01*
X119045519Y-50004482D01*
X119171771Y-50016918D01*
X119191685Y-50020541D01*
X119258349Y-50038403D01*
X119351570Y-50066682D01*
X119367971Y-50072958D01*
X119435411Y-50104406D01*
X119438375Y-50105888D01*
X119475969Y-50125982D01*
X119522327Y-50150762D01*
X119528667Y-50154657D01*
X119594828Y-50200983D01*
X119598600Y-50203844D01*
X119670808Y-50263103D01*
X119675309Y-50267182D01*
X119732815Y-50324688D01*
X119736895Y-50329190D01*
X119796154Y-50401398D01*
X119799015Y-50405170D01*
X119845341Y-50471331D01*
X119849236Y-50477671D01*
X119894101Y-50561605D01*
X119895614Y-50564631D01*
X119927040Y-50632027D01*
X119933319Y-50648435D01*
X119961601Y-50741669D01*
X119979454Y-50808299D01*
X119983082Y-50828238D01*
X119995523Y-50954554D01*
X119999264Y-50997302D01*
X119999500Y-51002710D01*
X119999500Y-54087534D01*
X120029898Y-54259937D01*
X120089775Y-54424446D01*
X120177309Y-54576057D01*
X120289836Y-54710163D01*
X120423942Y-54822690D01*
X120423943Y-54822691D01*
X120423945Y-54822692D01*
X120575555Y-54910225D01*
X120740062Y-54970101D01*
X120912468Y-55000500D01*
X120912472Y-55000500D01*
X214087528Y-55000500D01*
X214087532Y-55000500D01*
X214259938Y-54970101D01*
X214424445Y-54910225D01*
X214576055Y-54822692D01*
X214710163Y-54710163D01*
X214822692Y-54576055D01*
X214910225Y-54424445D01*
X214970101Y-54259938D01*
X215000500Y-54087532D01*
X215000500Y-54000000D01*
X215000500Y-53999500D01*
X215000500Y-51002705D01*
X215000736Y-50997299D01*
X215004476Y-50954554D01*
X215016918Y-50828223D01*
X215020542Y-50808309D01*
X215038402Y-50741653D01*
X215066683Y-50648424D01*
X215072953Y-50632037D01*
X215104420Y-50564558D01*
X215105872Y-50561653D01*
X215150764Y-50477666D01*
X215154657Y-50471331D01*
X215187837Y-50423945D01*
X215200994Y-50405155D01*
X215203827Y-50401420D01*
X215263122Y-50329168D01*
X215267162Y-50324710D01*
X215324710Y-50267162D01*
X215329168Y-50263122D01*
X215401420Y-50203827D01*
X215405155Y-50200994D01*
X215471334Y-50154654D01*
X215477666Y-50150764D01*
X215561653Y-50105872D01*
X215564558Y-50104420D01*
X215632037Y-50072953D01*
X215648424Y-50066683D01*
X215741653Y-50038402D01*
X215808309Y-50020542D01*
X215828223Y-50016918D01*
X215954542Y-50004477D01*
X215997305Y-50000735D01*
X216002706Y-50000500D01*
X223997293Y-50000500D01*
X224002695Y-50000735D01*
X224045519Y-50004482D01*
X224171771Y-50016918D01*
X224191685Y-50020541D01*
X224258349Y-50038403D01*
X224351570Y-50066682D01*
X224367971Y-50072958D01*
X224435411Y-50104406D01*
X224438375Y-50105888D01*
X224475969Y-50125982D01*
X224522327Y-50150762D01*
X224528667Y-50154657D01*
X224594828Y-50200983D01*
X224598600Y-50203844D01*
X224670808Y-50263103D01*
X224675309Y-50267182D01*
X224732815Y-50324688D01*
X224736895Y-50329190D01*
X224796154Y-50401398D01*
X224799015Y-50405170D01*
X224845341Y-50471331D01*
X224849236Y-50477671D01*
X224894101Y-50561605D01*
X224895614Y-50564631D01*
X224927040Y-50632027D01*
X224933319Y-50648435D01*
X224961601Y-50741669D01*
X224979454Y-50808299D01*
X224983082Y-50828238D01*
X224995523Y-50954554D01*
X224999264Y-50997302D01*
X224999500Y-51002710D01*
X224999500Y-148997289D01*
X224999264Y-149002697D01*
X224995523Y-149045445D01*
X224983082Y-149171760D01*
X224979454Y-149191699D01*
X224961601Y-149258330D01*
X224933318Y-149351563D01*
X224927040Y-149367971D01*
X224895614Y-149435367D01*
X224894101Y-149438393D01*
X224849236Y-149522327D01*
X224845341Y-149528667D01*
X224799015Y-149594828D01*
X224796154Y-149598600D01*
X224736895Y-149670808D01*
X224732806Y-149675320D01*
X224675320Y-149732806D01*
X224670808Y-149736895D01*
X224598600Y-149796154D01*
X224594828Y-149799015D01*
X224528667Y-149845341D01*
X224522327Y-149849236D01*
X224438393Y-149894101D01*
X224435367Y-149895614D01*
X224367971Y-149927040D01*
X224351563Y-149933318D01*
X224258330Y-149961601D01*
X224191699Y-149979454D01*
X224171760Y-149983082D01*
X224045445Y-149995523D01*
X224004789Y-149999080D01*
X224002696Y-149999264D01*
X223997290Y-149999500D01*
X216002710Y-149999500D01*
X215997303Y-149999264D01*
X215995015Y-149999063D01*
X215954554Y-149995523D01*
X215828238Y-149983082D01*
X215808299Y-149979454D01*
X215741669Y-149961601D01*
X215648435Y-149933319D01*
X215632027Y-149927040D01*
X215583433Y-149904381D01*
X215564618Y-149895607D01*
X215561605Y-149894101D01*
X215477671Y-149849236D01*
X215471331Y-149845341D01*
X215405170Y-149799015D01*
X215401398Y-149796154D01*
X215329190Y-149736895D01*
X215324688Y-149732815D01*
X215267182Y-149675309D01*
X215263103Y-149670808D01*
X215203844Y-149598600D01*
X215200983Y-149594828D01*
X215154657Y-149528667D01*
X215150762Y-149522327D01*
X215125982Y-149475969D01*
X215105888Y-149438375D01*
X215104406Y-149435411D01*
X215072958Y-149367971D01*
X215066682Y-149351570D01*
X215038398Y-149258330D01*
X215020541Y-149191685D01*
X215016918Y-149171771D01*
X215004482Y-149045519D01*
X215000735Y-149002695D01*
X215000500Y-148997293D01*
X215000500Y-145912472D01*
X215000500Y-145912468D01*
X214970101Y-145740062D01*
X214910225Y-145575555D01*
X214822692Y-145423945D01*
X214822691Y-145423943D01*
X214822690Y-145423942D01*
X214710163Y-145289836D01*
X214576057Y-145177309D01*
X214424446Y-145089775D01*
X214259937Y-145029898D01*
X214087534Y-144999500D01*
X214087532Y-144999500D01*
X214000099Y-144999500D01*
X121000500Y-144999500D01*
X121000000Y-144999500D01*
X120912468Y-144999500D01*
X120912465Y-144999500D01*
X120740062Y-145029898D01*
X120575553Y-145089775D01*
X120423942Y-145177309D01*
X120289836Y-145289836D01*
X120177309Y-145423942D01*
X120089775Y-145575553D01*
X120029898Y-145740062D01*
X119999500Y-145912465D01*
X119999500Y-148997289D01*
X119999264Y-149002697D01*
X119995523Y-149045445D01*
X119983082Y-149171760D01*
X119979454Y-149191699D01*
X119961601Y-149258330D01*
X119933318Y-149351563D01*
X119927040Y-149367971D01*
X119895614Y-149435367D01*
X119894101Y-149438393D01*
X119849236Y-149522327D01*
X119845341Y-149528667D01*
X119799015Y-149594828D01*
X119796154Y-149598600D01*
X119736895Y-149670808D01*
X119732806Y-149675320D01*
X119675320Y-149732806D01*
X119670808Y-149736895D01*
X119598600Y-149796154D01*
X119594828Y-149799015D01*
X119528667Y-149845341D01*
X119522327Y-149849236D01*
X119438393Y-149894101D01*
X119435367Y-149895614D01*
X119367971Y-149927040D01*
X119351563Y-149933318D01*
X119258330Y-149961601D01*
X119191699Y-149979454D01*
X119171760Y-149983082D01*
X119045445Y-149995523D01*
X119004789Y-149999080D01*
X119002696Y-149999264D01*
X118997290Y-149999500D01*
X111002710Y-149999500D01*
X110997303Y-149999264D01*
X110995015Y-149999063D01*
X110954554Y-149995523D01*
X110828238Y-149983082D01*
X110808299Y-149979454D01*
X110741669Y-149961601D01*
X110648435Y-149933319D01*
X110632027Y-149927040D01*
X110583433Y-149904381D01*
X110564618Y-149895607D01*
X110561605Y-149894101D01*
X110477671Y-149849236D01*
X110471331Y-149845341D01*
X110405170Y-149799015D01*
X110401398Y-149796154D01*
X110329190Y-149736895D01*
X110324688Y-149732815D01*
X110267182Y-149675309D01*
X110263103Y-149670808D01*
X110203844Y-149598600D01*
X110200983Y-149594828D01*
X110154657Y-149528667D01*
X110150762Y-149522327D01*
X110125982Y-149475969D01*
X110105888Y-149438375D01*
X110104406Y-149435411D01*
X110072958Y-149367971D01*
X110066682Y-149351570D01*
X110038398Y-149258330D01*
X110020541Y-149191685D01*
X110016918Y-149171771D01*
X110004482Y-149045519D01*
X110000735Y-149002695D01*
X110000500Y-148997293D01*
X110000500Y-140893933D01*
X127315668Y-140893933D01*
X127331058Y-140981210D01*
X127346135Y-141066711D01*
X127415623Y-141227804D01*
X127415624Y-141227806D01*
X127415626Y-141227809D01*
X127470278Y-141301218D01*
X127520390Y-141368530D01*
X127654786Y-141481302D01*
X127732488Y-141520325D01*
X127811562Y-141560038D01*
X127811563Y-141560038D01*
X127811567Y-141560040D01*
X127982279Y-141600500D01*
X127982282Y-141600500D01*
X128113701Y-141600500D01*
X128113709Y-141600500D01*
X128244255Y-141585241D01*
X128409117Y-141525237D01*
X128555696Y-141428830D01*
X128676092Y-141301218D01*
X128763812Y-141149281D01*
X128814130Y-140981210D01*
X128819213Y-140893933D01*
X135295668Y-140893933D01*
X135311058Y-140981210D01*
X135326135Y-141066711D01*
X135395623Y-141227804D01*
X135395624Y-141227806D01*
X135395626Y-141227809D01*
X135450278Y-141301218D01*
X135500390Y-141368530D01*
X135634786Y-141481302D01*
X135712488Y-141520325D01*
X135791562Y-141560038D01*
X135791563Y-141560038D01*
X135791567Y-141560040D01*
X135962279Y-141600500D01*
X135962282Y-141600500D01*
X136093701Y-141600500D01*
X136093709Y-141600500D01*
X136224255Y-141585241D01*
X136389117Y-141525237D01*
X136535696Y-141428830D01*
X136656092Y-141301218D01*
X136743812Y-141149281D01*
X136794130Y-140981210D01*
X136804331Y-140806065D01*
X136773865Y-140633289D01*
X136704377Y-140472196D01*
X136599610Y-140331470D01*
X136527747Y-140271170D01*
X136465214Y-140218698D01*
X136465212Y-140218697D01*
X136308437Y-140139961D01*
X136308433Y-140139960D01*
X136137721Y-140099500D01*
X136006291Y-140099500D01*
X135901854Y-140111707D01*
X135875743Y-140114759D01*
X135875740Y-140114760D01*
X135710884Y-140174762D01*
X135710880Y-140174764D01*
X135564306Y-140271167D01*
X135564305Y-140271168D01*
X135443910Y-140398778D01*
X135356188Y-140550718D01*
X135305870Y-140718789D01*
X135305869Y-140718794D01*
X135295668Y-140893933D01*
X128819213Y-140893933D01*
X128824331Y-140806065D01*
X128793865Y-140633289D01*
X128724377Y-140472196D01*
X128619610Y-140331470D01*
X128547747Y-140271170D01*
X128485214Y-140218698D01*
X128485212Y-140218697D01*
X128328437Y-140139961D01*
X128328433Y-140139960D01*
X128157721Y-140099500D01*
X128026291Y-140099500D01*
X127921854Y-140111707D01*
X127895743Y-140114759D01*
X127895740Y-140114760D01*
X127730884Y-140174762D01*
X127730880Y-140174764D01*
X127584306Y-140271167D01*
X127584305Y-140271168D01*
X127463910Y-140398778D01*
X127376188Y-140550718D01*
X127325870Y-140718789D01*
X127325869Y-140718794D01*
X127315668Y-140893933D01*
X110000500Y-140893933D01*
X110000500Y-124072546D01*
X117047355Y-124072546D01*
X117057615Y-124129787D01*
X117058269Y-124134452D01*
X117064154Y-124192318D01*
X117064156Y-124192326D01*
X117073865Y-124223269D01*
X117075737Y-124230898D01*
X117081460Y-124262828D01*
X117081461Y-124262830D01*
X117103032Y-124316833D01*
X117104613Y-124321272D01*
X117122025Y-124376768D01*
X117137765Y-124405125D01*
X117141135Y-124412221D01*
X117153168Y-124442343D01*
X117153170Y-124442348D01*
X117153172Y-124442351D01*
X117153173Y-124442353D01*
X117185174Y-124490908D01*
X117187605Y-124494920D01*
X117206936Y-124529747D01*
X117215841Y-124545791D01*
X117236972Y-124570406D01*
X117241703Y-124576680D01*
X117259547Y-124603757D01*
X117300667Y-124644877D01*
X117303870Y-124648333D01*
X117323814Y-124671564D01*
X117341760Y-124692468D01*
X117341764Y-124692471D01*
X117341765Y-124692472D01*
X117367407Y-124712320D01*
X117373303Y-124717513D01*
X117819372Y-125163582D01*
X117877674Y-125224917D01*
X117925414Y-125258145D01*
X117929161Y-125260970D01*
X117950531Y-125278395D01*
X117974244Y-125297731D01*
X117974247Y-125297733D01*
X118002995Y-125312749D01*
X118009716Y-125316821D01*
X118028046Y-125329578D01*
X118036342Y-125335353D01*
X118089800Y-125358293D01*
X118094047Y-125360311D01*
X118145594Y-125387237D01*
X118176781Y-125396160D01*
X118184169Y-125398790D01*
X118213988Y-125411587D01*
X118270970Y-125423296D01*
X118275516Y-125424411D01*
X118331449Y-125440417D01*
X118363803Y-125442879D01*
X118371562Y-125443968D01*
X118403344Y-125450500D01*
X118461504Y-125450500D01*
X118466210Y-125450678D01*
X118489623Y-125452461D01*
X118524201Y-125455095D01*
X118524201Y-125455094D01*
X118524203Y-125455095D01*
X118556385Y-125450996D01*
X118564215Y-125450500D01*
X123248207Y-125450500D01*
X123392322Y-125435845D01*
X123576759Y-125377977D01*
X123576760Y-125377976D01*
X123576768Y-125377974D01*
X123745791Y-125284159D01*
X123808396Y-125230413D01*
X123872084Y-125201682D01*
X123889166Y-125200500D01*
X126207943Y-125200500D01*
X126274982Y-125220185D01*
X126320737Y-125272989D01*
X126330681Y-125342147D01*
X126320737Y-125376012D01*
X126263302Y-125501774D01*
X126244867Y-125630000D01*
X126263302Y-125758225D01*
X126310764Y-125862150D01*
X126317118Y-125876063D01*
X126401951Y-125973967D01*
X126510931Y-126044004D01*
X126635225Y-126080499D01*
X126635227Y-126080500D01*
X126635228Y-126080500D01*
X126764773Y-126080500D01*
X126764773Y-126080499D01*
X126889069Y-126044004D01*
X126998049Y-125973967D01*
X127082882Y-125876063D01*
X127136697Y-125758226D01*
X127155133Y-125630000D01*
X127136697Y-125501774D01*
X127130352Y-125487880D01*
X127079263Y-125376012D01*
X127069319Y-125306853D01*
X127098344Y-125243297D01*
X127157122Y-125205523D01*
X127192057Y-125200500D01*
X128247943Y-125200500D01*
X128314982Y-125220185D01*
X128360737Y-125272989D01*
X128370681Y-125342147D01*
X128360737Y-125376012D01*
X128303302Y-125501774D01*
X128284867Y-125630000D01*
X128303302Y-125758225D01*
X128350764Y-125862150D01*
X128357118Y-125876063D01*
X128441951Y-125973967D01*
X128550931Y-126044004D01*
X128675225Y-126080499D01*
X128675227Y-126080500D01*
X128675228Y-126080500D01*
X128804773Y-126080500D01*
X128804773Y-126080499D01*
X128929069Y-126044004D01*
X129038049Y-125973967D01*
X129122882Y-125876063D01*
X129176697Y-125758226D01*
X129195133Y-125630000D01*
X129176697Y-125501774D01*
X129170352Y-125487880D01*
X129119263Y-125376012D01*
X129109319Y-125306853D01*
X129138344Y-125243297D01*
X129197122Y-125205523D01*
X129232057Y-125200500D01*
X130958481Y-125200500D01*
X131025520Y-125220185D01*
X131046162Y-125236819D01*
X131936827Y-126127484D01*
X131970312Y-126188807D01*
X131965328Y-126258499D01*
X131936827Y-126302846D01*
X131726493Y-126513181D01*
X131665170Y-126546666D01*
X131638812Y-126549500D01*
X131635226Y-126549500D01*
X131510935Y-126585994D01*
X131510932Y-126585995D01*
X131510931Y-126585996D01*
X131459677Y-126618934D01*
X131401950Y-126656033D01*
X131317118Y-126753937D01*
X131317117Y-126753938D01*
X131263302Y-126871774D01*
X131244867Y-126999999D01*
X131263302Y-127128225D01*
X131267227Y-127136819D01*
X131317118Y-127246063D01*
X131401951Y-127343967D01*
X131510931Y-127414004D01*
X131635225Y-127450499D01*
X131635227Y-127450500D01*
X131635228Y-127450500D01*
X131764773Y-127450500D01*
X131764773Y-127450499D01*
X131889069Y-127414004D01*
X131998049Y-127343967D01*
X132082882Y-127246063D01*
X132136697Y-127128226D01*
X132148387Y-127046914D01*
X132177409Y-126983361D01*
X132183429Y-126976895D01*
X132397153Y-126763172D01*
X132458476Y-126729687D01*
X132528168Y-126734671D01*
X132572515Y-126763172D01*
X132688399Y-126879056D01*
X132690935Y-126881750D01*
X132732071Y-126928183D01*
X132783130Y-126963427D01*
X132786112Y-126965621D01*
X132834944Y-127003878D01*
X132834947Y-127003880D01*
X132834946Y-127003880D01*
X132844177Y-127008034D01*
X132863731Y-127019062D01*
X132872066Y-127024816D01*
X132872068Y-127024816D01*
X132872070Y-127024818D01*
X132930079Y-127046817D01*
X132933476Y-127048224D01*
X132980770Y-127069509D01*
X132990064Y-127073693D01*
X132990065Y-127073693D01*
X132990069Y-127073695D01*
X133000034Y-127075521D01*
X133021656Y-127081548D01*
X133024777Y-127082731D01*
X133031128Y-127085140D01*
X133076251Y-127090618D01*
X133092674Y-127092613D01*
X133096371Y-127093175D01*
X133157394Y-127104358D01*
X133212752Y-127101009D01*
X133219303Y-127100613D01*
X133223048Y-127100500D01*
X136057628Y-127100500D01*
X137242372Y-127100500D01*
X143058481Y-127100500D01*
X143125520Y-127120185D01*
X143146162Y-127136819D01*
X144963181Y-128953838D01*
X144996666Y-129015161D01*
X144999500Y-129041519D01*
X144999500Y-130870500D01*
X144979815Y-130937539D01*
X144927011Y-130983294D01*
X144875500Y-130994500D01*
X144193194Y-130994500D01*
X144126155Y-130974816D01*
X144019069Y-130905996D01*
X144019065Y-130905994D01*
X144019064Y-130905994D01*
X143894774Y-130869500D01*
X143894772Y-130869500D01*
X143765228Y-130869500D01*
X143765226Y-130869500D01*
X143640935Y-130905994D01*
X143640932Y-130905995D01*
X143640931Y-130905996D01*
X143621901Y-130918226D01*
X143531950Y-130976033D01*
X143447118Y-131073937D01*
X143447117Y-131073938D01*
X143393302Y-131191774D01*
X143374867Y-131320000D01*
X143393302Y-131448225D01*
X143447117Y-131566061D01*
X143447118Y-131566063D01*
X143531951Y-131663967D01*
X143640931Y-131734004D01*
X143765225Y-131770499D01*
X143765227Y-131770500D01*
X143765228Y-131770500D01*
X143894773Y-131770500D01*
X143894773Y-131770499D01*
X144019069Y-131734004D01*
X144126155Y-131665183D01*
X144193194Y-131645500D01*
X144875500Y-131645500D01*
X144942539Y-131665185D01*
X144988294Y-131717989D01*
X144999500Y-131769500D01*
X144999500Y-137450500D01*
X144979815Y-137517539D01*
X144927011Y-137563294D01*
X144875500Y-137574500D01*
X144463194Y-137574500D01*
X144396155Y-137554816D01*
X144289069Y-137485996D01*
X144289065Y-137485994D01*
X144289064Y-137485994D01*
X144164774Y-137449500D01*
X144164772Y-137449500D01*
X144035228Y-137449500D01*
X144035226Y-137449500D01*
X143910935Y-137485994D01*
X143910932Y-137485995D01*
X143910931Y-137485996D01*
X143861849Y-137517539D01*
X143801950Y-137556033D01*
X143717118Y-137653937D01*
X143717117Y-137653938D01*
X143663302Y-137771774D01*
X143644867Y-137900000D01*
X143663302Y-138028225D01*
X143717117Y-138146061D01*
X143717118Y-138146063D01*
X143801951Y-138243967D01*
X143910931Y-138314004D01*
X144035225Y-138350499D01*
X144035227Y-138350500D01*
X144035228Y-138350500D01*
X144164773Y-138350500D01*
X144164773Y-138350499D01*
X144289069Y-138314004D01*
X144396155Y-138245183D01*
X144463194Y-138225500D01*
X145008425Y-138225500D01*
X145075464Y-138245185D01*
X145110474Y-138279059D01*
X145171817Y-138367929D01*
X145277505Y-138461560D01*
X145299150Y-138480736D01*
X145449773Y-138559789D01*
X145449775Y-138559790D01*
X145614944Y-138600500D01*
X145785056Y-138600500D01*
X145950225Y-138559790D01*
X146029692Y-138518081D01*
X146100849Y-138480736D01*
X146100850Y-138480734D01*
X146100852Y-138480734D01*
X146228183Y-138367929D01*
X146324818Y-138227930D01*
X146385140Y-138068872D01*
X146400500Y-137942372D01*
X146400500Y-136799500D01*
X146420185Y-136732461D01*
X146472989Y-136686706D01*
X146524500Y-136675500D01*
X147126806Y-136675500D01*
X147193844Y-136695183D01*
X147300931Y-136764004D01*
X147425225Y-136800499D01*
X147425227Y-136800500D01*
X147425228Y-136800500D01*
X147554773Y-136800500D01*
X147554773Y-136800499D01*
X147679069Y-136764004D01*
X147788049Y-136693967D01*
X147872882Y-136596063D01*
X147926697Y-136478226D01*
X147945133Y-136350000D01*
X147926697Y-136221774D01*
X147872882Y-136103937D01*
X147788049Y-136006033D01*
X147679069Y-135935996D01*
X147679065Y-135935994D01*
X147679064Y-135935994D01*
X147554774Y-135899500D01*
X147554772Y-135899500D01*
X147425228Y-135899500D01*
X147425226Y-135899500D01*
X147300935Y-135935994D01*
X147300932Y-135935995D01*
X147300931Y-135935996D01*
X147193845Y-136004816D01*
X147126806Y-136024500D01*
X146524500Y-136024500D01*
X146457461Y-136004815D01*
X146411706Y-135952011D01*
X146400500Y-135900500D01*
X146400500Y-134196611D01*
X146420185Y-134129572D01*
X146472989Y-134083817D01*
X146542147Y-134073873D01*
X146605703Y-134102898D01*
X146612181Y-134108930D01*
X146676774Y-134173523D01*
X146676778Y-134173526D01*
X146676780Y-134173528D01*
X146796874Y-134234719D01*
X146796876Y-134234719D01*
X146796878Y-134234720D01*
X146896507Y-134250500D01*
X146896512Y-134250500D01*
X147463493Y-134250500D01*
X147563121Y-134234720D01*
X147563121Y-134234719D01*
X147563126Y-134234719D01*
X147683220Y-134173528D01*
X147778528Y-134078220D01*
X147795816Y-134044289D01*
X147843787Y-133993496D01*
X147911607Y-133976700D01*
X147973336Y-133996270D01*
X148000931Y-134014004D01*
X148104088Y-134044293D01*
X148125225Y-134050499D01*
X148125227Y-134050500D01*
X148125228Y-134050500D01*
X148254773Y-134050500D01*
X148254773Y-134050499D01*
X148379069Y-134014004D01*
X148488049Y-133943967D01*
X148572882Y-133846063D01*
X148626697Y-133728226D01*
X148645133Y-133600000D01*
X148626697Y-133471774D01*
X148572882Y-133353937D01*
X148488049Y-133256033D01*
X148379069Y-133185996D01*
X148379065Y-133185994D01*
X148379064Y-133185994D01*
X148254774Y-133149500D01*
X148254772Y-133149500D01*
X148125228Y-133149500D01*
X148125226Y-133149500D01*
X148000936Y-133185993D01*
X148000931Y-133185995D01*
X148000931Y-133185996D01*
X147973335Y-133203730D01*
X147906297Y-133223413D01*
X147839258Y-133203727D01*
X147795815Y-133155708D01*
X147778528Y-133121780D01*
X147778523Y-133121774D01*
X147759575Y-133102826D01*
X147726090Y-133041503D01*
X147731074Y-132971811D01*
X147772946Y-132915878D01*
X147782160Y-132909606D01*
X147882731Y-132847573D01*
X148002572Y-132727732D01*
X148002575Y-132727728D01*
X148091542Y-132583492D01*
X148091547Y-132583481D01*
X148144855Y-132422606D01*
X148154999Y-132323322D01*
X148155000Y-132323309D01*
X148155000Y-132300000D01*
X147054000Y-132300000D01*
X146986961Y-132280315D01*
X146941206Y-132227511D01*
X146930000Y-132176000D01*
X146930000Y-131100000D01*
X147430000Y-131100000D01*
X147430000Y-131800000D01*
X148154999Y-131800000D01*
X148154999Y-131776692D01*
X148154998Y-131776677D01*
X148144855Y-131677392D01*
X148091547Y-131516518D01*
X148091542Y-131516507D01*
X148002575Y-131372271D01*
X148002572Y-131372267D01*
X147882732Y-131252427D01*
X147882728Y-131252424D01*
X147738492Y-131163457D01*
X147738481Y-131163452D01*
X147577606Y-131110144D01*
X147478322Y-131100000D01*
X147430000Y-131100000D01*
X146930000Y-131100000D01*
X146929999Y-131099999D01*
X146881693Y-131100000D01*
X146881675Y-131100001D01*
X146782392Y-131110144D01*
X146621518Y-131163452D01*
X146621509Y-131163456D01*
X146589596Y-131183141D01*
X146522204Y-131201581D01*
X146455540Y-131180658D01*
X146410771Y-131127016D01*
X146400500Y-131077602D01*
X146400500Y-130049500D01*
X146420185Y-129982461D01*
X146472989Y-129936706D01*
X146524500Y-129925500D01*
X148313812Y-129925500D01*
X148380851Y-129945185D01*
X148401493Y-129961819D01*
X149447863Y-131008189D01*
X149451518Y-131012178D01*
X149477541Y-131043190D01*
X149477543Y-131043191D01*
X149477545Y-131043194D01*
X149477547Y-131043195D01*
X149477548Y-131043196D01*
X149512599Y-131063433D01*
X149517162Y-131066339D01*
X149550316Y-131089554D01*
X149550319Y-131089554D01*
X149555176Y-131091820D01*
X149571933Y-131098760D01*
X149576953Y-131100587D01*
X149576955Y-131100588D01*
X149616830Y-131107618D01*
X149622087Y-131108784D01*
X149661193Y-131119263D01*
X149701510Y-131115735D01*
X149706912Y-131115500D01*
X157436806Y-131115500D01*
X157503844Y-131135183D01*
X157610931Y-131204004D01*
X157735225Y-131240499D01*
X157735227Y-131240500D01*
X157735228Y-131240500D01*
X157864773Y-131240500D01*
X157864773Y-131240499D01*
X157989069Y-131204004D01*
X158098049Y-131133967D01*
X158182882Y-131036063D01*
X158236697Y-130918226D01*
X158255133Y-130790000D01*
X158236697Y-130661774D01*
X158182882Y-130543937D01*
X158098049Y-130446033D01*
X157989069Y-130375996D01*
X157989065Y-130375994D01*
X157989064Y-130375994D01*
X157864774Y-130339500D01*
X157864772Y-130339500D01*
X157735228Y-130339500D01*
X157735226Y-130339500D01*
X157610935Y-130375994D01*
X157610932Y-130375995D01*
X157610931Y-130375996D01*
X157503845Y-130444816D01*
X157436806Y-130464500D01*
X149876188Y-130464500D01*
X149809149Y-130444815D01*
X149788507Y-130428181D01*
X149285826Y-129925500D01*
X148742119Y-129381793D01*
X148738474Y-129377814D01*
X148712456Y-129346807D01*
X148712455Y-129346806D01*
X148701058Y-129340226D01*
X148677392Y-129326561D01*
X148672831Y-129323655D01*
X148659687Y-129314452D01*
X148639684Y-129300446D01*
X148639681Y-129300445D01*
X148634861Y-129298197D01*
X148618055Y-129291235D01*
X148613043Y-129289411D01*
X148573190Y-129282383D01*
X148567910Y-129281212D01*
X148528808Y-129270735D01*
X148493892Y-129273790D01*
X148488481Y-129274264D01*
X148483078Y-129274500D01*
X146524500Y-129274500D01*
X146457461Y-129254815D01*
X146411706Y-129202011D01*
X146400500Y-129150500D01*
X146400500Y-128723035D01*
X146400613Y-128719290D01*
X146404357Y-128657394D01*
X146393177Y-128596386D01*
X146392615Y-128592689D01*
X146385140Y-128531129D01*
X146385139Y-128531125D01*
X146381546Y-128521651D01*
X146375519Y-128500029D01*
X146373694Y-128490070D01*
X146373694Y-128490068D01*
X146348241Y-128433514D01*
X146346807Y-128430052D01*
X146324818Y-128372071D01*
X146324818Y-128372070D01*
X146319058Y-128363726D01*
X146308035Y-128344180D01*
X146303878Y-128334943D01*
X146265617Y-128286107D01*
X146263417Y-128283117D01*
X146246786Y-128259021D01*
X146228185Y-128232073D01*
X146228183Y-128232071D01*
X146181750Y-128190935D01*
X146179056Y-128188399D01*
X143911598Y-125920941D01*
X143909064Y-125918250D01*
X143867929Y-125871817D01*
X143867928Y-125871816D01*
X143867924Y-125871812D01*
X143816896Y-125836591D01*
X143813887Y-125834377D01*
X143765060Y-125796124D01*
X143765055Y-125796120D01*
X143755813Y-125791961D01*
X143736266Y-125780936D01*
X143727931Y-125775183D01*
X143727932Y-125775183D01*
X143727930Y-125775182D01*
X143669941Y-125753189D01*
X143666490Y-125751759D01*
X143609930Y-125726304D01*
X143599946Y-125724474D01*
X143578343Y-125718451D01*
X143568874Y-125714860D01*
X143568870Y-125714859D01*
X143507313Y-125707384D01*
X143503612Y-125706821D01*
X143442608Y-125695642D01*
X143442603Y-125695642D01*
X143380697Y-125699387D01*
X143376952Y-125699500D01*
X137629500Y-125699500D01*
X137562461Y-125679815D01*
X137516706Y-125627011D01*
X137505500Y-125575500D01*
X137505500Y-125568535D01*
X137525185Y-125501496D01*
X137535783Y-125487336D01*
X137562882Y-125456063D01*
X137616697Y-125338226D01*
X137635133Y-125210000D01*
X137616697Y-125081774D01*
X137562882Y-124963937D01*
X137478049Y-124866033D01*
X137369069Y-124795996D01*
X137369065Y-124795994D01*
X137369064Y-124795994D01*
X137244774Y-124759500D01*
X137244772Y-124759500D01*
X137115228Y-124759500D01*
X137115226Y-124759500D01*
X136990935Y-124795994D01*
X136990932Y-124795995D01*
X136990931Y-124795996D01*
X136939677Y-124828934D01*
X136881950Y-124866033D01*
X136797118Y-124963937D01*
X136797117Y-124963938D01*
X136743302Y-125081774D01*
X136724867Y-125210000D01*
X136743302Y-125338225D01*
X136791595Y-125443970D01*
X136797118Y-125456063D01*
X136824213Y-125487333D01*
X136853238Y-125550888D01*
X136854500Y-125568535D01*
X136854500Y-125575500D01*
X136834815Y-125642539D01*
X136782011Y-125688294D01*
X136730500Y-125699500D01*
X133541519Y-125699500D01*
X133474480Y-125679815D01*
X133453838Y-125663181D01*
X133339860Y-125549203D01*
X133306375Y-125487880D01*
X133311359Y-125418188D01*
X133339860Y-125373841D01*
X133749764Y-124963938D01*
X134183955Y-124529747D01*
X134245278Y-124496262D01*
X134271636Y-124493428D01*
X134275221Y-124493428D01*
X134275221Y-124493427D01*
X134399517Y-124456932D01*
X134508497Y-124386895D01*
X134593330Y-124288991D01*
X134647145Y-124171154D01*
X134665581Y-124042928D01*
X134647145Y-123914702D01*
X134593330Y-123796865D01*
X134508497Y-123698961D01*
X134399517Y-123628924D01*
X134399513Y-123628922D01*
X134399512Y-123628922D01*
X134275222Y-123592428D01*
X134275220Y-123592428D01*
X134145676Y-123592428D01*
X134145674Y-123592428D01*
X134021383Y-123628922D01*
X134021380Y-123628923D01*
X134021379Y-123628924D01*
X133970125Y-123661862D01*
X133912398Y-123698961D01*
X133827566Y-123796865D01*
X133827565Y-123796866D01*
X133773751Y-123914700D01*
X133773750Y-123914705D01*
X133762060Y-123996011D01*
X133733035Y-124059567D01*
X133727003Y-124066045D01*
X132879534Y-124913515D01*
X132818211Y-124947000D01*
X132748520Y-124942016D01*
X132704172Y-124913515D01*
X132281565Y-124490908D01*
X131811598Y-124020941D01*
X131809064Y-124018250D01*
X131767929Y-123971817D01*
X131767928Y-123971816D01*
X131767924Y-123971812D01*
X131716896Y-123936591D01*
X131713887Y-123934377D01*
X131665060Y-123896124D01*
X131665055Y-123896120D01*
X131655813Y-123891961D01*
X131636266Y-123880936D01*
X131627931Y-123875183D01*
X131627932Y-123875183D01*
X131627930Y-123875182D01*
X131569941Y-123853189D01*
X131566490Y-123851759D01*
X131509930Y-123826304D01*
X131499946Y-123824474D01*
X131478343Y-123818451D01*
X131468874Y-123814860D01*
X131468870Y-123814859D01*
X131407313Y-123807384D01*
X131403612Y-123806821D01*
X131342608Y-123795642D01*
X131342603Y-123795642D01*
X131280697Y-123799387D01*
X131276952Y-123799500D01*
X124024500Y-123799500D01*
X123957461Y-123779815D01*
X123911706Y-123727011D01*
X123900500Y-123675500D01*
X123900500Y-120901250D01*
X147744364Y-120901250D01*
X147801567Y-121114736D01*
X147801570Y-121114742D01*
X147901399Y-121328827D01*
X147901400Y-121328829D01*
X148036886Y-121522323D01*
X148036891Y-121522329D01*
X148203920Y-121689358D01*
X148203926Y-121689363D01*
X148397420Y-121824849D01*
X148397422Y-121824850D01*
X148611507Y-121924679D01*
X148611516Y-121924683D01*
X148839673Y-121985817D01*
X148839684Y-121985819D01*
X148974999Y-121997657D01*
X148975000Y-121997657D01*
X148975000Y-121086751D01*
X149082685Y-121135930D01*
X149189237Y-121151250D01*
X149260763Y-121151250D01*
X149367315Y-121135930D01*
X149475000Y-121086751D01*
X149475000Y-121997657D01*
X149610315Y-121985819D01*
X149610326Y-121985817D01*
X149838483Y-121924683D01*
X149838492Y-121924679D01*
X150052577Y-121824850D01*
X150052579Y-121824849D01*
X150246073Y-121689363D01*
X150246079Y-121689358D01*
X150413105Y-121522332D01*
X150548600Y-121328828D01*
X150648429Y-121114742D01*
X150648432Y-121114736D01*
X150705636Y-120901250D01*
X149658686Y-120901250D01*
X149684493Y-120861094D01*
X149725000Y-120723139D01*
X149725000Y-120579361D01*
X149684493Y-120441406D01*
X149658686Y-120401250D01*
X150705636Y-120401250D01*
X150705635Y-120401249D01*
X150648432Y-120187763D01*
X150648429Y-120187757D01*
X150548600Y-119973672D01*
X150548599Y-119973670D01*
X150413113Y-119780176D01*
X150413108Y-119780170D01*
X150246079Y-119613141D01*
X150246073Y-119613136D01*
X150052579Y-119477650D01*
X150052577Y-119477649D01*
X149967832Y-119438132D01*
X149915393Y-119391960D01*
X149896241Y-119324766D01*
X149916457Y-119257885D01*
X149969622Y-119212550D01*
X150020237Y-119201750D01*
X150029270Y-119201750D01*
X150059699Y-119198896D01*
X150059701Y-119198896D01*
X150123790Y-119176469D01*
X150187882Y-119154043D01*
X150297150Y-119073400D01*
X150377793Y-118964132D01*
X150407319Y-118879752D01*
X150422646Y-118835951D01*
X150422646Y-118835949D01*
X150425500Y-118805519D01*
X150425500Y-117496980D01*
X150422646Y-117466550D01*
X150422646Y-117466548D01*
X150377793Y-117338369D01*
X150377792Y-117338367D01*
X150297150Y-117229100D01*
X150187882Y-117148457D01*
X150187880Y-117148456D01*
X150059700Y-117103603D01*
X150029270Y-117100750D01*
X150029266Y-117100750D01*
X148420734Y-117100750D01*
X148420730Y-117100750D01*
X148390300Y-117103603D01*
X148390298Y-117103603D01*
X148262119Y-117148456D01*
X148262117Y-117148457D01*
X148152850Y-117229100D01*
X148072207Y-117338367D01*
X148072206Y-117338369D01*
X148027353Y-117466548D01*
X148027353Y-117466550D01*
X148024500Y-117496980D01*
X148024500Y-118805519D01*
X148027353Y-118835949D01*
X148027353Y-118835951D01*
X148072206Y-118964130D01*
X148072207Y-118964132D01*
X148152850Y-119073400D01*
X148262118Y-119154043D01*
X148304845Y-119168994D01*
X148390299Y-119198896D01*
X148420730Y-119201750D01*
X148429763Y-119201750D01*
X148496802Y-119221435D01*
X148542557Y-119274239D01*
X148552501Y-119343397D01*
X148523476Y-119406953D01*
X148482168Y-119438132D01*
X148397422Y-119477649D01*
X148397420Y-119477650D01*
X148203926Y-119613136D01*
X148203920Y-119613141D01*
X148036894Y-119780167D01*
X147901399Y-119973671D01*
X147801570Y-120187757D01*
X147801567Y-120187763D01*
X147744364Y-120401249D01*
X147744364Y-120401250D01*
X148791314Y-120401250D01*
X148765507Y-120441406D01*
X148725000Y-120579361D01*
X148725000Y-120723139D01*
X148765507Y-120861094D01*
X148791314Y-120901250D01*
X147744364Y-120901250D01*
X123900500Y-120901250D01*
X123900500Y-118691519D01*
X123920185Y-118624480D01*
X123936819Y-118603838D01*
X124753838Y-117786819D01*
X124815161Y-117753334D01*
X124841519Y-117750500D01*
X137276952Y-117750500D01*
X137280697Y-117750613D01*
X137288042Y-117751057D01*
X137342606Y-117754358D01*
X137380314Y-117747447D01*
X137403621Y-117743177D01*
X137407325Y-117742613D01*
X137425170Y-117740446D01*
X137468872Y-117735140D01*
X137478335Y-117731550D01*
X137499961Y-117725522D01*
X137500893Y-117725351D01*
X137509932Y-117723695D01*
X137566512Y-117698229D01*
X137569942Y-117696809D01*
X137627930Y-117674818D01*
X137636266Y-117669062D01*
X137655821Y-117658034D01*
X137665057Y-117653878D01*
X137713896Y-117615613D01*
X137716876Y-117613421D01*
X137767929Y-117578183D01*
X137809065Y-117531748D01*
X137811599Y-117529056D01*
X141279048Y-114061606D01*
X141281740Y-114059072D01*
X141328183Y-114017929D01*
X141363423Y-113966872D01*
X141365630Y-113963873D01*
X141403877Y-113915057D01*
X141408029Y-113905828D01*
X141419062Y-113886268D01*
X141419419Y-113885750D01*
X141424818Y-113877930D01*
X141446812Y-113819933D01*
X141448231Y-113816505D01*
X141473694Y-113759932D01*
X141475520Y-113749965D01*
X141481548Y-113728340D01*
X141485140Y-113718872D01*
X141492615Y-113657309D01*
X141493179Y-113653605D01*
X141497456Y-113630258D01*
X141504357Y-113592606D01*
X141500613Y-113530707D01*
X141500500Y-113526963D01*
X141500500Y-89637000D01*
X141520185Y-89569961D01*
X141572989Y-89524206D01*
X141624500Y-89513000D01*
X149142374Y-89513000D01*
X149184538Y-89507880D01*
X149268872Y-89497640D01*
X149427930Y-89437318D01*
X149567929Y-89340683D01*
X149680734Y-89213352D01*
X149759790Y-89062725D01*
X149800500Y-88897556D01*
X149800500Y-88727444D01*
X149759790Y-88562275D01*
X149745173Y-88534425D01*
X149680736Y-88411650D01*
X149634978Y-88360000D01*
X149567929Y-88284317D01*
X149505193Y-88241013D01*
X149427931Y-88187682D01*
X149268874Y-88127360D01*
X149268868Y-88127359D01*
X149142374Y-88112000D01*
X149142372Y-88112000D01*
X147749500Y-88112000D01*
X147682461Y-88092315D01*
X147636706Y-88039511D01*
X147625500Y-87988000D01*
X147625500Y-84364829D01*
X147645185Y-84297790D01*
X147693203Y-84254345D01*
X147778220Y-84211028D01*
X147797173Y-84192074D01*
X147858494Y-84158590D01*
X147928185Y-84163573D01*
X147984120Y-84205444D01*
X147990392Y-84214659D01*
X148052424Y-84315228D01*
X148052427Y-84315232D01*
X148172267Y-84435072D01*
X148172271Y-84435075D01*
X148316507Y-84524042D01*
X148316518Y-84524047D01*
X148477393Y-84577355D01*
X148576683Y-84587499D01*
X148600000Y-84587498D01*
X148600000Y-83862500D01*
X149100000Y-83862500D01*
X149100000Y-84587499D01*
X149123308Y-84587499D01*
X149123322Y-84587498D01*
X149222607Y-84577355D01*
X149383481Y-84524047D01*
X149383492Y-84524042D01*
X149527728Y-84435075D01*
X149527732Y-84435072D01*
X149647572Y-84315232D01*
X149647575Y-84315228D01*
X149736542Y-84170992D01*
X149736547Y-84170981D01*
X149789855Y-84010106D01*
X149799999Y-83910822D01*
X149800000Y-83910809D01*
X149800000Y-83862500D01*
X149100000Y-83862500D01*
X148600000Y-83862500D01*
X148600000Y-82637500D01*
X149100000Y-82637500D01*
X149100000Y-83362500D01*
X149799999Y-83362500D01*
X149799999Y-83314192D01*
X149799998Y-83314177D01*
X149789855Y-83214892D01*
X149736547Y-83054018D01*
X149736542Y-83054007D01*
X149647575Y-82909771D01*
X149647572Y-82909767D01*
X149527732Y-82789927D01*
X149527728Y-82789924D01*
X149383492Y-82700957D01*
X149383481Y-82700952D01*
X149222606Y-82647644D01*
X149123322Y-82637500D01*
X149100000Y-82637500D01*
X148600000Y-82637500D01*
X148600000Y-82637499D01*
X148576693Y-82637500D01*
X148576674Y-82637501D01*
X148477392Y-82647644D01*
X148316518Y-82700952D01*
X148316507Y-82700957D01*
X148172271Y-82789924D01*
X148172267Y-82789927D01*
X148052426Y-82909768D01*
X147990392Y-83010341D01*
X147938444Y-83057065D01*
X147869481Y-83068286D01*
X147805399Y-83040443D01*
X147797173Y-83032924D01*
X147778225Y-83013976D01*
X147778221Y-83013973D01*
X147778220Y-83013972D01*
X147778218Y-83013971D01*
X147770328Y-83008239D01*
X147772562Y-83005162D01*
X147735391Y-82970041D01*
X147718611Y-82902216D01*
X147729702Y-82856042D01*
X147736697Y-82840726D01*
X147755133Y-82712500D01*
X147736697Y-82584274D01*
X147682882Y-82466437D01*
X147598049Y-82368533D01*
X147489069Y-82298496D01*
X147489065Y-82298494D01*
X147489064Y-82298494D01*
X147364774Y-82262000D01*
X147364772Y-82262000D01*
X147235228Y-82262000D01*
X147235226Y-82262000D01*
X147110935Y-82298494D01*
X147110932Y-82298495D01*
X147110931Y-82298496D01*
X147082437Y-82316808D01*
X147001950Y-82368533D01*
X146917118Y-82466437D01*
X146917117Y-82466438D01*
X146863302Y-82584274D01*
X146844867Y-82712500D01*
X146863302Y-82840724D01*
X146863303Y-82840726D01*
X146870297Y-82856041D01*
X146870298Y-82856042D01*
X146880241Y-82925201D01*
X146851215Y-82988756D01*
X146828470Y-83006579D01*
X146829674Y-83008236D01*
X146821779Y-83013972D01*
X146726476Y-83109274D01*
X146726473Y-83109278D01*
X146665279Y-83229378D01*
X146649500Y-83329006D01*
X146649500Y-83895993D01*
X146665279Y-83995621D01*
X146665280Y-83995624D01*
X146665281Y-83995626D01*
X146672659Y-84010106D01*
X146726473Y-84115721D01*
X146726476Y-84115725D01*
X146821774Y-84211023D01*
X146821777Y-84211025D01*
X146821780Y-84211028D01*
X146906795Y-84254345D01*
X146957590Y-84302318D01*
X146974500Y-84364829D01*
X146974500Y-87988000D01*
X146954815Y-88055039D01*
X146902011Y-88100794D01*
X146850500Y-88112000D01*
X141624500Y-88112000D01*
X141557461Y-88092315D01*
X141511706Y-88039511D01*
X141500500Y-87988000D01*
X141500500Y-82157625D01*
X141485140Y-82031131D01*
X141485139Y-82031125D01*
X141429835Y-81885300D01*
X141424818Y-81872070D01*
X141413748Y-81856033D01*
X141365405Y-81785996D01*
X141328183Y-81732071D01*
X141200852Y-81619266D01*
X141200849Y-81619263D01*
X141050226Y-81540210D01*
X140885056Y-81499500D01*
X140714944Y-81499500D01*
X140549773Y-81540210D01*
X140399150Y-81619263D01*
X140271816Y-81732072D01*
X140210475Y-81820940D01*
X140156192Y-81864930D01*
X140108425Y-81874500D01*
X134463194Y-81874500D01*
X134396155Y-81854816D01*
X134289069Y-81785996D01*
X134289065Y-81785994D01*
X134289064Y-81785994D01*
X134164774Y-81749500D01*
X134164772Y-81749500D01*
X134035228Y-81749500D01*
X134035226Y-81749500D01*
X133910935Y-81785994D01*
X133910932Y-81785995D01*
X133910931Y-81785996D01*
X133859677Y-81818934D01*
X133801950Y-81856033D01*
X133717118Y-81953937D01*
X133717117Y-81953938D01*
X133663302Y-82071774D01*
X133644867Y-82200000D01*
X133663302Y-82328225D01*
X133717117Y-82446061D01*
X133717118Y-82446063D01*
X133801951Y-82543967D01*
X133910931Y-82614004D01*
X134035225Y-82650499D01*
X134035227Y-82650500D01*
X134035228Y-82650500D01*
X134164773Y-82650500D01*
X134164773Y-82650499D01*
X134289069Y-82614004D01*
X134396155Y-82545183D01*
X134463194Y-82525500D01*
X139975500Y-82525500D01*
X140042539Y-82545185D01*
X140088294Y-82597989D01*
X140099500Y-82649500D01*
X140099500Y-88745073D01*
X140097469Y-88767424D01*
X140095642Y-88777392D01*
X140095642Y-88777395D01*
X140099387Y-88839302D01*
X140099500Y-88843047D01*
X140099500Y-98135500D01*
X140079815Y-98202539D01*
X140027011Y-98248294D01*
X139975500Y-98259500D01*
X138104500Y-98259500D01*
X138037461Y-98239815D01*
X137991706Y-98187011D01*
X137980500Y-98135500D01*
X137980500Y-97301092D01*
X137981762Y-97283445D01*
X137985133Y-97260000D01*
X137981039Y-97231528D01*
X137980583Y-97227344D01*
X137980500Y-97226240D01*
X137975703Y-97194412D01*
X137966562Y-97130837D01*
X137965635Y-97126643D01*
X137965349Y-97125715D01*
X137937886Y-97068688D01*
X137924255Y-97038841D01*
X137912882Y-97013937D01*
X137912879Y-97013934D01*
X137909501Y-97008676D01*
X137906986Y-97004181D01*
X137906424Y-97003357D01*
X137865454Y-96959202D01*
X137857586Y-96950122D01*
X137828049Y-96916033D01*
X137828042Y-96916028D01*
X137821349Y-96910228D01*
X137821896Y-96909596D01*
X137821554Y-96909311D01*
X137821323Y-96909602D01*
X137814057Y-96903809D01*
X137814055Y-96903806D01*
X137765818Y-96875956D01*
X137763307Y-96874426D01*
X137719072Y-96845997D01*
X137711002Y-96842312D01*
X137711107Y-96842080D01*
X137699295Y-96837022D01*
X137696449Y-96835905D01*
X137645541Y-96824285D01*
X137641872Y-96823328D01*
X137594772Y-96809500D01*
X137594732Y-96809500D01*
X137567140Y-96806391D01*
X137564046Y-96805685D01*
X137564042Y-96805684D01*
X137532709Y-96808033D01*
X137515438Y-96809327D01*
X137510822Y-96809500D01*
X137465224Y-96809500D01*
X137461387Y-96810627D01*
X137435727Y-96815301D01*
X137428622Y-96815833D01*
X137386520Y-96832356D01*
X137381338Y-96834130D01*
X137340927Y-96845997D01*
X137334241Y-96850294D01*
X137312518Y-96861400D01*
X137302207Y-96865447D01*
X137302203Y-96865449D01*
X137269571Y-96891471D01*
X137264436Y-96895154D01*
X137231953Y-96916031D01*
X137231944Y-96916039D01*
X137224158Y-96925024D01*
X137207769Y-96940758D01*
X137196032Y-96950118D01*
X137196029Y-96950122D01*
X137174486Y-96981718D01*
X137170115Y-96987393D01*
X137147119Y-97013934D01*
X137147116Y-97013939D01*
X137140544Y-97028329D01*
X137130207Y-97046663D01*
X137119527Y-97062327D01*
X137109286Y-97095529D01*
X137106436Y-97103014D01*
X137093302Y-97131774D01*
X137090490Y-97151332D01*
X137086246Y-97170223D01*
X137079500Y-97192095D01*
X137079500Y-97218906D01*
X137078238Y-97236552D01*
X137074867Y-97259999D01*
X137078238Y-97283445D01*
X137079500Y-97301092D01*
X137079500Y-98135500D01*
X137059815Y-98202539D01*
X137007011Y-98248294D01*
X136955500Y-98259500D01*
X133117626Y-98259500D01*
X132991131Y-98274859D01*
X132991125Y-98274860D01*
X132832068Y-98335182D01*
X132692072Y-98431816D01*
X132579263Y-98559150D01*
X132500210Y-98709773D01*
X132492097Y-98742690D01*
X132459500Y-98874944D01*
X132459500Y-99045056D01*
X132464692Y-99066122D01*
X132500210Y-99210226D01*
X132579263Y-99360849D01*
X132579266Y-99360852D01*
X132692071Y-99488183D01*
X132763236Y-99537305D01*
X132832068Y-99584817D01*
X132832069Y-99584817D01*
X132832070Y-99584818D01*
X132991128Y-99645140D01*
X133067028Y-99654356D01*
X133117626Y-99660500D01*
X133117628Y-99660500D01*
X137497628Y-99660500D01*
X139975500Y-99660500D01*
X140042539Y-99680185D01*
X140088294Y-99732989D01*
X140099500Y-99784500D01*
X140099500Y-113208481D01*
X140079815Y-113275520D01*
X140063181Y-113296162D01*
X137046162Y-116313181D01*
X136984839Y-116346666D01*
X136958481Y-116349500D01*
X124523048Y-116349500D01*
X124519303Y-116349387D01*
X124457396Y-116345642D01*
X124457389Y-116345642D01*
X124396386Y-116356821D01*
X124392685Y-116357384D01*
X124331128Y-116364859D01*
X124331121Y-116364861D01*
X124321647Y-116368454D01*
X124300049Y-116374475D01*
X124290069Y-116376304D01*
X124233519Y-116401755D01*
X124230060Y-116403188D01*
X124172071Y-116425181D01*
X124172066Y-116425184D01*
X124163722Y-116430943D01*
X124144187Y-116441961D01*
X124134947Y-116446120D01*
X124134945Y-116446121D01*
X124086136Y-116484359D01*
X124083122Y-116486576D01*
X124032070Y-116521817D01*
X124032068Y-116521818D01*
X123990942Y-116568240D01*
X123988375Y-116570966D01*
X122720966Y-117838375D01*
X122718240Y-117840942D01*
X122671818Y-117882068D01*
X122636586Y-117933109D01*
X122634368Y-117936124D01*
X122596124Y-117984939D01*
X122596119Y-117984948D01*
X122591960Y-117994188D01*
X122580942Y-118013723D01*
X122575187Y-118022061D01*
X122575183Y-118022067D01*
X122575182Y-118022070D01*
X122575180Y-118022074D01*
X122575179Y-118022077D01*
X122553189Y-118080055D01*
X122551757Y-118083513D01*
X122526305Y-118140068D01*
X122524477Y-118150042D01*
X122518453Y-118171653D01*
X122514860Y-118181127D01*
X122514859Y-118181128D01*
X122507384Y-118242685D01*
X122506821Y-118246386D01*
X122495642Y-118307390D01*
X122495642Y-118307395D01*
X122499387Y-118369302D01*
X122499500Y-118373047D01*
X122499500Y-123425500D01*
X122479815Y-123492539D01*
X122427011Y-123538294D01*
X122375500Y-123549500D01*
X119074500Y-123549500D01*
X119007461Y-123529815D01*
X118961706Y-123477011D01*
X118950500Y-123425500D01*
X118950500Y-121951792D01*
X118935845Y-121807677D01*
X118877977Y-121623240D01*
X118877975Y-121623236D01*
X118877974Y-121623232D01*
X118784159Y-121454209D01*
X118784158Y-121454208D01*
X118784157Y-121454206D01*
X118658241Y-121307533D01*
X118658240Y-121307531D01*
X118505375Y-121189205D01*
X118505371Y-121189203D01*
X118498396Y-121185781D01*
X118331816Y-121104070D01*
X118331814Y-121104069D01*
X118331811Y-121104068D01*
X118331813Y-121104068D01*
X118144682Y-121055616D01*
X118144676Y-121055615D01*
X118015964Y-121049087D01*
X117951610Y-121045824D01*
X117951609Y-121045824D01*
X117951607Y-121045824D01*
X117760533Y-121075095D01*
X117760521Y-121075098D01*
X117579251Y-121142234D01*
X117579242Y-121142238D01*
X117415196Y-121244488D01*
X117275080Y-121377677D01*
X117164646Y-121536342D01*
X117088413Y-121713987D01*
X117049500Y-121903343D01*
X117049500Y-123987937D01*
X117047355Y-124072545D01*
X117047355Y-124072546D01*
X110000500Y-124072546D01*
X110000500Y-101317395D01*
X114035642Y-101317395D01*
X114039387Y-101379302D01*
X114039500Y-101383047D01*
X114039500Y-119227374D01*
X114054859Y-119353868D01*
X114054860Y-119353874D01*
X114115182Y-119512931D01*
X114173681Y-119597680D01*
X114211817Y-119652929D01*
X114317505Y-119746560D01*
X114339150Y-119765736D01*
X114489773Y-119844789D01*
X114489775Y-119844790D01*
X114654944Y-119885500D01*
X114825056Y-119885500D01*
X114990225Y-119844790D01*
X115069692Y-119803081D01*
X115140849Y-119765736D01*
X115140850Y-119765734D01*
X115140852Y-119765734D01*
X115268183Y-119652929D01*
X115364818Y-119512930D01*
X115425140Y-119353872D01*
X115436795Y-119257885D01*
X115440500Y-119227374D01*
X115440500Y-115807740D01*
X115460185Y-115740701D01*
X115512989Y-115694946D01*
X115582147Y-115685002D01*
X115645703Y-115714027D01*
X115683477Y-115772805D01*
X115684275Y-115775647D01*
X115726566Y-115933483D01*
X115726570Y-115933492D01*
X115826399Y-116147578D01*
X115961894Y-116341082D01*
X116128917Y-116508105D01*
X116322421Y-116643600D01*
X116492948Y-116723118D01*
X116545387Y-116769290D01*
X116564539Y-116836484D01*
X116544323Y-116903365D01*
X116491158Y-116948700D01*
X116440543Y-116959500D01*
X116130247Y-116959500D01*
X116071770Y-116971131D01*
X116071769Y-116971132D01*
X116005447Y-117015447D01*
X115961132Y-117081769D01*
X115961131Y-117081770D01*
X115949500Y-117140247D01*
X115949500Y-118879752D01*
X115961131Y-118938229D01*
X115961132Y-118938230D01*
X116005447Y-119004552D01*
X116071769Y-119048867D01*
X116071770Y-119048868D01*
X116130247Y-119060499D01*
X116130250Y-119060500D01*
X116130252Y-119060500D01*
X117869750Y-119060500D01*
X117869751Y-119060499D01*
X117884568Y-119057552D01*
X117928229Y-119048868D01*
X117928229Y-119048867D01*
X117928231Y-119048867D01*
X117994552Y-119004552D01*
X118038867Y-118938231D01*
X118038867Y-118938229D01*
X118038868Y-118938229D01*
X118050499Y-118879752D01*
X118050500Y-118879750D01*
X118050500Y-117140249D01*
X118050499Y-117140247D01*
X118038868Y-117081770D01*
X118038867Y-117081769D01*
X117994552Y-117015447D01*
X117928230Y-116971132D01*
X117928229Y-116971131D01*
X117869752Y-116959500D01*
X117869748Y-116959500D01*
X117559457Y-116959500D01*
X117492418Y-116939815D01*
X117446663Y-116887011D01*
X117436719Y-116817853D01*
X117465744Y-116754297D01*
X117507052Y-116723118D01*
X117677578Y-116643600D01*
X117871082Y-116508105D01*
X118038105Y-116341082D01*
X118173600Y-116147578D01*
X118273429Y-115933492D01*
X118273432Y-115933486D01*
X118330636Y-115720000D01*
X117433686Y-115720000D01*
X117459493Y-115679844D01*
X117500000Y-115541889D01*
X117500000Y-115398111D01*
X117459493Y-115260156D01*
X117433686Y-115220000D01*
X118330636Y-115220000D01*
X118330635Y-115219999D01*
X118273432Y-115006513D01*
X118273429Y-115006507D01*
X118173600Y-114792422D01*
X118173599Y-114792420D01*
X118038113Y-114598926D01*
X118038108Y-114598920D01*
X117871082Y-114431894D01*
X117677578Y-114296399D01*
X117463492Y-114196570D01*
X117463486Y-114196567D01*
X117250000Y-114139364D01*
X117250000Y-115034498D01*
X117142315Y-114985320D01*
X117035763Y-114970000D01*
X116964237Y-114970000D01*
X116857685Y-114985320D01*
X116750000Y-115034498D01*
X116750000Y-114139364D01*
X116749999Y-114139364D01*
X116536513Y-114196567D01*
X116536507Y-114196570D01*
X116322422Y-114296399D01*
X116322420Y-114296400D01*
X116128926Y-114431886D01*
X116128920Y-114431891D01*
X115961891Y-114598920D01*
X115961886Y-114598926D01*
X115826400Y-114792420D01*
X115826399Y-114792422D01*
X115726570Y-115006507D01*
X115726566Y-115006516D01*
X115684275Y-115164352D01*
X115647910Y-115224013D01*
X115585063Y-115254542D01*
X115515688Y-115246247D01*
X115461810Y-115201762D01*
X115440535Y-115135210D01*
X115440500Y-115132259D01*
X115440500Y-101701519D01*
X115460185Y-101634480D01*
X115476819Y-101613838D01*
X116683838Y-100406819D01*
X116745161Y-100373334D01*
X116771519Y-100370500D01*
X122537628Y-100370500D01*
X125776952Y-100370500D01*
X125780697Y-100370613D01*
X125788042Y-100371057D01*
X125842606Y-100374358D01*
X125880314Y-100367447D01*
X125903621Y-100363177D01*
X125907325Y-100362613D01*
X125925170Y-100360446D01*
X125968872Y-100355140D01*
X125978335Y-100351550D01*
X125999961Y-100345522D01*
X126000893Y-100345351D01*
X126009932Y-100343695D01*
X126066512Y-100318229D01*
X126069942Y-100316809D01*
X126127930Y-100294818D01*
X126136266Y-100289062D01*
X126155821Y-100278034D01*
X126165057Y-100273878D01*
X126213896Y-100235613D01*
X126216876Y-100233421D01*
X126267929Y-100198183D01*
X126309065Y-100151748D01*
X126311599Y-100149056D01*
X128889056Y-97571599D01*
X128891748Y-97569065D01*
X128938183Y-97527929D01*
X128973427Y-97476866D01*
X128975617Y-97473890D01*
X129013877Y-97425057D01*
X129018029Y-97415828D01*
X129029062Y-97396268D01*
X129029419Y-97395750D01*
X129034818Y-97387930D01*
X129056812Y-97329933D01*
X129058231Y-97326505D01*
X129083694Y-97269932D01*
X129085520Y-97259965D01*
X129091548Y-97238340D01*
X129095140Y-97228872D01*
X129102615Y-97167309D01*
X129103179Y-97163605D01*
X129107456Y-97140258D01*
X129114357Y-97102606D01*
X129112305Y-97068688D01*
X129110613Y-97040707D01*
X129110500Y-97036963D01*
X129110500Y-88903918D01*
X129130185Y-88836879D01*
X129182989Y-88791124D01*
X129187051Y-88789356D01*
X129188229Y-88788867D01*
X129188231Y-88788867D01*
X129254552Y-88744552D01*
X129298867Y-88678231D01*
X129298867Y-88678229D01*
X129298868Y-88678229D01*
X129310499Y-88619752D01*
X129310500Y-88619750D01*
X129310500Y-87180249D01*
X129310499Y-87180247D01*
X129298868Y-87121770D01*
X129298867Y-87121769D01*
X129254552Y-87055447D01*
X129188230Y-87011132D01*
X129188229Y-87011131D01*
X129129752Y-86999500D01*
X129129748Y-86999500D01*
X127690252Y-86999500D01*
X127690247Y-86999500D01*
X127631770Y-87011131D01*
X127631769Y-87011132D01*
X127565447Y-87055447D01*
X127521132Y-87121769D01*
X127521131Y-87121770D01*
X127509500Y-87180247D01*
X127509500Y-88619752D01*
X127521131Y-88678229D01*
X127521132Y-88678230D01*
X127565447Y-88744552D01*
X127631769Y-88788867D01*
X127632949Y-88789356D01*
X127635126Y-88791110D01*
X127641923Y-88795652D01*
X127641516Y-88796259D01*
X127687354Y-88833195D01*
X127709421Y-88899489D01*
X127709500Y-88903918D01*
X127709500Y-91691100D01*
X127689815Y-91758139D01*
X127637011Y-91803894D01*
X127567853Y-91813838D01*
X127504297Y-91784813D01*
X127476668Y-91750527D01*
X127386808Y-91585961D01*
X127386807Y-91585960D01*
X127280115Y-91443436D01*
X126670560Y-92052991D01*
X126621652Y-91974001D01*
X126478069Y-91816499D01*
X126319610Y-91696835D01*
X126926562Y-91089883D01*
X126926561Y-91089882D01*
X126784046Y-90983196D01*
X126784038Y-90983191D01*
X126532957Y-90846091D01*
X126532958Y-90846091D01*
X126264895Y-90746109D01*
X125985362Y-90685300D01*
X125700001Y-90664891D01*
X125699999Y-90664891D01*
X125414637Y-90685300D01*
X125135104Y-90746109D01*
X124867041Y-90846091D01*
X124615961Y-90983191D01*
X124615953Y-90983196D01*
X124473437Y-91089882D01*
X124473436Y-91089883D01*
X125080389Y-91696835D01*
X124921931Y-91816499D01*
X124778348Y-91974001D01*
X124729439Y-92052992D01*
X124119883Y-91443436D01*
X124119882Y-91443437D01*
X124013196Y-91585953D01*
X124013191Y-91585961D01*
X123876091Y-91837041D01*
X123776109Y-92105104D01*
X123715300Y-92384637D01*
X123694891Y-92669998D01*
X123694891Y-92670001D01*
X123715300Y-92955362D01*
X123776109Y-93234895D01*
X123876091Y-93502958D01*
X124013191Y-93754038D01*
X124013196Y-93754046D01*
X124119882Y-93896561D01*
X124119883Y-93896562D01*
X124729438Y-93287006D01*
X124778348Y-93365999D01*
X124921931Y-93523501D01*
X125080388Y-93643163D01*
X124473436Y-94250115D01*
X124615960Y-94356807D01*
X124615961Y-94356808D01*
X124867042Y-94493908D01*
X124867041Y-94493908D01*
X125135104Y-94593890D01*
X125414637Y-94654699D01*
X125699999Y-94675109D01*
X125700001Y-94675109D01*
X125985362Y-94654699D01*
X126264895Y-94593890D01*
X126532958Y-94493908D01*
X126784047Y-94356803D01*
X126926561Y-94250116D01*
X126926562Y-94250115D01*
X126319611Y-93643163D01*
X126478069Y-93523501D01*
X126621652Y-93365999D01*
X126670560Y-93287007D01*
X127280115Y-93896562D01*
X127280116Y-93896561D01*
X127386803Y-93754047D01*
X127476668Y-93589472D01*
X127526073Y-93540067D01*
X127594346Y-93525215D01*
X127659810Y-93549632D01*
X127701682Y-93605565D01*
X127709500Y-93648899D01*
X127709500Y-96718481D01*
X127689815Y-96785520D01*
X127673181Y-96806162D01*
X125546162Y-98933181D01*
X125484839Y-98966666D01*
X125458481Y-98969500D01*
X116453048Y-98969500D01*
X116449303Y-98969387D01*
X116387396Y-98965642D01*
X116387389Y-98965642D01*
X116326386Y-98976821D01*
X116322685Y-98977384D01*
X116261128Y-98984859D01*
X116261121Y-98984861D01*
X116251647Y-98988454D01*
X116230049Y-98994475D01*
X116220068Y-98996305D01*
X116220063Y-98996306D01*
X116163505Y-99021761D01*
X116160046Y-99023193D01*
X116102070Y-99045181D01*
X116102066Y-99045184D01*
X116093723Y-99050942D01*
X116074188Y-99061960D01*
X116064948Y-99066119D01*
X116064939Y-99066124D01*
X116016124Y-99104368D01*
X116013109Y-99106586D01*
X115962068Y-99141818D01*
X115920942Y-99188240D01*
X115918375Y-99190966D01*
X114260966Y-100848375D01*
X114258240Y-100850942D01*
X114211818Y-100892068D01*
X114176586Y-100943109D01*
X114174368Y-100946124D01*
X114136124Y-100994939D01*
X114136119Y-100994948D01*
X114131960Y-101004188D01*
X114120942Y-101023723D01*
X114115187Y-101032061D01*
X114115183Y-101032067D01*
X114115182Y-101032070D01*
X114115180Y-101032074D01*
X114115179Y-101032077D01*
X114093189Y-101090055D01*
X114091757Y-101093513D01*
X114066305Y-101150068D01*
X114064477Y-101160042D01*
X114058453Y-101181653D01*
X114054860Y-101191127D01*
X114054859Y-101191128D01*
X114047384Y-101252685D01*
X114046821Y-101256386D01*
X114035642Y-101317390D01*
X114035642Y-101317395D01*
X110000500Y-101317395D01*
X110000500Y-87900000D01*
X124004859Y-87900000D01*
X124025378Y-88121439D01*
X124086240Y-88335350D01*
X124185369Y-88534428D01*
X124201137Y-88555308D01*
X124201138Y-88555308D01*
X124756220Y-88000226D01*
X124756467Y-88003516D01*
X124807128Y-88132598D01*
X124893586Y-88241013D01*
X125008159Y-88319127D01*
X125112301Y-88351250D01*
X124556672Y-88906879D01*
X124556672Y-88906880D01*
X124672821Y-88978797D01*
X124672822Y-88978798D01*
X124880195Y-89059134D01*
X125098807Y-89100000D01*
X125321193Y-89100000D01*
X125539809Y-89059133D01*
X125747168Y-88978801D01*
X125747181Y-88978795D01*
X125863326Y-88906879D01*
X125307020Y-88350572D01*
X125347119Y-88344529D01*
X125472054Y-88284363D01*
X125573705Y-88190045D01*
X125643039Y-88069955D01*
X125659850Y-87996297D01*
X126218861Y-88555308D01*
X126234631Y-88534425D01*
X126234633Y-88534422D01*
X126333759Y-88335350D01*
X126394621Y-88121439D01*
X126415141Y-87900000D01*
X126415141Y-87899999D01*
X126394621Y-87678560D01*
X126333759Y-87464649D01*
X126234635Y-87265580D01*
X126234630Y-87265572D01*
X126218860Y-87244690D01*
X125663779Y-87799772D01*
X125663533Y-87796484D01*
X125612872Y-87667402D01*
X125526414Y-87558987D01*
X125411841Y-87480873D01*
X125307698Y-87448749D01*
X125863327Y-86893119D01*
X125747178Y-86821202D01*
X125747177Y-86821201D01*
X125539804Y-86740865D01*
X125321193Y-86700000D01*
X125098807Y-86700000D01*
X124880195Y-86740865D01*
X124672824Y-86821200D01*
X124672823Y-86821201D01*
X124556671Y-86893119D01*
X125112979Y-87449427D01*
X125072881Y-87455471D01*
X124947946Y-87515637D01*
X124846295Y-87609955D01*
X124776961Y-87730045D01*
X124760149Y-87803702D01*
X124201138Y-87244691D01*
X124201137Y-87244691D01*
X124185368Y-87265574D01*
X124086240Y-87464649D01*
X124025378Y-87678560D01*
X124004859Y-87899999D01*
X124004859Y-87900000D01*
X110000500Y-87900000D01*
X110000500Y-85400000D01*
X124304540Y-85400000D01*
X124324326Y-85588256D01*
X124324327Y-85588259D01*
X124382818Y-85768277D01*
X124382821Y-85768284D01*
X124477467Y-85932216D01*
X124539279Y-86000865D01*
X124604129Y-86072888D01*
X124757265Y-86184148D01*
X124757270Y-86184151D01*
X124930192Y-86261142D01*
X124930197Y-86261144D01*
X125115354Y-86300500D01*
X125115355Y-86300500D01*
X125304644Y-86300500D01*
X125304646Y-86300500D01*
X125489803Y-86261144D01*
X125662730Y-86184151D01*
X125815871Y-86072888D01*
X125942533Y-85932216D01*
X126037179Y-85768284D01*
X126095674Y-85588256D01*
X126115460Y-85400000D01*
X127504540Y-85400000D01*
X127524326Y-85588256D01*
X127524327Y-85588259D01*
X127582818Y-85768277D01*
X127582821Y-85768284D01*
X127677467Y-85932216D01*
X127739279Y-86000865D01*
X127804129Y-86072888D01*
X127957265Y-86184148D01*
X127957270Y-86184151D01*
X128130192Y-86261142D01*
X128130197Y-86261144D01*
X128315354Y-86300500D01*
X128315355Y-86300500D01*
X128504644Y-86300500D01*
X128504646Y-86300500D01*
X128689803Y-86261144D01*
X128862730Y-86184151D01*
X129015871Y-86072888D01*
X129142533Y-85932216D01*
X129237179Y-85768284D01*
X129295674Y-85588256D01*
X129315460Y-85400000D01*
X129295674Y-85211744D01*
X129237179Y-85031716D01*
X129142533Y-84867784D01*
X129015871Y-84727112D01*
X128998786Y-84714699D01*
X128862734Y-84615851D01*
X128862729Y-84615848D01*
X128689807Y-84538857D01*
X128689802Y-84538855D01*
X128544001Y-84507865D01*
X128504646Y-84499500D01*
X128315354Y-84499500D01*
X128282897Y-84506398D01*
X128130197Y-84538855D01*
X128130192Y-84538857D01*
X127957270Y-84615848D01*
X127957265Y-84615851D01*
X127804129Y-84727111D01*
X127677466Y-84867785D01*
X127582821Y-85031715D01*
X127582818Y-85031722D01*
X127524327Y-85211740D01*
X127524326Y-85211744D01*
X127504540Y-85400000D01*
X126115460Y-85400000D01*
X126095674Y-85211744D01*
X126037179Y-85031716D01*
X125942533Y-84867784D01*
X125815871Y-84727112D01*
X125798786Y-84714699D01*
X125662734Y-84615851D01*
X125662729Y-84615848D01*
X125489807Y-84538857D01*
X125489802Y-84538855D01*
X125344001Y-84507865D01*
X125304646Y-84499500D01*
X125115354Y-84499500D01*
X125082897Y-84506398D01*
X124930197Y-84538855D01*
X124930192Y-84538857D01*
X124757270Y-84615848D01*
X124757265Y-84615851D01*
X124604129Y-84727111D01*
X124477466Y-84867785D01*
X124382821Y-85031715D01*
X124382818Y-85031722D01*
X124324327Y-85211740D01*
X124324326Y-85211744D01*
X124304540Y-85400000D01*
X110000500Y-85400000D01*
X110000500Y-80630001D01*
X123694891Y-80630001D01*
X123715300Y-80915362D01*
X123776109Y-81194895D01*
X123876091Y-81462958D01*
X124013191Y-81714038D01*
X124013196Y-81714046D01*
X124119882Y-81856561D01*
X124119883Y-81856562D01*
X124729438Y-81247006D01*
X124778348Y-81325999D01*
X124921931Y-81483501D01*
X125080388Y-81603163D01*
X124473436Y-82210115D01*
X124615960Y-82316807D01*
X124615961Y-82316808D01*
X124867042Y-82453908D01*
X124867041Y-82453908D01*
X125135104Y-82553890D01*
X125414637Y-82614699D01*
X125699999Y-82635109D01*
X125700001Y-82635109D01*
X125985362Y-82614699D01*
X126264895Y-82553890D01*
X126532958Y-82453908D01*
X126784047Y-82316803D01*
X126926561Y-82210116D01*
X126926562Y-82210115D01*
X126319611Y-81603163D01*
X126478069Y-81483501D01*
X126621652Y-81325999D01*
X126670560Y-81247007D01*
X127280115Y-81856562D01*
X127280116Y-81856561D01*
X127386803Y-81714047D01*
X127523908Y-81462958D01*
X127623890Y-81194895D01*
X127684699Y-80915362D01*
X127705109Y-80630001D01*
X127705109Y-80629998D01*
X127684699Y-80344637D01*
X127623890Y-80065104D01*
X127523908Y-79797041D01*
X127386808Y-79545961D01*
X127386807Y-79545960D01*
X127280115Y-79403436D01*
X126670560Y-80012991D01*
X126621652Y-79934001D01*
X126478069Y-79776499D01*
X126319610Y-79656835D01*
X126926562Y-79049883D01*
X126926561Y-79049882D01*
X126784046Y-78943196D01*
X126784038Y-78943191D01*
X126532957Y-78806091D01*
X126532958Y-78806091D01*
X126264895Y-78706109D01*
X125985362Y-78645300D01*
X125700001Y-78624891D01*
X125699999Y-78624891D01*
X125414637Y-78645300D01*
X125135104Y-78706109D01*
X124867041Y-78806091D01*
X124615961Y-78943191D01*
X124615953Y-78943196D01*
X124473437Y-79049882D01*
X124473436Y-79049883D01*
X125080389Y-79656835D01*
X124921931Y-79776499D01*
X124778348Y-79934001D01*
X124729439Y-80012992D01*
X124119883Y-79403436D01*
X124119882Y-79403437D01*
X124013196Y-79545953D01*
X124013191Y-79545961D01*
X123876091Y-79797041D01*
X123776109Y-80065104D01*
X123715300Y-80344637D01*
X123694891Y-80629998D01*
X123694891Y-80630001D01*
X110000500Y-80630001D01*
X110000500Y-72876604D01*
X116049500Y-72876604D01*
X116064699Y-73030932D01*
X116094734Y-73129944D01*
X116124768Y-73228954D01*
X116222315Y-73411450D01*
X116256969Y-73453677D01*
X116353589Y-73571410D01*
X116450209Y-73650702D01*
X116513550Y-73702685D01*
X116696046Y-73800232D01*
X116894066Y-73860300D01*
X116894065Y-73860300D01*
X116912529Y-73862118D01*
X117100000Y-73880583D01*
X117305934Y-73860300D01*
X117503954Y-73800232D01*
X117686450Y-73702685D01*
X117846410Y-73571410D01*
X117977685Y-73411450D01*
X118075232Y-73228954D01*
X118135300Y-73030934D01*
X118150500Y-72876608D01*
X118150500Y-72876604D01*
X118549500Y-72876604D01*
X118564699Y-73030932D01*
X118594734Y-73129944D01*
X118624768Y-73228954D01*
X118722315Y-73411450D01*
X118756969Y-73453677D01*
X118853589Y-73571410D01*
X118950209Y-73650702D01*
X119013550Y-73702685D01*
X119196046Y-73800232D01*
X119394066Y-73860300D01*
X119394065Y-73860300D01*
X119412529Y-73862118D01*
X119600000Y-73880583D01*
X119805934Y-73860300D01*
X120003954Y-73800232D01*
X120186450Y-73702685D01*
X120346410Y-73571410D01*
X120477685Y-73411450D01*
X120575232Y-73228954D01*
X120635300Y-73030934D01*
X120650500Y-72876608D01*
X120650500Y-72876604D01*
X121049500Y-72876604D01*
X121064699Y-73030932D01*
X121094734Y-73129944D01*
X121124768Y-73228954D01*
X121222315Y-73411450D01*
X121256969Y-73453677D01*
X121353589Y-73571410D01*
X121450209Y-73650702D01*
X121513550Y-73702685D01*
X121696046Y-73800232D01*
X121894066Y-73860300D01*
X121894065Y-73860300D01*
X121912529Y-73862118D01*
X122100000Y-73880583D01*
X122305934Y-73860300D01*
X122503954Y-73800232D01*
X122686450Y-73702685D01*
X122846410Y-73571410D01*
X122977685Y-73411450D01*
X123075232Y-73228954D01*
X123135300Y-73030934D01*
X123150500Y-72876608D01*
X123150500Y-72876604D01*
X123549500Y-72876604D01*
X123564699Y-73030932D01*
X123594734Y-73129944D01*
X123624768Y-73228954D01*
X123722315Y-73411450D01*
X123756969Y-73453677D01*
X123853589Y-73571410D01*
X123950209Y-73650702D01*
X124013550Y-73702685D01*
X124196046Y-73800232D01*
X124394066Y-73860300D01*
X124394065Y-73860300D01*
X124412529Y-73862118D01*
X124600000Y-73880583D01*
X124805934Y-73860300D01*
X125003954Y-73800232D01*
X125186450Y-73702685D01*
X125346410Y-73571410D01*
X125477685Y-73411450D01*
X125575232Y-73228954D01*
X125635300Y-73030934D01*
X125650500Y-72876608D01*
X125650500Y-72876604D01*
X126049500Y-72876604D01*
X126064699Y-73030932D01*
X126094734Y-73129944D01*
X126124768Y-73228954D01*
X126222315Y-73411450D01*
X126256969Y-73453677D01*
X126353589Y-73571410D01*
X126450209Y-73650702D01*
X126513550Y-73702685D01*
X126696046Y-73800232D01*
X126894066Y-73860300D01*
X126894065Y-73860300D01*
X126912529Y-73862118D01*
X127100000Y-73880583D01*
X127305934Y-73860300D01*
X127503954Y-73800232D01*
X127686450Y-73702685D01*
X127846410Y-73571410D01*
X127977685Y-73411450D01*
X128016644Y-73338562D01*
X128065603Y-73288721D01*
X128133741Y-73273260D01*
X128199421Y-73297091D01*
X128241790Y-73352648D01*
X128250000Y-73397016D01*
X128250000Y-73474970D01*
X128250001Y-73474987D01*
X128260494Y-73577697D01*
X128315641Y-73744119D01*
X128315643Y-73744124D01*
X128407684Y-73893345D01*
X128531654Y-74017315D01*
X128680875Y-74109356D01*
X128680880Y-74109358D01*
X128847302Y-74164505D01*
X128847309Y-74164506D01*
X128950019Y-74174999D01*
X129349999Y-74174999D01*
X129350000Y-74174998D01*
X129350000Y-73108018D01*
X129464801Y-73160446D01*
X129566025Y-73175000D01*
X129633975Y-73175000D01*
X129735199Y-73160446D01*
X129850000Y-73108018D01*
X129850000Y-74174999D01*
X130249972Y-74174999D01*
X130249986Y-74174998D01*
X130352697Y-74164505D01*
X130519119Y-74109358D01*
X130519124Y-74109356D01*
X130668345Y-74017315D01*
X130792315Y-73893345D01*
X130884356Y-73744124D01*
X130884358Y-73744119D01*
X130939505Y-73577697D01*
X130939506Y-73577690D01*
X130949999Y-73474986D01*
X130950000Y-73474973D01*
X130950000Y-72950000D01*
X130003969Y-72950000D01*
X130036519Y-72899351D01*
X130075000Y-72768295D01*
X130075000Y-72631705D01*
X130036519Y-72500649D01*
X130003969Y-72450000D01*
X130949999Y-72450000D01*
X130949999Y-71925028D01*
X130949998Y-71925013D01*
X130939505Y-71822302D01*
X130884358Y-71655880D01*
X130884356Y-71655875D01*
X130792315Y-71506654D01*
X130668345Y-71382684D01*
X130519124Y-71290643D01*
X130519119Y-71290641D01*
X130352697Y-71235494D01*
X130352690Y-71235493D01*
X130249986Y-71225000D01*
X129850000Y-71225000D01*
X129850000Y-72291981D01*
X129735199Y-72239554D01*
X129633975Y-72225000D01*
X129566025Y-72225000D01*
X129464801Y-72239554D01*
X129350000Y-72291981D01*
X129350000Y-71225000D01*
X128950028Y-71225000D01*
X128950012Y-71225001D01*
X128847302Y-71235494D01*
X128680880Y-71290641D01*
X128680875Y-71290643D01*
X128531654Y-71382684D01*
X128407684Y-71506654D01*
X128315643Y-71655875D01*
X128315641Y-71655880D01*
X128260494Y-71822302D01*
X128260493Y-71822309D01*
X128250000Y-71925013D01*
X128250000Y-72002979D01*
X128230315Y-72070018D01*
X128177511Y-72115773D01*
X128108353Y-72125717D01*
X128044797Y-72096692D01*
X128016642Y-72061433D01*
X127977685Y-71988550D01*
X127925542Y-71925013D01*
X127846410Y-71828589D01*
X127686452Y-71697317D01*
X127686453Y-71697317D01*
X127686450Y-71697315D01*
X127503954Y-71599768D01*
X127305934Y-71539700D01*
X127305932Y-71539699D01*
X127305934Y-71539699D01*
X127100000Y-71519417D01*
X126894067Y-71539699D01*
X126696043Y-71599769D01*
X126591078Y-71655875D01*
X126513550Y-71697315D01*
X126513548Y-71697316D01*
X126513547Y-71697317D01*
X126353589Y-71828589D01*
X126222317Y-71988547D01*
X126222315Y-71988550D01*
X126183643Y-72060898D01*
X126124769Y-72171043D01*
X126064699Y-72369067D01*
X126049500Y-72523395D01*
X126049500Y-72876604D01*
X125650500Y-72876604D01*
X125650500Y-72523392D01*
X125635300Y-72369066D01*
X125575232Y-72171046D01*
X125477685Y-71988550D01*
X125425542Y-71925013D01*
X125346410Y-71828589D01*
X125186452Y-71697317D01*
X125186453Y-71697317D01*
X125186450Y-71697315D01*
X125003954Y-71599768D01*
X124805934Y-71539700D01*
X124805932Y-71539699D01*
X124805934Y-71539699D01*
X124600000Y-71519417D01*
X124394067Y-71539699D01*
X124196043Y-71599769D01*
X124091078Y-71655875D01*
X124013550Y-71697315D01*
X124013548Y-71697316D01*
X124013547Y-71697317D01*
X123853589Y-71828589D01*
X123722317Y-71988547D01*
X123722315Y-71988550D01*
X123683643Y-72060898D01*
X123624769Y-72171043D01*
X123564699Y-72369067D01*
X123549500Y-72523395D01*
X123549500Y-72876604D01*
X123150500Y-72876604D01*
X123150500Y-72523392D01*
X123135300Y-72369066D01*
X123075232Y-72171046D01*
X122977685Y-71988550D01*
X122925542Y-71925013D01*
X122846410Y-71828589D01*
X122686452Y-71697317D01*
X122686453Y-71697317D01*
X122686450Y-71697315D01*
X122503954Y-71599768D01*
X122305934Y-71539700D01*
X122305932Y-71539699D01*
X122305934Y-71539699D01*
X122100000Y-71519417D01*
X121894067Y-71539699D01*
X121696043Y-71599769D01*
X121591078Y-71655875D01*
X121513550Y-71697315D01*
X121513548Y-71697316D01*
X121513547Y-71697317D01*
X121353589Y-71828589D01*
X121222317Y-71988547D01*
X121222315Y-71988550D01*
X121183643Y-72060898D01*
X121124769Y-72171043D01*
X121064699Y-72369067D01*
X121049500Y-72523395D01*
X121049500Y-72876604D01*
X120650500Y-72876604D01*
X120650500Y-72523392D01*
X120635300Y-72369066D01*
X120575232Y-72171046D01*
X120477685Y-71988550D01*
X120425542Y-71925013D01*
X120346410Y-71828589D01*
X120186452Y-71697317D01*
X120186453Y-71697317D01*
X120186450Y-71697315D01*
X120003954Y-71599768D01*
X119805934Y-71539700D01*
X119805932Y-71539699D01*
X119805934Y-71539699D01*
X119600000Y-71519417D01*
X119394067Y-71539699D01*
X119196043Y-71599769D01*
X119091078Y-71655875D01*
X119013550Y-71697315D01*
X119013548Y-71697316D01*
X119013547Y-71697317D01*
X118853589Y-71828589D01*
X118722317Y-71988547D01*
X118722315Y-71988550D01*
X118683643Y-72060898D01*
X118624769Y-72171043D01*
X118564699Y-72369067D01*
X118549500Y-72523395D01*
X118549500Y-72876604D01*
X118150500Y-72876604D01*
X118150500Y-72523392D01*
X118135300Y-72369066D01*
X118075232Y-72171046D01*
X118065142Y-72152169D01*
X118050500Y-72093715D01*
X118050500Y-69674500D01*
X118070185Y-69607461D01*
X118122989Y-69561706D01*
X118174500Y-69550500D01*
X141025500Y-69550500D01*
X141092539Y-69570185D01*
X141138294Y-69622989D01*
X141149500Y-69674500D01*
X141149500Y-72093715D01*
X141134858Y-72152169D01*
X141124769Y-72171043D01*
X141064699Y-72369067D01*
X141049500Y-72523395D01*
X141049500Y-72876604D01*
X141064699Y-73030932D01*
X141094734Y-73129944D01*
X141124768Y-73228954D01*
X141222315Y-73411450D01*
X141256969Y-73453677D01*
X141353589Y-73571410D01*
X141450209Y-73650702D01*
X141513550Y-73702685D01*
X141696046Y-73800232D01*
X141894066Y-73860300D01*
X141894065Y-73860300D01*
X141912529Y-73862118D01*
X142100000Y-73880583D01*
X142305934Y-73860300D01*
X142503954Y-73800232D01*
X142686450Y-73702685D01*
X142846410Y-73571410D01*
X142977685Y-73411450D01*
X143075232Y-73228954D01*
X143135300Y-73030934D01*
X143150500Y-72876608D01*
X143150500Y-72876604D01*
X143549500Y-72876604D01*
X143564699Y-73030932D01*
X143594734Y-73129944D01*
X143624768Y-73228954D01*
X143722315Y-73411450D01*
X143756969Y-73453677D01*
X143853589Y-73571410D01*
X143950209Y-73650702D01*
X144013550Y-73702685D01*
X144196046Y-73800232D01*
X144394066Y-73860300D01*
X144394065Y-73860300D01*
X144412529Y-73862118D01*
X144600000Y-73880583D01*
X144805934Y-73860300D01*
X145003954Y-73800232D01*
X145186450Y-73702685D01*
X145346410Y-73571410D01*
X145477685Y-73411450D01*
X145575232Y-73228954D01*
X145635300Y-73030934D01*
X145650500Y-72876608D01*
X145650500Y-72876604D01*
X146049500Y-72876604D01*
X146064699Y-73030932D01*
X146094734Y-73129944D01*
X146124768Y-73228954D01*
X146222315Y-73411450D01*
X146256969Y-73453677D01*
X146353589Y-73571410D01*
X146450209Y-73650702D01*
X146513550Y-73702685D01*
X146696046Y-73800232D01*
X146894066Y-73860300D01*
X146894065Y-73860300D01*
X146912529Y-73862118D01*
X147100000Y-73880583D01*
X147305934Y-73860300D01*
X147503954Y-73800232D01*
X147686450Y-73702685D01*
X147846410Y-73571410D01*
X147977685Y-73411450D01*
X148075232Y-73228954D01*
X148135300Y-73030934D01*
X148150500Y-72876608D01*
X148150500Y-72876604D01*
X148549500Y-72876604D01*
X148564699Y-73030932D01*
X148594734Y-73129944D01*
X148624768Y-73228954D01*
X148722315Y-73411450D01*
X148756969Y-73453677D01*
X148853589Y-73571410D01*
X148950209Y-73650702D01*
X149013550Y-73702685D01*
X149196046Y-73800232D01*
X149394066Y-73860300D01*
X149394065Y-73860300D01*
X149412529Y-73862118D01*
X149600000Y-73880583D01*
X149805934Y-73860300D01*
X150003954Y-73800232D01*
X150186450Y-73702685D01*
X150346410Y-73571410D01*
X150477685Y-73411450D01*
X150575232Y-73228954D01*
X150635300Y-73030934D01*
X150650500Y-72876608D01*
X150650500Y-72876604D01*
X151049500Y-72876604D01*
X151064699Y-73030932D01*
X151094734Y-73129944D01*
X151124768Y-73228954D01*
X151222315Y-73411450D01*
X151256969Y-73453677D01*
X151353589Y-73571410D01*
X151450209Y-73650702D01*
X151513550Y-73702685D01*
X151696046Y-73800232D01*
X151894066Y-73860300D01*
X151894065Y-73860300D01*
X151912529Y-73862118D01*
X152100000Y-73880583D01*
X152305934Y-73860300D01*
X152503954Y-73800232D01*
X152686450Y-73702685D01*
X152846410Y-73571410D01*
X152977685Y-73411450D01*
X153016644Y-73338562D01*
X153065603Y-73288721D01*
X153133741Y-73273260D01*
X153199421Y-73297091D01*
X153241790Y-73352648D01*
X153250000Y-73397016D01*
X153250000Y-73474970D01*
X153250001Y-73474987D01*
X153260494Y-73577697D01*
X153315641Y-73744119D01*
X153315643Y-73744124D01*
X153407684Y-73893345D01*
X153531654Y-74017315D01*
X153680875Y-74109356D01*
X153680880Y-74109358D01*
X153847302Y-74164505D01*
X153847309Y-74164506D01*
X153950019Y-74174999D01*
X154349999Y-74174999D01*
X154350000Y-74174998D01*
X154350000Y-73108018D01*
X154464801Y-73160446D01*
X154566025Y-73175000D01*
X154633975Y-73175000D01*
X154735199Y-73160446D01*
X154850000Y-73108018D01*
X154850000Y-74174999D01*
X155249972Y-74174999D01*
X155249986Y-74174998D01*
X155352697Y-74164505D01*
X155519119Y-74109358D01*
X155519124Y-74109356D01*
X155668345Y-74017315D01*
X155792315Y-73893345D01*
X155884356Y-73744124D01*
X155884358Y-73744119D01*
X155939505Y-73577697D01*
X155939506Y-73577690D01*
X155949999Y-73474986D01*
X155950000Y-73474973D01*
X155950000Y-72950000D01*
X155003969Y-72950000D01*
X155036519Y-72899351D01*
X155075000Y-72768295D01*
X155075000Y-72631705D01*
X155036519Y-72500649D01*
X155003969Y-72450000D01*
X155949999Y-72450000D01*
X155949999Y-71925028D01*
X155949998Y-71925013D01*
X155939505Y-71822302D01*
X155884358Y-71655880D01*
X155884356Y-71655875D01*
X155792315Y-71506654D01*
X155668345Y-71382684D01*
X155519124Y-71290643D01*
X155519119Y-71290641D01*
X155352697Y-71235494D01*
X155352690Y-71235493D01*
X155249986Y-71225000D01*
X154850000Y-71225000D01*
X154850000Y-72291981D01*
X154735199Y-72239554D01*
X154633975Y-72225000D01*
X154566025Y-72225000D01*
X154464801Y-72239554D01*
X154350000Y-72291981D01*
X154350000Y-71225000D01*
X153950028Y-71225000D01*
X153950012Y-71225001D01*
X153847302Y-71235494D01*
X153680880Y-71290641D01*
X153680875Y-71290643D01*
X153531654Y-71382684D01*
X153407684Y-71506654D01*
X153315643Y-71655875D01*
X153315641Y-71655880D01*
X153260494Y-71822302D01*
X153260493Y-71822309D01*
X153250000Y-71925013D01*
X153250000Y-72002979D01*
X153230315Y-72070018D01*
X153177511Y-72115773D01*
X153108353Y-72125717D01*
X153044797Y-72096692D01*
X153016642Y-72061433D01*
X152977685Y-71988550D01*
X152925542Y-71925013D01*
X152846410Y-71828589D01*
X152686452Y-71697317D01*
X152686453Y-71697317D01*
X152686450Y-71697315D01*
X152503954Y-71599768D01*
X152305934Y-71539700D01*
X152305932Y-71539699D01*
X152305934Y-71539699D01*
X152100000Y-71519417D01*
X151894067Y-71539699D01*
X151696043Y-71599769D01*
X151591078Y-71655875D01*
X151513550Y-71697315D01*
X151513548Y-71697316D01*
X151513547Y-71697317D01*
X151353589Y-71828589D01*
X151222317Y-71988547D01*
X151222315Y-71988550D01*
X151183643Y-72060898D01*
X151124769Y-72171043D01*
X151064699Y-72369067D01*
X151049500Y-72523395D01*
X151049500Y-72876604D01*
X150650500Y-72876604D01*
X150650500Y-72523392D01*
X150635300Y-72369066D01*
X150575232Y-72171046D01*
X150477685Y-71988550D01*
X150425542Y-71925013D01*
X150346410Y-71828589D01*
X150186452Y-71697317D01*
X150186453Y-71697317D01*
X150186450Y-71697315D01*
X150003954Y-71599768D01*
X149805934Y-71539700D01*
X149805932Y-71539699D01*
X149805934Y-71539699D01*
X149600000Y-71519417D01*
X149394067Y-71539699D01*
X149196043Y-71599769D01*
X149091078Y-71655875D01*
X149013550Y-71697315D01*
X149013548Y-71697316D01*
X149013547Y-71697317D01*
X148853589Y-71828589D01*
X148722317Y-71988547D01*
X148722315Y-71988550D01*
X148683643Y-72060898D01*
X148624769Y-72171043D01*
X148564699Y-72369067D01*
X148549500Y-72523395D01*
X148549500Y-72876604D01*
X148150500Y-72876604D01*
X148150500Y-72523392D01*
X148135300Y-72369066D01*
X148075232Y-72171046D01*
X147977685Y-71988550D01*
X147925542Y-71925013D01*
X147846410Y-71828589D01*
X147686452Y-71697317D01*
X147686453Y-71697317D01*
X147686450Y-71697315D01*
X147503954Y-71599768D01*
X147305934Y-71539700D01*
X147305932Y-71539699D01*
X147305934Y-71539699D01*
X147100000Y-71519417D01*
X146894067Y-71539699D01*
X146696043Y-71599769D01*
X146591078Y-71655875D01*
X146513550Y-71697315D01*
X146513548Y-71697316D01*
X146513547Y-71697317D01*
X146353589Y-71828589D01*
X146222317Y-71988547D01*
X146222315Y-71988550D01*
X146183643Y-72060898D01*
X146124769Y-72171043D01*
X146064699Y-72369067D01*
X146049500Y-72523395D01*
X146049500Y-72876604D01*
X145650500Y-72876604D01*
X145650500Y-72523392D01*
X145635300Y-72369066D01*
X145575232Y-72171046D01*
X145477685Y-71988550D01*
X145425542Y-71925013D01*
X145346410Y-71828589D01*
X145186452Y-71697317D01*
X145186453Y-71697317D01*
X145186450Y-71697315D01*
X145003954Y-71599768D01*
X144805934Y-71539700D01*
X144805932Y-71539699D01*
X144805934Y-71539699D01*
X144600000Y-71519417D01*
X144394067Y-71539699D01*
X144196043Y-71599769D01*
X144091078Y-71655875D01*
X144013550Y-71697315D01*
X144013548Y-71697316D01*
X144013547Y-71697317D01*
X143853589Y-71828589D01*
X143722317Y-71988547D01*
X143722315Y-71988550D01*
X143683643Y-72060898D01*
X143624769Y-72171043D01*
X143564699Y-72369067D01*
X143549500Y-72523395D01*
X143549500Y-72876604D01*
X143150500Y-72876604D01*
X143150500Y-72523392D01*
X143135300Y-72369066D01*
X143075232Y-72171046D01*
X143065142Y-72152169D01*
X143050500Y-72093715D01*
X143050500Y-69674500D01*
X143070185Y-69607461D01*
X143122989Y-69561706D01*
X143174500Y-69550500D01*
X157425500Y-69550500D01*
X157492539Y-69570185D01*
X157538294Y-69622989D01*
X157549500Y-69674500D01*
X157549500Y-85554927D01*
X157529815Y-85621966D01*
X157513181Y-85642608D01*
X151236417Y-91919372D01*
X151175084Y-91977672D01*
X151175082Y-91977675D01*
X151141855Y-92025411D01*
X151139020Y-92029172D01*
X151102265Y-92074250D01*
X151087248Y-92102998D01*
X151083179Y-92109714D01*
X151064646Y-92136342D01*
X151064646Y-92136343D01*
X151041711Y-92189789D01*
X151039689Y-92194046D01*
X151012764Y-92245591D01*
X151012762Y-92245595D01*
X151003839Y-92276776D01*
X151001206Y-92284172D01*
X150988412Y-92313987D01*
X150988412Y-92313988D01*
X150976703Y-92370960D01*
X150975580Y-92375534D01*
X150959583Y-92431448D01*
X150959581Y-92431454D01*
X150957120Y-92463791D01*
X150956029Y-92471572D01*
X150949500Y-92503343D01*
X150949500Y-92561502D01*
X150949321Y-92566211D01*
X150944904Y-92624201D01*
X150946804Y-92639120D01*
X150949003Y-92656385D01*
X150949500Y-92664214D01*
X150949500Y-118517937D01*
X150947355Y-118602545D01*
X150947355Y-118602546D01*
X150957615Y-118659787D01*
X150958269Y-118664452D01*
X150964154Y-118722318D01*
X150964156Y-118722326D01*
X150973865Y-118753269D01*
X150975737Y-118760898D01*
X150981460Y-118792828D01*
X150981461Y-118792830D01*
X151003032Y-118846833D01*
X151004613Y-118851272D01*
X151022025Y-118906768D01*
X151037765Y-118935125D01*
X151041135Y-118942221D01*
X151053168Y-118972343D01*
X151053172Y-118972351D01*
X151085174Y-119020908D01*
X151087605Y-119024920D01*
X151107354Y-119060500D01*
X151115841Y-119075791D01*
X151136972Y-119100406D01*
X151141703Y-119106680D01*
X151159547Y-119133757D01*
X151200667Y-119174877D01*
X151203870Y-119178333D01*
X151221524Y-119198896D01*
X151241760Y-119222468D01*
X151241764Y-119222471D01*
X151241765Y-119222472D01*
X151267407Y-119242320D01*
X151273303Y-119247513D01*
X164613181Y-132587391D01*
X164646666Y-132648714D01*
X164649500Y-132675072D01*
X164649500Y-142127534D01*
X164629815Y-142194573D01*
X164577011Y-142240328D01*
X164538045Y-142250898D01*
X164407677Y-142264154D01*
X164223240Y-142322022D01*
X164223225Y-142322029D01*
X164054211Y-142415839D01*
X164054206Y-142415842D01*
X163907533Y-142541758D01*
X163907531Y-142541759D01*
X163789205Y-142694624D01*
X163789203Y-142694628D01*
X163704068Y-142868187D01*
X163655616Y-143055317D01*
X163655615Y-143055323D01*
X163645824Y-143248390D01*
X163675095Y-143439466D01*
X163675098Y-143439478D01*
X163742234Y-143620748D01*
X163742238Y-143620757D01*
X163844488Y-143784803D01*
X163844489Y-143784804D01*
X163844491Y-143784807D01*
X163977677Y-143924919D01*
X164136342Y-144035353D01*
X164313988Y-144111587D01*
X164503344Y-144150500D01*
X165574332Y-144150500D01*
X165577472Y-144150580D01*
X165602918Y-144151869D01*
X165648390Y-144154176D01*
X165659948Y-144152405D01*
X165663052Y-144151930D01*
X165681828Y-144150500D01*
X166648207Y-144150500D01*
X166792322Y-144135845D01*
X166976759Y-144077977D01*
X166976760Y-144077976D01*
X166976768Y-144077974D01*
X167145791Y-143984159D01*
X167292468Y-143858240D01*
X167410796Y-143705373D01*
X167495930Y-143531816D01*
X167544385Y-143344674D01*
X167554176Y-143151610D01*
X167524903Y-142960526D01*
X167457764Y-142779247D01*
X167405020Y-142694627D01*
X167355511Y-142615196D01*
X167355510Y-142615195D01*
X167355509Y-142615193D01*
X167222323Y-142475081D01*
X167137211Y-142415841D01*
X167063657Y-142364646D01*
X166886012Y-142288413D01*
X166696656Y-142249500D01*
X166674500Y-142249500D01*
X166607461Y-142229815D01*
X166561706Y-142177011D01*
X166550500Y-142125500D01*
X166550500Y-132242062D01*
X166552644Y-132157456D01*
X166552644Y-132157454D01*
X166542380Y-132100188D01*
X166541729Y-132095539D01*
X166535845Y-132037678D01*
X166526134Y-132006729D01*
X166524264Y-131999111D01*
X166518540Y-131967172D01*
X166496960Y-131913147D01*
X166495379Y-131908707D01*
X166477974Y-131853232D01*
X166462237Y-131824879D01*
X166458866Y-131817782D01*
X166446831Y-131787653D01*
X166446831Y-131787652D01*
X166414818Y-131739079D01*
X166412384Y-131735063D01*
X166384159Y-131684209D01*
X166367827Y-131665185D01*
X166363027Y-131659593D01*
X166358296Y-131653319D01*
X166340451Y-131626241D01*
X166299332Y-131585122D01*
X166296128Y-131581666D01*
X166282732Y-131566062D01*
X166258240Y-131537532D01*
X166232590Y-131517677D01*
X166226696Y-131512486D01*
X160308479Y-125594269D01*
X163079500Y-125594269D01*
X163082353Y-125624699D01*
X163082353Y-125624701D01*
X163117907Y-125726305D01*
X163127207Y-125752882D01*
X163207850Y-125862150D01*
X163317118Y-125942793D01*
X163359845Y-125957744D01*
X163445299Y-125987646D01*
X163475730Y-125990500D01*
X163475734Y-125990500D01*
X167284270Y-125990500D01*
X167314699Y-125987646D01*
X167314701Y-125987646D01*
X167378790Y-125965219D01*
X167442882Y-125942793D01*
X167552150Y-125862150D01*
X167632793Y-125752882D01*
X167671404Y-125642539D01*
X167677646Y-125624701D01*
X167677646Y-125624699D01*
X167680500Y-125594269D01*
X167680500Y-122825730D01*
X167677646Y-122795300D01*
X167677646Y-122795298D01*
X167632793Y-122667119D01*
X167632792Y-122667117D01*
X167552150Y-122557850D01*
X167442882Y-122477207D01*
X167442880Y-122477206D01*
X167314700Y-122432353D01*
X167284270Y-122429500D01*
X167284266Y-122429500D01*
X163475734Y-122429500D01*
X163475730Y-122429500D01*
X163445300Y-122432353D01*
X163445298Y-122432353D01*
X163317119Y-122477206D01*
X163317117Y-122477207D01*
X163207850Y-122557850D01*
X163127207Y-122667117D01*
X163127206Y-122667119D01*
X163082353Y-122795298D01*
X163082353Y-122795300D01*
X163079500Y-122825730D01*
X163079500Y-125594269D01*
X160308479Y-125594269D01*
X152886819Y-118172609D01*
X152853334Y-118111286D01*
X152850500Y-118084928D01*
X152850500Y-108000004D01*
X155244867Y-108000004D01*
X155251603Y-108046863D01*
X155252061Y-108051051D01*
X155255833Y-108101374D01*
X155255834Y-108101381D01*
X155256271Y-108102493D01*
X155261000Y-108120382D01*
X155263302Y-108128224D01*
X155284420Y-108174468D01*
X155285737Y-108177572D01*
X155305446Y-108227791D01*
X155310094Y-108235840D01*
X155310019Y-108235882D01*
X155311869Y-108238894D01*
X155312323Y-108238603D01*
X155317115Y-108246059D01*
X155353517Y-108288070D01*
X155390119Y-108333968D01*
X155391010Y-108334794D01*
X155394208Y-108337257D01*
X155401952Y-108343968D01*
X155426622Y-108359822D01*
X155451294Y-108375677D01*
X155502327Y-108410472D01*
X155502332Y-108410473D01*
X155503155Y-108410870D01*
X155508666Y-108412968D01*
X155510921Y-108413997D01*
X155510931Y-108414004D01*
X155570134Y-108431387D01*
X155632098Y-108450500D01*
X155635228Y-108450500D01*
X155764772Y-108450500D01*
X156075500Y-108450500D01*
X156142539Y-108470185D01*
X156188294Y-108522989D01*
X156199500Y-108574500D01*
X156199500Y-115431647D01*
X156198943Y-115439943D01*
X156197311Y-115452041D01*
X156199500Y-115566289D01*
X156199500Y-115615177D01*
X156200612Y-115629657D01*
X156200782Y-115633215D01*
X156202312Y-115713095D01*
X156202314Y-115713114D01*
X156210217Y-115758504D01*
X156210955Y-115764394D01*
X156214484Y-115810346D01*
X156232685Y-115888126D01*
X156233397Y-115891616D01*
X156247107Y-115970343D01*
X156247108Y-115970348D01*
X156261849Y-116014003D01*
X156263477Y-116019713D01*
X156273978Y-116064583D01*
X156273979Y-116064588D01*
X156303847Y-116138695D01*
X156305083Y-116142036D01*
X156330643Y-116217728D01*
X156330644Y-116217732D01*
X156351878Y-116258627D01*
X156354355Y-116264013D01*
X156360995Y-116280489D01*
X156371583Y-116306761D01*
X156412415Y-116375444D01*
X156414147Y-116378557D01*
X156450963Y-116449464D01*
X156450966Y-116449468D01*
X156478188Y-116486638D01*
X156481463Y-116491589D01*
X156505015Y-116531204D01*
X156505024Y-116531216D01*
X156529377Y-116560745D01*
X156555865Y-116592864D01*
X156558023Y-116595640D01*
X156585580Y-116633264D01*
X156605246Y-116660116D01*
X156605247Y-116660117D01*
X156605248Y-116660118D01*
X156605249Y-116660119D01*
X156637842Y-116692712D01*
X156641826Y-116697098D01*
X156671149Y-116732653D01*
X156730795Y-116785809D01*
X156733385Y-116788255D01*
X161313881Y-121368751D01*
X161319349Y-121375007D01*
X161326750Y-121384716D01*
X161409089Y-121463959D01*
X161443652Y-121498522D01*
X161443654Y-121498524D01*
X161454677Y-121507975D01*
X161457304Y-121510361D01*
X161469740Y-121522329D01*
X161514878Y-121565771D01*
X161514886Y-121565778D01*
X161552581Y-121592292D01*
X161557266Y-121595935D01*
X161592252Y-121625932D01*
X161618762Y-121642387D01*
X161660152Y-121668079D01*
X161663082Y-121670016D01*
X161728456Y-121715999D01*
X161747126Y-121725243D01*
X161769756Y-121736448D01*
X161774946Y-121739336D01*
X161814099Y-121763639D01*
X161887620Y-121794920D01*
X161890839Y-121796399D01*
X161962453Y-121831859D01*
X161962458Y-121831860D01*
X161962464Y-121831863D01*
X161992847Y-121841477D01*
X162006392Y-121845763D01*
X162011960Y-121847824D01*
X162037458Y-121858673D01*
X162054363Y-121865866D01*
X162131830Y-121885566D01*
X162135181Y-121886522D01*
X162211395Y-121910641D01*
X162256952Y-121917677D01*
X162262745Y-121918859D01*
X162307418Y-121930220D01*
X162386939Y-121937859D01*
X162390462Y-121938299D01*
X162469445Y-121950500D01*
X162515528Y-121950500D01*
X162521460Y-121950784D01*
X162525064Y-121951130D01*
X162567332Y-121955191D01*
X162647108Y-121950601D01*
X162650648Y-121950500D01*
X164296648Y-121950500D01*
X164329134Y-121955396D01*
X164329194Y-121955137D01*
X164332662Y-121955928D01*
X164333202Y-121956010D01*
X164333710Y-121956166D01*
X164333717Y-121956169D01*
X164593886Y-122015551D01*
X164643757Y-122019288D01*
X164793365Y-122030500D01*
X164793371Y-122030500D01*
X165966635Y-122030500D01*
X166099619Y-122020534D01*
X166166114Y-122015551D01*
X166426283Y-121956169D01*
X166674696Y-121858674D01*
X166905804Y-121725244D01*
X167114444Y-121558859D01*
X167295955Y-121363237D01*
X167446282Y-121142747D01*
X167562069Y-120902314D01*
X167640727Y-120647310D01*
X167680500Y-120383430D01*
X167680500Y-120116570D01*
X167658962Y-119973670D01*
X167640728Y-119852694D01*
X167640726Y-119852688D01*
X167638290Y-119844790D01*
X167562069Y-119597686D01*
X167446282Y-119357254D01*
X167295955Y-119136763D01*
X167214399Y-119048867D01*
X167114448Y-118941144D01*
X167071342Y-118906768D01*
X166905804Y-118774756D01*
X166674696Y-118641326D01*
X166426283Y-118543831D01*
X166426274Y-118543829D01*
X166426271Y-118543828D01*
X166166111Y-118484448D01*
X165966635Y-118469500D01*
X165966629Y-118469500D01*
X164793371Y-118469500D01*
X164793365Y-118469500D01*
X164593888Y-118484448D01*
X164333722Y-118543829D01*
X164333202Y-118543990D01*
X164332662Y-118544071D01*
X164329194Y-118544863D01*
X164329134Y-118544603D01*
X164296648Y-118549500D01*
X163355733Y-118549500D01*
X163288694Y-118529815D01*
X163268052Y-118513181D01*
X159636819Y-114881948D01*
X159603334Y-114820625D01*
X159600500Y-114794267D01*
X159600500Y-106234500D01*
X159620185Y-106167461D01*
X159672989Y-106121706D01*
X159724500Y-106110500D01*
X170769445Y-106110500D01*
X182671648Y-106110500D01*
X182679943Y-106111056D01*
X182692042Y-106112689D01*
X182806289Y-106110500D01*
X182855177Y-106110500D01*
X182855178Y-106110500D01*
X182860310Y-106110105D01*
X182869666Y-106109386D01*
X182873203Y-106109217D01*
X182953104Y-106107687D01*
X182998513Y-106099779D01*
X183004386Y-106099044D01*
X183050344Y-106095516D01*
X183128143Y-106077309D01*
X183131628Y-106076599D01*
X183210343Y-106062893D01*
X183254019Y-106048143D01*
X183259690Y-106046526D01*
X183304586Y-106036021D01*
X183378726Y-106006139D01*
X183382001Y-106004927D01*
X183457729Y-105979357D01*
X183498654Y-105958107D01*
X183504002Y-105955648D01*
X183546766Y-105938414D01*
X183615477Y-105897564D01*
X183618513Y-105895875D01*
X183689465Y-105859036D01*
X183726644Y-105831804D01*
X183731582Y-105828539D01*
X183771208Y-105804982D01*
X183832867Y-105754131D01*
X183835662Y-105751959D01*
X183900119Y-105704751D01*
X183932717Y-105672151D01*
X183937104Y-105668167D01*
X183972652Y-105638852D01*
X184025829Y-105579180D01*
X184028239Y-105576629D01*
X190331432Y-99273437D01*
X207389500Y-99273437D01*
X207429271Y-99537305D01*
X207429273Y-99537310D01*
X207507931Y-99792314D01*
X207507932Y-99792317D01*
X207507933Y-99792319D01*
X207623716Y-100032742D01*
X207623718Y-100032746D01*
X207774045Y-100253237D01*
X207810512Y-100292539D01*
X207955551Y-100448855D01*
X207955555Y-100448858D01*
X207955556Y-100448859D01*
X208164196Y-100615244D01*
X208395304Y-100748674D01*
X208643717Y-100846169D01*
X208903886Y-100905551D01*
X208953757Y-100909288D01*
X209103365Y-100920500D01*
X209103371Y-100920500D01*
X210276635Y-100920500D01*
X210409619Y-100910534D01*
X210476114Y-100905551D01*
X210736283Y-100846169D01*
X210984696Y-100748674D01*
X211215804Y-100615244D01*
X211424444Y-100448859D01*
X211430254Y-100442598D01*
X211482773Y-100385995D01*
X211605955Y-100253237D01*
X211756282Y-100032747D01*
X211872069Y-99792314D01*
X211950727Y-99537310D01*
X211977324Y-99360852D01*
X211990499Y-99273437D01*
X211990500Y-99273428D01*
X211990500Y-99006571D01*
X211990499Y-99006562D01*
X211950728Y-98742694D01*
X211950726Y-98742688D01*
X211940573Y-98709773D01*
X211872069Y-98487686D01*
X211756282Y-98247254D01*
X211605955Y-98026763D01*
X211530998Y-97945979D01*
X211424448Y-97831144D01*
X211384320Y-97799143D01*
X211215804Y-97664756D01*
X210984696Y-97531326D01*
X210736283Y-97433831D01*
X210736274Y-97433829D01*
X210736271Y-97433828D01*
X210476111Y-97374448D01*
X210276635Y-97359500D01*
X210276629Y-97359500D01*
X209103371Y-97359500D01*
X209103365Y-97359500D01*
X208903888Y-97374448D01*
X208643728Y-97433828D01*
X208643720Y-97433830D01*
X208643717Y-97433831D01*
X208643714Y-97433831D01*
X208643711Y-97433833D01*
X208395303Y-97531326D01*
X208164196Y-97664756D01*
X207955551Y-97831144D01*
X207774043Y-98026765D01*
X207623718Y-98247252D01*
X207623716Y-98247256D01*
X207507931Y-98487685D01*
X207429273Y-98742688D01*
X207429271Y-98742694D01*
X207389500Y-99006562D01*
X207389500Y-99273437D01*
X190331432Y-99273437D01*
X192688051Y-96916819D01*
X192749374Y-96883334D01*
X192775732Y-96880500D01*
X208606648Y-96880500D01*
X208639134Y-96885396D01*
X208639194Y-96885137D01*
X208642662Y-96885928D01*
X208643202Y-96886010D01*
X208643710Y-96886166D01*
X208643717Y-96886169D01*
X208903886Y-96945551D01*
X208953757Y-96949288D01*
X209103365Y-96960500D01*
X209103371Y-96960500D01*
X210276635Y-96960500D01*
X210415170Y-96950118D01*
X210476114Y-96945551D01*
X210736283Y-96886169D01*
X210736292Y-96886165D01*
X210736798Y-96886010D01*
X210737337Y-96885928D01*
X210740806Y-96885137D01*
X210740865Y-96885396D01*
X210773352Y-96880500D01*
X215275500Y-96880500D01*
X215342539Y-96900185D01*
X215388294Y-96952989D01*
X215399500Y-97004500D01*
X215399500Y-101275500D01*
X215379815Y-101342539D01*
X215327011Y-101388294D01*
X215275500Y-101399500D01*
X210773352Y-101399500D01*
X210740865Y-101394603D01*
X210740806Y-101394863D01*
X210737337Y-101394071D01*
X210736798Y-101393990D01*
X210736277Y-101393829D01*
X210476111Y-101334448D01*
X210276635Y-101319500D01*
X210276629Y-101319500D01*
X209103371Y-101319500D01*
X209103365Y-101319500D01*
X208903888Y-101334448D01*
X208643728Y-101393828D01*
X208643720Y-101393830D01*
X208643717Y-101393831D01*
X208643714Y-101393831D01*
X208643711Y-101393833D01*
X208395303Y-101491326D01*
X208164196Y-101624756D01*
X207955551Y-101791144D01*
X207774043Y-101986765D01*
X207623718Y-102207252D01*
X207623716Y-102207256D01*
X207507931Y-102447685D01*
X207429273Y-102702688D01*
X207429271Y-102702694D01*
X207389500Y-102966562D01*
X207389500Y-103233437D01*
X207429271Y-103497305D01*
X207429273Y-103497310D01*
X207507931Y-103752314D01*
X207623718Y-103992746D01*
X207774045Y-104213237D01*
X207835477Y-104279445D01*
X207955551Y-104408855D01*
X207955555Y-104408858D01*
X207955556Y-104408859D01*
X208164196Y-104575244D01*
X208395304Y-104708674D01*
X208643717Y-104806169D01*
X208903886Y-104865551D01*
X208953757Y-104869288D01*
X209103365Y-104880500D01*
X209103371Y-104880500D01*
X210276635Y-104880500D01*
X210409619Y-104870534D01*
X210476114Y-104865551D01*
X210736283Y-104806169D01*
X210736292Y-104806165D01*
X210736798Y-104806010D01*
X210737337Y-104805928D01*
X210740806Y-104805137D01*
X210740865Y-104805396D01*
X210773352Y-104800500D01*
X215275500Y-104800500D01*
X215342539Y-104820185D01*
X215388294Y-104872989D01*
X215399500Y-104924500D01*
X215399500Y-126435177D01*
X215414484Y-126630342D01*
X215414484Y-126630347D01*
X215473978Y-126884583D01*
X215473981Y-126884593D01*
X215571581Y-127126758D01*
X215571586Y-127126767D01*
X215642508Y-127246062D01*
X215705018Y-127351208D01*
X215786903Y-127450499D01*
X215871150Y-127552654D01*
X216066071Y-127726368D01*
X216066088Y-127726381D01*
X216285242Y-127868304D01*
X216285245Y-127868304D01*
X216285247Y-127868306D01*
X216523511Y-127975118D01*
X216775287Y-128044307D01*
X217034675Y-128074252D01*
X217295593Y-128064251D01*
X217551927Y-128014538D01*
X217551930Y-128014537D01*
X217797663Y-127926281D01*
X217797664Y-127926280D01*
X217797668Y-127926279D01*
X218027057Y-127801541D01*
X218234716Y-127643250D01*
X218415778Y-127455114D01*
X218565999Y-127241544D01*
X218681859Y-127007547D01*
X218683020Y-127003880D01*
X218695122Y-126965636D01*
X218760641Y-126758605D01*
X218800500Y-126500555D01*
X218800500Y-124794823D01*
X218800500Y-123284823D01*
X218800500Y-103618352D01*
X218801057Y-103610054D01*
X218802689Y-103597958D01*
X218800500Y-103483710D01*
X218800500Y-103434823D01*
X218800500Y-95318352D01*
X218801057Y-95310054D01*
X218802689Y-95297958D01*
X218800500Y-95183710D01*
X218800500Y-95134823D01*
X218800500Y-87418353D01*
X218801057Y-87410055D01*
X218802689Y-87397959D01*
X218800500Y-87283711D01*
X218800500Y-87234823D01*
X218799386Y-87220334D01*
X218799217Y-87216795D01*
X218797687Y-87136896D01*
X218789779Y-87091483D01*
X218789044Y-87085615D01*
X218785516Y-87039656D01*
X218767309Y-86961855D01*
X218766599Y-86958372D01*
X218752893Y-86879657D01*
X218738145Y-86835984D01*
X218736523Y-86830293D01*
X218726021Y-86785414D01*
X218696150Y-86711299D01*
X218694925Y-86707992D01*
X218669357Y-86632271D01*
X218656591Y-86607685D01*
X218648121Y-86591370D01*
X218645639Y-86585974D01*
X218628414Y-86543234D01*
X218628412Y-86543231D01*
X218628410Y-86543226D01*
X218587580Y-86474546D01*
X218585848Y-86471433D01*
X218568168Y-86437383D01*
X218549036Y-86400535D01*
X218524662Y-86367256D01*
X218521803Y-86363352D01*
X218518527Y-86358398D01*
X218516153Y-86354405D01*
X218494982Y-86318792D01*
X218444145Y-86257149D01*
X218441960Y-86254339D01*
X218394752Y-86189882D01*
X218362166Y-86157296D01*
X218358172Y-86152900D01*
X218328852Y-86117348D01*
X218276840Y-86070994D01*
X218250910Y-86046040D01*
X218216351Y-86011481D01*
X218205319Y-86002021D01*
X218202683Y-85999626D01*
X218145116Y-85944224D01*
X218145114Y-85944222D01*
X218123365Y-85928924D01*
X218107416Y-85917705D01*
X218102742Y-85914072D01*
X218067749Y-85884069D01*
X217999854Y-85841924D01*
X217996891Y-85839964D01*
X217931558Y-85794010D01*
X217931549Y-85794005D01*
X217931544Y-85794001D01*
X217912873Y-85784756D01*
X217890252Y-85773555D01*
X217885065Y-85770670D01*
X217864799Y-85758091D01*
X217845903Y-85746362D01*
X217845899Y-85746360D01*
X217845897Y-85746359D01*
X217796214Y-85725220D01*
X217772376Y-85715078D01*
X217769146Y-85713592D01*
X217743045Y-85700669D01*
X217697547Y-85678141D01*
X217697544Y-85678140D01*
X217697540Y-85678138D01*
X217653612Y-85664237D01*
X217648049Y-85662179D01*
X217605638Y-85644134D01*
X217528193Y-85624439D01*
X217524778Y-85623465D01*
X217502566Y-85616435D01*
X217448607Y-85599359D01*
X217448595Y-85599356D01*
X217403062Y-85592323D01*
X217397244Y-85591137D01*
X217352583Y-85579779D01*
X217273052Y-85572138D01*
X217269518Y-85571696D01*
X217190555Y-85559500D01*
X217144472Y-85559500D01*
X217138540Y-85559216D01*
X217126579Y-85558067D01*
X217092668Y-85554809D01*
X217092666Y-85554809D01*
X217092665Y-85554809D01*
X217075618Y-85555789D01*
X217012891Y-85559398D01*
X217009352Y-85559500D01*
X210773352Y-85559500D01*
X210740865Y-85554603D01*
X210740806Y-85554863D01*
X210737337Y-85554071D01*
X210736798Y-85553990D01*
X210736277Y-85553829D01*
X210476111Y-85494448D01*
X210276635Y-85479500D01*
X210276629Y-85479500D01*
X209103371Y-85479500D01*
X209103365Y-85479500D01*
X208903888Y-85494448D01*
X208643728Y-85553828D01*
X208643720Y-85553830D01*
X208643717Y-85553831D01*
X208643714Y-85553831D01*
X208643711Y-85553833D01*
X208395303Y-85651326D01*
X208164196Y-85784756D01*
X207955551Y-85951144D01*
X207774043Y-86146765D01*
X207623718Y-86367252D01*
X207623716Y-86367256D01*
X207507931Y-86607685D01*
X207429273Y-86862688D01*
X207429271Y-86862694D01*
X207389500Y-87126562D01*
X207389500Y-87393437D01*
X207429271Y-87657305D01*
X207429273Y-87657310D01*
X207507931Y-87912314D01*
X207507932Y-87912317D01*
X207507933Y-87912319D01*
X207608641Y-88121439D01*
X207623718Y-88152746D01*
X207774045Y-88373237D01*
X207809687Y-88411650D01*
X207955551Y-88568855D01*
X207955555Y-88568858D01*
X207955556Y-88568859D01*
X208164196Y-88735244D01*
X208395304Y-88868674D01*
X208643717Y-88966169D01*
X208903886Y-89025551D01*
X208953757Y-89029288D01*
X209103365Y-89040500D01*
X209103371Y-89040500D01*
X210276635Y-89040500D01*
X210409619Y-89030534D01*
X210476114Y-89025551D01*
X210736283Y-88966169D01*
X210736292Y-88966165D01*
X210736798Y-88966010D01*
X210737337Y-88965928D01*
X210740806Y-88965137D01*
X210740865Y-88965396D01*
X210773352Y-88960500D01*
X215275500Y-88960500D01*
X215342539Y-88980185D01*
X215388294Y-89032989D01*
X215399500Y-89084500D01*
X215399500Y-93355500D01*
X215379815Y-93422539D01*
X215327011Y-93468294D01*
X215275500Y-93479500D01*
X210773352Y-93479500D01*
X210740865Y-93474603D01*
X210740806Y-93474863D01*
X210737337Y-93474071D01*
X210736798Y-93473990D01*
X210736277Y-93473829D01*
X210476111Y-93414448D01*
X210276635Y-93399500D01*
X210276629Y-93399500D01*
X209103371Y-93399500D01*
X209103365Y-93399500D01*
X208903888Y-93414448D01*
X208643722Y-93473829D01*
X208643202Y-93473990D01*
X208642662Y-93474071D01*
X208639194Y-93474863D01*
X208639134Y-93474603D01*
X208606648Y-93479500D01*
X192138352Y-93479500D01*
X192130056Y-93478943D01*
X192117958Y-93477311D01*
X192117957Y-93477311D01*
X192003711Y-93479500D01*
X191954823Y-93479500D01*
X191940331Y-93480612D01*
X191936782Y-93480782D01*
X191856903Y-93482312D01*
X191856895Y-93482313D01*
X191811492Y-93490217D01*
X191805604Y-93490954D01*
X191761844Y-93494315D01*
X191759656Y-93494484D01*
X191735752Y-93500077D01*
X191681836Y-93512693D01*
X191678351Y-93513403D01*
X191671866Y-93514532D01*
X191599662Y-93527106D01*
X191599651Y-93527109D01*
X191556000Y-93541849D01*
X191550300Y-93543475D01*
X191510213Y-93552855D01*
X191505418Y-93553978D01*
X191505413Y-93553979D01*
X191431301Y-93583847D01*
X191427962Y-93585083D01*
X191352270Y-93610642D01*
X191311365Y-93631879D01*
X191305974Y-93634358D01*
X191263242Y-93651581D01*
X191263235Y-93651585D01*
X191194550Y-93692417D01*
X191191438Y-93694149D01*
X191120538Y-93730961D01*
X191120530Y-93730966D01*
X191083355Y-93758192D01*
X191078405Y-93761466D01*
X191038799Y-93785013D01*
X191038791Y-93785018D01*
X191014244Y-93805262D01*
X190977166Y-93835840D01*
X190977151Y-93835852D01*
X190974339Y-93838038D01*
X190909877Y-93885251D01*
X190877288Y-93917839D01*
X190872894Y-93921831D01*
X190837349Y-93951147D01*
X190837344Y-93951151D01*
X190784189Y-94010795D01*
X190781744Y-94013385D01*
X182121949Y-102673181D01*
X182060626Y-102706666D01*
X182034268Y-102709500D01*
X171424500Y-102709500D01*
X171357461Y-102689815D01*
X171311706Y-102637011D01*
X171300500Y-102585500D01*
X171300500Y-92241092D01*
X171301762Y-92223445D01*
X171305133Y-92199999D01*
X171301762Y-92176552D01*
X171300500Y-92158906D01*
X171300500Y-91353437D01*
X207389500Y-91353437D01*
X207429271Y-91617305D01*
X207429273Y-91617310D01*
X207507931Y-91872314D01*
X207507932Y-91872317D01*
X207507933Y-91872319D01*
X207623716Y-92112742D01*
X207623718Y-92112746D01*
X207774045Y-92333237D01*
X207842682Y-92407210D01*
X207955551Y-92528855D01*
X207955555Y-92528858D01*
X207955556Y-92528859D01*
X208164196Y-92695244D01*
X208395304Y-92828674D01*
X208643717Y-92926169D01*
X208903886Y-92985551D01*
X208953757Y-92989288D01*
X209103365Y-93000500D01*
X209103371Y-93000500D01*
X210276635Y-93000500D01*
X210409619Y-92990534D01*
X210476114Y-92985551D01*
X210736283Y-92926169D01*
X210984696Y-92828674D01*
X211215804Y-92695244D01*
X211424444Y-92528859D01*
X211605955Y-92333237D01*
X211756282Y-92112747D01*
X211872069Y-91872314D01*
X211950727Y-91617310D01*
X211990500Y-91353430D01*
X211990500Y-91086570D01*
X211982978Y-91036663D01*
X211950728Y-90822694D01*
X211950726Y-90822688D01*
X211947839Y-90813328D01*
X211872069Y-90567686D01*
X211756282Y-90327254D01*
X211605955Y-90106763D01*
X211530998Y-90025979D01*
X211424448Y-89911144D01*
X211384320Y-89879143D01*
X211215804Y-89744756D01*
X210984696Y-89611326D01*
X210736283Y-89513831D01*
X210736274Y-89513829D01*
X210736271Y-89513828D01*
X210476111Y-89454448D01*
X210276635Y-89439500D01*
X210276629Y-89439500D01*
X209103371Y-89439500D01*
X209103365Y-89439500D01*
X208903888Y-89454448D01*
X208643728Y-89513828D01*
X208643720Y-89513830D01*
X208643717Y-89513831D01*
X208643714Y-89513831D01*
X208643711Y-89513833D01*
X208395303Y-89611326D01*
X208164196Y-89744756D01*
X207955551Y-89911144D01*
X207774043Y-90106765D01*
X207623718Y-90327252D01*
X207623716Y-90327256D01*
X207507931Y-90567685D01*
X207429273Y-90822688D01*
X207429271Y-90822694D01*
X207389500Y-91086562D01*
X207389500Y-91353437D01*
X171300500Y-91353437D01*
X171300500Y-91291092D01*
X171301762Y-91273445D01*
X171305133Y-91250000D01*
X171301039Y-91221528D01*
X171300583Y-91217344D01*
X171300500Y-91216240D01*
X171295703Y-91184412D01*
X171286562Y-91120837D01*
X171285635Y-91116643D01*
X171285349Y-91115715D01*
X171257886Y-91058688D01*
X171247827Y-91036663D01*
X171232882Y-91003937D01*
X171232879Y-91003934D01*
X171229501Y-90998676D01*
X171226986Y-90994181D01*
X171226424Y-90993357D01*
X171185454Y-90949202D01*
X171177586Y-90940122D01*
X171148049Y-90906033D01*
X171148042Y-90906028D01*
X171141349Y-90900228D01*
X171141896Y-90899596D01*
X171141554Y-90899311D01*
X171141323Y-90899602D01*
X171134057Y-90893809D01*
X171134055Y-90893806D01*
X171085818Y-90865956D01*
X171083307Y-90864426D01*
X171039072Y-90835997D01*
X171031002Y-90832312D01*
X171031107Y-90832080D01*
X171019295Y-90827022D01*
X171016449Y-90825905D01*
X170965541Y-90814285D01*
X170961872Y-90813328D01*
X170914772Y-90799500D01*
X170914732Y-90799500D01*
X170887140Y-90796391D01*
X170884046Y-90795685D01*
X170884042Y-90795684D01*
X170852709Y-90798033D01*
X170835438Y-90799327D01*
X170830822Y-90799500D01*
X170785224Y-90799500D01*
X170781387Y-90800627D01*
X170755727Y-90805301D01*
X170748622Y-90805833D01*
X170706520Y-90822356D01*
X170701338Y-90824130D01*
X170660927Y-90835997D01*
X170654241Y-90840294D01*
X170632518Y-90851400D01*
X170622207Y-90855447D01*
X170622203Y-90855449D01*
X170589571Y-90881471D01*
X170584436Y-90885154D01*
X170551953Y-90906031D01*
X170551944Y-90906039D01*
X170544158Y-90915024D01*
X170527769Y-90930758D01*
X170516032Y-90940118D01*
X170516029Y-90940122D01*
X170494486Y-90971718D01*
X170490115Y-90977393D01*
X170467119Y-91003934D01*
X170467116Y-91003939D01*
X170460544Y-91018329D01*
X170450207Y-91036663D01*
X170439527Y-91052327D01*
X170429286Y-91085529D01*
X170426436Y-91093014D01*
X170413302Y-91121774D01*
X170410490Y-91141332D01*
X170406246Y-91160223D01*
X170399500Y-91182095D01*
X170399500Y-91208906D01*
X170398238Y-91226552D01*
X170394867Y-91249999D01*
X170398238Y-91273445D01*
X170399500Y-91291092D01*
X170399500Y-92158906D01*
X170398238Y-92176552D01*
X170394867Y-92199999D01*
X170398238Y-92223445D01*
X170399500Y-92241092D01*
X170399500Y-102585500D01*
X170379815Y-102652539D01*
X170327011Y-102698294D01*
X170275500Y-102709500D01*
X159724500Y-102709500D01*
X159657461Y-102689815D01*
X159611706Y-102637011D01*
X159600500Y-102585500D01*
X159600500Y-93534823D01*
X159599908Y-93527108D01*
X159585516Y-93339656D01*
X159526021Y-93085414D01*
X159526018Y-93085406D01*
X159428418Y-92843241D01*
X159428413Y-92843232D01*
X159340433Y-92695244D01*
X159294982Y-92618792D01*
X159128852Y-92417348D01*
X159128849Y-92417345D01*
X158933928Y-92243631D01*
X158933911Y-92243618D01*
X158714757Y-92101695D01*
X158714753Y-92101694D01*
X158476488Y-91994881D01*
X158224714Y-91925693D01*
X158051946Y-91905748D01*
X157965325Y-91895748D01*
X157965324Y-91895748D01*
X157704406Y-91905748D01*
X157448071Y-91955462D01*
X157448069Y-91955462D01*
X157202336Y-92043718D01*
X156972939Y-92168461D01*
X156765288Y-92326746D01*
X156765284Y-92326749D01*
X156765284Y-92326750D01*
X156625907Y-92471572D01*
X156584223Y-92514885D01*
X156584214Y-92514895D01*
X156434010Y-92728441D01*
X156433999Y-92728460D01*
X156318139Y-92962455D01*
X156286349Y-93062913D01*
X156247355Y-93120889D01*
X156183207Y-93148580D01*
X156168128Y-93149500D01*
X155635227Y-93149500D01*
X155606574Y-93157912D01*
X155598343Y-93159732D01*
X155565718Y-93164650D01*
X155565711Y-93164652D01*
X155546864Y-93173728D01*
X155528010Y-93180980D01*
X155510931Y-93185995D01*
X155482855Y-93204038D01*
X155476234Y-93207741D01*
X155443363Y-93223571D01*
X155443358Y-93223574D01*
X155430902Y-93235131D01*
X155413616Y-93248534D01*
X155401954Y-93256029D01*
X155401951Y-93256032D01*
X155377806Y-93283896D01*
X155373119Y-93288745D01*
X155343806Y-93315944D01*
X155343802Y-93315949D01*
X155337275Y-93327253D01*
X155323616Y-93346435D01*
X155317119Y-93353934D01*
X155317117Y-93353936D01*
X155300352Y-93390646D01*
X155297649Y-93395891D01*
X155275903Y-93433554D01*
X155275903Y-93433556D01*
X155273878Y-93442429D01*
X155265783Y-93466342D01*
X155263303Y-93471771D01*
X155263303Y-93471772D01*
X155257061Y-93515183D01*
X155256137Y-93520156D01*
X155245685Y-93565950D01*
X155246070Y-93571096D01*
X155245155Y-93597994D01*
X155244867Y-93599998D01*
X155244867Y-93600004D01*
X155251603Y-93646863D01*
X155252061Y-93651051D01*
X155255833Y-93701374D01*
X155255834Y-93701381D01*
X155256271Y-93702493D01*
X155261000Y-93720382D01*
X155263302Y-93728224D01*
X155284420Y-93774468D01*
X155285737Y-93777572D01*
X155305446Y-93827791D01*
X155310094Y-93835840D01*
X155310019Y-93835882D01*
X155311869Y-93838894D01*
X155312323Y-93838603D01*
X155317115Y-93846059D01*
X155353517Y-93888070D01*
X155390119Y-93933968D01*
X155391010Y-93934794D01*
X155394208Y-93937257D01*
X155401952Y-93943968D01*
X155413125Y-93951148D01*
X155451294Y-93975677D01*
X155502327Y-94010472D01*
X155502332Y-94010473D01*
X155503155Y-94010870D01*
X155508666Y-94012968D01*
X155510921Y-94013997D01*
X155510931Y-94014004D01*
X155570134Y-94031387D01*
X155632098Y-94050500D01*
X155635228Y-94050500D01*
X155764772Y-94050500D01*
X156075500Y-94050500D01*
X156142539Y-94070185D01*
X156188294Y-94122989D01*
X156199500Y-94174500D01*
X156199500Y-100225500D01*
X156179815Y-100292539D01*
X156127011Y-100338294D01*
X156075500Y-100349500D01*
X155635227Y-100349500D01*
X155606574Y-100357912D01*
X155598343Y-100359732D01*
X155565718Y-100364650D01*
X155565711Y-100364652D01*
X155546864Y-100373728D01*
X155528010Y-100380980D01*
X155510931Y-100385995D01*
X155482855Y-100404038D01*
X155476234Y-100407741D01*
X155443363Y-100423571D01*
X155443358Y-100423574D01*
X155430902Y-100435131D01*
X155413616Y-100448534D01*
X155401954Y-100456029D01*
X155401951Y-100456032D01*
X155377806Y-100483896D01*
X155373119Y-100488745D01*
X155343806Y-100515944D01*
X155343802Y-100515949D01*
X155337275Y-100527253D01*
X155323616Y-100546435D01*
X155317119Y-100553934D01*
X155317117Y-100553936D01*
X155300352Y-100590646D01*
X155297649Y-100595891D01*
X155275903Y-100633554D01*
X155275903Y-100633556D01*
X155273878Y-100642429D01*
X155265783Y-100666342D01*
X155263303Y-100671771D01*
X155263303Y-100671772D01*
X155257061Y-100715183D01*
X155256137Y-100720156D01*
X155245685Y-100765950D01*
X155246070Y-100771096D01*
X155245155Y-100797994D01*
X155244867Y-100799998D01*
X155244867Y-100800004D01*
X155251603Y-100846863D01*
X155252061Y-100851051D01*
X155255833Y-100901374D01*
X155255834Y-100901381D01*
X155256271Y-100902493D01*
X155261000Y-100920382D01*
X155263302Y-100928224D01*
X155284420Y-100974468D01*
X155285737Y-100977572D01*
X155305446Y-101027791D01*
X155310094Y-101035840D01*
X155310019Y-101035882D01*
X155311869Y-101038894D01*
X155312323Y-101038603D01*
X155317115Y-101046059D01*
X155353517Y-101088070D01*
X155390119Y-101133968D01*
X155391010Y-101134794D01*
X155394208Y-101137257D01*
X155401952Y-101143968D01*
X155426622Y-101159822D01*
X155451294Y-101175677D01*
X155502327Y-101210472D01*
X155502332Y-101210473D01*
X155503155Y-101210870D01*
X155508666Y-101212968D01*
X155510921Y-101213997D01*
X155510931Y-101214004D01*
X155570134Y-101231387D01*
X155632098Y-101250500D01*
X155635228Y-101250500D01*
X155764772Y-101250500D01*
X156075500Y-101250500D01*
X156142539Y-101270185D01*
X156188294Y-101322989D01*
X156199500Y-101374500D01*
X156199500Y-104308603D01*
X156199091Y-104315719D01*
X156195748Y-104344675D01*
X156199500Y-104442561D01*
X156199500Y-107425500D01*
X156179815Y-107492539D01*
X156127011Y-107538294D01*
X156075500Y-107549500D01*
X155635227Y-107549500D01*
X155606574Y-107557912D01*
X155598343Y-107559732D01*
X155565718Y-107564650D01*
X155565711Y-107564652D01*
X155546864Y-107573728D01*
X155528010Y-107580980D01*
X155510931Y-107585995D01*
X155482855Y-107604038D01*
X155476234Y-107607741D01*
X155443363Y-107623571D01*
X155443358Y-107623574D01*
X155430902Y-107635131D01*
X155413616Y-107648534D01*
X155401954Y-107656029D01*
X155401951Y-107656032D01*
X155377806Y-107683896D01*
X155373119Y-107688745D01*
X155343806Y-107715944D01*
X155343802Y-107715949D01*
X155337275Y-107727253D01*
X155323616Y-107746435D01*
X155317119Y-107753934D01*
X155317117Y-107753936D01*
X155300352Y-107790646D01*
X155297649Y-107795891D01*
X155275903Y-107833554D01*
X155275903Y-107833556D01*
X155273878Y-107842429D01*
X155265783Y-107866342D01*
X155263303Y-107871771D01*
X155263303Y-107871772D01*
X155257061Y-107915183D01*
X155256137Y-107920156D01*
X155245685Y-107965950D01*
X155246070Y-107971096D01*
X155245155Y-107997994D01*
X155244867Y-107999998D01*
X155244867Y-108000004D01*
X152850500Y-108000004D01*
X152850500Y-93045071D01*
X152870185Y-92978032D01*
X152886814Y-92957395D01*
X159163582Y-86680627D01*
X159224919Y-86622323D01*
X159258161Y-86574562D01*
X159260962Y-86570846D01*
X159297734Y-86525751D01*
X159312758Y-86496986D01*
X159316819Y-86490283D01*
X159335353Y-86463658D01*
X159358304Y-86410173D01*
X159360295Y-86405981D01*
X159387237Y-86354406D01*
X159396163Y-86323209D01*
X159398790Y-86315829D01*
X159411587Y-86286012D01*
X159423297Y-86229022D01*
X159424417Y-86224464D01*
X159434313Y-86189882D01*
X159440417Y-86168551D01*
X159442879Y-86136195D01*
X159443967Y-86128437D01*
X159450500Y-86096656D01*
X159450500Y-86038496D01*
X159450679Y-86033787D01*
X159455095Y-85975797D01*
X159451955Y-85951144D01*
X159450996Y-85943615D01*
X159450500Y-85935784D01*
X159450500Y-84684269D01*
X207389500Y-84684269D01*
X207392353Y-84714699D01*
X207392353Y-84714701D01*
X207437206Y-84842880D01*
X207437207Y-84842882D01*
X207517850Y-84952150D01*
X207627118Y-85032793D01*
X207669845Y-85047744D01*
X207755299Y-85077646D01*
X207785730Y-85080500D01*
X207785734Y-85080500D01*
X211594270Y-85080500D01*
X211624699Y-85077646D01*
X211624701Y-85077646D01*
X211688790Y-85055219D01*
X211752882Y-85032793D01*
X211862150Y-84952150D01*
X211942793Y-84842882D01*
X211983303Y-84727111D01*
X211987646Y-84714701D01*
X211987646Y-84714699D01*
X211990500Y-84684269D01*
X211990500Y-81915730D01*
X211987646Y-81885300D01*
X211987646Y-81885298D01*
X211950800Y-81780000D01*
X211942793Y-81757118D01*
X211862150Y-81647850D01*
X211752882Y-81567207D01*
X211752880Y-81567206D01*
X211624700Y-81522353D01*
X211594270Y-81519500D01*
X211594266Y-81519500D01*
X207785734Y-81519500D01*
X207785730Y-81519500D01*
X207755300Y-81522353D01*
X207755298Y-81522353D01*
X207627119Y-81567206D01*
X207627117Y-81567207D01*
X207517850Y-81647850D01*
X207437207Y-81757117D01*
X207437206Y-81757119D01*
X207392353Y-81885298D01*
X207392353Y-81885300D01*
X207389500Y-81915730D01*
X207389500Y-84684269D01*
X159450500Y-84684269D01*
X159450500Y-68625668D01*
X159450580Y-68622528D01*
X159451827Y-68597923D01*
X159454176Y-68551610D01*
X159443423Y-68481425D01*
X159443027Y-68478311D01*
X159440690Y-68455326D01*
X159435845Y-68407679D01*
X159431404Y-68393528D01*
X159427149Y-68375192D01*
X159424903Y-68360526D01*
X159407667Y-68313988D01*
X159400241Y-68293937D01*
X159399225Y-68290964D01*
X159392077Y-68268181D01*
X159377974Y-68223232D01*
X159370773Y-68210260D01*
X159362915Y-68193157D01*
X159357764Y-68179247D01*
X159320199Y-68118979D01*
X159318634Y-68116320D01*
X159284159Y-68054209D01*
X159274499Y-68042956D01*
X159263353Y-68027778D01*
X159255509Y-68015193D01*
X159219845Y-67977675D01*
X159206574Y-67963714D01*
X159204494Y-67961411D01*
X159185406Y-67939177D01*
X159158241Y-67907532D01*
X159146517Y-67898458D01*
X159132542Y-67885832D01*
X159122323Y-67875081D01*
X159122318Y-67875077D01*
X159064047Y-67834519D01*
X159061516Y-67832660D01*
X159005375Y-67789205D01*
X159005373Y-67789204D01*
X158992059Y-67782673D01*
X158975830Y-67773119D01*
X158963658Y-67764647D01*
X158963651Y-67764643D01*
X158898395Y-67736639D01*
X158895541Y-67735328D01*
X158831820Y-67704071D01*
X158817452Y-67700350D01*
X158799653Y-67694266D01*
X158792447Y-67691174D01*
X158786012Y-67688413D01*
X158786010Y-67688412D01*
X158716467Y-67674120D01*
X158713407Y-67673410D01*
X158644676Y-67655615D01*
X158629852Y-67654863D01*
X158611180Y-67652484D01*
X158596658Y-67649500D01*
X158596656Y-67649500D01*
X158525668Y-67649500D01*
X158522528Y-67649420D01*
X158451610Y-67645824D01*
X158451605Y-67645824D01*
X158436948Y-67648070D01*
X158418172Y-67649500D01*
X142125668Y-67649500D01*
X142122528Y-67649420D01*
X142051610Y-67645824D01*
X142051605Y-67645824D01*
X142036948Y-67648070D01*
X142018172Y-67649500D01*
X117125668Y-67649500D01*
X117122528Y-67649420D01*
X117051611Y-67645824D01*
X117051603Y-67645824D01*
X116981436Y-67656573D01*
X116978321Y-67656970D01*
X116907684Y-67664154D01*
X116907673Y-67664156D01*
X116893520Y-67668596D01*
X116875196Y-67672848D01*
X116860529Y-67675096D01*
X116860522Y-67675097D01*
X116793936Y-67699757D01*
X116790967Y-67700772D01*
X116723236Y-67722024D01*
X116723233Y-67722025D01*
X116710260Y-67729226D01*
X116693157Y-67737084D01*
X116679249Y-67742235D01*
X116679246Y-67742236D01*
X116618990Y-67779791D01*
X116616286Y-67781383D01*
X116554209Y-67815840D01*
X116554207Y-67815841D01*
X116542951Y-67825504D01*
X116527788Y-67836639D01*
X116515191Y-67844491D01*
X116463725Y-67893414D01*
X116461394Y-67895520D01*
X116407534Y-67941757D01*
X116407533Y-67941758D01*
X116398451Y-67953490D01*
X116385837Y-67967451D01*
X116375081Y-67977675D01*
X116334505Y-68035970D01*
X116332647Y-68038500D01*
X116289202Y-68094628D01*
X116282671Y-68107943D01*
X116273122Y-68124165D01*
X116264648Y-68136340D01*
X116264647Y-68136342D01*
X116236644Y-68201595D01*
X116235333Y-68204449D01*
X116204071Y-68268181D01*
X116204069Y-68268185D01*
X116200351Y-68282543D01*
X116194268Y-68300339D01*
X116188412Y-68313987D01*
X116174118Y-68383541D01*
X116173408Y-68386600D01*
X116155615Y-68455323D01*
X116154863Y-68470148D01*
X116152484Y-68488818D01*
X116149500Y-68503338D01*
X116149500Y-68574330D01*
X116149420Y-68577470D01*
X116145824Y-68648389D01*
X116145824Y-68648390D01*
X116148070Y-68663050D01*
X116149500Y-68681827D01*
X116149500Y-72093715D01*
X116134858Y-72152169D01*
X116124769Y-72171043D01*
X116064699Y-72369067D01*
X116049500Y-72523395D01*
X116049500Y-72876604D01*
X110000500Y-72876604D01*
X110000500Y-51002705D01*
X110000736Y-50997299D01*
X110004476Y-50954554D01*
X110016918Y-50828223D01*
X110020542Y-50808309D01*
X110038402Y-50741653D01*
X110066683Y-50648424D01*
X110072953Y-50632037D01*
X110104420Y-50564558D01*
X110105872Y-50561653D01*
X110150764Y-50477666D01*
X110154657Y-50471331D01*
X110187837Y-50423945D01*
X110200994Y-50405155D01*
X110203827Y-50401420D01*
X110263122Y-50329168D01*
X110267162Y-50324710D01*
X110324710Y-50267162D01*
X110329168Y-50263122D01*
X110401420Y-50203827D01*
X110405155Y-50200994D01*
X110471334Y-50154654D01*
X110477666Y-50150764D01*
X110561653Y-50105872D01*
X110564558Y-50104420D01*
X110632037Y-50072953D01*
X110648424Y-50066683D01*
X110741653Y-50038402D01*
X110808309Y-50020542D01*
X110828223Y-50016918D01*
X110954542Y-50004477D01*
X110997305Y-50000735D01*
X111002706Y-50000500D01*
X118997293Y-50000500D01*
X119002695Y-50000735D01*
G37*
%TD.AperFunction*%
%TD*%
M02*
