M48
; DRILL file {KiCad 7.0.6-7.0.6~ubuntu22.04.1} date Sel 05 Sep 2023 02:51:34 
; FORMAT={-:-/ absolute / inch / decimal}
; #@! TF.CreationDate,2023-09-05T14:51:34+08:00
; #@! TF.GenerationSoftware,Kicad,Pcbnew,7.0.6-7.0.6~ubuntu22.04.1
; #@! TF.FileFunction,Plated,1,4,PTH
FMAT,2
INCH
; #@! TA.AperFunction,Plated,PTH,ComponentDrill
T1C0.0079
; #@! TA.AperFunction,Plated,PTH,ViaDrill
T2C0.0118
; #@! TA.AperFunction,Plated,PTH,ComponentDrill
T3C0.0236
; #@! TA.AperFunction,Plated,PTH,ComponentDrill
T4C0.0335
; #@! TA.AperFunction,Plated,PTH,ComponentDrill
T5C0.0394
%
G90
G05
T1
X6.5714Y-3.3549
X6.5714Y-3.41
X6.5989Y-3.3274
X6.5989Y-3.3825
X6.5989Y-3.4376
X6.6265Y-3.3549
X6.6265Y-3.41
X6.654Y-3.3274
X6.654Y-3.3825
X6.654Y-3.4376
X6.6816Y-3.3549
X6.6816Y-3.41
T2
X5.1575Y-2.0079
X5.1575Y-4.6457
X5.2508Y-3.989
X5.274Y-4.0394
X5.3051Y-3.8307
X5.315Y-4.0425
X5.3343Y-3.9693
X5.3409Y-4.4492
X5.3484Y-4.2441
X5.424Y-2.6709
X5.4303Y-3.978
X5.4303Y-4.0307
X5.4421Y-2.6484
X5.4642Y-4.5039
X5.4705Y-4.0421
X5.4705Y-4.2441
X5.5118Y-2.0079
X5.5118Y-4.6457
X5.5157Y-2.7059
X5.5157Y-2.79
X5.5157Y-2.874
X5.5449Y-4.0398
X5.565Y-4.2067
X5.5709Y-3.7736
X5.5898Y-3.9031
X5.5945Y-3.9724
X5.6157Y-4.1488
X5.6429Y-4.2831
X5.6453Y-2.9992
X5.6587Y-2.7059
X5.6587Y-2.79
X5.6587Y-2.874
X5.6622Y-4.4358
X5.6772Y-4.1634
X5.685Y-3.2173
X5.7217Y-4.2701
X5.7319Y-3.1681
X5.7323Y-2.439
X5.7331Y-2.3386
X5.7382Y-2.6008
X5.7413Y-4.0429
X5.7539Y-2.389
X5.7791Y-2.389
X5.7803Y-2.337
X5.7878Y-2.6134
X5.814Y-4.2126
X5.8366Y-3.8445
X5.8555Y-2.9992
X5.8642Y-2.6244
X5.8736Y-4.128
X5.874Y-4.1575
X5.878Y-2.7035
X5.8858Y-3.9252
X5.8858Y-3.9744
X5.8858Y-4.0236
X5.9035Y-2.4705
X5.9043Y-3.1657
X5.9146Y-2.8543
X5.9154Y-3.8445
X5.938Y-4.2126
X5.9449Y-4.311
X5.9598Y-3.2197
X5.9602Y-2.5189
X5.9823Y-3.8815
X5.9882Y-4.315
X5.9929Y-2.8642
X5.9965Y-2.3744
X5.9976Y-3.8197
X5.9996Y-2.7386
X6.0142Y-4.0028
X6.048Y-2.426
X6.0496Y-2.2264
X6.0634Y-3.9287
X6.0657Y-2.9524
X6.0697Y-3.8244
X6.1012Y-3.5618
X6.1039Y-3.5224
X6.1201Y-3.9661
X6.1283Y-4.1217
X6.1295Y-2.2563
X6.1319Y-3.7094
X6.1327Y-3.0224
X6.1354Y-3.2555
X6.139Y-3.8122
X6.1469Y-3.6677
X6.148Y-2.8185
X6.1508Y-3.5142
X6.1575Y-2.628
X6.165Y-3.5921
X6.1657Y-2.711
X6.1661Y-3.2303
X6.1661Y-3.2803
X6.1661Y-3.3303
X6.1661Y-3.6303
X6.1736Y-2.4276
X6.2055Y-2.9398
X6.2598Y-2.6299
X6.2677Y-3.0299
X6.2756Y-3.0654
X6.2799Y-3.6382
X6.2854Y-2.9913
X6.3087Y-3.2079
X6.3102Y-2.9362
X6.3157Y-3.9173
X6.3189Y-4.1378
X6.3524Y-2.7063
X6.3543Y-3.9744
X6.3555Y-2.8543
X6.3563Y-2.622
X6.3579Y-3.5937
X6.3783Y-3.0622
X6.3815Y-3.502
X6.3862Y-3.3772
X6.3976Y-2.8551
X6.4075Y-2.7594
X6.4102Y-3.0949
X6.4142Y-3.2531
X6.4157Y-3.9744
X6.4232Y-2.6496
X6.4409Y-3.8957
X6.4413Y-3.7894
X6.4492Y-3.9929
X6.4591Y-3.6555
X6.4618Y-3.5201
X6.4752Y-3.7547
X6.4846Y-3.9902
X6.4878Y-2.8244
X6.4894Y-3.0933
X6.4941Y-2.6496
X6.5051Y-3.2559
X6.5154Y-2.9272
X6.528Y-3.7886
X6.528Y-3.9004
X6.5331Y-3.7417
X6.5421Y-3.0441
X6.5533Y-3.9744
X6.5709Y-3.6327
X6.5713Y-2.5961
X6.5898Y-2.3992
X6.5933Y-3.672
X6.5949Y-3.598
X6.6024Y-3.261
X6.6146Y-3.9744
X6.6185Y-2.826
X6.6272Y-2.9272
X6.6406Y-3.1043
X6.6756Y-3.5236
X6.6758Y-3.9744
X6.6819Y-3.5961
X6.6839Y-3.6697
X6.7134Y-3.1043
X6.7248Y-4.0717
X6.7421Y-2.8697
X6.7492Y-3.5248
X6.7563Y-3.2516
X6.7575Y-3.3874
X6.785Y-2.3992
X6.7937Y-2.9256
X6.8075Y-4.0701
X6.8283Y-2.7472
X6.8283Y-3.1598
X6.8457Y-3.1189
X6.8457Y-3.4252
X6.8461Y-3.6724
X6.8465Y-3.5165
X6.8489Y-3.5616
X6.8497Y-3.6301
X6.8504Y-3.0421
X6.8709Y-2.7469
X6.8996Y-4.0709
X6.9665Y-3.4528
X6.972Y-3.5197
X6.9724Y-3.6161
X6.9772Y-3.0843
X7.0067Y-3.9555
X7.0079Y-2.0079
X7.0079Y-4.6457
X7.0098Y-3.2736
X7.0453Y-3.7047
X7.0591Y-3.3661
X7.0591Y-3.5945
X7.0602Y-2.7057
X7.0602Y-2.7898
X7.0602Y-2.8738
X7.0807Y-4.2441
X7.0906Y-3.5039
X7.0969Y-3.9921
X7.1638Y-4.028
X7.1843Y-3.2004
X7.1843Y-3.6268
X7.1846Y-3.2563
X7.1846Y-3.5685
X7.2028Y-4.2441
X7.2031Y-2.7057
X7.2031Y-2.7898
X7.2031Y-2.8738
X7.3622Y-2.0079
X7.3622Y-4.6457
T4
X5.7874Y-4.2638
X5.9843Y-4.2638
T5
X6.0087Y-2.4787
X6.0087Y-2.5787
X6.1087Y-2.4787
X6.1087Y-2.5787
X6.2087Y-2.4787
X6.2087Y-2.5787
X6.3087Y-2.4787
X6.3087Y-2.5787
X6.4087Y-2.4787
X6.4087Y-2.5787
X6.5087Y-2.4787
X6.5087Y-2.5787
T3
G00X5.748Y-4.3839
M15
G01X5.748Y-4.3563
M16
G05
G00X6.0236Y-4.3563
M15
G01X6.0236Y-4.3839
M16
G05
T0
M30
