M48
; DRILL file {KiCad 7.0.8-7.0.8~ubuntu22.04.1} date Kam 09 Nov 2023 12:37:40 
; FORMAT={-:-/ absolute / inch / decimal}
; #@! TF.CreationDate,2023-11-09T12:37:40+08:00
; #@! TF.GenerationSoftware,Kicad,Pcbnew,7.0.8-7.0.8~ubuntu22.04.1
; #@! TF.FileFunction,Plated,1,2,PTH
FMAT,2
INCH
; #@! TA.AperFunction,Plated,PTH,ViaDrill
T1C0.0118
; #@! TA.AperFunction,Plated,PTH,ComponentDrill
T2C0.0362
; #@! TA.AperFunction,Plated,PTH,ComponentDrill
T3C0.0374
; #@! TA.AperFunction,Plated,PTH,ComponentDrill
T4C0.0394
; #@! TA.AperFunction,Plated,PTH,ComponentDrill
T5C0.0709
; #@! TA.AperFunction,Plated,PTH,ComponentDrill
T6C0.0906
%
G90
G05
T1
X4.5173Y-4.6215
X4.5173Y-4.6569
X4.5173Y-4.6923
X4.6457Y-4.8031
X4.6457Y-4.8425
X4.6457Y-4.8819
X4.6457Y-5.6063
X4.6457Y-5.6381
X4.6575Y-4.5079
X4.7Y-2.9224
X4.7035Y-4.2724
X4.7043Y-4.4217
X4.7047Y-4.3213
X4.7051Y-4.372
X4.713Y-4.647
X4.7992Y-4.097
X4.7992Y-4.147
X4.8047Y-2.9224
X4.8258Y-3.7392
X4.8258Y-3.9685
X4.826Y-3.8402
X4.826Y-3.924
X4.8858Y-3.3839
X4.8953Y-2.922
X4.9666Y-4.9633
X4.9807Y-4.0752
X4.9882Y-4.9461
X4.9941Y-2.9236
X5.0252Y-4.7736
X5.0404Y-4.6663
X5.0516Y-4.9678
X5.0685Y-4.9461
X5.0752Y-4.7736
X5.076Y-4.0756
X5.0768Y-3.9685
X5.1252Y-4.7736
X5.126Y-3.9685
X5.1535Y-3.5433
X5.1752Y-4.7736
X5.1763Y-4.9739
X5.185Y-5.0
X5.2047Y-3.8957
X5.2252Y-4.7736
X5.2252Y-4.8921
X5.237Y-4.078
X5.2421Y-3.8957
X5.2752Y-4.7736
X5.2795Y-3.2362
X5.2839Y-4.8836
X5.3Y-4.9059
X5.315Y-3.811
X5.3252Y-4.7736
X5.3764Y-4.0752
X5.378Y-4.9141
X5.3858Y-3.811
X5.3898Y-3.4646
X5.4008Y-4.9295
X5.4016Y-4.7736
X5.4146Y-3.8291
X5.4417Y-3.9665
X5.4752Y-3.8094
X5.5024Y-3.9665
X5.6181Y-5.315
X5.626Y-5.2323
X5.6626Y-5.1701
X5.6693Y-3.3903
X5.6732Y-5.4291
X5.6831Y-3.4966
X5.6929Y-3.2086
X5.6988Y-5.2941
X5.7008Y-3.2603
X5.7116Y-3.4232
X5.7283Y-3.1934
X5.752Y-3.4966
X5.752Y-3.5359
X5.7697Y-4.5217
X5.7744Y-5.3449
X5.7744Y-5.3913
X5.7795Y-3.1934
X5.7992Y-3.2564
X5.8067Y-5.3681
X5.811Y-3.4966
X5.811Y-3.5359
X5.8343Y-5.2598
X5.8406Y-3.1599
X5.8406Y-3.3332
X5.8583Y-4.5217
X5.8701Y-3.4966
X5.8701Y-3.5359
X5.9016Y-3.1934
X5.9319Y-5.3075
X5.9528Y-3.1934
X5.9803Y-3.2603
X5.9882Y-3.2086
X6.1693Y-5.0
X6.1693Y-5.0236
X6.1693Y-5.0472
X6.1693Y-5.0709
X6.1693Y-5.0945
X6.1693Y-5.1181
X6.1693Y-5.3504
X6.1693Y-5.374
X6.1693Y-5.3976
X6.1693Y-5.4213
X6.1693Y-5.4449
X6.1693Y-5.4685
X6.1693Y-5.4921
X6.1693Y-5.5157
X6.189Y-5.5354
X6.1929Y-4.9803
X6.2126Y-5.1492
X6.2126Y-5.5354
X6.2165Y-4.9803
X6.2362Y-5.5354
X6.2406Y-3.0906
X6.2406Y-3.4921
X6.2413Y-5.0606
X6.2598Y-5.5354
X6.2791Y-5.2606
X6.2835Y-5.5354
X6.3071Y-5.5354
X6.3307Y-5.5354
X6.3543Y-5.5354
X6.378Y-5.5354
X6.3819Y-4.9803
X6.3898Y-3.0512
X6.4016Y-5.5354
X6.4055Y-4.9803
X6.4173Y-3.0866
X6.4252Y-5.5354
X6.4291Y-4.9803
X6.4406Y-3.3965
X6.4488Y-5.5354
X6.4646Y-3.6496
X6.4646Y-3.9331
X6.4646Y-4.2165
X6.4724Y-5.5354
X6.4803Y-5.6378
X6.4882Y-3.0866
X6.5197Y-5.6378
X6.5591Y-5.6378
X6.5669Y-5.5354
X6.5906Y-5.5354
X6.5984Y-4.9803
X6.6142Y-5.5354
X6.622Y-4.9803
X6.6308Y-3.8661
X6.6378Y-5.5354
X6.6457Y-4.9803
X6.6614Y-5.5354
X6.6693Y-4.9803
X6.685Y-5.0
X6.685Y-5.0236
X6.685Y-5.0472
X6.685Y-5.0709
X6.685Y-5.0945
X6.685Y-5.1181
X6.685Y-5.1417
X6.685Y-5.1654
X6.685Y-5.189
X6.685Y-5.2126
X6.685Y-5.2362
X6.685Y-5.2598
X6.685Y-5.2835
X6.685Y-5.3071
X6.685Y-5.3307
X6.685Y-5.3543
X6.685Y-5.378
X6.685Y-5.4016
X6.685Y-5.4252
X6.685Y-5.4488
X6.685Y-5.4724
X6.685Y-5.4961
X6.685Y-5.5197
X6.6918Y-3.7854
X6.6918Y-3.9587
X6.7076Y-3.8661
X6.7126Y-3.0866
X6.7406Y-3.3961
X6.7657Y-3.0866
X6.7913Y-3.0437
X6.7981Y-3.9094
X6.8178Y-3.7854
X6.8189Y-3.0866
X6.8311Y-4.1106
X6.9138Y-3.815
X6.9406Y-3.3967
X6.9941Y-3.1413
X7.0201Y-3.6811
X7.0201Y-3.7835
X7.087Y-3.5866
X7.1063Y-5.4577
X7.1579Y-3.5315
X7.1766Y-3.114
X7.1766Y-3.2242
X7.1766Y-4.3112
X7.1766Y-4.4215
X7.1776Y-3.7165
X7.1776Y-3.8268
X7.188Y-5.3465
X7.188Y-5.5709
X7.2002Y-3.114
X7.2002Y-3.2242
X7.2002Y-4.3112
X7.2002Y-4.4215
X7.2012Y-3.7165
X7.2012Y-3.8268
X7.2238Y-3.114
X7.2238Y-3.2242
X7.2238Y-4.3112
X7.2238Y-4.4215
X7.2248Y-3.7165
X7.2248Y-3.8268
X7.2474Y-3.114
X7.2474Y-3.2242
X7.2474Y-4.3112
X7.2474Y-4.4215
X7.2484Y-3.7165
X7.2484Y-3.8268
X7.2711Y-3.114
X7.2711Y-3.2242
X7.2711Y-4.3112
X7.2711Y-4.4215
X7.2717Y-5.4577
X7.272Y-3.7165
X7.272Y-3.8268
X7.2947Y-3.114
X7.2947Y-3.2242
X7.2947Y-4.3112
X7.2947Y-4.4215
X7.2957Y-3.7165
X7.2957Y-3.8268
X7.3183Y-3.114
X7.3183Y-3.2242
X7.3183Y-4.3112
X7.3183Y-4.4215
X7.3193Y-3.7165
X7.3193Y-3.8268
X7.3419Y-3.114
X7.3419Y-3.2242
X7.3419Y-4.3112
X7.3419Y-4.4215
X7.3429Y-3.7165
X7.3429Y-3.8268
X7.3656Y-3.114
X7.3656Y-3.2242
X7.3656Y-4.3112
X7.3656Y-4.4215
X7.3665Y-3.7165
X7.3665Y-3.8268
X7.3892Y-3.114
X7.3892Y-3.2242
X7.3892Y-4.3112
X7.3892Y-4.4215
X7.3902Y-3.7165
X7.3902Y-3.8268
X7.4803Y-5.4075
X7.4803Y-5.503
X7.4803Y-5.5984
X7.5394Y-5.1427
X7.5896Y-5.0236
X7.5896Y-5.2638
X7.6142Y-5.2874
X7.7234Y-5.0236
X7.7234Y-5.2598
X7.7234Y-5.2874
X7.8327Y-5.2874
X7.9646Y-5.4075
X7.9646Y-5.503
X7.9646Y-5.5984
X7.9803Y-4.8898
X8.0581Y-4.7953
X8.0581Y-4.9843
X8.1378Y-4.8898
X8.1811Y-5.4577
X8.2589Y-5.3504
X8.2589Y-5.5669
X8.3386Y-5.4577
X8.5472Y-4.8563
X8.5472Y-4.9157
X8.5472Y-4.9752
T2
X4.9295Y-3.3622
X4.9295Y-3.4606
X5.0555Y-3.3622
X5.0555Y-3.4606
T3
X4.6102Y-2.8622
X4.7087Y-2.8622
X4.8071Y-2.8622
X4.9055Y-2.8622
X5.0039Y-2.8622
X5.1024Y-2.8622
X5.5945Y-2.8622
X5.6929Y-2.8622
X5.7913Y-2.8622
X5.8898Y-2.8622
X5.9882Y-2.8622
X6.0866Y-2.8622
X6.5787Y-2.8622
X6.6772Y-2.8622
X6.7756Y-2.8622
X6.874Y-2.8622
T4
X4.6063Y-4.5461
X4.6063Y-4.6461
X5.748Y-3.7835
X5.748Y-3.8819
T5
X6.511Y-4.7343
X6.511Y-4.8902
X8.4173Y-3.2795
X8.4173Y-3.4354
X8.4173Y-3.5913
X8.4173Y-3.7472
X8.4173Y-3.9031
X8.4173Y-4.0591
T6
X4.9488Y-3.1744
X4.9488Y-3.6484
T0
M30
