%TF.GenerationSoftware,KiCad,Pcbnew,7.0.8-7.0.8~ubuntu22.04.1*%
%TF.CreationDate,2023-11-09T12:37:36+08:00*%
%TF.ProjectId,ECU,4543552e-6b69-4636-9164-5f7063625858,rev?*%
%TF.SameCoordinates,Original*%
%TF.FileFunction,Copper,L2,Bot*%
%TF.FilePolarity,Positive*%
%FSLAX46Y46*%
G04 Gerber Fmt 4.6, Leading zero omitted, Abs format (unit mm)*
G04 Created by KiCad (PCBNEW 7.0.8-7.0.8~ubuntu22.04.1) date 2023-11-09 12:37:36*
%MOMM*%
%LPD*%
G01*
G04 APERTURE LIST*
G04 Aperture macros list*
%AMRoundRect*
0 Rectangle with rounded corners*
0 $1 Rounding radius*
0 $2 $3 $4 $5 $6 $7 $8 $9 X,Y pos of 4 corners*
0 Add a 4 corners polygon primitive as box body*
4,1,4,$2,$3,$4,$5,$6,$7,$8,$9,$2,$3,0*
0 Add four circle primitives for the rounded corners*
1,1,$1+$1,$2,$3*
1,1,$1+$1,$4,$5*
1,1,$1+$1,$6,$7*
1,1,$1+$1,$8,$9*
0 Add four rect primitives between the rounded corners*
20,1,$1+$1,$2,$3,$4,$5,0*
20,1,$1+$1,$4,$5,$6,$7,0*
20,1,$1+$1,$6,$7,$8,$9,0*
20,1,$1+$1,$8,$9,$2,$3,0*%
G04 Aperture macros list end*
%TA.AperFunction,ComponentPad*%
%ADD10RoundRect,0.250000X0.600000X0.725000X-0.600000X0.725000X-0.600000X-0.725000X0.600000X-0.725000X0*%
%TD*%
%TA.AperFunction,ComponentPad*%
%ADD11O,1.700000X1.950000*%
%TD*%
%TA.AperFunction,ComponentPad*%
%ADD12RoundRect,0.250000X-0.750000X0.600000X-0.750000X-0.600000X0.750000X-0.600000X0.750000X0.600000X0*%
%TD*%
%TA.AperFunction,ComponentPad*%
%ADD13O,2.000000X1.700000*%
%TD*%
%TA.AperFunction,ComponentPad*%
%ADD14RoundRect,0.250000X1.850000X-1.330000X1.850000X1.330000X-1.850000X1.330000X-1.850000X-1.330000X0*%
%TD*%
%TA.AperFunction,ComponentPad*%
%ADD15O,4.200000X3.160000*%
%TD*%
%TA.AperFunction,ComponentPad*%
%ADD16R,1.400000X1.400000*%
%TD*%
%TA.AperFunction,ComponentPad*%
%ADD17C,1.400000*%
%TD*%
%TA.AperFunction,ComponentPad*%
%ADD18C,3.000000*%
%TD*%
%TA.AperFunction,ComponentPad*%
%ADD19RoundRect,0.250000X-1.850000X1.330000X-1.850000X-1.330000X1.850000X-1.330000X1.850000X1.330000X0*%
%TD*%
%TA.AperFunction,ComponentPad*%
%ADD20R,1.700000X1.700000*%
%TD*%
%TA.AperFunction,ComponentPad*%
%ADD21O,1.700000X1.700000*%
%TD*%
%TA.AperFunction,SMDPad,CuDef*%
%ADD22RoundRect,0.237500X0.237500X-0.250000X0.237500X0.250000X-0.237500X0.250000X-0.237500X-0.250000X0*%
%TD*%
%TA.AperFunction,SMDPad,CuDef*%
%ADD23RoundRect,0.225000X0.225000X0.250000X-0.225000X0.250000X-0.225000X-0.250000X0.225000X-0.250000X0*%
%TD*%
%TA.AperFunction,SMDPad,CuDef*%
%ADD24RoundRect,0.237500X-0.237500X0.250000X-0.237500X-0.250000X0.237500X-0.250000X0.237500X0.250000X0*%
%TD*%
%TA.AperFunction,SMDPad,CuDef*%
%ADD25RoundRect,0.225000X-0.250000X0.225000X-0.250000X-0.225000X0.250000X-0.225000X0.250000X0.225000X0*%
%TD*%
%TA.AperFunction,SMDPad,CuDef*%
%ADD26RoundRect,0.237500X-0.250000X-0.237500X0.250000X-0.237500X0.250000X0.237500X-0.250000X0.237500X0*%
%TD*%
%TA.AperFunction,ViaPad*%
%ADD27C,0.500000*%
%TD*%
%TA.AperFunction,Conductor*%
%ADD28C,0.250000*%
%TD*%
%TA.AperFunction,Conductor*%
%ADD29C,1.000000*%
%TD*%
%TA.AperFunction,Conductor*%
%ADD30C,1.500000*%
%TD*%
%TA.AperFunction,Conductor*%
%ADD31C,0.500000*%
%TD*%
%TA.AperFunction,Conductor*%
%ADD32C,3.000000*%
%TD*%
%TA.AperFunction,Conductor*%
%ADD33C,0.200000*%
%TD*%
G04 APERTURE END LIST*
D10*
%TO.P,J1,1,Pin_1*%
%TO.N,GND*%
X154600000Y-72700000D03*
D11*
%TO.P,J1,2,Pin_2*%
%TO.N,/IAT*%
X152100000Y-72700000D03*
%TO.P,J1,3,Pin_3*%
%TO.N,/MPS*%
X149600000Y-72700000D03*
%TO.P,J1,4,Pin_4*%
%TO.N,/TPS*%
X147100000Y-72700000D03*
%TO.P,J1,5,Pin_5*%
%TO.N,/AFR*%
X144600000Y-72700000D03*
%TO.P,J1,6,Pin_6*%
%TO.N,+5V*%
X142100000Y-72700000D03*
%TD*%
D12*
%TO.P,J8,1,Pin_1*%
%TO.N,Net-(J8-Pin_1)*%
X146000000Y-96100000D03*
D13*
%TO.P,J8,2,Pin_2*%
%TO.N,GND*%
X146000000Y-98600000D03*
%TD*%
D10*
%TO.P,J7,1,Pin_1*%
%TO.N,/ISC_AN*%
X174600000Y-72700000D03*
D11*
%TO.P,J7,2,Pin_2*%
%TO.N,/ISC_BP*%
X172100000Y-72700000D03*
%TO.P,J7,3,Pin_3*%
%TO.N,/ISC_BN*%
X169600000Y-72700000D03*
%TO.P,J7,4,Pin_4*%
%TO.N,/ISC_AP*%
X167100000Y-72700000D03*
%TD*%
D14*
%TO.P,J5,1,Pin_1*%
%TO.N,-BATT*%
X165380000Y-124210000D03*
D15*
%TO.P,J5,2,Pin_2*%
%TO.N,+BATT*%
X165380000Y-120250000D03*
%TD*%
D10*
%TO.P,J3,1,Pin_1*%
%TO.N,GND*%
X129600000Y-72700000D03*
D11*
%TO.P,J3,2,Pin_2*%
%TO.N,/FSPI_CS*%
X127100000Y-72700000D03*
%TO.P,J3,3,Pin_3*%
%TO.N,/FSPI_MOSI*%
X124600000Y-72700000D03*
%TO.P,J3,4,Pin_4*%
%TO.N,/FSPI_CLK*%
X122100000Y-72700000D03*
%TO.P,J3,5,Pin_5*%
%TO.N,/FSPI_MISO*%
X119600000Y-72700000D03*
%TO.P,J3,6,Pin_6*%
%TO.N,+5V*%
X117100000Y-72700000D03*
%TD*%
D16*
%TO.P,J4,1,VBUS*%
%TO.N,Net-(D7-A)*%
X128410000Y-87900000D03*
D17*
%TO.P,J4,2,D-*%
%TO.N,/USB_D-*%
X128410000Y-85400000D03*
%TO.P,J4,3,D+*%
%TO.N,/USB_D+*%
X125210000Y-85400000D03*
%TO.P,J4,4,GND*%
%TO.N,GND*%
X125210000Y-87900000D03*
D18*
%TO.P,J4,5,Shield*%
X125700000Y-80630000D03*
X125700000Y-92670000D03*
%TD*%
D19*
%TO.P,J6,1,Pin_1*%
%TO.N,/PUMP*%
X213800000Y-83300000D03*
D15*
%TO.P,J6,2,Pin_2*%
%TO.N,+BATT*%
X213800000Y-87260000D03*
%TO.P,J6,3,Pin_3*%
%TO.N,/FUEL*%
X213800000Y-91220000D03*
%TO.P,J6,4,Pin_4*%
%TO.N,+BATT*%
X213800000Y-95180000D03*
%TO.P,J6,5,Pin_5*%
%TO.N,/COIL*%
X213800000Y-99140000D03*
%TO.P,J6,6,Pin_6*%
%TO.N,+BATT*%
X213800000Y-103100000D03*
%TD*%
D20*
%TO.P,JP1,1,A*%
%TO.N,Net-(IC4-IO0)*%
X117000000Y-118010000D03*
D21*
%TO.P,JP1,2,B*%
%TO.N,GND*%
X117000000Y-115470000D03*
%TD*%
D22*
%TO.P,R8,1*%
%TO.N,GND*%
X119000000Y-119860000D03*
%TO.P,R8,2*%
%TO.N,Net-(IC4-IO45)*%
X119000000Y-118035000D03*
%TD*%
D23*
%TO.P,C15,1*%
%TO.N,GND*%
X160250000Y-77525000D03*
%TO.P,C15,2*%
%TO.N,+5V*%
X158700000Y-77525000D03*
%TD*%
D24*
%TO.P,R22,1*%
%TO.N,Net-(IC4-IO46)*%
X123000000Y-105335000D03*
%TO.P,R22,2*%
%TO.N,GND*%
X123000000Y-107160000D03*
%TD*%
%TO.P,R7,1*%
%TO.N,Net-(IC4-IO3)*%
X124920000Y-104065000D03*
%TO.P,R7,2*%
%TO.N,+3.3V*%
X124920000Y-105890000D03*
%TD*%
D25*
%TO.P,C13,1*%
%TO.N,GND*%
X147180000Y-132050000D03*
%TO.P,C13,2*%
%TO.N,+3.3V*%
X147180000Y-133600000D03*
%TD*%
D23*
%TO.P,C21,1*%
%TO.N,GND*%
X148850000Y-83612500D03*
%TO.P,C21,2*%
%TO.N,+3.3V*%
X147300000Y-83612500D03*
%TD*%
D26*
%TO.P,R29,1*%
%TO.N,+5V*%
X156685000Y-90500000D03*
%TO.P,R29,2*%
%TO.N,Net-(U3-EN1\u002C2)*%
X158510000Y-90500000D03*
%TD*%
D27*
%TO.N,GND*%
X145500000Y-81112500D03*
X173172500Y-96150000D03*
X147600000Y-89812500D03*
X134620000Y-124610000D03*
X156700000Y-127600000D03*
X202300000Y-137350000D03*
X142700000Y-135000000D03*
X207800000Y-138625000D03*
X169800000Y-129400000D03*
X162600000Y-140600000D03*
X173200000Y-78400000D03*
X162700000Y-126500000D03*
X204675000Y-126600000D03*
X169800000Y-127000000D03*
X192775000Y-133700000D03*
X124340000Y-74220000D03*
X146670000Y-136940000D03*
X169800000Y-137800000D03*
X184085000Y-109505000D03*
X169800000Y-140200000D03*
X185885000Y-109505000D03*
X182285000Y-79095000D03*
X158400000Y-140600000D03*
X156700000Y-129400000D03*
X169800000Y-133000000D03*
X168600000Y-140600000D03*
X182575000Y-135800000D03*
X184685000Y-79095000D03*
X124100000Y-85950000D03*
X157300000Y-126500000D03*
X146100000Y-89812500D03*
X169800000Y-131200000D03*
X169800000Y-130600000D03*
X160200000Y-140600000D03*
X182885000Y-79095000D03*
X170500000Y-78400000D03*
X128930000Y-103520000D03*
X135260000Y-121250000D03*
X149900000Y-81112500D03*
X169800000Y-128800000D03*
X144750500Y-134470000D03*
X169800000Y-134800000D03*
X159000000Y-140600000D03*
X186485000Y-81895000D03*
X186485000Y-79095000D03*
X182310000Y-97200000D03*
X178310000Y-93500000D03*
X160800000Y-140600000D03*
X169800000Y-130000000D03*
X172672500Y-99300000D03*
X150670000Y-134810000D03*
X187685000Y-109505000D03*
X156700000Y-137100000D03*
X168422500Y-98200000D03*
X185885000Y-112305000D03*
X132200000Y-98950000D03*
X186510000Y-94400000D03*
X184710000Y-97200000D03*
X126510000Y-103510000D03*
X187110000Y-97200000D03*
X187085000Y-81895000D03*
X182885000Y-81895000D03*
X148350000Y-80262500D03*
X135000000Y-96800000D03*
X196175000Y-134300000D03*
X182885000Y-109505000D03*
X136560000Y-103510000D03*
X181810000Y-89700000D03*
X185885000Y-79095000D03*
X175610000Y-96900000D03*
X159600000Y-140600000D03*
X186485000Y-109505000D03*
X209775000Y-141400000D03*
X151200000Y-81112500D03*
X122575000Y-94975000D03*
X182310000Y-94400000D03*
X187685000Y-81895000D03*
X196175000Y-127600000D03*
X138220000Y-100750000D03*
X192775000Y-127600000D03*
X131450000Y-121250000D03*
X169972500Y-100550000D03*
X183485000Y-112305000D03*
X169800000Y-133600000D03*
X169800000Y-127600000D03*
X204675000Y-121800000D03*
X187085000Y-112305000D03*
X182285000Y-109505000D03*
X169800000Y-137200000D03*
X187685000Y-112305000D03*
X193400000Y-134300000D03*
X167600000Y-126500000D03*
X137200000Y-121250000D03*
X128309617Y-126181430D03*
X119490000Y-112310000D03*
X169800000Y-138400000D03*
X156700000Y-135900000D03*
X119500000Y-109760000D03*
X169800000Y-135400000D03*
X185910000Y-94400000D03*
X157800000Y-140600000D03*
X146550000Y-114850000D03*
X152100000Y-81497741D03*
X159490000Y-133620000D03*
X191500000Y-130625000D03*
X183510000Y-94400000D03*
X164400000Y-140600000D03*
X184085000Y-112305000D03*
X180500000Y-138625000D03*
X198950000Y-134300000D03*
X130200000Y-100800000D03*
X122580000Y-97540000D03*
X169200000Y-140600000D03*
X166800000Y-140600000D03*
X209775000Y-135900000D03*
X182285000Y-81895000D03*
X133990000Y-121250000D03*
X185885000Y-81895000D03*
X144000000Y-86112500D03*
X184085000Y-81895000D03*
X190000000Y-142200000D03*
X156700000Y-130000000D03*
X183510000Y-97200000D03*
X146670000Y-135760000D03*
X145075000Y-86950000D03*
X187085000Y-109505000D03*
X182910000Y-97200000D03*
X122575000Y-100800000D03*
X187085000Y-79095000D03*
X156700000Y-128800000D03*
X156700000Y-127000000D03*
X142900000Y-132900000D03*
X122040000Y-74230000D03*
X156700000Y-137700000D03*
X148350000Y-84662500D03*
X130180000Y-121250000D03*
X184710000Y-94400000D03*
X184110000Y-97200000D03*
X183485000Y-79095000D03*
X156700000Y-140100000D03*
X136800000Y-96800000D03*
X187710000Y-97200000D03*
X185310000Y-94400000D03*
X128910000Y-121250000D03*
X187685000Y-79095000D03*
X128025000Y-118525000D03*
X186510000Y-97200000D03*
X169800000Y-139600000D03*
X167400000Y-140600000D03*
X157200000Y-140600000D03*
X131478798Y-126336394D03*
X144600000Y-81497741D03*
X162000000Y-140600000D03*
X148800000Y-114850000D03*
X202700000Y-124200000D03*
X163000000Y-78400000D03*
X185285000Y-79095000D03*
X169800000Y-139000000D03*
X130900000Y-90000000D03*
X180010000Y-91100000D03*
X136600614Y-124818063D03*
X183485000Y-109505000D03*
X132720000Y-121250000D03*
X184685000Y-81895000D03*
X162100000Y-126500000D03*
X184685000Y-112305000D03*
X151900000Y-82812500D03*
X168000000Y-140600000D03*
X119510000Y-111050000D03*
X184085000Y-79095000D03*
X133020000Y-103580000D03*
X127640000Y-121250000D03*
X161400000Y-140600000D03*
X169800000Y-128200000D03*
X187110000Y-94400000D03*
X182285000Y-112305000D03*
X196175000Y-133600000D03*
X149100000Y-89812500D03*
X118000000Y-143207532D03*
X169800000Y-136000000D03*
X211800000Y-138625000D03*
X168200000Y-126500000D03*
X144800000Y-82812500D03*
X132720000Y-124260000D03*
X206700000Y-124200000D03*
X156700000Y-138300000D03*
X185285000Y-109505000D03*
X169800000Y-134200000D03*
X156700000Y-136500000D03*
X163300000Y-126500000D03*
X118000000Y-142400000D03*
X185285000Y-112305000D03*
X163200000Y-140600000D03*
X146800000Y-81112500D03*
X202300000Y-142200000D03*
X126850000Y-74260000D03*
X126150500Y-126066976D03*
X168800000Y-126500000D03*
X156700000Y-128200000D03*
X169972500Y-96150000D03*
X156700000Y-139500000D03*
X157900000Y-126500000D03*
X171850000Y-78400000D03*
X169400000Y-126500000D03*
X118300000Y-114500000D03*
X119380000Y-74230000D03*
X136900000Y-88000000D03*
X184685000Y-109505000D03*
X158530000Y-128540000D03*
X139760000Y-100750000D03*
X169800000Y-132400000D03*
X182910000Y-94400000D03*
X183485000Y-81895000D03*
X178310000Y-96100000D03*
X184110000Y-94400000D03*
X182885000Y-112305000D03*
X139070000Y-96760000D03*
X184700000Y-138625000D03*
X185910000Y-97200000D03*
X185310000Y-97200000D03*
X185285000Y-81895000D03*
X190000000Y-137350000D03*
X119470000Y-108520000D03*
X156700000Y-138900000D03*
X169800000Y-131800000D03*
X128950000Y-100800000D03*
X187710000Y-94400000D03*
X202300000Y-139775000D03*
X182575000Y-141500000D03*
X186485000Y-112305000D03*
X170372500Y-98200000D03*
X164800000Y-78400000D03*
X190000000Y-139775000D03*
X169800000Y-136600000D03*
X163800000Y-140600000D03*
%TO.N,+3.3V*%
X143830000Y-131320000D03*
X134100000Y-82200000D03*
X131700000Y-127000000D03*
X147600000Y-88812500D03*
X149100000Y-88812500D03*
X137180000Y-125210000D03*
X118000000Y-122000000D03*
X157800000Y-130790000D03*
X144100000Y-137900000D03*
X128740000Y-125630000D03*
X118000000Y-123000000D03*
X147300000Y-82712500D03*
X146100000Y-88812500D03*
X137530000Y-97260000D03*
X126700000Y-125630000D03*
X144350000Y-88812500D03*
X133150000Y-98950000D03*
X147490000Y-136350000D03*
X148190000Y-133600000D03*
X134210448Y-124042928D03*
X118000000Y-124000000D03*
%TO.N,+5V*%
X164600000Y-143200000D03*
X165600000Y-143200000D03*
X158510000Y-78500000D03*
X166600000Y-143200000D03*
X176290000Y-86275000D03*
%TO.N,+BATT*%
X164200000Y-107100000D03*
X217100000Y-123350000D03*
X164200000Y-92700000D03*
X217100000Y-126370000D03*
X173510000Y-104410000D03*
X164200000Y-99900000D03*
X217100000Y-124860000D03*
%TO.N,Net-(D7-A)*%
X114740000Y-117385000D03*
X114740000Y-118285000D03*
X122580000Y-99670000D03*
X114740000Y-119185000D03*
%TO.N,Net-(IC4-IO3)*%
X121900000Y-104065000D03*
%TO.N,Net-(IC4-IO46)*%
X121900000Y-105335000D03*
%TO.N,Net-(IC4-IO45)*%
X119710000Y-118035000D03*
%TO.N,/ISC_AN*%
X172500000Y-77310000D03*
X171210000Y-86260000D03*
%TO.N,Net-(U3-EN1\u002C2)*%
X177650000Y-79790000D03*
X158510000Y-88700000D03*
%TO.N,/ISC_AP*%
X162300000Y-77500000D03*
X163590000Y-86270000D03*
%TD*%
D28*
%TO.N,+3.3V*%
X137180000Y-126380000D02*
X137200000Y-126400000D01*
X132700000Y-126000000D02*
X132700000Y-125900000D01*
D29*
X136100000Y-126400000D02*
X143400000Y-126400000D01*
X140800000Y-97700000D02*
X140800000Y-91900000D01*
X145700000Y-133600000D02*
X145700000Y-134700000D01*
X140800000Y-90556497D02*
X140800000Y-88820000D01*
D28*
X149690000Y-130790000D02*
X148500000Y-129600000D01*
X134210448Y-124042928D02*
X132700000Y-125553376D01*
D29*
X136100000Y-126400000D02*
X137200000Y-126400000D01*
X145700000Y-129600000D02*
X145700000Y-131360000D01*
X123200000Y-118350000D02*
X124500000Y-117050000D01*
X140800000Y-113550000D02*
X140800000Y-112725000D01*
X145700000Y-134700000D02*
X145700000Y-136340000D01*
X140800000Y-110900000D02*
X140800000Y-98960000D01*
X143400000Y-126400000D02*
X145700000Y-128700000D01*
D28*
X134100000Y-82200000D02*
X140800000Y-82200000D01*
X144100000Y-137900000D02*
X145700000Y-137900000D01*
D29*
X126700000Y-124500000D02*
X128800000Y-124500000D01*
D30*
X118000000Y-124000000D02*
X118000000Y-122000000D01*
D28*
X145660000Y-131320000D02*
X145700000Y-131360000D01*
D29*
X126700000Y-124500000D02*
X123200000Y-124500000D01*
X123200000Y-124500000D02*
X123200000Y-118350000D01*
X140807500Y-88812500D02*
X140800000Y-88820000D01*
D28*
X124920000Y-105890000D02*
X124920000Y-116870000D01*
X147300000Y-88512500D02*
X147600000Y-88812500D01*
D31*
X137530000Y-97260000D02*
X137530000Y-98950000D01*
D28*
X128740000Y-124560000D02*
X128800000Y-124500000D01*
D29*
X140800000Y-98960000D02*
X140800000Y-97700000D01*
D28*
X137180000Y-125210000D02*
X137180000Y-126380000D01*
D30*
X118500000Y-124500000D02*
X123200000Y-124500000D01*
D29*
X145700000Y-131360000D02*
X145700000Y-133600000D01*
X133160000Y-98960000D02*
X137540000Y-98960000D01*
D28*
X145710000Y-136350000D02*
X145700000Y-136340000D01*
D29*
X140800000Y-112725000D02*
X140800000Y-110900000D01*
X128800000Y-124500000D02*
X131300000Y-124500000D01*
D28*
X148190000Y-133600000D02*
X145700000Y-133600000D01*
X143830000Y-131320000D02*
X145660000Y-131320000D01*
D29*
X131300000Y-124500000D02*
X132700000Y-125900000D01*
X137540000Y-98960000D02*
X140800000Y-98960000D01*
X140800000Y-88820000D02*
X140800000Y-82200000D01*
D28*
X131700000Y-127000000D02*
X132700000Y-126000000D01*
X133150000Y-98950000D02*
X133160000Y-98960000D01*
D29*
X145700000Y-128700000D02*
X145700000Y-129600000D01*
D28*
X124920000Y-116870000D02*
X125100000Y-117050000D01*
D29*
X137300000Y-117050000D02*
X140800000Y-113550000D01*
X124500000Y-117050000D02*
X125100000Y-117050000D01*
X145700000Y-136340000D02*
X145700000Y-137900000D01*
D28*
X128740000Y-125630000D02*
X128740000Y-124560000D01*
D29*
X147600000Y-88812500D02*
X149100000Y-88812500D01*
X133200000Y-126400000D02*
X136100000Y-126400000D01*
X144350000Y-88812500D02*
X140807500Y-88812500D01*
X146100000Y-88812500D02*
X144350000Y-88812500D01*
D28*
X157800000Y-130790000D02*
X149690000Y-130790000D01*
X132700000Y-125553376D02*
X132700000Y-125900000D01*
X126700000Y-125630000D02*
X126700000Y-124500000D01*
D29*
X125100000Y-117050000D02*
X137300000Y-117050000D01*
D30*
X118500000Y-124500000D02*
X118000000Y-124000000D01*
D29*
X140800000Y-90556497D02*
X140800000Y-91900000D01*
X146100000Y-88812500D02*
X147600000Y-88812500D01*
D28*
X148500000Y-129600000D02*
X145700000Y-129600000D01*
D29*
X132700000Y-125900000D02*
X133200000Y-126400000D01*
D28*
X147300000Y-82712500D02*
X147300000Y-88512500D01*
D31*
X137530000Y-98950000D02*
X137540000Y-98960000D01*
D28*
X147490000Y-136350000D02*
X145710000Y-136350000D01*
D30*
%TO.N,+5V*%
X165600000Y-143200000D02*
X165600000Y-132230000D01*
X158500000Y-75675000D02*
X158500000Y-68600000D01*
X155525000Y-88975000D02*
X155525000Y-78650000D01*
D31*
X176290000Y-86275000D02*
X176290000Y-75675000D01*
D30*
X155525000Y-78650000D02*
X158500000Y-75675000D01*
D31*
X158510000Y-78500000D02*
X158510000Y-75685000D01*
D30*
X151900000Y-118530000D02*
X151900000Y-92600000D01*
X117100000Y-68600000D02*
X117100000Y-72700000D01*
X164600000Y-143200000D02*
X166600000Y-143200000D01*
X154000000Y-90500000D02*
X155525000Y-88975000D01*
X158500000Y-68600000D02*
X142100000Y-68600000D01*
X151900000Y-92600000D02*
X154000000Y-90500000D01*
X165600000Y-132230000D02*
X151900000Y-118530000D01*
X142100000Y-68600000D02*
X117100000Y-68600000D01*
D31*
X158510000Y-75685000D02*
X158500000Y-75675000D01*
D30*
X142100000Y-72700000D02*
X142100000Y-68600000D01*
X158500000Y-75675000D02*
X176290000Y-75675000D01*
D28*
X156685000Y-90500000D02*
X154000000Y-90500000D01*
D32*
%TO.N,+BATT*%
X217060000Y-87260000D02*
X213800000Y-87260000D01*
X216700000Y-103100000D02*
X213800000Y-103100000D01*
X217100000Y-124860000D02*
X217100000Y-123350000D01*
X217100000Y-103500000D02*
X218900000Y-101700000D01*
X180790000Y-104410000D02*
X164200000Y-104410000D01*
X164200000Y-119070000D02*
X165380000Y-120250000D01*
X218900000Y-97000000D02*
X217080000Y-95180000D01*
X216700000Y-103100000D02*
X217100000Y-103500000D01*
X184480000Y-104400000D02*
X180800000Y-104400000D01*
X218900000Y-89100000D02*
X217060000Y-87260000D01*
X180800000Y-104400000D02*
X180790000Y-104410000D01*
X217080000Y-95180000D02*
X193700000Y-95180000D01*
X217100000Y-126370000D02*
X217100000Y-124860000D01*
X218900000Y-101700000D02*
X218900000Y-97000000D01*
X193700000Y-95180000D02*
X184480000Y-104400000D01*
X217100000Y-123350000D02*
X217100000Y-103500000D01*
X218900000Y-101700000D02*
X218900000Y-89100000D01*
X164200000Y-92700000D02*
X164200000Y-119070000D01*
D29*
%TO.N,Net-(D7-A)*%
X122580000Y-99670000D02*
X125800000Y-99670000D01*
X128410000Y-97060000D02*
X128410000Y-87900000D01*
X125800000Y-99670000D02*
X128410000Y-97060000D01*
X116430000Y-99670000D02*
X114740000Y-101360000D01*
X114740000Y-101360000D02*
X114740000Y-119185000D01*
X122580000Y-99670000D02*
X116430000Y-99670000D01*
D28*
%TO.N,Net-(IC4-IO3)*%
X121900000Y-104065000D02*
X124920000Y-104065000D01*
%TO.N,Net-(IC4-IO46)*%
X123000000Y-105335000D02*
X121900000Y-105335000D01*
%TO.N,Net-(IC4-IO45)*%
X119710000Y-118035000D02*
X119000000Y-118035000D01*
X119005000Y-118030000D02*
X119000000Y-118035000D01*
D33*
%TO.N,/ISC_AN*%
X172500000Y-77310000D02*
X172500000Y-84970000D01*
X172500000Y-84970000D02*
X171210000Y-86260000D01*
D28*
%TO.N,Net-(U3-EN1\u002C2)*%
X177100000Y-88700000D02*
X177650000Y-88150000D01*
X158510000Y-90500000D02*
X158510000Y-88700000D01*
X177650000Y-88150000D02*
X177650000Y-79790000D01*
X158510000Y-88700000D02*
X177100000Y-88700000D01*
D33*
%TO.N,/ISC_AP*%
X162300000Y-84980000D02*
X162300000Y-77500000D01*
X163590000Y-86270000D02*
X162300000Y-84980000D01*
%TD*%
%TA.AperFunction,Conductor*%
%TO.N,GND*%
G36*
X119002695Y-50000735D02*
G01*
X119045519Y-50004482D01*
X119171771Y-50016918D01*
X119191685Y-50020541D01*
X119258349Y-50038403D01*
X119351570Y-50066682D01*
X119367971Y-50072958D01*
X119435411Y-50104406D01*
X119438375Y-50105888D01*
X119475969Y-50125982D01*
X119522327Y-50150762D01*
X119528667Y-50154657D01*
X119594828Y-50200983D01*
X119598600Y-50203844D01*
X119670808Y-50263103D01*
X119675309Y-50267182D01*
X119732815Y-50324688D01*
X119736895Y-50329190D01*
X119796154Y-50401398D01*
X119799015Y-50405170D01*
X119845341Y-50471331D01*
X119849236Y-50477671D01*
X119894101Y-50561605D01*
X119895614Y-50564631D01*
X119927040Y-50632027D01*
X119933319Y-50648435D01*
X119961601Y-50741669D01*
X119979454Y-50808299D01*
X119983082Y-50828238D01*
X119995523Y-50954554D01*
X119999264Y-50997302D01*
X119999500Y-51002710D01*
X119999500Y-54087534D01*
X120029898Y-54259937D01*
X120089775Y-54424446D01*
X120177309Y-54576057D01*
X120289836Y-54710163D01*
X120423942Y-54822690D01*
X120423943Y-54822691D01*
X120423945Y-54822692D01*
X120575555Y-54910225D01*
X120740062Y-54970101D01*
X120912468Y-55000500D01*
X120912472Y-55000500D01*
X214087528Y-55000500D01*
X214087532Y-55000500D01*
X214259938Y-54970101D01*
X214424445Y-54910225D01*
X214576055Y-54822692D01*
X214710163Y-54710163D01*
X214822692Y-54576055D01*
X214910225Y-54424445D01*
X214970101Y-54259938D01*
X215000500Y-54087532D01*
X215000500Y-54000000D01*
X215000500Y-53999500D01*
X215000500Y-51002705D01*
X215000736Y-50997299D01*
X215004476Y-50954554D01*
X215016918Y-50828223D01*
X215020542Y-50808309D01*
X215038402Y-50741653D01*
X215066683Y-50648424D01*
X215072953Y-50632037D01*
X215104420Y-50564558D01*
X215105872Y-50561653D01*
X215150764Y-50477666D01*
X215154657Y-50471331D01*
X215187837Y-50423945D01*
X215200994Y-50405155D01*
X215203827Y-50401420D01*
X215263122Y-50329168D01*
X215267162Y-50324710D01*
X215324710Y-50267162D01*
X215329168Y-50263122D01*
X215401420Y-50203827D01*
X215405155Y-50200994D01*
X215471334Y-50154654D01*
X215477666Y-50150764D01*
X215561653Y-50105872D01*
X215564558Y-50104420D01*
X215632037Y-50072953D01*
X215648424Y-50066683D01*
X215741653Y-50038402D01*
X215808309Y-50020542D01*
X215828223Y-50016918D01*
X215954542Y-50004477D01*
X215997305Y-50000735D01*
X216002706Y-50000500D01*
X223997293Y-50000500D01*
X224002695Y-50000735D01*
X224045519Y-50004482D01*
X224171771Y-50016918D01*
X224191685Y-50020541D01*
X224258349Y-50038403D01*
X224351570Y-50066682D01*
X224367971Y-50072958D01*
X224435411Y-50104406D01*
X224438375Y-50105888D01*
X224475969Y-50125982D01*
X224522327Y-50150762D01*
X224528667Y-50154657D01*
X224594828Y-50200983D01*
X224598600Y-50203844D01*
X224670808Y-50263103D01*
X224675309Y-50267182D01*
X224732815Y-50324688D01*
X224736895Y-50329190D01*
X224796154Y-50401398D01*
X224799015Y-50405170D01*
X224845341Y-50471331D01*
X224849236Y-50477671D01*
X224894101Y-50561605D01*
X224895614Y-50564631D01*
X224927040Y-50632027D01*
X224933319Y-50648435D01*
X224961601Y-50741669D01*
X224979454Y-50808299D01*
X224983082Y-50828238D01*
X224995523Y-50954554D01*
X224999264Y-50997302D01*
X224999500Y-51002710D01*
X224999500Y-148997289D01*
X224999264Y-149002697D01*
X224995523Y-149045445D01*
X224983082Y-149171760D01*
X224979454Y-149191699D01*
X224961601Y-149258330D01*
X224933318Y-149351563D01*
X224927040Y-149367971D01*
X224895614Y-149435367D01*
X224894101Y-149438393D01*
X224849236Y-149522327D01*
X224845341Y-149528667D01*
X224799015Y-149594828D01*
X224796154Y-149598600D01*
X224736895Y-149670808D01*
X224732806Y-149675320D01*
X224675320Y-149732806D01*
X224670808Y-149736895D01*
X224598600Y-149796154D01*
X224594828Y-149799015D01*
X224528667Y-149845341D01*
X224522327Y-149849236D01*
X224438393Y-149894101D01*
X224435367Y-149895614D01*
X224367971Y-149927040D01*
X224351563Y-149933318D01*
X224258330Y-149961601D01*
X224191699Y-149979454D01*
X224171760Y-149983082D01*
X224045445Y-149995523D01*
X224004789Y-149999080D01*
X224002696Y-149999264D01*
X223997290Y-149999500D01*
X216002710Y-149999500D01*
X215997303Y-149999264D01*
X215995015Y-149999063D01*
X215954554Y-149995523D01*
X215828238Y-149983082D01*
X215808299Y-149979454D01*
X215741669Y-149961601D01*
X215648435Y-149933319D01*
X215632027Y-149927040D01*
X215583433Y-149904381D01*
X215564618Y-149895607D01*
X215561605Y-149894101D01*
X215477671Y-149849236D01*
X215471331Y-149845341D01*
X215405170Y-149799015D01*
X215401398Y-149796154D01*
X215329190Y-149736895D01*
X215324688Y-149732815D01*
X215267182Y-149675309D01*
X215263103Y-149670808D01*
X215203844Y-149598600D01*
X215200983Y-149594828D01*
X215154657Y-149528667D01*
X215150762Y-149522327D01*
X215125982Y-149475969D01*
X215105888Y-149438375D01*
X215104406Y-149435411D01*
X215072958Y-149367971D01*
X215066682Y-149351570D01*
X215038398Y-149258330D01*
X215020541Y-149191685D01*
X215016918Y-149171771D01*
X215004482Y-149045519D01*
X215000735Y-149002695D01*
X215000500Y-148997293D01*
X215000500Y-145912472D01*
X215000500Y-145912468D01*
X214970101Y-145740062D01*
X214910225Y-145575555D01*
X214822692Y-145423945D01*
X214822691Y-145423943D01*
X214822690Y-145423942D01*
X214710163Y-145289836D01*
X214576057Y-145177309D01*
X214424446Y-145089775D01*
X214259937Y-145029898D01*
X214087534Y-144999500D01*
X214087532Y-144999500D01*
X214000099Y-144999500D01*
X121000500Y-144999500D01*
X121000000Y-144999500D01*
X120912468Y-144999500D01*
X120912465Y-144999500D01*
X120740062Y-145029898D01*
X120575553Y-145089775D01*
X120423942Y-145177309D01*
X120289836Y-145289836D01*
X120177309Y-145423942D01*
X120089775Y-145575553D01*
X120029898Y-145740062D01*
X119999500Y-145912465D01*
X119999500Y-148997289D01*
X119999264Y-149002697D01*
X119995523Y-149045445D01*
X119983082Y-149171760D01*
X119979454Y-149191699D01*
X119961601Y-149258330D01*
X119933318Y-149351563D01*
X119927040Y-149367971D01*
X119895614Y-149435367D01*
X119894101Y-149438393D01*
X119849236Y-149522327D01*
X119845341Y-149528667D01*
X119799015Y-149594828D01*
X119796154Y-149598600D01*
X119736895Y-149670808D01*
X119732806Y-149675320D01*
X119675320Y-149732806D01*
X119670808Y-149736895D01*
X119598600Y-149796154D01*
X119594828Y-149799015D01*
X119528667Y-149845341D01*
X119522327Y-149849236D01*
X119438393Y-149894101D01*
X119435367Y-149895614D01*
X119367971Y-149927040D01*
X119351563Y-149933318D01*
X119258330Y-149961601D01*
X119191699Y-149979454D01*
X119171760Y-149983082D01*
X119045445Y-149995523D01*
X119004789Y-149999080D01*
X119002696Y-149999264D01*
X118997290Y-149999500D01*
X111002710Y-149999500D01*
X110997303Y-149999264D01*
X110995015Y-149999063D01*
X110954554Y-149995523D01*
X110828238Y-149983082D01*
X110808299Y-149979454D01*
X110741669Y-149961601D01*
X110648435Y-149933319D01*
X110632027Y-149927040D01*
X110583433Y-149904381D01*
X110564618Y-149895607D01*
X110561605Y-149894101D01*
X110477671Y-149849236D01*
X110471331Y-149845341D01*
X110405170Y-149799015D01*
X110401398Y-149796154D01*
X110329190Y-149736895D01*
X110324688Y-149732815D01*
X110267182Y-149675309D01*
X110263103Y-149670808D01*
X110203844Y-149598600D01*
X110200983Y-149594828D01*
X110154657Y-149528667D01*
X110150762Y-149522327D01*
X110125982Y-149475969D01*
X110105888Y-149438375D01*
X110104406Y-149435411D01*
X110072958Y-149367971D01*
X110066682Y-149351570D01*
X110038398Y-149258330D01*
X110020541Y-149191685D01*
X110016918Y-149171771D01*
X110004482Y-149045519D01*
X110000735Y-149002695D01*
X110000500Y-148997293D01*
X110000500Y-140893933D01*
X127315668Y-140893933D01*
X127331058Y-140981210D01*
X127346135Y-141066711D01*
X127415623Y-141227804D01*
X127415624Y-141227806D01*
X127415626Y-141227809D01*
X127470278Y-141301218D01*
X127520390Y-141368530D01*
X127654786Y-141481302D01*
X127732488Y-141520325D01*
X127811562Y-141560038D01*
X127811563Y-141560038D01*
X127811567Y-141560040D01*
X127982279Y-141600500D01*
X127982282Y-141600500D01*
X128113701Y-141600500D01*
X128113709Y-141600500D01*
X128244255Y-141585241D01*
X128409117Y-141525237D01*
X128555696Y-141428830D01*
X128676092Y-141301218D01*
X128763812Y-141149281D01*
X128814130Y-140981210D01*
X128819213Y-140893933D01*
X135295668Y-140893933D01*
X135311058Y-140981210D01*
X135326135Y-141066711D01*
X135395623Y-141227804D01*
X135395624Y-141227806D01*
X135395626Y-141227809D01*
X135450278Y-141301218D01*
X135500390Y-141368530D01*
X135634786Y-141481302D01*
X135712488Y-141520325D01*
X135791562Y-141560038D01*
X135791563Y-141560038D01*
X135791567Y-141560040D01*
X135962279Y-141600500D01*
X135962282Y-141600500D01*
X136093701Y-141600500D01*
X136093709Y-141600500D01*
X136224255Y-141585241D01*
X136389117Y-141525237D01*
X136535696Y-141428830D01*
X136656092Y-141301218D01*
X136743812Y-141149281D01*
X136794130Y-140981210D01*
X136804331Y-140806065D01*
X136773865Y-140633289D01*
X136704377Y-140472196D01*
X136599610Y-140331470D01*
X136527747Y-140271170D01*
X136465214Y-140218698D01*
X136465212Y-140218697D01*
X136308437Y-140139961D01*
X136308433Y-140139960D01*
X136137721Y-140099500D01*
X136006291Y-140099500D01*
X135901854Y-140111707D01*
X135875743Y-140114759D01*
X135875740Y-140114760D01*
X135710884Y-140174762D01*
X135710880Y-140174764D01*
X135564306Y-140271167D01*
X135564305Y-140271168D01*
X135443910Y-140398778D01*
X135356188Y-140550718D01*
X135305870Y-140718789D01*
X135305869Y-140718794D01*
X135295668Y-140893933D01*
X128819213Y-140893933D01*
X128824331Y-140806065D01*
X128793865Y-140633289D01*
X128724377Y-140472196D01*
X128619610Y-140331470D01*
X128547747Y-140271170D01*
X128485214Y-140218698D01*
X128485212Y-140218697D01*
X128328437Y-140139961D01*
X128328433Y-140139960D01*
X128157721Y-140099500D01*
X128026291Y-140099500D01*
X127921854Y-140111707D01*
X127895743Y-140114759D01*
X127895740Y-140114760D01*
X127730884Y-140174762D01*
X127730880Y-140174764D01*
X127584306Y-140271167D01*
X127584305Y-140271168D01*
X127463910Y-140398778D01*
X127376188Y-140550718D01*
X127325870Y-140718789D01*
X127325869Y-140718794D01*
X127315668Y-140893933D01*
X110000500Y-140893933D01*
X110000500Y-124072546D01*
X117047355Y-124072546D01*
X117057615Y-124129787D01*
X117058269Y-124134452D01*
X117064154Y-124192318D01*
X117064156Y-124192326D01*
X117073865Y-124223269D01*
X117075737Y-124230898D01*
X117081460Y-124262828D01*
X117081461Y-124262830D01*
X117103032Y-124316833D01*
X117104613Y-124321272D01*
X117122025Y-124376768D01*
X117137765Y-124405125D01*
X117141135Y-124412221D01*
X117153168Y-124442343D01*
X117153170Y-124442348D01*
X117153172Y-124442351D01*
X117153173Y-124442353D01*
X117185174Y-124490908D01*
X117187605Y-124494920D01*
X117206936Y-124529747D01*
X117215841Y-124545791D01*
X117236972Y-124570406D01*
X117241703Y-124576680D01*
X117259547Y-124603757D01*
X117300667Y-124644877D01*
X117303870Y-124648333D01*
X117323814Y-124671564D01*
X117341760Y-124692468D01*
X117341764Y-124692471D01*
X117341765Y-124692472D01*
X117367407Y-124712320D01*
X117373303Y-124717513D01*
X117819372Y-125163582D01*
X117877674Y-125224917D01*
X117925414Y-125258145D01*
X117929161Y-125260970D01*
X117950531Y-125278395D01*
X117974244Y-125297731D01*
X117974247Y-125297733D01*
X118002995Y-125312749D01*
X118009716Y-125316821D01*
X118028046Y-125329578D01*
X118036342Y-125335353D01*
X118089800Y-125358293D01*
X118094047Y-125360311D01*
X118145594Y-125387237D01*
X118176781Y-125396160D01*
X118184169Y-125398790D01*
X118213988Y-125411587D01*
X118270970Y-125423296D01*
X118275516Y-125424411D01*
X118331449Y-125440417D01*
X118363803Y-125442879D01*
X118371562Y-125443968D01*
X118403344Y-125450500D01*
X118461504Y-125450500D01*
X118466210Y-125450678D01*
X118489623Y-125452461D01*
X118524201Y-125455095D01*
X118524201Y-125455094D01*
X118524203Y-125455095D01*
X118556385Y-125450996D01*
X118564215Y-125450500D01*
X123248207Y-125450500D01*
X123392322Y-125435845D01*
X123576759Y-125377977D01*
X123576760Y-125377976D01*
X123576768Y-125377974D01*
X123745791Y-125284159D01*
X123808396Y-125230413D01*
X123872084Y-125201682D01*
X123889166Y-125200500D01*
X126207943Y-125200500D01*
X126274982Y-125220185D01*
X126320737Y-125272989D01*
X126330681Y-125342147D01*
X126320737Y-125376012D01*
X126263302Y-125501774D01*
X126244867Y-125630000D01*
X126263302Y-125758225D01*
X126310764Y-125862150D01*
X126317118Y-125876063D01*
X126401951Y-125973967D01*
X126510931Y-126044004D01*
X126635225Y-126080499D01*
X126635227Y-126080500D01*
X126635228Y-126080500D01*
X126764773Y-126080500D01*
X126764773Y-126080499D01*
X126889069Y-126044004D01*
X126998049Y-125973967D01*
X127082882Y-125876063D01*
X127136697Y-125758226D01*
X127155133Y-125630000D01*
X127136697Y-125501774D01*
X127130352Y-125487880D01*
X127079263Y-125376012D01*
X127069319Y-125306853D01*
X127098344Y-125243297D01*
X127157122Y-125205523D01*
X127192057Y-125200500D01*
X128247943Y-125200500D01*
X128314982Y-125220185D01*
X128360737Y-125272989D01*
X128370681Y-125342147D01*
X128360737Y-125376012D01*
X128303302Y-125501774D01*
X128284867Y-125630000D01*
X128303302Y-125758225D01*
X128350764Y-125862150D01*
X128357118Y-125876063D01*
X128441951Y-125973967D01*
X128550931Y-126044004D01*
X128675225Y-126080499D01*
X128675227Y-126080500D01*
X128675228Y-126080500D01*
X128804773Y-126080500D01*
X128804773Y-126080499D01*
X128929069Y-126044004D01*
X129038049Y-125973967D01*
X129122882Y-125876063D01*
X129176697Y-125758226D01*
X129195133Y-125630000D01*
X129176697Y-125501774D01*
X129170352Y-125487880D01*
X129119263Y-125376012D01*
X129109319Y-125306853D01*
X129138344Y-125243297D01*
X129197122Y-125205523D01*
X129232057Y-125200500D01*
X130958481Y-125200500D01*
X131025520Y-125220185D01*
X131046162Y-125236819D01*
X131936827Y-126127484D01*
X131970312Y-126188807D01*
X131965328Y-126258499D01*
X131936827Y-126302846D01*
X131726493Y-126513181D01*
X131665170Y-126546666D01*
X131638812Y-126549500D01*
X131635226Y-126549500D01*
X131510935Y-126585994D01*
X131510932Y-126585995D01*
X131510931Y-126585996D01*
X131459677Y-126618934D01*
X131401950Y-126656033D01*
X131317118Y-126753937D01*
X131317117Y-126753938D01*
X131263302Y-126871774D01*
X131244867Y-126999999D01*
X131263302Y-127128225D01*
X131267227Y-127136819D01*
X131317118Y-127246063D01*
X131401951Y-127343967D01*
X131510931Y-127414004D01*
X131635225Y-127450499D01*
X131635227Y-127450500D01*
X131635228Y-127450500D01*
X131764773Y-127450500D01*
X131764773Y-127450499D01*
X131889069Y-127414004D01*
X131998049Y-127343967D01*
X132082882Y-127246063D01*
X132136697Y-127128226D01*
X132148387Y-127046914D01*
X132177409Y-126983361D01*
X132183429Y-126976895D01*
X132397153Y-126763172D01*
X132458476Y-126729687D01*
X132528168Y-126734671D01*
X132572515Y-126763172D01*
X132688399Y-126879056D01*
X132690935Y-126881750D01*
X132732071Y-126928183D01*
X132783130Y-126963427D01*
X132786112Y-126965621D01*
X132834944Y-127003878D01*
X132834947Y-127003880D01*
X132834946Y-127003880D01*
X132844177Y-127008034D01*
X132863731Y-127019062D01*
X132872066Y-127024816D01*
X132872068Y-127024816D01*
X132872070Y-127024818D01*
X132930079Y-127046817D01*
X132933476Y-127048224D01*
X132980770Y-127069509D01*
X132990064Y-127073693D01*
X132990065Y-127073693D01*
X132990069Y-127073695D01*
X133000034Y-127075521D01*
X133021656Y-127081548D01*
X133024777Y-127082731D01*
X133031128Y-127085140D01*
X133076251Y-127090618D01*
X133092674Y-127092613D01*
X133096371Y-127093175D01*
X133157394Y-127104358D01*
X133212752Y-127101009D01*
X133219303Y-127100613D01*
X133223048Y-127100500D01*
X136057628Y-127100500D01*
X137242372Y-127100500D01*
X143058481Y-127100500D01*
X143125520Y-127120185D01*
X143146162Y-127136819D01*
X144963181Y-128953838D01*
X144996666Y-129015161D01*
X144999500Y-129041519D01*
X144999500Y-130870500D01*
X144979815Y-130937539D01*
X144927011Y-130983294D01*
X144875500Y-130994500D01*
X144193194Y-130994500D01*
X144126155Y-130974816D01*
X144019069Y-130905996D01*
X144019065Y-130905994D01*
X144019064Y-130905994D01*
X143894774Y-130869500D01*
X143894772Y-130869500D01*
X143765228Y-130869500D01*
X143765226Y-130869500D01*
X143640935Y-130905994D01*
X143640932Y-130905995D01*
X143640931Y-130905996D01*
X143621901Y-130918226D01*
X143531950Y-130976033D01*
X143447118Y-131073937D01*
X143447117Y-131073938D01*
X143393302Y-131191774D01*
X143374867Y-131320000D01*
X143393302Y-131448225D01*
X143447117Y-131566061D01*
X143447118Y-131566063D01*
X143531951Y-131663967D01*
X143640931Y-131734004D01*
X143765225Y-131770499D01*
X143765227Y-131770500D01*
X143765228Y-131770500D01*
X143894773Y-131770500D01*
X143894773Y-131770499D01*
X144019069Y-131734004D01*
X144126155Y-131665183D01*
X144193194Y-131645500D01*
X144875500Y-131645500D01*
X144942539Y-131665185D01*
X144988294Y-131717989D01*
X144999500Y-131769500D01*
X144999500Y-137450500D01*
X144979815Y-137517539D01*
X144927011Y-137563294D01*
X144875500Y-137574500D01*
X144463194Y-137574500D01*
X144396155Y-137554816D01*
X144289069Y-137485996D01*
X144289065Y-137485994D01*
X144289064Y-137485994D01*
X144164774Y-137449500D01*
X144164772Y-137449500D01*
X144035228Y-137449500D01*
X144035226Y-137449500D01*
X143910935Y-137485994D01*
X143910932Y-137485995D01*
X143910931Y-137485996D01*
X143861849Y-137517539D01*
X143801950Y-137556033D01*
X143717118Y-137653937D01*
X143717117Y-137653938D01*
X143663302Y-137771774D01*
X143644867Y-137900000D01*
X143663302Y-138028225D01*
X143717117Y-138146061D01*
X143717118Y-138146063D01*
X143801951Y-138243967D01*
X143910931Y-138314004D01*
X144035225Y-138350499D01*
X144035227Y-138350500D01*
X144035228Y-138350500D01*
X144164773Y-138350500D01*
X144164773Y-138350499D01*
X144289069Y-138314004D01*
X144396155Y-138245183D01*
X144463194Y-138225500D01*
X145008425Y-138225500D01*
X145075464Y-138245185D01*
X145110474Y-138279059D01*
X145171817Y-138367929D01*
X145277505Y-138461560D01*
X145299150Y-138480736D01*
X145449773Y-138559789D01*
X145449775Y-138559790D01*
X145614944Y-138600500D01*
X145785056Y-138600500D01*
X145950225Y-138559790D01*
X146029692Y-138518081D01*
X146100849Y-138480736D01*
X146100850Y-138480734D01*
X146100852Y-138480734D01*
X146228183Y-138367929D01*
X146324818Y-138227930D01*
X146385140Y-138068872D01*
X146400500Y-137942372D01*
X146400500Y-136799500D01*
X146420185Y-136732461D01*
X146472989Y-136686706D01*
X146524500Y-136675500D01*
X147126806Y-136675500D01*
X147193844Y-136695183D01*
X147300931Y-136764004D01*
X147425225Y-136800499D01*
X147425227Y-136800500D01*
X147425228Y-136800500D01*
X147554773Y-136800500D01*
X147554773Y-136800499D01*
X147679069Y-136764004D01*
X147788049Y-136693967D01*
X147872882Y-136596063D01*
X147926697Y-136478226D01*
X147945133Y-136350000D01*
X147926697Y-136221774D01*
X147872882Y-136103937D01*
X147788049Y-136006033D01*
X147679069Y-135935996D01*
X147679065Y-135935994D01*
X147679064Y-135935994D01*
X147554774Y-135899500D01*
X147554772Y-135899500D01*
X147425228Y-135899500D01*
X147425226Y-135899500D01*
X147300935Y-135935994D01*
X147300932Y-135935995D01*
X147300931Y-135935996D01*
X147193845Y-136004816D01*
X147126806Y-136024500D01*
X146524500Y-136024500D01*
X146457461Y-136004815D01*
X146411706Y-135952011D01*
X146400500Y-135900500D01*
X146400500Y-134196611D01*
X146420185Y-134129572D01*
X146472989Y-134083817D01*
X146542147Y-134073873D01*
X146605703Y-134102898D01*
X146612181Y-134108930D01*
X146676774Y-134173523D01*
X146676778Y-134173526D01*
X146676780Y-134173528D01*
X146796874Y-134234719D01*
X146796876Y-134234719D01*
X146796878Y-134234720D01*
X146896507Y-134250500D01*
X146896512Y-134250500D01*
X147463493Y-134250500D01*
X147563121Y-134234720D01*
X147563121Y-134234719D01*
X147563126Y-134234719D01*
X147683220Y-134173528D01*
X147778528Y-134078220D01*
X147795816Y-134044289D01*
X147843787Y-133993496D01*
X147911607Y-133976700D01*
X147973336Y-133996270D01*
X148000931Y-134014004D01*
X148104088Y-134044293D01*
X148125225Y-134050499D01*
X148125227Y-134050500D01*
X148125228Y-134050500D01*
X148254773Y-134050500D01*
X148254773Y-134050499D01*
X148379069Y-134014004D01*
X148488049Y-133943967D01*
X148572882Y-133846063D01*
X148626697Y-133728226D01*
X148645133Y-133600000D01*
X148626697Y-133471774D01*
X148572882Y-133353937D01*
X148488049Y-133256033D01*
X148379069Y-133185996D01*
X148379065Y-133185994D01*
X148379064Y-133185994D01*
X148254774Y-133149500D01*
X148254772Y-133149500D01*
X148125228Y-133149500D01*
X148125226Y-133149500D01*
X148000936Y-133185993D01*
X148000931Y-133185995D01*
X148000931Y-133185996D01*
X147973335Y-133203730D01*
X147906297Y-133223413D01*
X147839258Y-133203727D01*
X147795815Y-133155708D01*
X147778528Y-133121780D01*
X147778523Y-133121774D01*
X147759575Y-133102826D01*
X147726090Y-133041503D01*
X147731074Y-132971811D01*
X147772946Y-132915878D01*
X147782160Y-132909606D01*
X147882731Y-132847573D01*
X148002572Y-132727732D01*
X148002575Y-132727728D01*
X148091542Y-132583492D01*
X148091547Y-132583481D01*
X148144855Y-132422606D01*
X148154999Y-132323322D01*
X148155000Y-132323309D01*
X148155000Y-132300000D01*
X147054000Y-132300000D01*
X146986961Y-132280315D01*
X146941206Y-132227511D01*
X146930000Y-132176000D01*
X146930000Y-131100000D01*
X147430000Y-131100000D01*
X147430000Y-131800000D01*
X148154999Y-131800000D01*
X148154999Y-131776692D01*
X148154998Y-131776677D01*
X148144855Y-131677392D01*
X148091547Y-131516518D01*
X148091542Y-131516507D01*
X148002575Y-131372271D01*
X148002572Y-131372267D01*
X147882732Y-131252427D01*
X147882728Y-131252424D01*
X147738492Y-131163457D01*
X147738481Y-131163452D01*
X147577606Y-131110144D01*
X147478322Y-131100000D01*
X147430000Y-131100000D01*
X146930000Y-131100000D01*
X146929999Y-131099999D01*
X146881693Y-131100000D01*
X146881675Y-131100001D01*
X146782392Y-131110144D01*
X146621518Y-131163452D01*
X146621509Y-131163456D01*
X146589596Y-131183141D01*
X146522204Y-131201581D01*
X146455540Y-131180658D01*
X146410771Y-131127016D01*
X146400500Y-131077602D01*
X146400500Y-130049500D01*
X146420185Y-129982461D01*
X146472989Y-129936706D01*
X146524500Y-129925500D01*
X148313812Y-129925500D01*
X148380851Y-129945185D01*
X148401493Y-129961819D01*
X149447863Y-131008189D01*
X149451518Y-131012178D01*
X149477541Y-131043190D01*
X149477543Y-131043191D01*
X149477545Y-131043194D01*
X149477547Y-131043195D01*
X149477548Y-131043196D01*
X149512599Y-131063433D01*
X149517162Y-131066339D01*
X149550316Y-131089554D01*
X149550319Y-131089554D01*
X149555176Y-131091820D01*
X149571933Y-131098760D01*
X149576953Y-131100587D01*
X149576955Y-131100588D01*
X149616830Y-131107618D01*
X149622087Y-131108784D01*
X149661193Y-131119263D01*
X149701510Y-131115735D01*
X149706912Y-131115500D01*
X157436806Y-131115500D01*
X157503844Y-131135183D01*
X157610931Y-131204004D01*
X157735225Y-131240499D01*
X157735227Y-131240500D01*
X157735228Y-131240500D01*
X157864773Y-131240500D01*
X157864773Y-131240499D01*
X157989069Y-131204004D01*
X158098049Y-131133967D01*
X158182882Y-131036063D01*
X158236697Y-130918226D01*
X158255133Y-130790000D01*
X158236697Y-130661774D01*
X158182882Y-130543937D01*
X158098049Y-130446033D01*
X157989069Y-130375996D01*
X157989065Y-130375994D01*
X157989064Y-130375994D01*
X157864774Y-130339500D01*
X157864772Y-130339500D01*
X157735228Y-130339500D01*
X157735226Y-130339500D01*
X157610935Y-130375994D01*
X157610932Y-130375995D01*
X157610931Y-130375996D01*
X157503845Y-130444816D01*
X157436806Y-130464500D01*
X149876188Y-130464500D01*
X149809149Y-130444815D01*
X149788507Y-130428181D01*
X149285826Y-129925500D01*
X148742119Y-129381793D01*
X148738474Y-129377814D01*
X148712456Y-129346807D01*
X148712455Y-129346806D01*
X148701058Y-129340226D01*
X148677392Y-129326561D01*
X148672831Y-129323655D01*
X148659687Y-129314452D01*
X148639684Y-129300446D01*
X148639681Y-129300445D01*
X148634861Y-129298197D01*
X148618055Y-129291235D01*
X148613043Y-129289411D01*
X148573190Y-129282383D01*
X148567910Y-129281212D01*
X148528808Y-129270735D01*
X148493892Y-129273790D01*
X148488481Y-129274264D01*
X148483078Y-129274500D01*
X146524500Y-129274500D01*
X146457461Y-129254815D01*
X146411706Y-129202011D01*
X146400500Y-129150500D01*
X146400500Y-128723035D01*
X146400613Y-128719290D01*
X146404357Y-128657394D01*
X146393177Y-128596386D01*
X146392615Y-128592689D01*
X146385140Y-128531129D01*
X146385139Y-128531125D01*
X146381546Y-128521651D01*
X146375519Y-128500029D01*
X146373694Y-128490070D01*
X146373694Y-128490068D01*
X146348241Y-128433514D01*
X146346807Y-128430052D01*
X146324818Y-128372071D01*
X146324818Y-128372070D01*
X146319058Y-128363726D01*
X146308035Y-128344180D01*
X146303878Y-128334943D01*
X146265617Y-128286107D01*
X146263417Y-128283117D01*
X146246786Y-128259021D01*
X146228185Y-128232073D01*
X146228183Y-128232071D01*
X146181750Y-128190935D01*
X146179056Y-128188399D01*
X143911598Y-125920941D01*
X143909064Y-125918250D01*
X143867929Y-125871817D01*
X143867928Y-125871816D01*
X143867924Y-125871812D01*
X143816896Y-125836591D01*
X143813887Y-125834377D01*
X143765060Y-125796124D01*
X143765055Y-125796120D01*
X143755813Y-125791961D01*
X143736266Y-125780936D01*
X143727931Y-125775183D01*
X143727932Y-125775183D01*
X143727930Y-125775182D01*
X143669941Y-125753189D01*
X143666490Y-125751759D01*
X143609930Y-125726304D01*
X143599946Y-125724474D01*
X143578343Y-125718451D01*
X143568874Y-125714860D01*
X143568870Y-125714859D01*
X143507313Y-125707384D01*
X143503612Y-125706821D01*
X143442608Y-125695642D01*
X143442603Y-125695642D01*
X143380697Y-125699387D01*
X143376952Y-125699500D01*
X137629500Y-125699500D01*
X137562461Y-125679815D01*
X137516706Y-125627011D01*
X137505500Y-125575500D01*
X137505500Y-125568535D01*
X137525185Y-125501496D01*
X137535783Y-125487336D01*
X137562882Y-125456063D01*
X137616697Y-125338226D01*
X137635133Y-125210000D01*
X137616697Y-125081774D01*
X137562882Y-124963937D01*
X137478049Y-124866033D01*
X137369069Y-124795996D01*
X137369065Y-124795994D01*
X137369064Y-124795994D01*
X137244774Y-124759500D01*
X137244772Y-124759500D01*
X137115228Y-124759500D01*
X137115226Y-124759500D01*
X136990935Y-124795994D01*
X136990932Y-124795995D01*
X136990931Y-124795996D01*
X136939677Y-124828934D01*
X136881950Y-124866033D01*
X136797118Y-124963937D01*
X136797117Y-124963938D01*
X136743302Y-125081774D01*
X136724867Y-125210000D01*
X136743302Y-125338225D01*
X136791595Y-125443970D01*
X136797118Y-125456063D01*
X136824213Y-125487333D01*
X136853238Y-125550888D01*
X136854500Y-125568535D01*
X136854500Y-125575500D01*
X136834815Y-125642539D01*
X136782011Y-125688294D01*
X136730500Y-125699500D01*
X133541519Y-125699500D01*
X133474480Y-125679815D01*
X133453838Y-125663181D01*
X133339860Y-125549203D01*
X133306375Y-125487880D01*
X133311359Y-125418188D01*
X133339860Y-125373841D01*
X133749764Y-124963938D01*
X134183955Y-124529747D01*
X134245278Y-124496262D01*
X134271636Y-124493428D01*
X134275221Y-124493428D01*
X134275221Y-124493427D01*
X134399517Y-124456932D01*
X134508497Y-124386895D01*
X134593330Y-124288991D01*
X134647145Y-124171154D01*
X134665581Y-124042928D01*
X134647145Y-123914702D01*
X134593330Y-123796865D01*
X134508497Y-123698961D01*
X134399517Y-123628924D01*
X134399513Y-123628922D01*
X134399512Y-123628922D01*
X134275222Y-123592428D01*
X134275220Y-123592428D01*
X134145676Y-123592428D01*
X134145674Y-123592428D01*
X134021383Y-123628922D01*
X134021380Y-123628923D01*
X134021379Y-123628924D01*
X133970125Y-123661862D01*
X133912398Y-123698961D01*
X133827566Y-123796865D01*
X133827565Y-123796866D01*
X133773751Y-123914700D01*
X133773750Y-123914705D01*
X133762060Y-123996011D01*
X133733035Y-124059567D01*
X133727003Y-124066045D01*
X132879534Y-124913515D01*
X132818211Y-124947000D01*
X132748520Y-124942016D01*
X132704172Y-124913515D01*
X132281565Y-124490908D01*
X131811598Y-124020941D01*
X131809064Y-124018250D01*
X131767929Y-123971817D01*
X131767928Y-123971816D01*
X131767924Y-123971812D01*
X131716896Y-123936591D01*
X131713887Y-123934377D01*
X131665060Y-123896124D01*
X131665055Y-123896120D01*
X131655813Y-123891961D01*
X131636266Y-123880936D01*
X131627931Y-123875183D01*
X131627932Y-123875183D01*
X131627930Y-123875182D01*
X131569941Y-123853189D01*
X131566490Y-123851759D01*
X131509930Y-123826304D01*
X131499946Y-123824474D01*
X131478343Y-123818451D01*
X131468874Y-123814860D01*
X131468870Y-123814859D01*
X131407313Y-123807384D01*
X131403612Y-123806821D01*
X131342608Y-123795642D01*
X131342603Y-123795642D01*
X131280697Y-123799387D01*
X131276952Y-123799500D01*
X124024500Y-123799500D01*
X123957461Y-123779815D01*
X123911706Y-123727011D01*
X123900500Y-123675500D01*
X123900500Y-118691519D01*
X123920185Y-118624480D01*
X123936819Y-118603838D01*
X124753838Y-117786819D01*
X124815161Y-117753334D01*
X124841519Y-117750500D01*
X125057628Y-117750500D01*
X137276952Y-117750500D01*
X137280697Y-117750613D01*
X137288042Y-117751057D01*
X137342606Y-117754358D01*
X137380314Y-117747447D01*
X137403621Y-117743177D01*
X137407325Y-117742613D01*
X137425170Y-117740446D01*
X137468872Y-117735140D01*
X137478335Y-117731550D01*
X137499961Y-117725522D01*
X137500893Y-117725351D01*
X137509932Y-117723695D01*
X137566512Y-117698229D01*
X137569942Y-117696809D01*
X137627930Y-117674818D01*
X137636266Y-117669062D01*
X137655821Y-117658034D01*
X137665057Y-117653878D01*
X137713896Y-117615613D01*
X137716876Y-117613421D01*
X137767929Y-117578183D01*
X137809065Y-117531748D01*
X137811599Y-117529056D01*
X141279048Y-114061606D01*
X141281740Y-114059072D01*
X141328183Y-114017929D01*
X141363423Y-113966872D01*
X141365630Y-113963873D01*
X141403877Y-113915057D01*
X141408029Y-113905828D01*
X141419062Y-113886268D01*
X141419419Y-113885750D01*
X141424818Y-113877930D01*
X141446812Y-113819933D01*
X141448231Y-113816505D01*
X141473694Y-113759932D01*
X141475520Y-113749965D01*
X141481548Y-113728340D01*
X141485140Y-113718872D01*
X141492615Y-113657309D01*
X141493179Y-113653605D01*
X141497456Y-113630258D01*
X141504357Y-113592606D01*
X141500613Y-113530707D01*
X141500500Y-113526963D01*
X141500500Y-98850000D01*
X144519364Y-98850000D01*
X144576567Y-99063486D01*
X144576570Y-99063492D01*
X144676399Y-99277577D01*
X144676400Y-99277579D01*
X144811886Y-99471073D01*
X144811891Y-99471079D01*
X144978920Y-99638108D01*
X144978926Y-99638113D01*
X145172420Y-99773599D01*
X145172422Y-99773600D01*
X145386507Y-99873429D01*
X145386516Y-99873433D01*
X145614673Y-99934567D01*
X145614684Y-99934569D01*
X145749999Y-99946407D01*
X145750000Y-99946407D01*
X145750000Y-99035501D01*
X145857685Y-99084680D01*
X145964237Y-99100000D01*
X146035763Y-99100000D01*
X146142315Y-99084680D01*
X146250000Y-99035501D01*
X146250000Y-99946407D01*
X146385315Y-99934569D01*
X146385326Y-99934567D01*
X146613483Y-99873433D01*
X146613492Y-99873429D01*
X146827577Y-99773600D01*
X146827579Y-99773599D01*
X147021073Y-99638113D01*
X147021079Y-99638108D01*
X147188105Y-99471082D01*
X147323600Y-99277578D01*
X147423429Y-99063492D01*
X147423432Y-99063486D01*
X147480636Y-98850000D01*
X146433686Y-98850000D01*
X146459493Y-98809844D01*
X146500000Y-98671889D01*
X146500000Y-98528111D01*
X146459493Y-98390156D01*
X146433686Y-98350000D01*
X147480636Y-98350000D01*
X147480635Y-98349999D01*
X147423432Y-98136513D01*
X147423429Y-98136507D01*
X147323600Y-97922422D01*
X147323599Y-97922420D01*
X147188113Y-97728926D01*
X147188108Y-97728920D01*
X147021079Y-97561891D01*
X147021073Y-97561886D01*
X146827579Y-97426400D01*
X146827577Y-97426399D01*
X146742832Y-97386882D01*
X146690393Y-97340710D01*
X146671241Y-97273516D01*
X146691457Y-97206635D01*
X146744622Y-97161300D01*
X146795237Y-97150500D01*
X146804270Y-97150500D01*
X146834699Y-97147646D01*
X146834701Y-97147646D01*
X146898790Y-97125219D01*
X146962882Y-97102793D01*
X147072150Y-97022150D01*
X147152793Y-96912882D01*
X147177568Y-96842080D01*
X147197646Y-96784701D01*
X147197646Y-96784699D01*
X147200500Y-96754269D01*
X147200500Y-95445730D01*
X147197646Y-95415300D01*
X147197646Y-95415298D01*
X147152793Y-95287119D01*
X147152792Y-95287117D01*
X147072150Y-95177850D01*
X146962882Y-95097207D01*
X146962880Y-95097206D01*
X146834700Y-95052353D01*
X146804270Y-95049500D01*
X146804266Y-95049500D01*
X145195734Y-95049500D01*
X145195730Y-95049500D01*
X145165300Y-95052353D01*
X145165298Y-95052353D01*
X145037119Y-95097206D01*
X145037117Y-95097207D01*
X144927850Y-95177850D01*
X144847207Y-95287117D01*
X144847206Y-95287119D01*
X144802353Y-95415298D01*
X144802353Y-95415300D01*
X144799500Y-95445730D01*
X144799500Y-96754269D01*
X144802353Y-96784699D01*
X144802353Y-96784701D01*
X144847206Y-96912880D01*
X144847207Y-96912882D01*
X144927850Y-97022150D01*
X145037118Y-97102793D01*
X145057872Y-97110055D01*
X145165299Y-97147646D01*
X145195730Y-97150500D01*
X145204763Y-97150500D01*
X145271802Y-97170185D01*
X145317557Y-97222989D01*
X145327501Y-97292147D01*
X145298476Y-97355703D01*
X145257168Y-97386882D01*
X145172422Y-97426399D01*
X145172420Y-97426400D01*
X144978926Y-97561886D01*
X144978920Y-97561891D01*
X144811894Y-97728917D01*
X144676399Y-97922421D01*
X144576570Y-98136507D01*
X144576567Y-98136513D01*
X144519364Y-98349999D01*
X144519364Y-98350000D01*
X145566314Y-98350000D01*
X145540507Y-98390156D01*
X145500000Y-98528111D01*
X145500000Y-98671889D01*
X145540507Y-98809844D01*
X145566314Y-98850000D01*
X144519364Y-98850000D01*
X141500500Y-98850000D01*
X141500500Y-89637000D01*
X141520185Y-89569961D01*
X141572989Y-89524206D01*
X141624500Y-89513000D01*
X149142374Y-89513000D01*
X149184538Y-89507880D01*
X149268872Y-89497640D01*
X149427930Y-89437318D01*
X149567929Y-89340683D01*
X149680734Y-89213352D01*
X149686833Y-89201733D01*
X149748776Y-89083710D01*
X149759790Y-89062725D01*
X149800500Y-88897556D01*
X149800500Y-88727444D01*
X149759790Y-88562275D01*
X149745173Y-88534425D01*
X149680736Y-88411650D01*
X149634978Y-88360000D01*
X149567929Y-88284317D01*
X149505193Y-88241013D01*
X149427931Y-88187682D01*
X149268874Y-88127360D01*
X149268868Y-88127359D01*
X149142374Y-88112000D01*
X149142372Y-88112000D01*
X147749500Y-88112000D01*
X147682461Y-88092315D01*
X147636706Y-88039511D01*
X147625500Y-87988000D01*
X147625500Y-84364829D01*
X147645185Y-84297790D01*
X147693203Y-84254345D01*
X147778220Y-84211028D01*
X147797173Y-84192074D01*
X147858494Y-84158590D01*
X147928185Y-84163573D01*
X147984120Y-84205444D01*
X147990392Y-84214659D01*
X148052424Y-84315228D01*
X148052427Y-84315232D01*
X148172267Y-84435072D01*
X148172271Y-84435075D01*
X148316507Y-84524042D01*
X148316518Y-84524047D01*
X148477393Y-84577355D01*
X148576683Y-84587499D01*
X148600000Y-84587498D01*
X148600000Y-83862500D01*
X149100000Y-83862500D01*
X149100000Y-84587499D01*
X149123308Y-84587499D01*
X149123322Y-84587498D01*
X149222607Y-84577355D01*
X149383481Y-84524047D01*
X149383492Y-84524042D01*
X149527728Y-84435075D01*
X149527732Y-84435072D01*
X149647572Y-84315232D01*
X149647575Y-84315228D01*
X149736542Y-84170992D01*
X149736547Y-84170981D01*
X149789855Y-84010106D01*
X149799999Y-83910822D01*
X149800000Y-83910809D01*
X149800000Y-83862500D01*
X149100000Y-83862500D01*
X148600000Y-83862500D01*
X148600000Y-82637500D01*
X149100000Y-82637500D01*
X149100000Y-83362500D01*
X149799999Y-83362500D01*
X149799999Y-83314192D01*
X149799998Y-83314177D01*
X149789855Y-83214892D01*
X149736547Y-83054018D01*
X149736542Y-83054007D01*
X149647575Y-82909771D01*
X149647572Y-82909767D01*
X149527732Y-82789927D01*
X149527728Y-82789924D01*
X149383492Y-82700957D01*
X149383481Y-82700952D01*
X149222606Y-82647644D01*
X149123322Y-82637500D01*
X149100000Y-82637500D01*
X148600000Y-82637500D01*
X148600000Y-82637499D01*
X148576693Y-82637500D01*
X148576674Y-82637501D01*
X148477392Y-82647644D01*
X148316518Y-82700952D01*
X148316507Y-82700957D01*
X148172271Y-82789924D01*
X148172267Y-82789927D01*
X148052426Y-82909768D01*
X147990392Y-83010341D01*
X147938444Y-83057065D01*
X147869481Y-83068286D01*
X147805399Y-83040443D01*
X147797173Y-83032924D01*
X147778225Y-83013976D01*
X147778221Y-83013973D01*
X147778220Y-83013972D01*
X147778218Y-83013971D01*
X147770328Y-83008239D01*
X147772562Y-83005162D01*
X147735391Y-82970041D01*
X147718611Y-82902216D01*
X147729702Y-82856042D01*
X147736697Y-82840726D01*
X147755133Y-82712500D01*
X147736697Y-82584274D01*
X147682882Y-82466437D01*
X147598049Y-82368533D01*
X147489069Y-82298496D01*
X147489065Y-82298494D01*
X147489064Y-82298494D01*
X147364774Y-82262000D01*
X147364772Y-82262000D01*
X147235228Y-82262000D01*
X147235226Y-82262000D01*
X147110935Y-82298494D01*
X147110932Y-82298495D01*
X147110931Y-82298496D01*
X147082437Y-82316808D01*
X147001950Y-82368533D01*
X146917118Y-82466437D01*
X146917117Y-82466438D01*
X146863302Y-82584274D01*
X146844867Y-82712500D01*
X146863302Y-82840724D01*
X146863303Y-82840726D01*
X146870297Y-82856041D01*
X146870298Y-82856042D01*
X146880241Y-82925201D01*
X146851215Y-82988756D01*
X146828470Y-83006579D01*
X146829674Y-83008236D01*
X146821779Y-83013972D01*
X146726476Y-83109274D01*
X146726473Y-83109278D01*
X146665279Y-83229378D01*
X146649500Y-83329006D01*
X146649500Y-83895993D01*
X146665279Y-83995621D01*
X146665280Y-83995624D01*
X146665281Y-83995626D01*
X146672659Y-84010106D01*
X146726473Y-84115721D01*
X146726476Y-84115725D01*
X146821774Y-84211023D01*
X146821777Y-84211025D01*
X146821780Y-84211028D01*
X146906795Y-84254345D01*
X146957590Y-84302318D01*
X146974500Y-84364829D01*
X146974500Y-87988000D01*
X146954815Y-88055039D01*
X146902011Y-88100794D01*
X146850500Y-88112000D01*
X141624500Y-88112000D01*
X141557461Y-88092315D01*
X141511706Y-88039511D01*
X141500500Y-87988000D01*
X141500500Y-82157625D01*
X141485140Y-82031131D01*
X141485139Y-82031125D01*
X141429835Y-81885300D01*
X141424818Y-81872070D01*
X141413748Y-81856033D01*
X141365405Y-81785996D01*
X141328183Y-81732071D01*
X141200852Y-81619266D01*
X141200849Y-81619263D01*
X141050226Y-81540210D01*
X140885056Y-81499500D01*
X140714944Y-81499500D01*
X140549773Y-81540210D01*
X140399150Y-81619263D01*
X140271816Y-81732072D01*
X140210475Y-81820940D01*
X140156192Y-81864930D01*
X140108425Y-81874500D01*
X134463194Y-81874500D01*
X134396155Y-81854816D01*
X134289069Y-81785996D01*
X134289065Y-81785994D01*
X134289064Y-81785994D01*
X134164774Y-81749500D01*
X134164772Y-81749500D01*
X134035228Y-81749500D01*
X134035226Y-81749500D01*
X133910935Y-81785994D01*
X133910932Y-81785995D01*
X133910931Y-81785996D01*
X133859677Y-81818934D01*
X133801950Y-81856033D01*
X133717118Y-81953937D01*
X133717117Y-81953938D01*
X133663302Y-82071774D01*
X133644867Y-82200000D01*
X133663302Y-82328225D01*
X133717117Y-82446061D01*
X133717118Y-82446063D01*
X133801951Y-82543967D01*
X133910931Y-82614004D01*
X134035225Y-82650499D01*
X134035227Y-82650500D01*
X134035228Y-82650500D01*
X134164773Y-82650500D01*
X134164773Y-82650499D01*
X134289069Y-82614004D01*
X134396155Y-82545183D01*
X134463194Y-82525500D01*
X139975500Y-82525500D01*
X140042539Y-82545185D01*
X140088294Y-82597989D01*
X140099500Y-82649500D01*
X140099500Y-88745073D01*
X140097469Y-88767424D01*
X140095642Y-88777392D01*
X140095642Y-88777395D01*
X140099387Y-88839302D01*
X140099500Y-88843047D01*
X140099500Y-98135500D01*
X140079815Y-98202539D01*
X140027011Y-98248294D01*
X139975500Y-98259500D01*
X138104500Y-98259500D01*
X138037461Y-98239815D01*
X137991706Y-98187011D01*
X137980500Y-98135500D01*
X137980500Y-97301092D01*
X137981762Y-97283445D01*
X137985133Y-97260000D01*
X137981039Y-97231528D01*
X137980583Y-97227344D01*
X137980500Y-97226240D01*
X137975703Y-97194412D01*
X137966562Y-97130837D01*
X137965635Y-97126643D01*
X137965349Y-97125715D01*
X137937886Y-97068688D01*
X137924255Y-97038841D01*
X137912882Y-97013937D01*
X137912879Y-97013934D01*
X137909501Y-97008676D01*
X137906986Y-97004181D01*
X137906424Y-97003357D01*
X137865454Y-96959202D01*
X137857586Y-96950122D01*
X137828049Y-96916033D01*
X137828042Y-96916028D01*
X137821349Y-96910228D01*
X137821896Y-96909596D01*
X137821554Y-96909311D01*
X137821323Y-96909602D01*
X137814057Y-96903809D01*
X137814055Y-96903806D01*
X137765818Y-96875956D01*
X137763307Y-96874426D01*
X137719072Y-96845997D01*
X137711002Y-96842312D01*
X137711107Y-96842080D01*
X137699295Y-96837022D01*
X137696449Y-96835905D01*
X137645541Y-96824285D01*
X137641872Y-96823328D01*
X137594772Y-96809500D01*
X137594732Y-96809500D01*
X137567140Y-96806391D01*
X137564046Y-96805685D01*
X137564042Y-96805684D01*
X137532709Y-96808033D01*
X137515438Y-96809327D01*
X137510822Y-96809500D01*
X137465224Y-96809500D01*
X137461387Y-96810627D01*
X137435727Y-96815301D01*
X137428622Y-96815833D01*
X137386520Y-96832356D01*
X137381338Y-96834130D01*
X137340927Y-96845997D01*
X137334241Y-96850294D01*
X137312518Y-96861400D01*
X137302207Y-96865447D01*
X137302203Y-96865449D01*
X137269571Y-96891471D01*
X137264436Y-96895154D01*
X137231953Y-96916031D01*
X137231944Y-96916039D01*
X137224158Y-96925024D01*
X137207769Y-96940758D01*
X137196032Y-96950118D01*
X137196029Y-96950122D01*
X137174486Y-96981718D01*
X137170115Y-96987393D01*
X137147119Y-97013934D01*
X137147116Y-97013939D01*
X137140544Y-97028329D01*
X137130207Y-97046663D01*
X137119527Y-97062327D01*
X137109286Y-97095529D01*
X137106436Y-97103014D01*
X137093302Y-97131774D01*
X137090490Y-97151332D01*
X137086246Y-97170223D01*
X137079500Y-97192095D01*
X137079500Y-97218906D01*
X137078238Y-97236552D01*
X137074867Y-97259999D01*
X137078238Y-97283445D01*
X137079500Y-97301092D01*
X137079500Y-98135500D01*
X137059815Y-98202539D01*
X137007011Y-98248294D01*
X136955500Y-98259500D01*
X133117626Y-98259500D01*
X132991131Y-98274859D01*
X132991125Y-98274860D01*
X132832068Y-98335182D01*
X132692072Y-98431816D01*
X132579263Y-98559150D01*
X132500210Y-98709773D01*
X132465648Y-98850000D01*
X132459500Y-98874944D01*
X132459500Y-99045056D01*
X132464692Y-99066122D01*
X132500210Y-99210226D01*
X132579263Y-99360849D01*
X132579266Y-99360852D01*
X132692071Y-99488183D01*
X132763236Y-99537305D01*
X132832068Y-99584817D01*
X132832069Y-99584817D01*
X132832070Y-99584818D01*
X132991128Y-99645140D01*
X133067028Y-99654356D01*
X133117626Y-99660500D01*
X133117628Y-99660500D01*
X137497628Y-99660500D01*
X139975500Y-99660500D01*
X140042539Y-99680185D01*
X140088294Y-99732989D01*
X140099500Y-99784500D01*
X140099500Y-113208481D01*
X140079815Y-113275520D01*
X140063181Y-113296162D01*
X137046162Y-116313181D01*
X136984839Y-116346666D01*
X136958481Y-116349500D01*
X125369500Y-116349500D01*
X125302461Y-116329815D01*
X125256706Y-116277011D01*
X125245500Y-116225500D01*
X125245500Y-106661230D01*
X125265185Y-106594191D01*
X125317989Y-106548436D01*
X125328546Y-106544188D01*
X125364475Y-106531616D01*
X125470711Y-106453211D01*
X125549116Y-106346975D01*
X125592725Y-106222349D01*
X125594221Y-106206393D01*
X125595500Y-106192760D01*
X125595500Y-105587239D01*
X125592725Y-105557650D01*
X125559684Y-105463226D01*
X125549116Y-105433025D01*
X125470711Y-105326789D01*
X125470710Y-105326788D01*
X125364476Y-105248384D01*
X125239848Y-105204774D01*
X125239849Y-105204774D01*
X125210260Y-105202000D01*
X125210256Y-105202000D01*
X124629744Y-105202000D01*
X124629740Y-105202000D01*
X124600150Y-105204774D01*
X124475523Y-105248384D01*
X124369289Y-105326788D01*
X124369288Y-105326789D01*
X124290884Y-105433023D01*
X124247274Y-105557650D01*
X124244500Y-105587239D01*
X124244500Y-106192760D01*
X124247274Y-106222349D01*
X124290884Y-106346976D01*
X124369288Y-106453210D01*
X124369289Y-106453211D01*
X124475522Y-106531614D01*
X124475525Y-106531616D01*
X124511454Y-106544188D01*
X124568230Y-106584910D01*
X124593978Y-106649862D01*
X124594500Y-106661230D01*
X124594500Y-116222207D01*
X124574815Y-116289246D01*
X124522011Y-116335001D01*
X124463020Y-116345981D01*
X124457403Y-116345641D01*
X124457389Y-116345642D01*
X124396386Y-116356821D01*
X124392685Y-116357384D01*
X124331128Y-116364859D01*
X124331121Y-116364861D01*
X124321647Y-116368454D01*
X124300049Y-116374475D01*
X124290069Y-116376304D01*
X124233519Y-116401755D01*
X124230060Y-116403188D01*
X124172071Y-116425181D01*
X124172066Y-116425184D01*
X124163722Y-116430943D01*
X124144187Y-116441961D01*
X124134947Y-116446120D01*
X124134945Y-116446121D01*
X124086136Y-116484359D01*
X124083122Y-116486576D01*
X124032070Y-116521817D01*
X124032068Y-116521818D01*
X123990942Y-116568240D01*
X123988375Y-116570966D01*
X122720966Y-117838375D01*
X122718240Y-117840942D01*
X122671818Y-117882068D01*
X122636586Y-117933109D01*
X122634368Y-117936124D01*
X122596124Y-117984939D01*
X122596119Y-117984948D01*
X122591960Y-117994188D01*
X122580942Y-118013723D01*
X122575187Y-118022061D01*
X122575183Y-118022067D01*
X122575182Y-118022070D01*
X122575180Y-118022074D01*
X122575179Y-118022077D01*
X122553189Y-118080055D01*
X122551757Y-118083513D01*
X122526305Y-118140068D01*
X122524477Y-118150042D01*
X122518453Y-118171653D01*
X122514860Y-118181127D01*
X122514859Y-118181128D01*
X122507384Y-118242685D01*
X122506821Y-118246386D01*
X122495642Y-118307390D01*
X122495642Y-118307395D01*
X122499387Y-118369302D01*
X122499500Y-118373047D01*
X122499500Y-123425500D01*
X122479815Y-123492539D01*
X122427011Y-123538294D01*
X122375500Y-123549500D01*
X119074500Y-123549500D01*
X119007461Y-123529815D01*
X118961706Y-123477011D01*
X118950500Y-123425500D01*
X118950500Y-121951792D01*
X118935845Y-121807677D01*
X118877977Y-121623240D01*
X118877975Y-121623236D01*
X118877974Y-121623232D01*
X118784159Y-121454209D01*
X118784158Y-121454208D01*
X118784157Y-121454206D01*
X118658241Y-121307533D01*
X118658240Y-121307531D01*
X118505375Y-121189205D01*
X118505371Y-121189203D01*
X118410654Y-121142742D01*
X118331816Y-121104070D01*
X118331814Y-121104069D01*
X118331811Y-121104068D01*
X118331813Y-121104068D01*
X118144682Y-121055616D01*
X118144676Y-121055615D01*
X118015964Y-121049087D01*
X117951610Y-121045824D01*
X117951609Y-121045824D01*
X117951607Y-121045824D01*
X117760533Y-121075095D01*
X117760521Y-121075098D01*
X117579251Y-121142234D01*
X117579242Y-121142238D01*
X117415196Y-121244488D01*
X117275080Y-121377677D01*
X117164646Y-121536342D01*
X117088413Y-121713987D01*
X117049500Y-121903343D01*
X117049500Y-123987937D01*
X117047355Y-124072545D01*
X117047355Y-124072546D01*
X110000500Y-124072546D01*
X110000500Y-120110000D01*
X118025001Y-120110000D01*
X118025001Y-120159154D01*
X118035319Y-120260152D01*
X118089546Y-120423800D01*
X118089551Y-120423811D01*
X118180052Y-120570534D01*
X118180055Y-120570538D01*
X118301961Y-120692444D01*
X118301965Y-120692447D01*
X118448688Y-120782948D01*
X118448699Y-120782953D01*
X118612347Y-120837180D01*
X118713352Y-120847499D01*
X118750000Y-120847499D01*
X118750000Y-120110000D01*
X119250000Y-120110000D01*
X119250000Y-120847499D01*
X119286640Y-120847499D01*
X119286654Y-120847498D01*
X119387652Y-120837180D01*
X119551300Y-120782953D01*
X119551311Y-120782948D01*
X119698034Y-120692447D01*
X119698038Y-120692444D01*
X119819944Y-120570538D01*
X119819947Y-120570534D01*
X119910448Y-120423811D01*
X119910453Y-120423800D01*
X119964680Y-120260152D01*
X119974999Y-120159154D01*
X119975000Y-120159141D01*
X119975000Y-120110000D01*
X119250000Y-120110000D01*
X118750000Y-120110000D01*
X118025001Y-120110000D01*
X110000500Y-120110000D01*
X110000500Y-101317395D01*
X114035642Y-101317395D01*
X114039387Y-101379302D01*
X114039500Y-101383047D01*
X114039500Y-119227374D01*
X114054859Y-119353868D01*
X114054860Y-119353874D01*
X114115182Y-119512931D01*
X114148266Y-119560860D01*
X114211817Y-119652929D01*
X114307536Y-119737728D01*
X114339150Y-119765736D01*
X114489773Y-119844789D01*
X114489775Y-119844790D01*
X114654944Y-119885500D01*
X114825056Y-119885500D01*
X114990225Y-119844790D01*
X115106004Y-119784024D01*
X115140849Y-119765736D01*
X115140850Y-119765734D01*
X115140852Y-119765734D01*
X115268183Y-119652929D01*
X115297815Y-119610000D01*
X118025000Y-119610000D01*
X119974999Y-119610000D01*
X119974999Y-119560860D01*
X119974998Y-119560845D01*
X119964680Y-119459847D01*
X119910453Y-119296199D01*
X119910448Y-119296188D01*
X119819947Y-119149465D01*
X119819944Y-119149461D01*
X119698038Y-119027555D01*
X119698034Y-119027552D01*
X119551311Y-118937051D01*
X119551300Y-118937046D01*
X119458793Y-118906393D01*
X119401348Y-118866621D01*
X119374525Y-118802105D01*
X119386840Y-118733329D01*
X119434383Y-118682129D01*
X119439859Y-118679055D01*
X119444470Y-118676617D01*
X119444475Y-118676616D01*
X119550711Y-118598211D01*
X119578913Y-118559997D01*
X119596723Y-118535867D01*
X119652370Y-118493616D01*
X119696493Y-118485500D01*
X119774773Y-118485500D01*
X119774773Y-118485499D01*
X119899069Y-118449004D01*
X120008049Y-118378967D01*
X120092882Y-118281063D01*
X120146697Y-118163226D01*
X120165133Y-118035000D01*
X120146697Y-117906774D01*
X120092882Y-117788937D01*
X120008049Y-117691033D01*
X119899069Y-117620996D01*
X119899065Y-117620994D01*
X119899064Y-117620994D01*
X119774774Y-117584500D01*
X119774772Y-117584500D01*
X119696493Y-117584500D01*
X119629454Y-117564815D01*
X119596723Y-117534133D01*
X119550711Y-117471789D01*
X119550710Y-117471788D01*
X119444476Y-117393384D01*
X119319848Y-117349774D01*
X119319849Y-117349774D01*
X119290260Y-117347000D01*
X119290256Y-117347000D01*
X118709744Y-117347000D01*
X118709740Y-117347000D01*
X118680150Y-117349774D01*
X118555523Y-117393384D01*
X118449289Y-117471788D01*
X118449288Y-117471789D01*
X118370884Y-117578023D01*
X118327274Y-117702650D01*
X118324500Y-117732239D01*
X118324500Y-118337760D01*
X118327274Y-118367349D01*
X118370884Y-118491976D01*
X118449288Y-118598210D01*
X118449289Y-118598211D01*
X118555525Y-118676616D01*
X118555529Y-118676617D01*
X118560144Y-118679057D01*
X118610216Y-118727786D01*
X118625995Y-118795850D01*
X118602470Y-118861641D01*
X118547111Y-118904269D01*
X118541206Y-118906393D01*
X118448699Y-118937046D01*
X118448688Y-118937051D01*
X118301965Y-119027552D01*
X118219453Y-119110064D01*
X118179008Y-119132147D01*
X118163381Y-119176493D01*
X118089551Y-119296188D01*
X118089546Y-119296199D01*
X118035319Y-119459847D01*
X118025000Y-119560845D01*
X118025000Y-119610000D01*
X115297815Y-119610000D01*
X115364818Y-119512930D01*
X115425140Y-119353872D01*
X115435380Y-119269538D01*
X115440500Y-119227374D01*
X115440500Y-115807740D01*
X115460185Y-115740701D01*
X115512989Y-115694946D01*
X115582147Y-115685002D01*
X115645703Y-115714027D01*
X115683477Y-115772805D01*
X115684275Y-115775647D01*
X115726566Y-115933483D01*
X115726570Y-115933492D01*
X115826399Y-116147578D01*
X115961894Y-116341082D01*
X116128917Y-116508105D01*
X116322421Y-116643600D01*
X116492948Y-116723118D01*
X116545387Y-116769290D01*
X116564539Y-116836484D01*
X116544323Y-116903365D01*
X116491158Y-116948700D01*
X116440543Y-116959500D01*
X116130247Y-116959500D01*
X116071770Y-116971131D01*
X116071769Y-116971132D01*
X116005447Y-117015447D01*
X115961132Y-117081769D01*
X115961131Y-117081770D01*
X115949500Y-117140247D01*
X115949500Y-118879752D01*
X115961131Y-118938229D01*
X115961132Y-118938230D01*
X116005447Y-119004552D01*
X116071769Y-119048867D01*
X116071770Y-119048868D01*
X116130247Y-119060499D01*
X116130250Y-119060500D01*
X116130252Y-119060500D01*
X117869750Y-119060500D01*
X117869751Y-119060499D01*
X117889418Y-119056587D01*
X117928228Y-119048868D01*
X117928228Y-119048867D01*
X117928231Y-119048867D01*
X117988952Y-119008293D01*
X118014840Y-119000187D01*
X118022940Y-118962955D01*
X118028663Y-118953501D01*
X118038867Y-118938231D01*
X118045623Y-118904269D01*
X118050499Y-118879752D01*
X118050500Y-118879750D01*
X118050500Y-117140249D01*
X118050499Y-117140247D01*
X118038868Y-117081770D01*
X118038867Y-117081769D01*
X117994552Y-117015447D01*
X117928230Y-116971132D01*
X117928229Y-116971131D01*
X117869752Y-116959500D01*
X117869748Y-116959500D01*
X117559457Y-116959500D01*
X117492418Y-116939815D01*
X117446663Y-116887011D01*
X117436719Y-116817853D01*
X117465744Y-116754297D01*
X117507052Y-116723118D01*
X117677578Y-116643600D01*
X117871082Y-116508105D01*
X118038105Y-116341082D01*
X118173600Y-116147578D01*
X118273429Y-115933492D01*
X118273432Y-115933486D01*
X118330636Y-115720000D01*
X117433686Y-115720000D01*
X117459493Y-115679844D01*
X117500000Y-115541889D01*
X117500000Y-115398111D01*
X117459493Y-115260156D01*
X117433686Y-115220000D01*
X118330636Y-115220000D01*
X118330635Y-115219999D01*
X118273432Y-115006513D01*
X118273429Y-115006507D01*
X118173600Y-114792422D01*
X118173599Y-114792420D01*
X118038113Y-114598926D01*
X118038108Y-114598920D01*
X117871082Y-114431894D01*
X117677578Y-114296399D01*
X117463492Y-114196570D01*
X117463486Y-114196567D01*
X117250000Y-114139364D01*
X117250000Y-115034498D01*
X117142315Y-114985320D01*
X117035763Y-114970000D01*
X116964237Y-114970000D01*
X116857685Y-114985320D01*
X116750000Y-115034498D01*
X116750000Y-114139364D01*
X116749999Y-114139364D01*
X116536513Y-114196567D01*
X116536507Y-114196570D01*
X116322422Y-114296399D01*
X116322420Y-114296400D01*
X116128926Y-114431886D01*
X116128920Y-114431891D01*
X115961891Y-114598920D01*
X115961886Y-114598926D01*
X115826400Y-114792420D01*
X115826399Y-114792422D01*
X115726570Y-115006507D01*
X115726566Y-115006516D01*
X115684275Y-115164352D01*
X115647910Y-115224013D01*
X115585063Y-115254542D01*
X115515688Y-115246247D01*
X115461810Y-115201762D01*
X115440535Y-115135210D01*
X115440500Y-115132259D01*
X115440500Y-107410000D01*
X122025001Y-107410000D01*
X122025001Y-107459154D01*
X122035319Y-107560152D01*
X122089546Y-107723800D01*
X122089551Y-107723811D01*
X122180052Y-107870534D01*
X122180055Y-107870538D01*
X122301961Y-107992444D01*
X122301965Y-107992447D01*
X122448688Y-108082948D01*
X122448699Y-108082953D01*
X122612347Y-108137180D01*
X122713352Y-108147499D01*
X122750000Y-108147499D01*
X122750000Y-107410000D01*
X123250000Y-107410000D01*
X123250000Y-108147499D01*
X123286640Y-108147499D01*
X123286654Y-108147498D01*
X123387652Y-108137180D01*
X123551300Y-108082953D01*
X123551311Y-108082948D01*
X123698034Y-107992447D01*
X123698038Y-107992444D01*
X123819944Y-107870538D01*
X123819947Y-107870534D01*
X123910448Y-107723811D01*
X123910453Y-107723800D01*
X123964680Y-107560152D01*
X123974999Y-107459154D01*
X123975000Y-107459141D01*
X123975000Y-107410000D01*
X123250000Y-107410000D01*
X122750000Y-107410000D01*
X122025001Y-107410000D01*
X115440500Y-107410000D01*
X115440500Y-105335000D01*
X121444867Y-105335000D01*
X121463302Y-105463225D01*
X121511702Y-105569203D01*
X121517118Y-105581063D01*
X121601951Y-105678967D01*
X121710931Y-105749004D01*
X121835225Y-105785499D01*
X121835227Y-105785500D01*
X121835228Y-105785500D01*
X121964773Y-105785500D01*
X121964773Y-105785499D01*
X122089069Y-105749004D01*
X122174685Y-105693981D01*
X122241724Y-105674297D01*
X122308763Y-105693982D01*
X122354518Y-105746786D01*
X122358765Y-105757342D01*
X122370884Y-105791975D01*
X122370884Y-105791976D01*
X122440772Y-105886671D01*
X122449289Y-105898211D01*
X122555525Y-105976616D01*
X122555529Y-105976617D01*
X122560144Y-105979057D01*
X122610216Y-106027786D01*
X122625995Y-106095850D01*
X122602470Y-106161641D01*
X122547111Y-106204269D01*
X122541206Y-106206393D01*
X122448699Y-106237046D01*
X122448688Y-106237051D01*
X122301965Y-106327552D01*
X122301961Y-106327555D01*
X122180055Y-106449461D01*
X122180052Y-106449465D01*
X122089551Y-106596188D01*
X122089546Y-106596199D01*
X122035319Y-106759847D01*
X122025000Y-106860845D01*
X122025000Y-106910000D01*
X123974999Y-106910000D01*
X123974999Y-106860860D01*
X123974998Y-106860845D01*
X123964680Y-106759847D01*
X123910453Y-106596199D01*
X123910448Y-106596188D01*
X123819947Y-106449465D01*
X123819944Y-106449461D01*
X123698038Y-106327555D01*
X123698034Y-106327552D01*
X123551311Y-106237051D01*
X123551300Y-106237046D01*
X123458793Y-106206393D01*
X123401348Y-106166621D01*
X123374525Y-106102105D01*
X123386840Y-106033329D01*
X123434383Y-105982129D01*
X123439859Y-105979055D01*
X123444470Y-105976617D01*
X123444475Y-105976616D01*
X123550711Y-105898211D01*
X123629116Y-105791975D01*
X123672725Y-105667349D01*
X123675500Y-105637756D01*
X123675500Y-105032244D01*
X123672725Y-105002651D01*
X123629116Y-104878025D01*
X123625399Y-104872989D01*
X123550711Y-104771789D01*
X123550710Y-104771788D01*
X123444476Y-104693384D01*
X123319848Y-104649774D01*
X123319849Y-104649774D01*
X123290260Y-104647000D01*
X123290256Y-104647000D01*
X122709744Y-104647000D01*
X122709740Y-104647000D01*
X122680150Y-104649774D01*
X122555523Y-104693384D01*
X122449289Y-104771788D01*
X122449288Y-104771789D01*
X122370884Y-104878023D01*
X122358765Y-104912658D01*
X122318043Y-104969434D01*
X122253090Y-104995180D01*
X122184528Y-104981723D01*
X122174685Y-104976018D01*
X122164440Y-104969434D01*
X122089069Y-104920996D01*
X122089065Y-104920994D01*
X122089064Y-104920994D01*
X121964774Y-104884500D01*
X121964772Y-104884500D01*
X121835228Y-104884500D01*
X121835226Y-104884500D01*
X121710935Y-104920994D01*
X121710932Y-104920995D01*
X121710931Y-104920996D01*
X121705479Y-104924500D01*
X121601950Y-104991033D01*
X121517118Y-105088937D01*
X121517117Y-105088938D01*
X121463302Y-105206774D01*
X121444867Y-105335000D01*
X115440500Y-105335000D01*
X115440500Y-104065000D01*
X121444867Y-104065000D01*
X121463302Y-104193225D01*
X121517117Y-104311061D01*
X121517118Y-104311063D01*
X121601951Y-104408967D01*
X121710931Y-104479004D01*
X121835225Y-104515499D01*
X121835227Y-104515500D01*
X121835228Y-104515500D01*
X121964773Y-104515500D01*
X121964773Y-104515499D01*
X122089069Y-104479004D01*
X122196155Y-104410183D01*
X122263194Y-104390500D01*
X124156896Y-104390500D01*
X124223935Y-104410185D01*
X124269690Y-104462989D01*
X124273937Y-104473544D01*
X124290884Y-104521976D01*
X124369288Y-104628210D01*
X124369289Y-104628211D01*
X124475523Y-104706615D01*
X124475524Y-104706615D01*
X124475525Y-104706616D01*
X124600151Y-104750225D01*
X124600150Y-104750225D01*
X124629740Y-104753000D01*
X124629744Y-104753000D01*
X125210260Y-104753000D01*
X125239849Y-104750225D01*
X125364475Y-104706616D01*
X125470711Y-104628211D01*
X125549116Y-104521975D01*
X125592725Y-104397349D01*
X125595500Y-104367756D01*
X125595500Y-103762244D01*
X125594569Y-103752319D01*
X125592725Y-103732650D01*
X125564152Y-103650994D01*
X125549116Y-103608025D01*
X125470711Y-103501789D01*
X125470710Y-103501788D01*
X125364476Y-103423384D01*
X125239848Y-103379774D01*
X125239849Y-103379774D01*
X125210260Y-103377000D01*
X125210256Y-103377000D01*
X124629744Y-103377000D01*
X124629740Y-103377000D01*
X124600150Y-103379774D01*
X124475523Y-103423384D01*
X124369289Y-103501788D01*
X124369288Y-103501789D01*
X124290884Y-103608023D01*
X124273937Y-103656456D01*
X124233215Y-103713231D01*
X124168262Y-103738978D01*
X124156896Y-103739500D01*
X122263194Y-103739500D01*
X122196155Y-103719816D01*
X122089069Y-103650996D01*
X122089065Y-103650994D01*
X122089064Y-103650994D01*
X121964774Y-103614500D01*
X121964772Y-103614500D01*
X121835228Y-103614500D01*
X121835226Y-103614500D01*
X121710935Y-103650994D01*
X121710932Y-103650995D01*
X121710931Y-103650996D01*
X121659677Y-103683934D01*
X121601950Y-103721033D01*
X121517118Y-103818937D01*
X121517117Y-103818938D01*
X121463302Y-103936774D01*
X121444867Y-104065000D01*
X115440500Y-104065000D01*
X115440500Y-101701519D01*
X115460185Y-101634480D01*
X115476819Y-101613838D01*
X116683838Y-100406819D01*
X116745161Y-100373334D01*
X116771519Y-100370500D01*
X122537628Y-100370500D01*
X125776952Y-100370500D01*
X125780697Y-100370613D01*
X125788042Y-100371057D01*
X125842606Y-100374358D01*
X125880314Y-100367447D01*
X125903621Y-100363177D01*
X125907325Y-100362613D01*
X125925170Y-100360446D01*
X125968872Y-100355140D01*
X125978335Y-100351550D01*
X125999961Y-100345522D01*
X126000893Y-100345351D01*
X126009932Y-100343695D01*
X126066512Y-100318229D01*
X126069942Y-100316809D01*
X126127930Y-100294818D01*
X126136266Y-100289062D01*
X126155821Y-100278034D01*
X126165057Y-100273878D01*
X126213896Y-100235613D01*
X126216876Y-100233421D01*
X126267929Y-100198183D01*
X126309065Y-100151748D01*
X126311599Y-100149056D01*
X128889056Y-97571599D01*
X128891748Y-97569065D01*
X128938183Y-97527929D01*
X128973427Y-97476866D01*
X128975617Y-97473890D01*
X129013877Y-97425057D01*
X129018029Y-97415828D01*
X129029062Y-97396268D01*
X129029419Y-97395750D01*
X129034818Y-97387930D01*
X129056812Y-97329933D01*
X129058231Y-97326505D01*
X129083694Y-97269932D01*
X129085520Y-97259965D01*
X129091548Y-97238340D01*
X129095140Y-97228872D01*
X129102615Y-97167309D01*
X129103179Y-97163605D01*
X129107456Y-97140258D01*
X129114357Y-97102606D01*
X129112305Y-97068688D01*
X129110613Y-97040707D01*
X129110500Y-97036963D01*
X129110500Y-88903918D01*
X129130185Y-88836879D01*
X129182989Y-88791124D01*
X129187051Y-88789356D01*
X129188229Y-88788867D01*
X129188231Y-88788867D01*
X129254552Y-88744552D01*
X129298867Y-88678231D01*
X129298867Y-88678229D01*
X129298868Y-88678229D01*
X129310499Y-88619752D01*
X129310500Y-88619750D01*
X129310500Y-87180249D01*
X129310499Y-87180247D01*
X129298868Y-87121770D01*
X129298867Y-87121769D01*
X129254552Y-87055447D01*
X129188230Y-87011132D01*
X129188229Y-87011131D01*
X129129752Y-86999500D01*
X129129748Y-86999500D01*
X127690252Y-86999500D01*
X127690247Y-86999500D01*
X127631770Y-87011131D01*
X127631769Y-87011132D01*
X127565447Y-87055447D01*
X127521132Y-87121769D01*
X127521131Y-87121770D01*
X127509500Y-87180247D01*
X127509500Y-88619752D01*
X127521131Y-88678229D01*
X127521132Y-88678230D01*
X127565447Y-88744552D01*
X127631769Y-88788867D01*
X127632949Y-88789356D01*
X127635126Y-88791110D01*
X127641923Y-88795652D01*
X127641516Y-88796259D01*
X127687354Y-88833195D01*
X127709421Y-88899489D01*
X127709500Y-88903918D01*
X127709500Y-91691100D01*
X127689815Y-91758139D01*
X127637011Y-91803894D01*
X127567853Y-91813838D01*
X127504297Y-91784813D01*
X127476668Y-91750527D01*
X127386808Y-91585961D01*
X127386807Y-91585960D01*
X127280115Y-91443436D01*
X126670560Y-92052991D01*
X126621652Y-91974001D01*
X126478069Y-91816499D01*
X126319610Y-91696835D01*
X126926562Y-91089883D01*
X126926561Y-91089882D01*
X126784046Y-90983196D01*
X126784038Y-90983191D01*
X126532957Y-90846091D01*
X126532958Y-90846091D01*
X126264895Y-90746109D01*
X125985362Y-90685300D01*
X125700001Y-90664891D01*
X125699999Y-90664891D01*
X125414637Y-90685300D01*
X125135104Y-90746109D01*
X124867041Y-90846091D01*
X124615961Y-90983191D01*
X124615953Y-90983196D01*
X124473437Y-91089882D01*
X124473436Y-91089883D01*
X125080389Y-91696835D01*
X124921931Y-91816499D01*
X124778348Y-91974001D01*
X124729439Y-92052992D01*
X124119883Y-91443436D01*
X124119882Y-91443437D01*
X124013196Y-91585953D01*
X124013191Y-91585961D01*
X123876091Y-91837041D01*
X123776109Y-92105104D01*
X123715300Y-92384637D01*
X123694891Y-92669998D01*
X123694891Y-92670001D01*
X123715300Y-92955362D01*
X123776109Y-93234895D01*
X123876091Y-93502958D01*
X124013191Y-93754038D01*
X124013196Y-93754046D01*
X124119882Y-93896561D01*
X124119883Y-93896562D01*
X124729438Y-93287006D01*
X124778348Y-93365999D01*
X124921931Y-93523501D01*
X125080388Y-93643163D01*
X124473436Y-94250115D01*
X124615960Y-94356807D01*
X124615961Y-94356808D01*
X124867042Y-94493908D01*
X124867041Y-94493908D01*
X125135104Y-94593890D01*
X125414637Y-94654699D01*
X125699999Y-94675109D01*
X125700001Y-94675109D01*
X125985362Y-94654699D01*
X126264895Y-94593890D01*
X126532958Y-94493908D01*
X126784047Y-94356803D01*
X126926561Y-94250116D01*
X126926562Y-94250115D01*
X126319611Y-93643163D01*
X126478069Y-93523501D01*
X126621652Y-93365999D01*
X126670560Y-93287007D01*
X127280115Y-93896562D01*
X127280116Y-93896561D01*
X127386803Y-93754047D01*
X127476668Y-93589472D01*
X127526073Y-93540067D01*
X127594346Y-93525215D01*
X127659810Y-93549632D01*
X127701682Y-93605565D01*
X127709500Y-93648899D01*
X127709500Y-96718481D01*
X127689815Y-96785520D01*
X127673181Y-96806162D01*
X125546162Y-98933181D01*
X125484839Y-98966666D01*
X125458481Y-98969500D01*
X116453048Y-98969500D01*
X116449303Y-98969387D01*
X116387396Y-98965642D01*
X116387389Y-98965642D01*
X116326386Y-98976821D01*
X116322685Y-98977384D01*
X116261128Y-98984859D01*
X116261121Y-98984861D01*
X116251647Y-98988454D01*
X116230049Y-98994475D01*
X116220068Y-98996305D01*
X116220063Y-98996306D01*
X116163505Y-99021761D01*
X116160046Y-99023193D01*
X116102070Y-99045181D01*
X116102066Y-99045184D01*
X116093723Y-99050942D01*
X116074188Y-99061960D01*
X116064948Y-99066119D01*
X116064939Y-99066124D01*
X116016124Y-99104368D01*
X116013109Y-99106586D01*
X115962068Y-99141818D01*
X115920942Y-99188240D01*
X115918375Y-99190966D01*
X114260966Y-100848375D01*
X114258240Y-100850942D01*
X114211818Y-100892068D01*
X114176586Y-100943109D01*
X114174368Y-100946124D01*
X114136124Y-100994939D01*
X114136119Y-100994948D01*
X114131960Y-101004188D01*
X114120942Y-101023723D01*
X114115187Y-101032061D01*
X114115183Y-101032067D01*
X114115182Y-101032070D01*
X114115180Y-101032074D01*
X114115179Y-101032077D01*
X114093189Y-101090055D01*
X114091757Y-101093513D01*
X114066305Y-101150068D01*
X114064477Y-101160042D01*
X114058453Y-101181653D01*
X114054860Y-101191127D01*
X114054859Y-101191128D01*
X114047384Y-101252685D01*
X114046821Y-101256386D01*
X114035642Y-101317390D01*
X114035642Y-101317395D01*
X110000500Y-101317395D01*
X110000500Y-87900000D01*
X124004859Y-87900000D01*
X124025378Y-88121439D01*
X124086240Y-88335350D01*
X124185369Y-88534428D01*
X124201137Y-88555308D01*
X124201138Y-88555308D01*
X124756220Y-88000226D01*
X124756467Y-88003516D01*
X124807128Y-88132598D01*
X124893586Y-88241013D01*
X125008159Y-88319127D01*
X125112301Y-88351250D01*
X124556672Y-88906879D01*
X124556672Y-88906880D01*
X124672821Y-88978797D01*
X124672822Y-88978798D01*
X124880195Y-89059134D01*
X125098807Y-89100000D01*
X125321193Y-89100000D01*
X125539809Y-89059133D01*
X125747168Y-88978801D01*
X125747181Y-88978795D01*
X125863326Y-88906879D01*
X125307020Y-88350572D01*
X125347119Y-88344529D01*
X125472054Y-88284363D01*
X125573705Y-88190045D01*
X125643039Y-88069955D01*
X125659850Y-87996297D01*
X126218861Y-88555308D01*
X126234631Y-88534425D01*
X126234633Y-88534422D01*
X126333759Y-88335350D01*
X126394621Y-88121439D01*
X126415141Y-87900000D01*
X126415141Y-87899999D01*
X126394621Y-87678560D01*
X126333759Y-87464649D01*
X126234635Y-87265580D01*
X126234630Y-87265572D01*
X126218860Y-87244690D01*
X125663779Y-87799772D01*
X125663533Y-87796484D01*
X125612872Y-87667402D01*
X125526414Y-87558987D01*
X125411841Y-87480873D01*
X125307698Y-87448749D01*
X125863327Y-86893119D01*
X125747178Y-86821202D01*
X125747177Y-86821201D01*
X125539804Y-86740865D01*
X125321193Y-86700000D01*
X125098807Y-86700000D01*
X124880195Y-86740865D01*
X124672824Y-86821200D01*
X124672823Y-86821201D01*
X124556671Y-86893119D01*
X125112979Y-87449427D01*
X125072881Y-87455471D01*
X124947946Y-87515637D01*
X124846295Y-87609955D01*
X124776961Y-87730045D01*
X124760149Y-87803702D01*
X124201138Y-87244691D01*
X124201137Y-87244691D01*
X124185368Y-87265574D01*
X124086240Y-87464649D01*
X124025378Y-87678560D01*
X124004859Y-87899999D01*
X124004859Y-87900000D01*
X110000500Y-87900000D01*
X110000500Y-85400000D01*
X124304540Y-85400000D01*
X124324326Y-85588256D01*
X124324327Y-85588259D01*
X124382818Y-85768277D01*
X124382821Y-85768284D01*
X124477467Y-85932216D01*
X124539279Y-86000865D01*
X124604129Y-86072888D01*
X124757265Y-86184148D01*
X124757270Y-86184151D01*
X124930192Y-86261142D01*
X124930197Y-86261144D01*
X125115354Y-86300500D01*
X125115355Y-86300500D01*
X125304644Y-86300500D01*
X125304646Y-86300500D01*
X125489803Y-86261144D01*
X125662730Y-86184151D01*
X125815871Y-86072888D01*
X125942533Y-85932216D01*
X126037179Y-85768284D01*
X126095674Y-85588256D01*
X126115460Y-85400000D01*
X127504540Y-85400000D01*
X127524326Y-85588256D01*
X127524327Y-85588259D01*
X127582818Y-85768277D01*
X127582821Y-85768284D01*
X127677467Y-85932216D01*
X127739279Y-86000865D01*
X127804129Y-86072888D01*
X127957265Y-86184148D01*
X127957270Y-86184151D01*
X128130192Y-86261142D01*
X128130197Y-86261144D01*
X128315354Y-86300500D01*
X128315355Y-86300500D01*
X128504644Y-86300500D01*
X128504646Y-86300500D01*
X128689803Y-86261144D01*
X128862730Y-86184151D01*
X129015871Y-86072888D01*
X129142533Y-85932216D01*
X129237179Y-85768284D01*
X129295674Y-85588256D01*
X129315460Y-85400000D01*
X129295674Y-85211744D01*
X129237179Y-85031716D01*
X129142533Y-84867784D01*
X129015871Y-84727112D01*
X128998786Y-84714699D01*
X128862734Y-84615851D01*
X128862729Y-84615848D01*
X128689807Y-84538857D01*
X128689802Y-84538855D01*
X128544001Y-84507865D01*
X128504646Y-84499500D01*
X128315354Y-84499500D01*
X128282897Y-84506398D01*
X128130197Y-84538855D01*
X128130192Y-84538857D01*
X127957270Y-84615848D01*
X127957265Y-84615851D01*
X127804129Y-84727111D01*
X127677466Y-84867785D01*
X127582821Y-85031715D01*
X127582818Y-85031722D01*
X127524801Y-85210282D01*
X127524326Y-85211744D01*
X127504540Y-85400000D01*
X126115460Y-85400000D01*
X126095674Y-85211744D01*
X126037179Y-85031716D01*
X125942533Y-84867784D01*
X125815871Y-84727112D01*
X125798786Y-84714699D01*
X125662734Y-84615851D01*
X125662729Y-84615848D01*
X125489807Y-84538857D01*
X125489802Y-84538855D01*
X125344001Y-84507865D01*
X125304646Y-84499500D01*
X125115354Y-84499500D01*
X125082897Y-84506398D01*
X124930197Y-84538855D01*
X124930192Y-84538857D01*
X124757270Y-84615848D01*
X124757265Y-84615851D01*
X124604129Y-84727111D01*
X124477466Y-84867785D01*
X124382821Y-85031715D01*
X124382818Y-85031722D01*
X124324801Y-85210282D01*
X124324326Y-85211744D01*
X124304540Y-85400000D01*
X110000500Y-85400000D01*
X110000500Y-80630001D01*
X123694891Y-80630001D01*
X123715300Y-80915362D01*
X123776109Y-81194895D01*
X123876091Y-81462958D01*
X124013191Y-81714038D01*
X124013196Y-81714046D01*
X124119882Y-81856561D01*
X124119883Y-81856562D01*
X124729438Y-81247006D01*
X124778348Y-81325999D01*
X124921931Y-81483501D01*
X125080388Y-81603163D01*
X124473436Y-82210115D01*
X124615960Y-82316807D01*
X124615961Y-82316808D01*
X124867042Y-82453908D01*
X124867041Y-82453908D01*
X125135104Y-82553890D01*
X125414637Y-82614699D01*
X125699999Y-82635109D01*
X125700001Y-82635109D01*
X125985362Y-82614699D01*
X126264895Y-82553890D01*
X126532958Y-82453908D01*
X126784047Y-82316803D01*
X126926561Y-82210116D01*
X126926562Y-82210115D01*
X126319611Y-81603163D01*
X126478069Y-81483501D01*
X126621652Y-81325999D01*
X126670560Y-81247007D01*
X127280115Y-81856562D01*
X127280116Y-81856561D01*
X127386803Y-81714047D01*
X127523908Y-81462958D01*
X127623890Y-81194895D01*
X127684699Y-80915362D01*
X127705109Y-80630001D01*
X127705109Y-80629998D01*
X127684699Y-80344637D01*
X127623890Y-80065104D01*
X127523908Y-79797041D01*
X127386808Y-79545961D01*
X127386807Y-79545960D01*
X127280115Y-79403436D01*
X126670560Y-80012991D01*
X126621652Y-79934001D01*
X126478069Y-79776499D01*
X126319610Y-79656835D01*
X126926562Y-79049883D01*
X126926561Y-79049882D01*
X126784046Y-78943196D01*
X126784038Y-78943191D01*
X126532957Y-78806091D01*
X126532958Y-78806091D01*
X126264895Y-78706109D01*
X125985362Y-78645300D01*
X125700001Y-78624891D01*
X125699999Y-78624891D01*
X125414637Y-78645300D01*
X125135104Y-78706109D01*
X124867041Y-78806091D01*
X124615961Y-78943191D01*
X124615953Y-78943196D01*
X124473437Y-79049882D01*
X124473436Y-79049883D01*
X125080389Y-79656835D01*
X124921931Y-79776499D01*
X124778348Y-79934001D01*
X124729439Y-80012992D01*
X124119883Y-79403436D01*
X124119882Y-79403437D01*
X124013196Y-79545953D01*
X124013191Y-79545961D01*
X123876091Y-79797041D01*
X123776109Y-80065104D01*
X123715300Y-80344637D01*
X123694891Y-80629998D01*
X123694891Y-80630001D01*
X110000500Y-80630001D01*
X110000500Y-72876604D01*
X116049500Y-72876604D01*
X116064699Y-73030932D01*
X116094734Y-73129944D01*
X116124768Y-73228954D01*
X116222315Y-73411450D01*
X116256969Y-73453677D01*
X116353589Y-73571410D01*
X116434584Y-73637880D01*
X116513550Y-73702685D01*
X116696046Y-73800232D01*
X116894066Y-73860300D01*
X116894065Y-73860300D01*
X116912529Y-73862118D01*
X117100000Y-73880583D01*
X117305934Y-73860300D01*
X117503954Y-73800232D01*
X117686450Y-73702685D01*
X117846410Y-73571410D01*
X117977685Y-73411450D01*
X118075232Y-73228954D01*
X118135300Y-73030934D01*
X118150500Y-72876608D01*
X118150500Y-72876604D01*
X118549500Y-72876604D01*
X118564699Y-73030932D01*
X118594734Y-73129944D01*
X118624768Y-73228954D01*
X118722315Y-73411450D01*
X118756969Y-73453677D01*
X118853589Y-73571410D01*
X118934584Y-73637880D01*
X119013550Y-73702685D01*
X119196046Y-73800232D01*
X119394066Y-73860300D01*
X119394065Y-73860300D01*
X119412529Y-73862118D01*
X119600000Y-73880583D01*
X119805934Y-73860300D01*
X120003954Y-73800232D01*
X120186450Y-73702685D01*
X120346410Y-73571410D01*
X120477685Y-73411450D01*
X120575232Y-73228954D01*
X120635300Y-73030934D01*
X120650500Y-72876608D01*
X120650500Y-72876604D01*
X121049500Y-72876604D01*
X121064699Y-73030932D01*
X121094734Y-73129944D01*
X121124768Y-73228954D01*
X121222315Y-73411450D01*
X121256969Y-73453677D01*
X121353589Y-73571410D01*
X121434584Y-73637880D01*
X121513550Y-73702685D01*
X121696046Y-73800232D01*
X121894066Y-73860300D01*
X121894065Y-73860300D01*
X121912529Y-73862118D01*
X122100000Y-73880583D01*
X122305934Y-73860300D01*
X122503954Y-73800232D01*
X122686450Y-73702685D01*
X122846410Y-73571410D01*
X122977685Y-73411450D01*
X123075232Y-73228954D01*
X123135300Y-73030934D01*
X123150500Y-72876608D01*
X123150500Y-72876604D01*
X123549500Y-72876604D01*
X123564699Y-73030932D01*
X123594734Y-73129944D01*
X123624768Y-73228954D01*
X123722315Y-73411450D01*
X123756969Y-73453677D01*
X123853589Y-73571410D01*
X123934584Y-73637880D01*
X124013550Y-73702685D01*
X124196046Y-73800232D01*
X124394066Y-73860300D01*
X124394065Y-73860300D01*
X124412529Y-73862118D01*
X124600000Y-73880583D01*
X124805934Y-73860300D01*
X125003954Y-73800232D01*
X125186450Y-73702685D01*
X125346410Y-73571410D01*
X125477685Y-73411450D01*
X125575232Y-73228954D01*
X125635300Y-73030934D01*
X125650500Y-72876608D01*
X125650500Y-72876604D01*
X126049500Y-72876604D01*
X126064699Y-73030932D01*
X126094734Y-73129944D01*
X126124768Y-73228954D01*
X126222315Y-73411450D01*
X126256969Y-73453677D01*
X126353589Y-73571410D01*
X126434584Y-73637880D01*
X126513550Y-73702685D01*
X126696046Y-73800232D01*
X126894066Y-73860300D01*
X126894065Y-73860300D01*
X126912529Y-73862118D01*
X127100000Y-73880583D01*
X127305934Y-73860300D01*
X127503954Y-73800232D01*
X127686450Y-73702685D01*
X127846410Y-73571410D01*
X127977685Y-73411450D01*
X128016644Y-73338562D01*
X128065603Y-73288721D01*
X128133741Y-73273260D01*
X128199421Y-73297091D01*
X128241790Y-73352648D01*
X128250000Y-73397016D01*
X128250000Y-73474970D01*
X128250001Y-73474987D01*
X128260494Y-73577697D01*
X128315641Y-73744119D01*
X128315643Y-73744124D01*
X128407684Y-73893345D01*
X128531654Y-74017315D01*
X128680875Y-74109356D01*
X128680880Y-74109358D01*
X128847302Y-74164505D01*
X128847309Y-74164506D01*
X128950019Y-74174999D01*
X129349999Y-74174999D01*
X129350000Y-74174998D01*
X129350000Y-73108018D01*
X129464801Y-73160446D01*
X129566025Y-73175000D01*
X129633975Y-73175000D01*
X129735199Y-73160446D01*
X129850000Y-73108018D01*
X129850000Y-74174999D01*
X130249972Y-74174999D01*
X130249986Y-74174998D01*
X130352697Y-74164505D01*
X130519119Y-74109358D01*
X130519124Y-74109356D01*
X130668345Y-74017315D01*
X130792315Y-73893345D01*
X130884356Y-73744124D01*
X130884358Y-73744119D01*
X130939505Y-73577697D01*
X130939506Y-73577690D01*
X130949999Y-73474986D01*
X130950000Y-73474973D01*
X130950000Y-72950000D01*
X130003969Y-72950000D01*
X130036519Y-72899351D01*
X130075000Y-72768295D01*
X130075000Y-72631705D01*
X130036519Y-72500649D01*
X130003969Y-72450000D01*
X130949999Y-72450000D01*
X130949999Y-71925028D01*
X130949998Y-71925013D01*
X130939505Y-71822302D01*
X130884358Y-71655880D01*
X130884356Y-71655875D01*
X130792315Y-71506654D01*
X130668345Y-71382684D01*
X130519124Y-71290643D01*
X130519119Y-71290641D01*
X130352697Y-71235494D01*
X130352690Y-71235493D01*
X130249986Y-71225000D01*
X129850000Y-71225000D01*
X129850000Y-72291981D01*
X129735199Y-72239554D01*
X129633975Y-72225000D01*
X129566025Y-72225000D01*
X129464801Y-72239554D01*
X129350000Y-72291981D01*
X129350000Y-71225000D01*
X128950028Y-71225000D01*
X128950012Y-71225001D01*
X128847302Y-71235494D01*
X128680880Y-71290641D01*
X128680875Y-71290643D01*
X128531654Y-71382684D01*
X128407684Y-71506654D01*
X128315643Y-71655875D01*
X128315641Y-71655880D01*
X128260494Y-71822302D01*
X128260493Y-71822309D01*
X128250000Y-71925013D01*
X128250000Y-72002979D01*
X128230315Y-72070018D01*
X128177511Y-72115773D01*
X128108353Y-72125717D01*
X128044797Y-72096692D01*
X128016642Y-72061433D01*
X127977685Y-71988550D01*
X127897052Y-71890298D01*
X127846410Y-71828589D01*
X127686452Y-71697317D01*
X127686453Y-71697317D01*
X127686450Y-71697315D01*
X127503954Y-71599768D01*
X127305934Y-71539700D01*
X127305932Y-71539699D01*
X127305934Y-71539699D01*
X127100000Y-71519417D01*
X126894067Y-71539699D01*
X126696043Y-71599769D01*
X126596737Y-71652850D01*
X126513550Y-71697315D01*
X126513548Y-71697316D01*
X126513547Y-71697317D01*
X126353589Y-71828589D01*
X126222317Y-71988547D01*
X126222315Y-71988550D01*
X126183643Y-72060898D01*
X126124769Y-72171043D01*
X126064699Y-72369067D01*
X126049500Y-72523395D01*
X126049500Y-72876604D01*
X125650500Y-72876604D01*
X125650500Y-72523392D01*
X125635300Y-72369066D01*
X125575232Y-72171046D01*
X125477685Y-71988550D01*
X125397052Y-71890298D01*
X125346410Y-71828589D01*
X125186452Y-71697317D01*
X125186453Y-71697317D01*
X125186450Y-71697315D01*
X125003954Y-71599768D01*
X124805934Y-71539700D01*
X124805932Y-71539699D01*
X124805934Y-71539699D01*
X124600000Y-71519417D01*
X124394067Y-71539699D01*
X124196043Y-71599769D01*
X124096737Y-71652850D01*
X124013550Y-71697315D01*
X124013548Y-71697316D01*
X124013547Y-71697317D01*
X123853589Y-71828589D01*
X123722317Y-71988547D01*
X123722315Y-71988550D01*
X123683643Y-72060898D01*
X123624769Y-72171043D01*
X123564699Y-72369067D01*
X123549500Y-72523395D01*
X123549500Y-72876604D01*
X123150500Y-72876604D01*
X123150500Y-72523392D01*
X123135300Y-72369066D01*
X123075232Y-72171046D01*
X122977685Y-71988550D01*
X122897052Y-71890298D01*
X122846410Y-71828589D01*
X122686452Y-71697317D01*
X122686453Y-71697317D01*
X122686450Y-71697315D01*
X122503954Y-71599768D01*
X122305934Y-71539700D01*
X122305932Y-71539699D01*
X122305934Y-71539699D01*
X122100000Y-71519417D01*
X121894067Y-71539699D01*
X121696043Y-71599769D01*
X121596737Y-71652850D01*
X121513550Y-71697315D01*
X121513548Y-71697316D01*
X121513547Y-71697317D01*
X121353589Y-71828589D01*
X121222317Y-71988547D01*
X121222315Y-71988550D01*
X121183643Y-72060898D01*
X121124769Y-72171043D01*
X121064699Y-72369067D01*
X121049500Y-72523395D01*
X121049500Y-72876604D01*
X120650500Y-72876604D01*
X120650500Y-72523392D01*
X120635300Y-72369066D01*
X120575232Y-72171046D01*
X120477685Y-71988550D01*
X120397052Y-71890298D01*
X120346410Y-71828589D01*
X120186452Y-71697317D01*
X120186453Y-71697317D01*
X120186450Y-71697315D01*
X120003954Y-71599768D01*
X119805934Y-71539700D01*
X119805932Y-71539699D01*
X119805934Y-71539699D01*
X119600000Y-71519417D01*
X119394067Y-71539699D01*
X119196043Y-71599769D01*
X119096737Y-71652850D01*
X119013550Y-71697315D01*
X119013548Y-71697316D01*
X119013547Y-71697317D01*
X118853589Y-71828589D01*
X118722317Y-71988547D01*
X118722315Y-71988550D01*
X118683643Y-72060898D01*
X118624769Y-72171043D01*
X118564699Y-72369067D01*
X118549500Y-72523395D01*
X118549500Y-72876604D01*
X118150500Y-72876604D01*
X118150500Y-72523392D01*
X118135300Y-72369066D01*
X118075232Y-72171046D01*
X118065142Y-72152169D01*
X118050500Y-72093715D01*
X118050500Y-69674500D01*
X118070185Y-69607461D01*
X118122989Y-69561706D01*
X118174500Y-69550500D01*
X141025500Y-69550500D01*
X141092539Y-69570185D01*
X141138294Y-69622989D01*
X141149500Y-69674500D01*
X141149500Y-72093715D01*
X141134858Y-72152169D01*
X141124769Y-72171043D01*
X141064699Y-72369067D01*
X141049500Y-72523395D01*
X141049500Y-72876604D01*
X141064699Y-73030932D01*
X141094734Y-73129944D01*
X141124768Y-73228954D01*
X141222315Y-73411450D01*
X141256969Y-73453677D01*
X141353589Y-73571410D01*
X141434584Y-73637880D01*
X141513550Y-73702685D01*
X141696046Y-73800232D01*
X141894066Y-73860300D01*
X141894065Y-73860300D01*
X141912529Y-73862118D01*
X142100000Y-73880583D01*
X142305934Y-73860300D01*
X142503954Y-73800232D01*
X142686450Y-73702685D01*
X142846410Y-73571410D01*
X142977685Y-73411450D01*
X143075232Y-73228954D01*
X143135300Y-73030934D01*
X143150500Y-72876608D01*
X143150500Y-72876604D01*
X143549500Y-72876604D01*
X143564699Y-73030932D01*
X143594734Y-73129944D01*
X143624768Y-73228954D01*
X143722315Y-73411450D01*
X143756969Y-73453677D01*
X143853589Y-73571410D01*
X143934584Y-73637880D01*
X144013550Y-73702685D01*
X144196046Y-73800232D01*
X144394066Y-73860300D01*
X144394065Y-73860300D01*
X144412529Y-73862118D01*
X144600000Y-73880583D01*
X144805934Y-73860300D01*
X145003954Y-73800232D01*
X145186450Y-73702685D01*
X145346410Y-73571410D01*
X145477685Y-73411450D01*
X145575232Y-73228954D01*
X145635300Y-73030934D01*
X145650500Y-72876608D01*
X145650500Y-72876604D01*
X146049500Y-72876604D01*
X146064699Y-73030932D01*
X146094734Y-73129944D01*
X146124768Y-73228954D01*
X146222315Y-73411450D01*
X146256969Y-73453677D01*
X146353589Y-73571410D01*
X146434584Y-73637880D01*
X146513550Y-73702685D01*
X146696046Y-73800232D01*
X146894066Y-73860300D01*
X146894065Y-73860300D01*
X146912529Y-73862118D01*
X147100000Y-73880583D01*
X147305934Y-73860300D01*
X147503954Y-73800232D01*
X147686450Y-73702685D01*
X147846410Y-73571410D01*
X147977685Y-73411450D01*
X148075232Y-73228954D01*
X148135300Y-73030934D01*
X148150500Y-72876608D01*
X148150500Y-72876604D01*
X148549500Y-72876604D01*
X148564699Y-73030932D01*
X148594734Y-73129944D01*
X148624768Y-73228954D01*
X148722315Y-73411450D01*
X148756969Y-73453677D01*
X148853589Y-73571410D01*
X148934584Y-73637880D01*
X149013550Y-73702685D01*
X149196046Y-73800232D01*
X149394066Y-73860300D01*
X149394065Y-73860300D01*
X149412529Y-73862118D01*
X149600000Y-73880583D01*
X149805934Y-73860300D01*
X150003954Y-73800232D01*
X150186450Y-73702685D01*
X150346410Y-73571410D01*
X150477685Y-73411450D01*
X150575232Y-73228954D01*
X150635300Y-73030934D01*
X150650500Y-72876608D01*
X150650500Y-72876604D01*
X151049500Y-72876604D01*
X151064699Y-73030932D01*
X151094734Y-73129944D01*
X151124768Y-73228954D01*
X151222315Y-73411450D01*
X151256969Y-73453677D01*
X151353589Y-73571410D01*
X151434584Y-73637880D01*
X151513550Y-73702685D01*
X151696046Y-73800232D01*
X151894066Y-73860300D01*
X151894065Y-73860300D01*
X151912529Y-73862118D01*
X152100000Y-73880583D01*
X152305934Y-73860300D01*
X152503954Y-73800232D01*
X152686450Y-73702685D01*
X152846410Y-73571410D01*
X152977685Y-73411450D01*
X153016644Y-73338562D01*
X153065603Y-73288721D01*
X153133741Y-73273260D01*
X153199421Y-73297091D01*
X153241790Y-73352648D01*
X153250000Y-73397016D01*
X153250000Y-73474970D01*
X153250001Y-73474987D01*
X153260494Y-73577697D01*
X153315641Y-73744119D01*
X153315643Y-73744124D01*
X153407684Y-73893345D01*
X153531654Y-74017315D01*
X153680875Y-74109356D01*
X153680880Y-74109358D01*
X153847302Y-74164505D01*
X153847309Y-74164506D01*
X153950019Y-74174999D01*
X154349999Y-74174999D01*
X154350000Y-74174998D01*
X154350000Y-73108018D01*
X154464801Y-73160446D01*
X154566025Y-73175000D01*
X154633975Y-73175000D01*
X154735199Y-73160446D01*
X154850000Y-73108018D01*
X154850000Y-74174999D01*
X155249972Y-74174999D01*
X155249986Y-74174998D01*
X155352697Y-74164505D01*
X155519119Y-74109358D01*
X155519124Y-74109356D01*
X155668345Y-74017315D01*
X155792315Y-73893345D01*
X155884356Y-73744124D01*
X155884358Y-73744119D01*
X155939505Y-73577697D01*
X155939506Y-73577690D01*
X155949999Y-73474986D01*
X155950000Y-73474973D01*
X155950000Y-72950000D01*
X155003969Y-72950000D01*
X155036519Y-72899351D01*
X155075000Y-72768295D01*
X155075000Y-72631705D01*
X155036519Y-72500649D01*
X155003969Y-72450000D01*
X155949999Y-72450000D01*
X155949999Y-71925028D01*
X155949998Y-71925013D01*
X155939505Y-71822302D01*
X155884358Y-71655880D01*
X155884356Y-71655875D01*
X155792315Y-71506654D01*
X155668345Y-71382684D01*
X155519124Y-71290643D01*
X155519119Y-71290641D01*
X155352697Y-71235494D01*
X155352690Y-71235493D01*
X155249986Y-71225000D01*
X154850000Y-71225000D01*
X154850000Y-72291981D01*
X154735199Y-72239554D01*
X154633975Y-72225000D01*
X154566025Y-72225000D01*
X154464801Y-72239554D01*
X154350000Y-72291981D01*
X154350000Y-71225000D01*
X153950028Y-71225000D01*
X153950012Y-71225001D01*
X153847302Y-71235494D01*
X153680880Y-71290641D01*
X153680875Y-71290643D01*
X153531654Y-71382684D01*
X153407684Y-71506654D01*
X153315643Y-71655875D01*
X153315641Y-71655880D01*
X153260494Y-71822302D01*
X153260493Y-71822309D01*
X153250000Y-71925013D01*
X153250000Y-72002979D01*
X153230315Y-72070018D01*
X153177511Y-72115773D01*
X153108353Y-72125717D01*
X153044797Y-72096692D01*
X153016642Y-72061433D01*
X152977685Y-71988550D01*
X152897052Y-71890298D01*
X152846410Y-71828589D01*
X152686452Y-71697317D01*
X152686453Y-71697317D01*
X152686450Y-71697315D01*
X152503954Y-71599768D01*
X152305934Y-71539700D01*
X152305932Y-71539699D01*
X152305934Y-71539699D01*
X152100000Y-71519417D01*
X151894067Y-71539699D01*
X151696043Y-71599769D01*
X151596737Y-71652850D01*
X151513550Y-71697315D01*
X151513548Y-71697316D01*
X151513547Y-71697317D01*
X151353589Y-71828589D01*
X151222317Y-71988547D01*
X151222315Y-71988550D01*
X151183643Y-72060898D01*
X151124769Y-72171043D01*
X151064699Y-72369067D01*
X151049500Y-72523395D01*
X151049500Y-72876604D01*
X150650500Y-72876604D01*
X150650500Y-72523392D01*
X150635300Y-72369066D01*
X150575232Y-72171046D01*
X150477685Y-71988550D01*
X150397052Y-71890298D01*
X150346410Y-71828589D01*
X150186452Y-71697317D01*
X150186453Y-71697317D01*
X150186450Y-71697315D01*
X150003954Y-71599768D01*
X149805934Y-71539700D01*
X149805932Y-71539699D01*
X149805934Y-71539699D01*
X149600000Y-71519417D01*
X149394067Y-71539699D01*
X149196043Y-71599769D01*
X149096737Y-71652850D01*
X149013550Y-71697315D01*
X149013548Y-71697316D01*
X149013547Y-71697317D01*
X148853589Y-71828589D01*
X148722317Y-71988547D01*
X148722315Y-71988550D01*
X148683643Y-72060898D01*
X148624769Y-72171043D01*
X148564699Y-72369067D01*
X148549500Y-72523395D01*
X148549500Y-72876604D01*
X148150500Y-72876604D01*
X148150500Y-72523392D01*
X148135300Y-72369066D01*
X148075232Y-72171046D01*
X147977685Y-71988550D01*
X147897052Y-71890298D01*
X147846410Y-71828589D01*
X147686452Y-71697317D01*
X147686453Y-71697317D01*
X147686450Y-71697315D01*
X147503954Y-71599768D01*
X147305934Y-71539700D01*
X147305932Y-71539699D01*
X147305934Y-71539699D01*
X147100000Y-71519417D01*
X146894067Y-71539699D01*
X146696043Y-71599769D01*
X146596737Y-71652850D01*
X146513550Y-71697315D01*
X146513548Y-71697316D01*
X146513547Y-71697317D01*
X146353589Y-71828589D01*
X146222317Y-71988547D01*
X146222315Y-71988550D01*
X146183643Y-72060898D01*
X146124769Y-72171043D01*
X146064699Y-72369067D01*
X146049500Y-72523395D01*
X146049500Y-72876604D01*
X145650500Y-72876604D01*
X145650500Y-72523392D01*
X145635300Y-72369066D01*
X145575232Y-72171046D01*
X145477685Y-71988550D01*
X145397052Y-71890298D01*
X145346410Y-71828589D01*
X145186452Y-71697317D01*
X145186453Y-71697317D01*
X145186450Y-71697315D01*
X145003954Y-71599768D01*
X144805934Y-71539700D01*
X144805932Y-71539699D01*
X144805934Y-71539699D01*
X144600000Y-71519417D01*
X144394067Y-71539699D01*
X144196043Y-71599769D01*
X144096737Y-71652850D01*
X144013550Y-71697315D01*
X144013548Y-71697316D01*
X144013547Y-71697317D01*
X143853589Y-71828589D01*
X143722317Y-71988547D01*
X143722315Y-71988550D01*
X143683643Y-72060898D01*
X143624769Y-72171043D01*
X143564699Y-72369067D01*
X143549500Y-72523395D01*
X143549500Y-72876604D01*
X143150500Y-72876604D01*
X143150500Y-72523392D01*
X143135300Y-72369066D01*
X143075232Y-72171046D01*
X143065142Y-72152169D01*
X143050500Y-72093715D01*
X143050500Y-69674500D01*
X143070185Y-69607461D01*
X143122989Y-69561706D01*
X143174500Y-69550500D01*
X157425500Y-69550500D01*
X157492539Y-69570185D01*
X157538294Y-69622989D01*
X157549500Y-69674500D01*
X157549500Y-75229927D01*
X157529815Y-75296966D01*
X157513181Y-75317608D01*
X154861417Y-77969372D01*
X154800084Y-78027672D01*
X154800082Y-78027675D01*
X154766855Y-78075411D01*
X154764020Y-78079172D01*
X154727265Y-78124250D01*
X154712248Y-78152998D01*
X154708179Y-78159714D01*
X154689646Y-78186342D01*
X154689646Y-78186343D01*
X154686664Y-78193293D01*
X154671887Y-78227728D01*
X154666711Y-78239789D01*
X154664689Y-78244046D01*
X154637764Y-78295591D01*
X154637762Y-78295595D01*
X154628839Y-78326776D01*
X154626206Y-78334172D01*
X154613412Y-78363987D01*
X154613412Y-78363988D01*
X154601703Y-78420960D01*
X154600580Y-78425534D01*
X154584583Y-78481448D01*
X154584581Y-78481454D01*
X154582120Y-78513791D01*
X154581029Y-78521572D01*
X154574500Y-78553343D01*
X154574500Y-78611502D01*
X154574321Y-78616211D01*
X154569904Y-78674201D01*
X154571804Y-78689120D01*
X154574003Y-78706385D01*
X154574500Y-78714214D01*
X154574500Y-88529928D01*
X154554815Y-88596967D01*
X154538181Y-88617609D01*
X153396241Y-89759549D01*
X151236417Y-91919372D01*
X151175084Y-91977672D01*
X151175082Y-91977675D01*
X151141855Y-92025411D01*
X151139020Y-92029172D01*
X151102265Y-92074250D01*
X151087248Y-92102998D01*
X151083179Y-92109714D01*
X151064646Y-92136342D01*
X151064646Y-92136343D01*
X151056552Y-92155205D01*
X151043588Y-92185416D01*
X151041711Y-92189789D01*
X151039689Y-92194046D01*
X151012764Y-92245591D01*
X151012762Y-92245595D01*
X151003839Y-92276776D01*
X151001206Y-92284172D01*
X150988412Y-92313987D01*
X150988412Y-92313988D01*
X150976703Y-92370960D01*
X150975580Y-92375534D01*
X150959583Y-92431448D01*
X150959581Y-92431454D01*
X150957120Y-92463791D01*
X150956029Y-92471572D01*
X150949500Y-92503343D01*
X150949500Y-92561502D01*
X150949321Y-92566211D01*
X150944904Y-92624201D01*
X150946804Y-92639120D01*
X150949003Y-92656385D01*
X150949500Y-92664214D01*
X150949500Y-118517937D01*
X150947355Y-118602545D01*
X150947355Y-118602546D01*
X150957615Y-118659787D01*
X150958269Y-118664452D01*
X150964154Y-118722318D01*
X150964156Y-118722326D01*
X150973865Y-118753269D01*
X150975737Y-118760898D01*
X150981460Y-118792828D01*
X150981461Y-118792830D01*
X151003032Y-118846833D01*
X151004613Y-118851272D01*
X151022025Y-118906768D01*
X151037765Y-118935125D01*
X151041135Y-118942221D01*
X151048215Y-118959943D01*
X151053170Y-118972348D01*
X151053172Y-118972351D01*
X151053173Y-118972353D01*
X151085174Y-119020908D01*
X151087605Y-119024920D01*
X151107354Y-119060500D01*
X151115841Y-119075791D01*
X151136972Y-119100406D01*
X151141703Y-119106680D01*
X151159547Y-119133757D01*
X151200667Y-119174877D01*
X151203870Y-119178333D01*
X151223814Y-119201564D01*
X151241760Y-119222468D01*
X151241764Y-119222471D01*
X151241765Y-119222472D01*
X151267407Y-119242320D01*
X151273303Y-119247513D01*
X164613181Y-132587391D01*
X164646666Y-132648714D01*
X164649500Y-132675072D01*
X164649500Y-142127534D01*
X164629815Y-142194573D01*
X164577011Y-142240328D01*
X164538045Y-142250898D01*
X164407677Y-142264154D01*
X164223240Y-142322022D01*
X164223225Y-142322029D01*
X164054211Y-142415839D01*
X164054206Y-142415842D01*
X163907533Y-142541758D01*
X163907531Y-142541759D01*
X163789205Y-142694624D01*
X163789203Y-142694628D01*
X163704068Y-142868187D01*
X163655616Y-143055317D01*
X163655615Y-143055323D01*
X163645824Y-143248390D01*
X163675095Y-143439466D01*
X163675098Y-143439478D01*
X163742234Y-143620748D01*
X163742238Y-143620757D01*
X163844488Y-143784803D01*
X163844489Y-143784804D01*
X163844491Y-143784807D01*
X163977677Y-143924919D01*
X164136342Y-144035353D01*
X164313988Y-144111587D01*
X164503344Y-144150500D01*
X165574332Y-144150500D01*
X165577472Y-144150580D01*
X165602918Y-144151869D01*
X165648390Y-144154176D01*
X165659948Y-144152405D01*
X165663052Y-144151930D01*
X165681828Y-144150500D01*
X166648207Y-144150500D01*
X166792322Y-144135845D01*
X166976759Y-144077977D01*
X166976760Y-144077976D01*
X166976768Y-144077974D01*
X167145791Y-143984159D01*
X167292468Y-143858240D01*
X167410796Y-143705373D01*
X167495930Y-143531816D01*
X167544385Y-143344674D01*
X167554176Y-143151610D01*
X167524903Y-142960526D01*
X167457764Y-142779247D01*
X167405020Y-142694627D01*
X167355511Y-142615196D01*
X167355510Y-142615195D01*
X167355509Y-142615193D01*
X167222323Y-142475081D01*
X167137211Y-142415841D01*
X167063657Y-142364646D01*
X166886012Y-142288413D01*
X166696656Y-142249500D01*
X166674500Y-142249500D01*
X166607461Y-142229815D01*
X166561706Y-142177011D01*
X166550500Y-142125500D01*
X166550500Y-132242062D01*
X166552644Y-132157456D01*
X166552644Y-132157454D01*
X166542380Y-132100188D01*
X166541729Y-132095539D01*
X166535845Y-132037678D01*
X166526134Y-132006729D01*
X166524264Y-131999111D01*
X166518540Y-131967172D01*
X166496960Y-131913147D01*
X166495379Y-131908707D01*
X166477974Y-131853232D01*
X166462237Y-131824879D01*
X166458866Y-131817782D01*
X166446831Y-131787653D01*
X166446831Y-131787652D01*
X166414818Y-131739079D01*
X166412384Y-131735063D01*
X166384159Y-131684209D01*
X166367827Y-131665185D01*
X166363027Y-131659593D01*
X166358296Y-131653319D01*
X166340451Y-131626241D01*
X166299332Y-131585122D01*
X166296128Y-131581666D01*
X166282732Y-131566062D01*
X166258240Y-131537532D01*
X166232590Y-131517677D01*
X166226696Y-131512486D01*
X160308479Y-125594269D01*
X163079500Y-125594269D01*
X163082353Y-125624699D01*
X163082353Y-125624701D01*
X163117907Y-125726305D01*
X163127207Y-125752882D01*
X163207850Y-125862150D01*
X163317118Y-125942793D01*
X163359845Y-125957744D01*
X163445299Y-125987646D01*
X163475730Y-125990500D01*
X163475734Y-125990500D01*
X167284270Y-125990500D01*
X167314699Y-125987646D01*
X167314701Y-125987646D01*
X167378790Y-125965219D01*
X167442882Y-125942793D01*
X167552150Y-125862150D01*
X167632793Y-125752882D01*
X167671404Y-125642539D01*
X167677646Y-125624701D01*
X167677646Y-125624699D01*
X167680500Y-125594269D01*
X167680500Y-122825730D01*
X167677646Y-122795300D01*
X167677646Y-122795298D01*
X167632793Y-122667119D01*
X167632792Y-122667117D01*
X167552150Y-122557850D01*
X167442882Y-122477207D01*
X167442880Y-122477206D01*
X167314700Y-122432353D01*
X167284270Y-122429500D01*
X167284266Y-122429500D01*
X163475734Y-122429500D01*
X163475730Y-122429500D01*
X163445300Y-122432353D01*
X163445298Y-122432353D01*
X163317119Y-122477206D01*
X163317117Y-122477207D01*
X163207850Y-122557850D01*
X163127207Y-122667117D01*
X163127206Y-122667119D01*
X163082353Y-122795298D01*
X163082353Y-122795300D01*
X163079500Y-122825730D01*
X163079500Y-125594269D01*
X160308479Y-125594269D01*
X152886819Y-118172609D01*
X152853334Y-118111286D01*
X152850500Y-118084928D01*
X152850500Y-104344675D01*
X162495748Y-104344675D01*
X162499500Y-104442561D01*
X162499500Y-118951647D01*
X162498943Y-118959943D01*
X162497311Y-118972041D01*
X162499500Y-119086289D01*
X162499500Y-119135177D01*
X162500612Y-119149657D01*
X162500782Y-119153215D01*
X162502312Y-119233095D01*
X162502314Y-119233114D01*
X162510217Y-119278504D01*
X162510955Y-119284394D01*
X162514484Y-119330346D01*
X162532685Y-119408126D01*
X162533397Y-119411616D01*
X162547107Y-119490343D01*
X162547108Y-119490348D01*
X162561849Y-119534003D01*
X162563477Y-119539713D01*
X162573978Y-119584583D01*
X162573979Y-119584588D01*
X162603847Y-119658695D01*
X162605083Y-119662036D01*
X162630643Y-119737728D01*
X162630644Y-119737732D01*
X162651878Y-119778627D01*
X162654355Y-119784013D01*
X162660995Y-119800489D01*
X162671583Y-119826761D01*
X162712415Y-119895444D01*
X162714147Y-119898557D01*
X162750963Y-119969464D01*
X162750966Y-119969468D01*
X162778188Y-120006638D01*
X162781463Y-120011589D01*
X162805015Y-120051204D01*
X162805024Y-120051216D01*
X162829377Y-120080745D01*
X162855865Y-120112864D01*
X162858023Y-120115640D01*
X162885580Y-120153264D01*
X162905246Y-120180116D01*
X162905247Y-120180117D01*
X162905248Y-120180118D01*
X162905249Y-120180119D01*
X162937842Y-120212712D01*
X162941826Y-120217098D01*
X162971149Y-120252653D01*
X163030795Y-120305809D01*
X163033385Y-120308255D01*
X163045489Y-120320359D01*
X163078974Y-120381682D01*
X163080423Y-120389559D01*
X163119271Y-120647305D01*
X163119273Y-120647310D01*
X163197931Y-120902314D01*
X163197932Y-120902317D01*
X163197933Y-120902319D01*
X163313716Y-121142742D01*
X163313718Y-121142746D01*
X163464045Y-121363237D01*
X163532682Y-121437210D01*
X163645551Y-121558855D01*
X163645555Y-121558858D01*
X163645556Y-121558859D01*
X163854196Y-121725244D01*
X164085304Y-121858674D01*
X164333717Y-121956169D01*
X164593886Y-122015551D01*
X164643757Y-122019288D01*
X164793365Y-122030500D01*
X164793371Y-122030500D01*
X165966635Y-122030500D01*
X166099619Y-122020534D01*
X166166114Y-122015551D01*
X166426283Y-121956169D01*
X166674696Y-121858674D01*
X166905804Y-121725244D01*
X167114444Y-121558859D01*
X167295955Y-121363237D01*
X167446282Y-121142747D01*
X167562069Y-120902314D01*
X167640727Y-120647310D01*
X167652299Y-120570538D01*
X167680499Y-120383437D01*
X167680500Y-120383428D01*
X167680500Y-120116571D01*
X167680499Y-120116562D01*
X167640728Y-119852694D01*
X167640726Y-119852688D01*
X167638290Y-119844790D01*
X167562069Y-119597686D01*
X167446282Y-119357254D01*
X167295955Y-119136763D01*
X167194622Y-119027552D01*
X167114448Y-118941144D01*
X167068208Y-118904269D01*
X166905804Y-118774756D01*
X166674696Y-118641326D01*
X166426283Y-118543831D01*
X166426278Y-118543829D01*
X166426269Y-118543827D01*
X166199087Y-118491975D01*
X166166114Y-118484449D01*
X166166113Y-118484448D01*
X166166109Y-118484448D01*
X166166104Y-118484447D01*
X166053308Y-118475995D01*
X165987927Y-118451356D01*
X165974893Y-118440023D01*
X165936819Y-118401949D01*
X165903334Y-118340626D01*
X165900500Y-118314268D01*
X165900500Y-106234500D01*
X165920185Y-106167461D01*
X165972989Y-106121706D01*
X166024500Y-106110500D01*
X180671648Y-106110500D01*
X180679943Y-106111056D01*
X180692042Y-106112689D01*
X180806289Y-106110500D01*
X180855177Y-106110500D01*
X180855178Y-106110500D01*
X180860310Y-106110105D01*
X180869666Y-106109386D01*
X180873203Y-106109217D01*
X180953104Y-106107687D01*
X180983822Y-106102337D01*
X181005093Y-106100500D01*
X184361648Y-106100500D01*
X184369943Y-106101056D01*
X184382042Y-106102689D01*
X184496289Y-106100500D01*
X184545177Y-106100500D01*
X184545178Y-106100500D01*
X184550310Y-106100105D01*
X184559666Y-106099386D01*
X184563203Y-106099217D01*
X184643104Y-106097687D01*
X184688513Y-106089779D01*
X184694386Y-106089044D01*
X184740344Y-106085516D01*
X184818143Y-106067309D01*
X184821628Y-106066599D01*
X184900343Y-106052893D01*
X184944019Y-106038143D01*
X184949690Y-106036526D01*
X184994586Y-106026021D01*
X185068726Y-105996139D01*
X185072001Y-105994927D01*
X185147729Y-105969357D01*
X185188654Y-105948107D01*
X185194002Y-105945648D01*
X185236766Y-105928414D01*
X185305477Y-105887564D01*
X185308513Y-105885875D01*
X185379465Y-105849036D01*
X185416644Y-105821804D01*
X185421582Y-105818539D01*
X185461208Y-105794982D01*
X185522867Y-105744131D01*
X185525662Y-105741959D01*
X185590119Y-105694751D01*
X185622717Y-105662151D01*
X185627104Y-105658167D01*
X185662652Y-105628852D01*
X185715829Y-105569180D01*
X185718239Y-105566629D01*
X192011432Y-99273437D01*
X211499500Y-99273437D01*
X211539271Y-99537305D01*
X211539273Y-99537310D01*
X211617931Y-99792314D01*
X211617932Y-99792317D01*
X211617933Y-99792319D01*
X211733716Y-100032742D01*
X211733718Y-100032746D01*
X211884045Y-100253237D01*
X211922627Y-100294818D01*
X212065551Y-100448855D01*
X212065555Y-100448858D01*
X212065556Y-100448859D01*
X212274196Y-100615244D01*
X212505304Y-100748674D01*
X212753717Y-100846169D01*
X213013886Y-100905551D01*
X213063757Y-100909288D01*
X213213365Y-100920500D01*
X213213371Y-100920500D01*
X214386635Y-100920500D01*
X214519619Y-100910534D01*
X214586114Y-100905551D01*
X214846283Y-100846169D01*
X215094696Y-100748674D01*
X215325804Y-100615244D01*
X215534444Y-100448859D01*
X215715955Y-100253237D01*
X215866282Y-100032747D01*
X215982069Y-99792314D01*
X216060727Y-99537310D01*
X216070711Y-99471073D01*
X216100499Y-99273437D01*
X216100500Y-99273428D01*
X216100500Y-99006571D01*
X216100499Y-99006562D01*
X216060728Y-98742694D01*
X216060726Y-98742688D01*
X216050573Y-98709773D01*
X215982069Y-98487686D01*
X215866282Y-98247254D01*
X215715955Y-98026763D01*
X215619139Y-97922420D01*
X215534448Y-97831144D01*
X215406832Y-97729374D01*
X215325804Y-97664756D01*
X215094696Y-97531326D01*
X214846283Y-97433831D01*
X214846274Y-97433829D01*
X214846271Y-97433828D01*
X214586111Y-97374448D01*
X214386635Y-97359500D01*
X214386629Y-97359500D01*
X213213371Y-97359500D01*
X213213365Y-97359500D01*
X213013888Y-97374448D01*
X212753728Y-97433828D01*
X212753720Y-97433830D01*
X212753717Y-97433831D01*
X212753714Y-97433831D01*
X212753711Y-97433833D01*
X212505303Y-97531326D01*
X212274196Y-97664756D01*
X212065551Y-97831144D01*
X211884043Y-98026765D01*
X211733718Y-98247252D01*
X211733716Y-98247256D01*
X211617931Y-98487685D01*
X211539273Y-98742688D01*
X211539271Y-98742694D01*
X211499500Y-99006562D01*
X211499500Y-99273437D01*
X192011432Y-99273437D01*
X194368051Y-96916819D01*
X194429374Y-96883334D01*
X194455732Y-96880500D01*
X212716648Y-96880500D01*
X212749134Y-96885396D01*
X212749194Y-96885137D01*
X212752662Y-96885928D01*
X212753202Y-96886010D01*
X212753710Y-96886166D01*
X212753717Y-96886169D01*
X213013886Y-96945551D01*
X213063757Y-96949288D01*
X213213365Y-96960500D01*
X213213371Y-96960500D01*
X214386635Y-96960500D01*
X214525170Y-96950118D01*
X214586114Y-96945551D01*
X214846283Y-96886169D01*
X214846292Y-96886165D01*
X214846798Y-96886010D01*
X214847337Y-96885928D01*
X214850806Y-96885137D01*
X214850865Y-96885396D01*
X214883352Y-96880500D01*
X216324268Y-96880500D01*
X216391307Y-96900185D01*
X216411949Y-96916819D01*
X217163181Y-97668051D01*
X217196666Y-97729374D01*
X217199500Y-97755732D01*
X217199500Y-100944268D01*
X217179815Y-101011307D01*
X217163181Y-101031949D01*
X216835732Y-101359397D01*
X216774409Y-101392882D01*
X216736195Y-101395147D01*
X216732668Y-101394809D01*
X216732666Y-101394809D01*
X216720429Y-101395513D01*
X216652891Y-101399398D01*
X216649352Y-101399500D01*
X214883352Y-101399500D01*
X214850865Y-101394603D01*
X214850806Y-101394863D01*
X214847337Y-101394071D01*
X214846798Y-101393990D01*
X214846277Y-101393829D01*
X214586111Y-101334448D01*
X214386635Y-101319500D01*
X214386629Y-101319500D01*
X213213371Y-101319500D01*
X213213365Y-101319500D01*
X213013888Y-101334448D01*
X212753728Y-101393828D01*
X212753720Y-101393830D01*
X212753717Y-101393831D01*
X212753714Y-101393831D01*
X212753711Y-101393833D01*
X212505303Y-101491326D01*
X212274196Y-101624756D01*
X212065551Y-101791144D01*
X211884043Y-101986765D01*
X211733718Y-102207252D01*
X211733716Y-102207256D01*
X211617931Y-102447685D01*
X211539273Y-102702688D01*
X211539271Y-102702694D01*
X211499500Y-102966562D01*
X211499500Y-103233437D01*
X211539271Y-103497305D01*
X211539273Y-103497311D01*
X211563535Y-103575969D01*
X211617931Y-103752314D01*
X211617932Y-103752317D01*
X211617933Y-103752319D01*
X211706763Y-103936774D01*
X211733718Y-103992746D01*
X211884045Y-104213237D01*
X211923474Y-104255731D01*
X212065551Y-104408855D01*
X212065555Y-104408858D01*
X212065556Y-104408859D01*
X212274196Y-104575244D01*
X212505304Y-104708674D01*
X212753717Y-104806169D01*
X213013886Y-104865551D01*
X213063757Y-104869288D01*
X213213365Y-104880500D01*
X213213371Y-104880500D01*
X214386635Y-104880500D01*
X214519619Y-104870534D01*
X214586114Y-104865551D01*
X214846283Y-104806169D01*
X214846292Y-104806165D01*
X214846798Y-104806010D01*
X214847337Y-104805928D01*
X214850806Y-104805137D01*
X214850865Y-104805396D01*
X214883352Y-104800500D01*
X215275500Y-104800500D01*
X215342539Y-104820185D01*
X215388294Y-104872989D01*
X215399500Y-104924500D01*
X215399500Y-126435177D01*
X215414484Y-126630342D01*
X215414484Y-126630347D01*
X215473978Y-126884583D01*
X215473981Y-126884593D01*
X215571581Y-127126758D01*
X215571586Y-127126767D01*
X215642508Y-127246062D01*
X215705018Y-127351208D01*
X215786903Y-127450499D01*
X215871150Y-127552654D01*
X216066071Y-127726368D01*
X216066088Y-127726381D01*
X216285242Y-127868304D01*
X216285245Y-127868304D01*
X216285247Y-127868306D01*
X216523511Y-127975118D01*
X216775287Y-128044307D01*
X217034675Y-128074252D01*
X217295593Y-128064251D01*
X217551927Y-128014538D01*
X217551930Y-128014537D01*
X217797663Y-127926281D01*
X217797664Y-127926280D01*
X217797668Y-127926279D01*
X218027057Y-127801541D01*
X218234716Y-127643250D01*
X218415778Y-127455114D01*
X218565999Y-127241544D01*
X218681859Y-127007547D01*
X218683020Y-127003880D01*
X218695122Y-126965636D01*
X218760641Y-126758605D01*
X218800500Y-126500555D01*
X218800500Y-124794823D01*
X218800500Y-123284823D01*
X218800500Y-104255731D01*
X218820185Y-104188692D01*
X218836814Y-104168054D01*
X220018750Y-102986118D01*
X220024993Y-102980660D01*
X220034716Y-102973250D01*
X220041145Y-102966570D01*
X220113959Y-102890911D01*
X220131240Y-102873629D01*
X220148522Y-102856348D01*
X220158000Y-102845292D01*
X220160340Y-102842716D01*
X220215778Y-102785114D01*
X220242298Y-102747409D01*
X220245931Y-102742736D01*
X220275931Y-102707749D01*
X220318083Y-102639840D01*
X220320010Y-102636925D01*
X220365999Y-102571544D01*
X220386451Y-102530234D01*
X220389324Y-102525070D01*
X220413637Y-102485904D01*
X220444932Y-102412351D01*
X220446394Y-102409172D01*
X220481859Y-102337547D01*
X220495764Y-102293606D01*
X220497825Y-102288037D01*
X220515866Y-102245638D01*
X220535565Y-102168173D01*
X220536525Y-102164804D01*
X220560641Y-102088605D01*
X220567678Y-102043040D01*
X220568856Y-102037261D01*
X220580220Y-101992583D01*
X220587861Y-101913052D01*
X220588303Y-101909516D01*
X220600500Y-101830555D01*
X220600500Y-101784471D01*
X220600784Y-101778539D01*
X220605191Y-101732669D01*
X220600601Y-101652891D01*
X220600500Y-101649352D01*
X220600500Y-97118353D01*
X220601057Y-97110055D01*
X220602689Y-97097959D01*
X220600500Y-96983711D01*
X220600500Y-89218352D01*
X220601057Y-89210054D01*
X220602689Y-89197958D01*
X220600500Y-89083710D01*
X220600500Y-89034823D01*
X220599386Y-89020334D01*
X220599217Y-89016795D01*
X220597687Y-88936896D01*
X220589779Y-88891483D01*
X220589044Y-88885615D01*
X220585516Y-88839656D01*
X220567309Y-88761855D01*
X220566599Y-88758372D01*
X220552893Y-88679657D01*
X220538145Y-88635984D01*
X220536523Y-88630293D01*
X220526021Y-88585414D01*
X220496150Y-88511299D01*
X220494925Y-88507992D01*
X220469357Y-88432271D01*
X220458027Y-88410450D01*
X220448121Y-88391370D01*
X220445639Y-88385974D01*
X220440506Y-88373237D01*
X220428414Y-88343234D01*
X220428412Y-88343231D01*
X220428410Y-88343226D01*
X220387580Y-88274546D01*
X220385848Y-88271433D01*
X220349039Y-88200540D01*
X220349037Y-88200537D01*
X220349036Y-88200535D01*
X220321807Y-88163357D01*
X220318539Y-88158416D01*
X220294982Y-88118792D01*
X220244129Y-88057129D01*
X220241966Y-88054346D01*
X220224571Y-88030596D01*
X220194758Y-87989889D01*
X220194751Y-87989881D01*
X220162166Y-87957296D01*
X220158172Y-87952900D01*
X220128852Y-87917348D01*
X220069204Y-87864190D01*
X220066614Y-87861744D01*
X218346125Y-86141255D01*
X218340650Y-86134992D01*
X218333252Y-86125287D01*
X218333250Y-86125284D01*
X218250910Y-86046040D01*
X218216348Y-86011478D01*
X218211947Y-86007704D01*
X218205319Y-86002021D01*
X218202683Y-85999626D01*
X218145116Y-85944224D01*
X218145114Y-85944222D01*
X218119255Y-85926033D01*
X218107416Y-85917705D01*
X218102742Y-85914072D01*
X218067749Y-85884069D01*
X217999854Y-85841924D01*
X217996891Y-85839964D01*
X217931558Y-85794010D01*
X217931549Y-85794005D01*
X217931544Y-85794001D01*
X217909692Y-85783181D01*
X217890252Y-85773555D01*
X217885065Y-85770670D01*
X217864799Y-85758091D01*
X217845903Y-85746362D01*
X217845899Y-85746360D01*
X217845897Y-85746359D01*
X217796214Y-85725220D01*
X217772376Y-85715078D01*
X217769146Y-85713592D01*
X217743045Y-85700669D01*
X217697547Y-85678141D01*
X217697544Y-85678140D01*
X217697540Y-85678138D01*
X217653612Y-85664237D01*
X217648049Y-85662179D01*
X217605638Y-85644134D01*
X217528193Y-85624439D01*
X217524778Y-85623465D01*
X217502566Y-85616435D01*
X217448607Y-85599359D01*
X217448595Y-85599356D01*
X217403062Y-85592323D01*
X217397244Y-85591137D01*
X217352583Y-85579779D01*
X217273052Y-85572138D01*
X217269518Y-85571696D01*
X217190555Y-85559500D01*
X217144472Y-85559500D01*
X217138540Y-85559216D01*
X217126579Y-85558067D01*
X217092668Y-85554809D01*
X217092666Y-85554809D01*
X217092665Y-85554809D01*
X217075618Y-85555789D01*
X217012891Y-85559398D01*
X217009352Y-85559500D01*
X214883352Y-85559500D01*
X214850865Y-85554603D01*
X214850806Y-85554863D01*
X214847337Y-85554071D01*
X214846798Y-85553990D01*
X214846277Y-85553829D01*
X214586111Y-85494448D01*
X214386635Y-85479500D01*
X214386629Y-85479500D01*
X213213371Y-85479500D01*
X213213365Y-85479500D01*
X213013888Y-85494448D01*
X212753728Y-85553828D01*
X212753720Y-85553830D01*
X212753717Y-85553831D01*
X212753714Y-85553831D01*
X212753711Y-85553833D01*
X212505303Y-85651326D01*
X212274196Y-85784756D01*
X212065551Y-85951144D01*
X211884043Y-86146765D01*
X211733718Y-86367252D01*
X211733716Y-86367256D01*
X211617931Y-86607685D01*
X211539273Y-86862688D01*
X211539271Y-86862694D01*
X211499500Y-87126562D01*
X211499500Y-87393437D01*
X211539271Y-87657305D01*
X211539273Y-87657310D01*
X211617931Y-87912314D01*
X211617932Y-87912317D01*
X211617933Y-87912319D01*
X211733716Y-88152742D01*
X211733718Y-88152746D01*
X211884045Y-88373237D01*
X211952682Y-88447210D01*
X212065551Y-88568855D01*
X212065555Y-88568858D01*
X212065556Y-88568859D01*
X212274196Y-88735244D01*
X212505304Y-88868674D01*
X212753717Y-88966169D01*
X213013886Y-89025551D01*
X213063420Y-89029263D01*
X213213365Y-89040500D01*
X213213371Y-89040500D01*
X214386635Y-89040500D01*
X214536566Y-89029264D01*
X214586114Y-89025551D01*
X214846283Y-88966169D01*
X214846292Y-88966165D01*
X214846798Y-88966010D01*
X214847337Y-88965928D01*
X214850806Y-88965137D01*
X214850865Y-88965396D01*
X214883352Y-88960500D01*
X216304268Y-88960500D01*
X216371307Y-88980185D01*
X216391949Y-88996819D01*
X217163181Y-89768051D01*
X217196666Y-89829374D01*
X217199500Y-89855732D01*
X217199500Y-93352742D01*
X217179815Y-93419781D01*
X217127011Y-93465536D01*
X217082623Y-93476537D01*
X217061504Y-93477752D01*
X217032890Y-93479398D01*
X217029352Y-93479500D01*
X214883352Y-93479500D01*
X214850865Y-93474603D01*
X214850806Y-93474863D01*
X214847337Y-93474071D01*
X214846798Y-93473990D01*
X214846277Y-93473829D01*
X214586111Y-93414448D01*
X214386635Y-93399500D01*
X214386629Y-93399500D01*
X213213371Y-93399500D01*
X213213365Y-93399500D01*
X213013888Y-93414448D01*
X212753722Y-93473829D01*
X212753202Y-93473990D01*
X212752662Y-93474071D01*
X212749194Y-93474863D01*
X212749134Y-93474603D01*
X212716648Y-93479500D01*
X193818352Y-93479500D01*
X193810056Y-93478943D01*
X193797958Y-93477311D01*
X193797957Y-93477311D01*
X193683711Y-93479500D01*
X193634823Y-93479500D01*
X193620331Y-93480612D01*
X193616782Y-93480782D01*
X193536903Y-93482312D01*
X193536895Y-93482313D01*
X193491492Y-93490217D01*
X193485604Y-93490954D01*
X193441844Y-93494315D01*
X193439656Y-93494484D01*
X193415752Y-93500077D01*
X193361836Y-93512693D01*
X193358351Y-93513403D01*
X193344569Y-93515803D01*
X193279660Y-93527107D01*
X193236003Y-93541847D01*
X193230296Y-93543474D01*
X193185417Y-93553977D01*
X193111309Y-93583845D01*
X193107969Y-93585080D01*
X193032267Y-93610644D01*
X192991367Y-93631879D01*
X192985975Y-93634358D01*
X192943237Y-93651584D01*
X192874548Y-93692419D01*
X192871436Y-93694150D01*
X192800538Y-93730961D01*
X192800530Y-93730966D01*
X192763355Y-93758192D01*
X192758405Y-93761466D01*
X192718799Y-93785013D01*
X192718791Y-93785018D01*
X192657151Y-93835852D01*
X192654339Y-93838038D01*
X192589877Y-93885251D01*
X192557288Y-93917839D01*
X192552894Y-93921831D01*
X192517349Y-93951147D01*
X192517344Y-93951151D01*
X192464189Y-94010795D01*
X192461743Y-94013385D01*
X188125130Y-98350000D01*
X183811949Y-102663181D01*
X183750626Y-102696666D01*
X183724268Y-102699500D01*
X180918352Y-102699500D01*
X180910056Y-102698943D01*
X180897958Y-102697311D01*
X180897957Y-102697311D01*
X180783711Y-102699500D01*
X180734823Y-102699500D01*
X180720331Y-102700612D01*
X180716782Y-102700782D01*
X180636902Y-102702312D01*
X180636894Y-102702313D01*
X180606179Y-102707662D01*
X180584907Y-102709500D01*
X166024500Y-102709500D01*
X165957461Y-102689815D01*
X165911706Y-102637011D01*
X165900500Y-102585500D01*
X165900500Y-92634823D01*
X165895481Y-92569449D01*
X165885516Y-92439656D01*
X165826021Y-92185414D01*
X165806244Y-92136343D01*
X165728418Y-91943241D01*
X165728413Y-91943232D01*
X165677521Y-91857628D01*
X165594982Y-91718792D01*
X165428852Y-91517348D01*
X165345918Y-91443437D01*
X165244931Y-91353437D01*
X211499500Y-91353437D01*
X211539271Y-91617305D01*
X211539273Y-91617310D01*
X211617931Y-91872314D01*
X211617932Y-91872317D01*
X211617933Y-91872319D01*
X211733716Y-92112742D01*
X211733718Y-92112746D01*
X211884045Y-92333237D01*
X211952682Y-92407210D01*
X212065551Y-92528855D01*
X212065555Y-92528858D01*
X212065556Y-92528859D01*
X212274196Y-92695244D01*
X212505304Y-92828674D01*
X212753717Y-92926169D01*
X213013886Y-92985551D01*
X213063757Y-92989288D01*
X213213365Y-93000500D01*
X213213371Y-93000500D01*
X214386635Y-93000500D01*
X214519619Y-92990534D01*
X214586114Y-92985551D01*
X214846283Y-92926169D01*
X215094696Y-92828674D01*
X215325804Y-92695244D01*
X215534444Y-92528859D01*
X215715955Y-92333237D01*
X215866282Y-92112747D01*
X215982069Y-91872314D01*
X216060727Y-91617310D01*
X216061093Y-91614886D01*
X216100499Y-91353437D01*
X216100500Y-91353428D01*
X216100500Y-91086571D01*
X216100499Y-91086562D01*
X216060728Y-90822694D01*
X216060726Y-90822688D01*
X215982069Y-90567686D01*
X215866282Y-90327254D01*
X215715955Y-90106763D01*
X215640998Y-90025979D01*
X215534448Y-89911144D01*
X215464963Y-89855732D01*
X215325804Y-89744756D01*
X215094696Y-89611326D01*
X214846283Y-89513831D01*
X214846274Y-89513829D01*
X214846271Y-89513828D01*
X214586111Y-89454448D01*
X214386635Y-89439500D01*
X214386629Y-89439500D01*
X213213371Y-89439500D01*
X213213365Y-89439500D01*
X213013888Y-89454448D01*
X212753728Y-89513828D01*
X212753720Y-89513830D01*
X212753717Y-89513831D01*
X212753714Y-89513831D01*
X212753711Y-89513833D01*
X212505303Y-89611326D01*
X212274196Y-89744756D01*
X212065551Y-89911144D01*
X211884043Y-90106765D01*
X211733718Y-90327252D01*
X211733716Y-90327256D01*
X211617931Y-90567685D01*
X211539273Y-90822688D01*
X211539271Y-90822694D01*
X211499500Y-91086562D01*
X211499500Y-91353437D01*
X165244931Y-91353437D01*
X165233928Y-91343631D01*
X165233911Y-91343618D01*
X165014757Y-91201695D01*
X165014753Y-91201694D01*
X164776488Y-91094881D01*
X164524714Y-91025693D01*
X164351946Y-91005748D01*
X164265325Y-90995748D01*
X164265324Y-90995748D01*
X164004406Y-91005748D01*
X163748071Y-91055462D01*
X163748069Y-91055462D01*
X163502336Y-91143718D01*
X163272939Y-91268461D01*
X163065288Y-91426746D01*
X163065284Y-91426749D01*
X163065284Y-91426750D01*
X162978093Y-91517348D01*
X162884223Y-91614885D01*
X162884214Y-91614895D01*
X162734010Y-91828441D01*
X162733999Y-91828460D01*
X162618139Y-92062455D01*
X162549117Y-92280561D01*
X162539359Y-92311395D01*
X162499500Y-92569445D01*
X162499500Y-92569449D01*
X162499500Y-104308603D01*
X162499091Y-104315719D01*
X162495748Y-104344675D01*
X152850500Y-104344675D01*
X152850500Y-93045072D01*
X152870185Y-92978033D01*
X152886819Y-92957391D01*
X154982391Y-90861819D01*
X155043714Y-90828334D01*
X155070072Y-90825500D01*
X155913770Y-90825500D01*
X155980809Y-90845185D01*
X156026564Y-90897989D01*
X156030811Y-90908544D01*
X156043384Y-90944476D01*
X156121788Y-91050710D01*
X156121789Y-91050711D01*
X156228023Y-91129115D01*
X156228024Y-91129115D01*
X156228025Y-91129116D01*
X156352651Y-91172725D01*
X156352650Y-91172725D01*
X156382240Y-91175500D01*
X156382244Y-91175500D01*
X156987760Y-91175500D01*
X157017349Y-91172725D01*
X157141975Y-91129116D01*
X157248211Y-91050711D01*
X157326616Y-90944475D01*
X157370225Y-90819849D01*
X157373000Y-90790260D01*
X157822000Y-90790260D01*
X157824774Y-90819849D01*
X157868384Y-90944476D01*
X157946788Y-91050710D01*
X157946789Y-91050711D01*
X158053023Y-91129115D01*
X158053024Y-91129115D01*
X158053025Y-91129116D01*
X158177651Y-91172725D01*
X158177650Y-91172725D01*
X158207240Y-91175500D01*
X158207244Y-91175500D01*
X158812760Y-91175500D01*
X158842349Y-91172725D01*
X158966975Y-91129116D01*
X159073211Y-91050711D01*
X159151616Y-90944475D01*
X159195225Y-90819849D01*
X159198000Y-90790256D01*
X159198000Y-90209744D01*
X159195225Y-90180151D01*
X159151616Y-90055525D01*
X159073211Y-89949289D01*
X159073210Y-89949288D01*
X158966976Y-89870884D01*
X158918544Y-89853937D01*
X158861769Y-89813215D01*
X158836022Y-89748262D01*
X158835500Y-89736896D01*
X158835500Y-89149500D01*
X158855185Y-89082461D01*
X158907989Y-89036706D01*
X158959500Y-89025500D01*
X177083078Y-89025500D01*
X177088481Y-89025735D01*
X177128807Y-89029264D01*
X177167940Y-89018777D01*
X177173162Y-89017619D01*
X177213045Y-89010588D01*
X177213050Y-89010584D01*
X177218099Y-89008747D01*
X177234824Y-89001819D01*
X177239681Y-88999554D01*
X177239684Y-88999554D01*
X177272841Y-88976335D01*
X177277390Y-88973438D01*
X177312455Y-88953194D01*
X177314467Y-88950797D01*
X177338476Y-88922182D01*
X177342122Y-88918202D01*
X177868210Y-88392115D01*
X177872172Y-88388484D01*
X177903194Y-88362455D01*
X177923444Y-88327378D01*
X177926333Y-88322845D01*
X177949553Y-88289684D01*
X177949555Y-88289676D01*
X177951816Y-88284828D01*
X177958754Y-88268079D01*
X177960583Y-88263052D01*
X177960588Y-88263045D01*
X177967622Y-88223147D01*
X177968779Y-88217929D01*
X177979263Y-88178807D01*
X177975735Y-88138489D01*
X177975500Y-88133086D01*
X177975500Y-84684269D01*
X211499500Y-84684269D01*
X211502353Y-84714699D01*
X211502353Y-84714701D01*
X211547206Y-84842880D01*
X211547207Y-84842882D01*
X211627850Y-84952150D01*
X211737118Y-85032793D01*
X211779845Y-85047744D01*
X211865299Y-85077646D01*
X211895730Y-85080500D01*
X211895734Y-85080500D01*
X215704270Y-85080500D01*
X215734699Y-85077646D01*
X215734701Y-85077646D01*
X215799181Y-85055083D01*
X215862882Y-85032793D01*
X215972150Y-84952150D01*
X216052793Y-84842882D01*
X216093303Y-84727111D01*
X216097646Y-84714701D01*
X216097646Y-84714699D01*
X216100500Y-84684269D01*
X216100500Y-81915730D01*
X216097646Y-81885300D01*
X216097646Y-81885298D01*
X216060800Y-81780000D01*
X216052793Y-81757118D01*
X215972150Y-81647850D01*
X215862882Y-81567207D01*
X215862880Y-81567206D01*
X215734700Y-81522353D01*
X215704270Y-81519500D01*
X215704266Y-81519500D01*
X211895734Y-81519500D01*
X211895730Y-81519500D01*
X211865300Y-81522353D01*
X211865298Y-81522353D01*
X211737119Y-81567206D01*
X211737117Y-81567207D01*
X211627850Y-81647850D01*
X211547207Y-81757117D01*
X211547206Y-81757119D01*
X211502353Y-81885298D01*
X211502353Y-81885300D01*
X211499500Y-81915730D01*
X211499500Y-84684269D01*
X177975500Y-84684269D01*
X177975500Y-80148535D01*
X177995185Y-80081496D01*
X178005783Y-80067336D01*
X178032882Y-80036063D01*
X178086697Y-79918226D01*
X178105133Y-79790000D01*
X178086697Y-79661774D01*
X178032882Y-79543937D01*
X177948049Y-79446033D01*
X177839069Y-79375996D01*
X177839065Y-79375994D01*
X177839064Y-79375994D01*
X177714774Y-79339500D01*
X177714772Y-79339500D01*
X177585228Y-79339500D01*
X177585226Y-79339500D01*
X177460935Y-79375994D01*
X177460932Y-79375995D01*
X177460931Y-79375996D01*
X177418232Y-79403437D01*
X177351950Y-79446033D01*
X177267118Y-79543937D01*
X177267117Y-79543938D01*
X177213302Y-79661774D01*
X177194867Y-79790000D01*
X177213302Y-79918225D01*
X177220507Y-79934001D01*
X177267118Y-80036063D01*
X177294213Y-80067333D01*
X177323238Y-80130888D01*
X177324500Y-80148535D01*
X177324500Y-87963811D01*
X177304815Y-88030850D01*
X177288181Y-88051492D01*
X177001493Y-88338181D01*
X176940170Y-88371666D01*
X176913812Y-88374500D01*
X158873194Y-88374500D01*
X158806155Y-88354816D01*
X158790148Y-88344529D01*
X158699069Y-88285996D01*
X158699065Y-88285994D01*
X158699064Y-88285994D01*
X158574774Y-88249500D01*
X158574772Y-88249500D01*
X158445228Y-88249500D01*
X158445226Y-88249500D01*
X158320935Y-88285994D01*
X158320932Y-88285995D01*
X158320931Y-88285996D01*
X158269677Y-88318934D01*
X158211950Y-88356033D01*
X158127118Y-88453937D01*
X158127117Y-88453938D01*
X158073302Y-88571774D01*
X158054867Y-88700000D01*
X158073302Y-88828225D01*
X158122932Y-88936897D01*
X158127118Y-88946063D01*
X158154213Y-88977333D01*
X158183238Y-89040888D01*
X158184500Y-89058535D01*
X158184500Y-89736896D01*
X158164815Y-89803935D01*
X158112011Y-89849690D01*
X158101456Y-89853937D01*
X158053023Y-89870884D01*
X157946789Y-89949288D01*
X157946788Y-89949289D01*
X157868384Y-90055523D01*
X157824774Y-90180150D01*
X157822000Y-90209739D01*
X157822000Y-90790260D01*
X157373000Y-90790260D01*
X157373000Y-90790256D01*
X157373000Y-90209744D01*
X157370225Y-90180151D01*
X157326616Y-90055525D01*
X157248211Y-89949289D01*
X157248210Y-89949288D01*
X157141976Y-89870884D01*
X157017348Y-89827274D01*
X157017349Y-89827274D01*
X156987760Y-89824500D01*
X156987756Y-89824500D01*
X156382244Y-89824500D01*
X156382240Y-89824500D01*
X156352650Y-89827274D01*
X156352648Y-89827275D01*
X156351728Y-89827597D01*
X156351005Y-89827633D01*
X156345277Y-89828885D01*
X156345069Y-89827936D01*
X156281950Y-89831156D01*
X156221323Y-89796425D01*
X156189098Y-89734431D01*
X156195506Y-89664855D01*
X156225346Y-89620680D01*
X156249919Y-89597323D01*
X156283161Y-89549562D01*
X156285962Y-89545846D01*
X156322734Y-89500751D01*
X156337758Y-89471986D01*
X156341819Y-89465283D01*
X156360353Y-89438658D01*
X156383304Y-89385173D01*
X156385295Y-89380981D01*
X156412237Y-89329406D01*
X156421163Y-89298209D01*
X156423790Y-89290829D01*
X156436587Y-89261012D01*
X156448297Y-89204022D01*
X156449417Y-89199464D01*
X156449849Y-89197956D01*
X156465417Y-89143551D01*
X156467879Y-89111195D01*
X156468967Y-89103437D01*
X156475500Y-89071656D01*
X156475500Y-89013496D01*
X156475679Y-89008787D01*
X156477963Y-88978801D01*
X156480095Y-88950797D01*
X156475996Y-88918615D01*
X156475500Y-88910784D01*
X156475500Y-79095072D01*
X156495185Y-79028033D01*
X156511819Y-79007391D01*
X157837819Y-77681391D01*
X157899142Y-77647906D01*
X157968834Y-77652890D01*
X158024767Y-77694762D01*
X158049184Y-77760226D01*
X158049500Y-77769072D01*
X158049500Y-77808488D01*
X158054671Y-77841138D01*
X158057973Y-77861983D01*
X158059500Y-77881381D01*
X158059500Y-78458906D01*
X158058238Y-78476552D01*
X158054867Y-78499997D01*
X158054867Y-78500000D01*
X158058957Y-78528455D01*
X158059414Y-78532637D01*
X158059497Y-78533749D01*
X158064296Y-78565585D01*
X158073439Y-78629174D01*
X158074362Y-78633350D01*
X158074649Y-78634280D01*
X158074651Y-78634285D01*
X158074652Y-78634287D01*
X158089190Y-78664475D01*
X158102113Y-78691311D01*
X158127117Y-78746062D01*
X158130499Y-78751325D01*
X158133010Y-78755813D01*
X158133576Y-78756644D01*
X158148378Y-78772596D01*
X158174545Y-78800797D01*
X158196691Y-78826355D01*
X158211951Y-78843967D01*
X158218653Y-78849775D01*
X158218104Y-78850407D01*
X158218447Y-78850694D01*
X158218681Y-78850402D01*
X158225942Y-78856192D01*
X158274186Y-78884046D01*
X158276677Y-78885564D01*
X158320931Y-78914004D01*
X158320933Y-78914005D01*
X158328998Y-78917688D01*
X158328892Y-78917919D01*
X158340684Y-78922968D01*
X158343550Y-78924093D01*
X158343555Y-78924096D01*
X158394484Y-78935719D01*
X158398119Y-78936667D01*
X158445228Y-78950500D01*
X158445268Y-78950500D01*
X158472859Y-78953608D01*
X158475954Y-78954315D01*
X158524561Y-78950672D01*
X158529178Y-78950500D01*
X158574770Y-78950500D01*
X158574772Y-78950500D01*
X158578594Y-78949377D01*
X158604270Y-78944698D01*
X158611378Y-78944166D01*
X158653496Y-78927635D01*
X158658648Y-78925871D01*
X158699069Y-78914004D01*
X158705746Y-78909711D01*
X158727486Y-78898596D01*
X158737794Y-78894552D01*
X158770442Y-78868514D01*
X158775551Y-78864851D01*
X158808049Y-78843967D01*
X158815833Y-78834982D01*
X158832233Y-78819237D01*
X158843970Y-78809879D01*
X158865522Y-78778266D01*
X158869878Y-78772610D01*
X158892882Y-78746063D01*
X158899449Y-78731682D01*
X158909792Y-78713336D01*
X158920472Y-78697673D01*
X158930711Y-78664474D01*
X158933564Y-78656981D01*
X158946697Y-78628226D01*
X158949508Y-78608673D01*
X158953753Y-78589774D01*
X158960500Y-78567902D01*
X158960500Y-78541092D01*
X158961762Y-78523445D01*
X158962031Y-78521572D01*
X158965133Y-78500000D01*
X158963674Y-78489855D01*
X158961762Y-78476552D01*
X158960500Y-78458906D01*
X158960500Y-78306087D01*
X158980185Y-78239048D01*
X159032989Y-78193293D01*
X159049072Y-78188447D01*
X159048841Y-78187736D01*
X159058122Y-78184720D01*
X159058123Y-78184719D01*
X159058126Y-78184719D01*
X159178220Y-78123528D01*
X159197173Y-78104574D01*
X159258494Y-78071090D01*
X159328185Y-78076073D01*
X159384120Y-78117944D01*
X159390392Y-78127159D01*
X159452424Y-78227728D01*
X159452427Y-78227732D01*
X159572267Y-78347572D01*
X159572271Y-78347575D01*
X159716507Y-78436542D01*
X159716518Y-78436547D01*
X159877393Y-78489855D01*
X159976683Y-78499999D01*
X160000000Y-78499998D01*
X160000000Y-77775000D01*
X160500000Y-77775000D01*
X160500000Y-78499999D01*
X160523308Y-78499999D01*
X160523322Y-78499998D01*
X160622607Y-78489855D01*
X160783481Y-78436547D01*
X160783492Y-78436542D01*
X160927728Y-78347575D01*
X160927732Y-78347572D01*
X161047572Y-78227732D01*
X161047575Y-78227728D01*
X161136542Y-78083492D01*
X161136547Y-78083481D01*
X161189855Y-77922606D01*
X161199999Y-77823322D01*
X161200000Y-77823309D01*
X161200000Y-77775000D01*
X160500000Y-77775000D01*
X160000000Y-77775000D01*
X160000000Y-77500000D01*
X161844867Y-77500000D01*
X161863302Y-77628225D01*
X161917117Y-77746061D01*
X161917118Y-77746063D01*
X161969214Y-77806186D01*
X161998238Y-77869738D01*
X161999500Y-77887386D01*
X161999500Y-84917158D01*
X161998905Y-84925732D01*
X161997227Y-84937763D01*
X161999434Y-84985509D01*
X161999500Y-84988372D01*
X161999500Y-85007845D01*
X161999993Y-85010482D01*
X162000982Y-85019015D01*
X162002415Y-85049991D01*
X162002416Y-85049997D01*
X162005214Y-85056334D01*
X162013664Y-85083620D01*
X162014937Y-85090429D01*
X162014937Y-85090430D01*
X162031260Y-85116793D01*
X162035263Y-85124386D01*
X162047794Y-85152765D01*
X162047795Y-85152766D01*
X162047796Y-85152768D01*
X162052689Y-85157661D01*
X162070435Y-85180065D01*
X162074077Y-85185948D01*
X162074080Y-85185951D01*
X162098826Y-85204639D01*
X162105311Y-85210282D01*
X163100618Y-86205589D01*
X163134103Y-86266912D01*
X163135675Y-86275623D01*
X163153302Y-86398225D01*
X163187301Y-86472670D01*
X163207118Y-86516063D01*
X163274852Y-86594233D01*
X163286508Y-86607686D01*
X163291951Y-86613967D01*
X163400931Y-86684004D01*
X163525225Y-86720499D01*
X163525227Y-86720500D01*
X163525228Y-86720500D01*
X163654773Y-86720500D01*
X163654773Y-86720499D01*
X163779069Y-86684004D01*
X163888049Y-86613967D01*
X163972882Y-86516063D01*
X164026697Y-86398226D01*
X164045133Y-86270000D01*
X164026697Y-86141774D01*
X163972882Y-86023937D01*
X163888049Y-85926033D01*
X163779069Y-85855996D01*
X163779065Y-85855994D01*
X163779064Y-85855994D01*
X163654774Y-85819500D01*
X163654772Y-85819500D01*
X163615834Y-85819500D01*
X163548795Y-85799815D01*
X163528153Y-85783181D01*
X162636819Y-84891847D01*
X162603334Y-84830524D01*
X162600500Y-84804166D01*
X162600500Y-77887386D01*
X162620185Y-77820347D01*
X162630778Y-77806194D01*
X162682882Y-77746063D01*
X162736697Y-77628226D01*
X162755133Y-77500000D01*
X162736697Y-77371774D01*
X162682882Y-77253937D01*
X162598049Y-77156033D01*
X162489069Y-77085996D01*
X162489065Y-77085994D01*
X162489064Y-77085994D01*
X162364774Y-77049500D01*
X162364772Y-77049500D01*
X162235228Y-77049500D01*
X162235226Y-77049500D01*
X162110935Y-77085994D01*
X162110932Y-77085995D01*
X162110931Y-77085996D01*
X162059677Y-77118934D01*
X162001950Y-77156033D01*
X161917118Y-77253937D01*
X161917117Y-77253938D01*
X161863302Y-77371774D01*
X161844867Y-77500000D01*
X160000000Y-77500000D01*
X160000000Y-77399000D01*
X160019685Y-77331961D01*
X160072489Y-77286206D01*
X160124000Y-77275000D01*
X161199999Y-77275000D01*
X161199999Y-77226692D01*
X161199998Y-77226677D01*
X161189855Y-77127392D01*
X161136547Y-76966518D01*
X161136542Y-76966507D01*
X161043782Y-76816121D01*
X161046116Y-76814681D01*
X161024708Y-76761612D01*
X161037750Y-76692971D01*
X161085832Y-76642277D01*
X161148115Y-76625500D01*
X172369718Y-76625500D01*
X172436757Y-76645185D01*
X172482512Y-76697989D01*
X172492456Y-76767147D01*
X172463431Y-76830703D01*
X172404653Y-76868477D01*
X172404652Y-76868477D01*
X172310935Y-76895994D01*
X172310932Y-76895995D01*
X172310931Y-76895996D01*
X172269159Y-76922841D01*
X172201950Y-76966033D01*
X172117118Y-77063937D01*
X172117117Y-77063938D01*
X172063302Y-77181774D01*
X172044867Y-77310000D01*
X172063302Y-77438225D01*
X172117117Y-77556061D01*
X172117118Y-77556063D01*
X172169214Y-77616186D01*
X172198238Y-77679738D01*
X172199500Y-77697386D01*
X172199500Y-84794166D01*
X172179815Y-84861205D01*
X172163181Y-84881847D01*
X171271848Y-85773181D01*
X171210525Y-85806666D01*
X171184167Y-85809500D01*
X171145226Y-85809500D01*
X171020935Y-85845994D01*
X171020932Y-85845995D01*
X171020931Y-85845996D01*
X171005374Y-85855994D01*
X170911950Y-85916033D01*
X170827118Y-86013937D01*
X170827117Y-86013938D01*
X170773302Y-86131774D01*
X170754867Y-86260000D01*
X170773302Y-86388225D01*
X170811869Y-86472673D01*
X170827118Y-86506063D01*
X170911951Y-86603967D01*
X171020931Y-86674004D01*
X171145225Y-86710499D01*
X171145227Y-86710500D01*
X171145228Y-86710500D01*
X171274773Y-86710500D01*
X171274773Y-86710499D01*
X171399069Y-86674004D01*
X171508049Y-86603967D01*
X171592882Y-86506063D01*
X171646697Y-86388226D01*
X171664324Y-86265621D01*
X171693349Y-86202067D01*
X171699367Y-86195602D01*
X172668059Y-85226910D01*
X172674532Y-85221279D01*
X172684224Y-85213959D01*
X172684228Y-85213958D01*
X172716459Y-85178600D01*
X172718367Y-85176602D01*
X172732174Y-85162797D01*
X172733684Y-85160592D01*
X172739023Y-85153851D01*
X172741763Y-85150844D01*
X172759916Y-85130933D01*
X172762416Y-85124478D01*
X172775749Y-85099182D01*
X172779656Y-85093481D01*
X172786757Y-85063285D01*
X172789292Y-85055101D01*
X172800500Y-85026173D01*
X172800500Y-85019248D01*
X172803795Y-84990855D01*
X172805378Y-84984123D01*
X172805379Y-84984119D01*
X172801095Y-84953409D01*
X172800500Y-84944834D01*
X172800500Y-77697386D01*
X172820185Y-77630347D01*
X172830778Y-77616194D01*
X172882882Y-77556063D01*
X172936697Y-77438226D01*
X172955133Y-77310000D01*
X172936697Y-77181774D01*
X172882882Y-77063937D01*
X172798049Y-76966033D01*
X172689069Y-76895996D01*
X172689065Y-76895994D01*
X172689064Y-76895994D01*
X172595348Y-76868477D01*
X172536570Y-76830703D01*
X172507544Y-76767148D01*
X172517487Y-76697989D01*
X172563242Y-76645185D01*
X172630281Y-76625500D01*
X175715500Y-76625500D01*
X175782539Y-76645185D01*
X175828294Y-76697989D01*
X175839500Y-76749500D01*
X175839500Y-86233906D01*
X175838238Y-86251552D01*
X175834867Y-86274999D01*
X175834867Y-86275003D01*
X175838957Y-86303455D01*
X175839414Y-86307637D01*
X175839497Y-86308749D01*
X175844296Y-86340585D01*
X175853439Y-86404174D01*
X175854362Y-86408350D01*
X175854649Y-86409280D01*
X175854651Y-86409285D01*
X175854652Y-86409287D01*
X175869190Y-86439475D01*
X175882113Y-86466311D01*
X175907117Y-86521062D01*
X175910499Y-86526325D01*
X175913010Y-86530813D01*
X175913576Y-86531644D01*
X175928378Y-86547596D01*
X175954545Y-86575797D01*
X175982176Y-86607686D01*
X175991951Y-86618967D01*
X175998653Y-86624775D01*
X175998104Y-86625407D01*
X175998447Y-86625694D01*
X175998681Y-86625402D01*
X176005942Y-86631192D01*
X176054186Y-86659046D01*
X176056677Y-86660564D01*
X176100931Y-86689004D01*
X176100933Y-86689005D01*
X176108998Y-86692688D01*
X176108892Y-86692919D01*
X176120684Y-86697968D01*
X176123550Y-86699093D01*
X176123555Y-86699096D01*
X176174484Y-86710719D01*
X176178119Y-86711667D01*
X176225228Y-86725500D01*
X176225268Y-86725500D01*
X176252859Y-86728608D01*
X176255954Y-86729315D01*
X176304561Y-86725672D01*
X176309178Y-86725500D01*
X176354770Y-86725500D01*
X176354772Y-86725500D01*
X176358594Y-86724377D01*
X176384270Y-86719698D01*
X176391378Y-86719166D01*
X176433496Y-86702635D01*
X176438648Y-86700871D01*
X176479069Y-86689004D01*
X176485746Y-86684711D01*
X176507486Y-86673596D01*
X176517794Y-86669552D01*
X176550442Y-86643514D01*
X176555551Y-86639851D01*
X176588049Y-86618967D01*
X176595833Y-86609982D01*
X176612233Y-86594237D01*
X176623970Y-86584879D01*
X176645522Y-86553266D01*
X176649878Y-86547610D01*
X176672882Y-86521063D01*
X176679449Y-86506682D01*
X176689792Y-86488336D01*
X176700472Y-86472673D01*
X176710711Y-86439474D01*
X176713564Y-86431981D01*
X176726697Y-86403226D01*
X176729508Y-86383673D01*
X176733753Y-86364774D01*
X176740500Y-86342902D01*
X176740500Y-86316092D01*
X176741762Y-86298445D01*
X176745043Y-86275623D01*
X176745133Y-86275000D01*
X176743141Y-86261142D01*
X176741762Y-86251552D01*
X176740500Y-86233906D01*
X176740500Y-76585043D01*
X176760185Y-76518004D01*
X176804320Y-76476626D01*
X176835791Y-76459159D01*
X176982468Y-76333240D01*
X177100796Y-76180373D01*
X177185930Y-76006816D01*
X177234385Y-75819674D01*
X177244176Y-75626610D01*
X177214903Y-75435526D01*
X177147764Y-75254247D01*
X177045509Y-75090193D01*
X176912323Y-74950081D01*
X176753658Y-74839647D01*
X176753659Y-74839647D01*
X176753657Y-74839646D01*
X176576012Y-74763413D01*
X176386656Y-74724500D01*
X159574500Y-74724500D01*
X159507461Y-74704815D01*
X159461706Y-74652011D01*
X159450500Y-74600500D01*
X159450500Y-72876604D01*
X166049500Y-72876604D01*
X166064699Y-73030932D01*
X166094734Y-73129944D01*
X166124768Y-73228954D01*
X166222315Y-73411450D01*
X166256969Y-73453677D01*
X166353589Y-73571410D01*
X166434584Y-73637880D01*
X166513550Y-73702685D01*
X166696046Y-73800232D01*
X166894066Y-73860300D01*
X166894065Y-73860300D01*
X166912529Y-73862118D01*
X167100000Y-73880583D01*
X167305934Y-73860300D01*
X167503954Y-73800232D01*
X167686450Y-73702685D01*
X167846410Y-73571410D01*
X167977685Y-73411450D01*
X168075232Y-73228954D01*
X168135300Y-73030934D01*
X168150500Y-72876608D01*
X168150500Y-72876604D01*
X168549500Y-72876604D01*
X168564699Y-73030932D01*
X168594734Y-73129944D01*
X168624768Y-73228954D01*
X168722315Y-73411450D01*
X168756969Y-73453677D01*
X168853589Y-73571410D01*
X168934584Y-73637880D01*
X169013550Y-73702685D01*
X169196046Y-73800232D01*
X169394066Y-73860300D01*
X169394065Y-73860300D01*
X169412529Y-73862118D01*
X169600000Y-73880583D01*
X169805934Y-73860300D01*
X170003954Y-73800232D01*
X170186450Y-73702685D01*
X170346410Y-73571410D01*
X170477685Y-73411450D01*
X170575232Y-73228954D01*
X170635300Y-73030934D01*
X170650500Y-72876608D01*
X170650500Y-72876604D01*
X171049500Y-72876604D01*
X171064699Y-73030932D01*
X171094734Y-73129944D01*
X171124768Y-73228954D01*
X171222315Y-73411450D01*
X171256969Y-73453677D01*
X171353589Y-73571410D01*
X171434584Y-73637880D01*
X171513550Y-73702685D01*
X171696046Y-73800232D01*
X171894066Y-73860300D01*
X171894065Y-73860300D01*
X171912529Y-73862118D01*
X172100000Y-73880583D01*
X172305934Y-73860300D01*
X172503954Y-73800232D01*
X172686450Y-73702685D01*
X172846410Y-73571410D01*
X172922028Y-73479269D01*
X173549500Y-73479269D01*
X173552353Y-73509699D01*
X173552353Y-73509701D01*
X173597206Y-73637880D01*
X173597207Y-73637882D01*
X173677850Y-73747150D01*
X173787118Y-73827793D01*
X173829845Y-73842744D01*
X173915299Y-73872646D01*
X173945730Y-73875500D01*
X173945734Y-73875500D01*
X175254270Y-73875500D01*
X175284699Y-73872646D01*
X175284701Y-73872646D01*
X175348790Y-73850219D01*
X175412882Y-73827793D01*
X175522150Y-73747150D01*
X175602793Y-73637882D01*
X175626052Y-73571410D01*
X175647646Y-73509701D01*
X175647646Y-73509699D01*
X175650500Y-73479269D01*
X175650500Y-71920730D01*
X175647646Y-71890300D01*
X175647646Y-71890298D01*
X175602793Y-71762119D01*
X175602792Y-71762117D01*
X175522150Y-71652850D01*
X175412882Y-71572207D01*
X175412880Y-71572206D01*
X175284700Y-71527353D01*
X175254270Y-71524500D01*
X175254266Y-71524500D01*
X173945734Y-71524500D01*
X173945730Y-71524500D01*
X173915300Y-71527353D01*
X173915298Y-71527353D01*
X173787119Y-71572206D01*
X173787117Y-71572207D01*
X173677850Y-71652850D01*
X173597207Y-71762117D01*
X173597206Y-71762119D01*
X173552353Y-71890298D01*
X173552353Y-71890300D01*
X173549500Y-71920730D01*
X173549500Y-73479269D01*
X172922028Y-73479269D01*
X172977685Y-73411450D01*
X173075232Y-73228954D01*
X173135300Y-73030934D01*
X173150500Y-72876608D01*
X173150500Y-72523392D01*
X173135300Y-72369066D01*
X173075232Y-72171046D01*
X172977685Y-71988550D01*
X172897052Y-71890298D01*
X172846410Y-71828589D01*
X172686452Y-71697317D01*
X172686453Y-71697317D01*
X172686450Y-71697315D01*
X172503954Y-71599768D01*
X172305934Y-71539700D01*
X172305932Y-71539699D01*
X172305934Y-71539699D01*
X172100000Y-71519417D01*
X171894067Y-71539699D01*
X171696043Y-71599769D01*
X171596737Y-71652850D01*
X171513550Y-71697315D01*
X171513548Y-71697316D01*
X171513547Y-71697317D01*
X171353589Y-71828589D01*
X171222317Y-71988547D01*
X171222315Y-71988550D01*
X171183643Y-72060898D01*
X171124769Y-72171043D01*
X171064699Y-72369067D01*
X171049500Y-72523395D01*
X171049500Y-72876604D01*
X170650500Y-72876604D01*
X170650500Y-72523392D01*
X170635300Y-72369066D01*
X170575232Y-72171046D01*
X170477685Y-71988550D01*
X170397052Y-71890298D01*
X170346410Y-71828589D01*
X170186452Y-71697317D01*
X170186453Y-71697317D01*
X170186450Y-71697315D01*
X170003954Y-71599768D01*
X169805934Y-71539700D01*
X169805932Y-71539699D01*
X169805934Y-71539699D01*
X169600000Y-71519417D01*
X169394067Y-71539699D01*
X169196043Y-71599769D01*
X169096737Y-71652850D01*
X169013550Y-71697315D01*
X169013548Y-71697316D01*
X169013547Y-71697317D01*
X168853589Y-71828589D01*
X168722317Y-71988547D01*
X168722315Y-71988550D01*
X168683643Y-72060898D01*
X168624769Y-72171043D01*
X168564699Y-72369067D01*
X168549500Y-72523395D01*
X168549500Y-72876604D01*
X168150500Y-72876604D01*
X168150500Y-72523392D01*
X168135300Y-72369066D01*
X168075232Y-72171046D01*
X167977685Y-71988550D01*
X167897052Y-71890298D01*
X167846410Y-71828589D01*
X167686452Y-71697317D01*
X167686453Y-71697317D01*
X167686450Y-71697315D01*
X167503954Y-71599768D01*
X167305934Y-71539700D01*
X167305932Y-71539699D01*
X167305934Y-71539699D01*
X167100000Y-71519417D01*
X166894067Y-71539699D01*
X166696043Y-71599769D01*
X166596737Y-71652850D01*
X166513550Y-71697315D01*
X166513548Y-71697316D01*
X166513547Y-71697317D01*
X166353589Y-71828589D01*
X166222317Y-71988547D01*
X166222315Y-71988550D01*
X166183643Y-72060898D01*
X166124769Y-72171043D01*
X166064699Y-72369067D01*
X166049500Y-72523395D01*
X166049500Y-72876604D01*
X159450500Y-72876604D01*
X159450500Y-68625668D01*
X159450580Y-68622528D01*
X159451827Y-68597923D01*
X159454176Y-68551610D01*
X159443423Y-68481425D01*
X159443027Y-68478311D01*
X159440690Y-68455326D01*
X159435845Y-68407679D01*
X159431404Y-68393528D01*
X159427149Y-68375192D01*
X159424903Y-68360526D01*
X159407667Y-68313988D01*
X159400241Y-68293937D01*
X159399225Y-68290964D01*
X159392077Y-68268181D01*
X159377974Y-68223232D01*
X159370773Y-68210260D01*
X159362915Y-68193157D01*
X159357764Y-68179247D01*
X159320199Y-68118979D01*
X159318634Y-68116320D01*
X159284159Y-68054209D01*
X159274499Y-68042956D01*
X159263353Y-68027778D01*
X159255509Y-68015193D01*
X159219845Y-67977675D01*
X159206574Y-67963714D01*
X159204494Y-67961411D01*
X159185406Y-67939177D01*
X159158241Y-67907532D01*
X159146517Y-67898458D01*
X159132542Y-67885832D01*
X159122323Y-67875081D01*
X159122318Y-67875077D01*
X159064047Y-67834519D01*
X159061516Y-67832660D01*
X159005375Y-67789205D01*
X159005373Y-67789204D01*
X158992059Y-67782673D01*
X158975830Y-67773119D01*
X158963658Y-67764647D01*
X158963651Y-67764643D01*
X158898395Y-67736639D01*
X158895541Y-67735328D01*
X158831820Y-67704071D01*
X158817452Y-67700350D01*
X158799653Y-67694266D01*
X158792447Y-67691174D01*
X158786012Y-67688413D01*
X158786010Y-67688412D01*
X158716467Y-67674120D01*
X158713407Y-67673410D01*
X158644676Y-67655615D01*
X158629852Y-67654863D01*
X158611180Y-67652484D01*
X158596658Y-67649500D01*
X158596656Y-67649500D01*
X158525668Y-67649500D01*
X158522528Y-67649420D01*
X158451610Y-67645824D01*
X158451605Y-67645824D01*
X158436948Y-67648070D01*
X158418172Y-67649500D01*
X142125668Y-67649500D01*
X142122528Y-67649420D01*
X142051610Y-67645824D01*
X142051605Y-67645824D01*
X142036948Y-67648070D01*
X142018172Y-67649500D01*
X117125668Y-67649500D01*
X117122528Y-67649420D01*
X117051611Y-67645824D01*
X117051603Y-67645824D01*
X116981436Y-67656573D01*
X116978321Y-67656970D01*
X116907684Y-67664154D01*
X116907673Y-67664156D01*
X116893520Y-67668596D01*
X116875196Y-67672848D01*
X116860529Y-67675096D01*
X116860522Y-67675097D01*
X116793936Y-67699757D01*
X116790967Y-67700772D01*
X116723236Y-67722024D01*
X116723233Y-67722025D01*
X116710260Y-67729226D01*
X116693157Y-67737084D01*
X116679249Y-67742235D01*
X116679246Y-67742236D01*
X116618990Y-67779791D01*
X116616286Y-67781383D01*
X116554209Y-67815840D01*
X116554207Y-67815841D01*
X116542951Y-67825504D01*
X116527788Y-67836639D01*
X116515191Y-67844491D01*
X116463725Y-67893414D01*
X116461394Y-67895520D01*
X116407534Y-67941757D01*
X116407533Y-67941758D01*
X116398451Y-67953490D01*
X116385837Y-67967451D01*
X116375081Y-67977675D01*
X116334505Y-68035970D01*
X116332647Y-68038500D01*
X116289202Y-68094628D01*
X116282671Y-68107943D01*
X116273122Y-68124165D01*
X116264648Y-68136340D01*
X116264647Y-68136342D01*
X116236644Y-68201595D01*
X116235333Y-68204449D01*
X116204071Y-68268181D01*
X116204069Y-68268185D01*
X116200351Y-68282543D01*
X116194268Y-68300339D01*
X116188412Y-68313987D01*
X116174118Y-68383541D01*
X116173408Y-68386600D01*
X116155615Y-68455323D01*
X116154863Y-68470148D01*
X116152484Y-68488818D01*
X116149500Y-68503338D01*
X116149500Y-68574330D01*
X116149420Y-68577470D01*
X116145824Y-68648389D01*
X116145824Y-68648390D01*
X116148070Y-68663050D01*
X116149500Y-68681827D01*
X116149500Y-72093715D01*
X116134858Y-72152169D01*
X116124769Y-72171043D01*
X116064699Y-72369067D01*
X116049500Y-72523395D01*
X116049500Y-72876604D01*
X110000500Y-72876604D01*
X110000500Y-51002705D01*
X110000736Y-50997299D01*
X110004476Y-50954554D01*
X110016918Y-50828223D01*
X110020542Y-50808309D01*
X110038402Y-50741653D01*
X110066683Y-50648424D01*
X110072953Y-50632037D01*
X110104420Y-50564558D01*
X110105872Y-50561653D01*
X110150764Y-50477666D01*
X110154657Y-50471331D01*
X110187837Y-50423945D01*
X110200994Y-50405155D01*
X110203827Y-50401420D01*
X110263122Y-50329168D01*
X110267162Y-50324710D01*
X110324710Y-50267162D01*
X110329168Y-50263122D01*
X110401420Y-50203827D01*
X110405155Y-50200994D01*
X110471334Y-50154654D01*
X110477666Y-50150764D01*
X110561653Y-50105872D01*
X110564558Y-50104420D01*
X110632037Y-50072953D01*
X110648424Y-50066683D01*
X110741653Y-50038402D01*
X110808309Y-50020542D01*
X110828223Y-50016918D01*
X110954542Y-50004477D01*
X110997305Y-50000735D01*
X111002706Y-50000500D01*
X118997293Y-50000500D01*
X119002695Y-50000735D01*
G37*
%TD.AperFunction*%
%TD*%
M02*
