%TF.GenerationSoftware,KiCad,Pcbnew,7.0.8-7.0.8~ubuntu22.04.1*%
%TF.CreationDate,2023-11-09T12:37:36+08:00*%
%TF.ProjectId,ECU,4543552e-6b69-4636-9164-5f7063625858,rev?*%
%TF.SameCoordinates,Original*%
%TF.FileFunction,Paste,Top*%
%TF.FilePolarity,Positive*%
%FSLAX46Y46*%
G04 Gerber Fmt 4.6, Leading zero omitted, Abs format (unit mm)*
G04 Created by KiCad (PCBNEW 7.0.8-7.0.8~ubuntu22.04.1) date 2023-11-09 12:37:36*
%MOMM*%
%LPD*%
G01*
G04 APERTURE LIST*
G04 Aperture macros list*
%AMRoundRect*
0 Rectangle with rounded corners*
0 $1 Rounding radius*
0 $2 $3 $4 $5 $6 $7 $8 $9 X,Y pos of 4 corners*
0 Add a 4 corners polygon primitive as box body*
4,1,4,$2,$3,$4,$5,$6,$7,$8,$9,$2,$3,0*
0 Add four circle primitives for the rounded corners*
1,1,$1+$1,$2,$3*
1,1,$1+$1,$4,$5*
1,1,$1+$1,$6,$7*
1,1,$1+$1,$8,$9*
0 Add four rect primitives between the rounded corners*
20,1,$1+$1,$2,$3,$4,$5,0*
20,1,$1+$1,$4,$5,$6,$7,0*
20,1,$1+$1,$6,$7,$8,$9,0*
20,1,$1+$1,$8,$9,$2,$3,0*%
G04 Aperture macros list end*
%ADD10R,1.525000X0.650000*%
%ADD11RoundRect,0.237500X0.237500X-0.250000X0.237500X0.250000X-0.237500X0.250000X-0.237500X-0.250000X0*%
%ADD12RoundRect,0.225000X0.250000X-0.225000X0.250000X0.225000X-0.250000X0.225000X-0.250000X-0.225000X0*%
%ADD13RoundRect,0.225000X0.225000X0.250000X-0.225000X0.250000X-0.225000X-0.250000X0.225000X-0.250000X0*%
%ADD14RoundRect,0.237500X-0.237500X0.250000X-0.237500X-0.250000X0.237500X-0.250000X0.237500X0.250000X0*%
%ADD15R,1.100000X0.250000*%
%ADD16RoundRect,0.250000X0.650000X-0.412500X0.650000X0.412500X-0.650000X0.412500X-0.650000X-0.412500X0*%
%ADD17RoundRect,0.237500X0.250000X0.237500X-0.250000X0.237500X-0.250000X-0.237500X0.250000X-0.237500X0*%
%ADD18R,0.650000X1.050000*%
%ADD19RoundRect,0.250000X-1.000000X-0.650000X1.000000X-0.650000X1.000000X0.650000X-1.000000X0.650000X0*%
%ADD20RoundRect,0.200000X-0.200000X-0.275000X0.200000X-0.275000X0.200000X0.275000X-0.200000X0.275000X0*%
%ADD21RoundRect,0.150000X-0.150000X0.512500X-0.150000X-0.512500X0.150000X-0.512500X0.150000X0.512500X0*%
%ADD22R,0.900000X1.500000*%
%ADD23R,1.500000X0.900000*%
%ADD24R,0.900000X0.900000*%
%ADD25RoundRect,0.250000X1.000000X-1.400000X1.000000X1.400000X-1.000000X1.400000X-1.000000X-1.400000X0*%
%ADD26RoundRect,0.250000X1.400000X1.000000X-1.400000X1.000000X-1.400000X-1.000000X1.400000X-1.000000X0*%
%ADD27RoundRect,0.250000X-1.000000X1.750000X-1.000000X-1.750000X1.000000X-1.750000X1.000000X1.750000X0*%
%ADD28RoundRect,0.250000X0.650000X-1.000000X0.650000X1.000000X-0.650000X1.000000X-0.650000X-1.000000X0*%
%ADD29RoundRect,0.237500X0.287500X0.237500X-0.287500X0.237500X-0.287500X-0.237500X0.287500X-0.237500X0*%
%ADD30R,1.500000X2.000000*%
%ADD31R,3.800000X2.000000*%
%ADD32R,5.500000X2.850000*%
%ADD33RoundRect,0.250000X-0.337500X-0.475000X0.337500X-0.475000X0.337500X0.475000X-0.337500X0.475000X0*%
%ADD34R,1.500000X0.600000*%
%ADD35RoundRect,0.200000X0.200000X0.275000X-0.200000X0.275000X-0.200000X-0.275000X0.200000X-0.275000X0*%
%ADD36RoundRect,0.250001X0.624999X-0.462499X0.624999X0.462499X-0.624999X0.462499X-0.624999X-0.462499X0*%
%ADD37RoundRect,0.237500X-0.250000X-0.237500X0.250000X-0.237500X0.250000X0.237500X-0.250000X0.237500X0*%
%ADD38RoundRect,0.250000X0.337500X0.475000X-0.337500X0.475000X-0.337500X-0.475000X0.337500X-0.475000X0*%
%ADD39RoundRect,0.225000X-0.250000X0.225000X-0.250000X-0.225000X0.250000X-0.225000X0.250000X0.225000X0*%
%ADD40RoundRect,0.150000X0.150000X-0.512500X0.150000X0.512500X-0.150000X0.512500X-0.150000X-0.512500X0*%
%ADD41RoundRect,0.250000X-2.050000X-0.300000X2.050000X-0.300000X2.050000X0.300000X-2.050000X0.300000X0*%
%ADD42RoundRect,0.250000X-2.025000X-2.375000X2.025000X-2.375000X2.025000X2.375000X-2.025000X2.375000X0*%
%ADD43R,0.700000X1.600000*%
%ADD44R,1.200000X1.400000*%
%ADD45R,1.200000X2.200000*%
%ADD46R,1.600000X1.400000*%
%ADD47RoundRect,0.237500X0.300000X0.237500X-0.300000X0.237500X-0.300000X-0.237500X0.300000X-0.237500X0*%
%ADD48RoundRect,0.250001X-0.462499X-0.624999X0.462499X-0.624999X0.462499X0.624999X-0.462499X0.624999X0*%
%ADD49RoundRect,0.225000X-0.225000X-0.250000X0.225000X-0.250000X0.225000X0.250000X-0.225000X0.250000X0*%
%ADD50RoundRect,0.250000X-0.300000X2.050000X-0.300000X-2.050000X0.300000X-2.050000X0.300000X2.050000X0*%
%ADD51RoundRect,0.250000X-2.375000X2.025000X-2.375000X-2.025000X2.375000X-2.025000X2.375000X2.025000X0*%
%ADD52RoundRect,0.237500X-0.287500X-0.237500X0.287500X-0.237500X0.287500X0.237500X-0.287500X0.237500X0*%
%ADD53R,1.600000X1.600000*%
%ADD54RoundRect,0.250000X-0.650000X1.000000X-0.650000X-1.000000X0.650000X-1.000000X0.650000X1.000000X0*%
%ADD55R,2.200000X3.050000*%
G04 APERTURE END LIST*
D10*
%TO.C,IC1*%
X171560500Y-93595000D03*
X171560500Y-94865000D03*
X171560500Y-96135000D03*
X171560500Y-97405000D03*
X176984500Y-97405000D03*
X176984500Y-96135000D03*
X176984500Y-94865000D03*
X176984500Y-93595000D03*
%TD*%
D11*
%TO.C,R11*%
X180985000Y-105935000D03*
X180985000Y-104110000D03*
%TD*%
D12*
%TO.C,C29*%
X152900000Y-83762500D03*
X152900000Y-82212500D03*
%TD*%
D11*
%TO.C,R4*%
X145300000Y-137925000D03*
X145300000Y-136100000D03*
%TD*%
D13*
%TO.C,C26*%
X147550000Y-92248750D03*
X146000000Y-92248750D03*
%TD*%
D12*
%TO.C,C24*%
X154640000Y-134150000D03*
X154640000Y-132600000D03*
%TD*%
D11*
%TO.C,R41*%
X147675000Y-115137500D03*
X147675000Y-113312500D03*
%TD*%
%TO.C,R9*%
X154000000Y-98025000D03*
X154000000Y-96200000D03*
%TD*%
D14*
%TO.C,R33*%
X143800000Y-78900000D03*
X143800000Y-80725000D03*
%TD*%
D15*
%TO.C,U5*%
X151690000Y-134600000D03*
X151690000Y-134100000D03*
X151690000Y-133600000D03*
X151690000Y-133100000D03*
X151690000Y-132600000D03*
X147390000Y-132600000D03*
X147390000Y-133100000D03*
X147390000Y-133600000D03*
X147390000Y-134100000D03*
X147390000Y-134600000D03*
%TD*%
D16*
%TO.C,C20*%
X203775000Y-108435000D03*
X203775000Y-105310000D03*
%TD*%
D17*
%TO.C,R50*%
X153352500Y-130950000D03*
X151527500Y-130950000D03*
%TD*%
D16*
%TO.C,C17*%
X200875000Y-108435000D03*
X200875000Y-105310000D03*
%TD*%
D11*
%TO.C,R32*%
X149100000Y-87225000D03*
X149100000Y-85400000D03*
%TD*%
%TO.C,R40*%
X143900000Y-113862500D03*
X143900000Y-112037500D03*
%TD*%
D18*
%TO.C,SW2*%
X135695000Y-83450000D03*
X135695000Y-79300000D03*
X137845000Y-83450000D03*
X137845000Y-79300000D03*
%TD*%
D19*
%TO.C,D10*%
X157700000Y-143200000D03*
X161700000Y-143200000D03*
%TD*%
D14*
%TO.C,R34*%
X152900000Y-78900000D03*
X152900000Y-80725000D03*
%TD*%
%TO.C,R26*%
X146100000Y-85400000D03*
X146100000Y-87225000D03*
%TD*%
D20*
%TO.C,R16*%
X126725000Y-127800000D03*
X128375000Y-127800000D03*
%TD*%
D21*
%TO.C,U7*%
X123530000Y-96402500D03*
X122580000Y-96402500D03*
X121630000Y-96402500D03*
X121630000Y-98677500D03*
X122580000Y-98677500D03*
X123530000Y-98677500D03*
%TD*%
D22*
%TO.C,IC4*%
X138460000Y-102300000D03*
X137190000Y-102300000D03*
X135920000Y-102300000D03*
X134650000Y-102300000D03*
X133380000Y-102300000D03*
X132110000Y-102300000D03*
X130840000Y-102300000D03*
X129570000Y-102300000D03*
X128300000Y-102300000D03*
X127030000Y-102300000D03*
X125760000Y-102300000D03*
X124490000Y-102300000D03*
X123220000Y-102300000D03*
X121950000Y-102300000D03*
D23*
X120700000Y-104065000D03*
X120700000Y-105335000D03*
X120700000Y-106605000D03*
X120700000Y-107875000D03*
X120700000Y-109145000D03*
X120700000Y-110415000D03*
X120700000Y-111685000D03*
X120700000Y-112955000D03*
X120700000Y-114225000D03*
X120700000Y-115495000D03*
X120700000Y-116765000D03*
X120700000Y-118035000D03*
D22*
X121950000Y-119800000D03*
X123220000Y-119800000D03*
X124490000Y-119800000D03*
X125760000Y-119800000D03*
X127030000Y-119800000D03*
X128300000Y-119800000D03*
X129570000Y-119800000D03*
X130840000Y-119800000D03*
X132110000Y-119800000D03*
X133380000Y-119800000D03*
X134650000Y-119800000D03*
X135920000Y-119800000D03*
X137190000Y-119800000D03*
X138460000Y-119800000D03*
D24*
X130740000Y-109550000D03*
X132140000Y-108150000D03*
X130740000Y-108150000D03*
X129340000Y-108150000D03*
X129340000Y-109550000D03*
X129340000Y-110950000D03*
X130740000Y-110950000D03*
X132140000Y-110950000D03*
X132140000Y-109550000D03*
%TD*%
D17*
%TO.C,R42*%
X153515000Y-136350000D03*
X151690000Y-136350000D03*
%TD*%
D11*
%TO.C,R5*%
X143800000Y-137012500D03*
X143800000Y-135187500D03*
%TD*%
D17*
%TO.C,R24*%
X145652500Y-132050000D03*
X143827500Y-132050000D03*
%TD*%
D18*
%TO.C,SW1*%
X137845000Y-89875000D03*
X137845000Y-94025000D03*
X135695000Y-89875000D03*
X135695000Y-94025000D03*
%TD*%
D11*
%TO.C,R12*%
X154000000Y-105225000D03*
X154000000Y-103400000D03*
%TD*%
D25*
%TO.C,D3*%
X197875000Y-124200000D03*
X204675000Y-124200000D03*
%TD*%
D26*
%TO.C,D6*%
X203200000Y-100000000D03*
X203200000Y-93200000D03*
%TD*%
D11*
%TO.C,R23*%
X180985000Y-78920000D03*
X180985000Y-77095000D03*
%TD*%
D27*
%TO.C,C9*%
X182575000Y-130625000D03*
X182575000Y-138625000D03*
%TD*%
D28*
%TO.C,D7*%
X114740000Y-126260000D03*
X114740000Y-122260000D03*
%TD*%
D29*
%TO.C,D5*%
X144890000Y-118400000D03*
X143140000Y-118400000D03*
%TD*%
D17*
%TO.C,R51*%
X145652500Y-133650000D03*
X143827500Y-133650000D03*
%TD*%
D30*
%TO.C,U2*%
X115700000Y-136200000D03*
X118000000Y-136200000D03*
D31*
X118000000Y-129900000D03*
D30*
X120300000Y-136200000D03*
%TD*%
D32*
%TO.C,R45*%
X165380000Y-137700000D03*
X165380000Y-129500000D03*
%TD*%
D13*
%TO.C,C4*%
X139075000Y-97985000D03*
X137525000Y-97985000D03*
%TD*%
D14*
%TO.C,R44*%
X151450000Y-117137500D03*
X151450000Y-118962500D03*
%TD*%
D33*
%TO.C,C1*%
X118000000Y-125200000D03*
X120075000Y-125200000D03*
%TD*%
D17*
%TO.C,R31*%
X148487500Y-118400000D03*
X146662500Y-118400000D03*
%TD*%
D34*
%TO.C,IC2*%
X157850000Y-100860000D03*
X157850000Y-103400000D03*
X164200000Y-103400000D03*
X164200000Y-100860000D03*
%TD*%
D35*
%TO.C,R20*%
X137175000Y-126140000D03*
X135525000Y-126140000D03*
%TD*%
D26*
%TO.C,D8*%
X203175000Y-84725000D03*
X203175000Y-77925000D03*
%TD*%
D36*
%TO.C,D4*%
X154500000Y-143187500D03*
X154500000Y-140212500D03*
%TD*%
D15*
%TO.C,U4*%
X150500000Y-83712500D03*
X150500000Y-83212500D03*
X150500000Y-82712500D03*
X150500000Y-82212500D03*
X150500000Y-81712500D03*
X146200000Y-81712500D03*
X146200000Y-82212500D03*
X146200000Y-82712500D03*
X146200000Y-83212500D03*
X146200000Y-83712500D03*
%TD*%
D34*
%TO.C,IC3*%
X157850000Y-108060000D03*
X157850000Y-110600000D03*
X164200000Y-110600000D03*
X164200000Y-108060000D03*
%TD*%
D11*
%TO.C,R39*%
X156340000Y-134425000D03*
X156340000Y-132600000D03*
%TD*%
D37*
%TO.C,R28*%
X136020000Y-85050000D03*
X137845000Y-85050000D03*
%TD*%
D17*
%TO.C,R27*%
X135920000Y-95900000D03*
X134095000Y-95900000D03*
%TD*%
D38*
%TO.C,C7*%
X119037500Y-139062500D03*
X116962500Y-139062500D03*
%TD*%
D39*
%TO.C,C12*%
X134095000Y-79300000D03*
X134095000Y-80850000D03*
%TD*%
D40*
%TO.C,U6*%
X158540000Y-134737500D03*
X159490000Y-134737500D03*
X160440000Y-134737500D03*
X160440000Y-132462500D03*
X158540000Y-132462500D03*
%TD*%
D41*
%TO.C,Q1*%
X185035000Y-75385000D03*
D42*
X191760000Y-75150000D03*
X191760000Y-80700000D03*
X196610000Y-75150000D03*
X196610000Y-80700000D03*
D41*
X185035000Y-80465000D03*
%TD*%
D39*
%TO.C,C11*%
X134095000Y-92475000D03*
X134095000Y-94025000D03*
%TD*%
D33*
%TO.C,C6*%
X118000000Y-127300000D03*
X120075000Y-127300000D03*
%TD*%
D20*
%TO.C,R21*%
X126375000Y-122700000D03*
X128025000Y-122700000D03*
%TD*%
D37*
%TO.C,R43*%
X148227500Y-136350000D03*
X150052500Y-136350000D03*
%TD*%
D14*
%TO.C,R25*%
X147600000Y-85400000D03*
X147600000Y-87225000D03*
%TD*%
D43*
%TO.C,J2*%
X135250000Y-130350000D03*
X134150000Y-130350000D03*
X133050000Y-130350000D03*
X131950000Y-130350000D03*
X130850000Y-130350000D03*
X129750000Y-130350000D03*
X128650000Y-130350000D03*
X127550000Y-130350000D03*
X126450000Y-130350000D03*
D44*
X125250000Y-130850000D03*
D45*
X140750000Y-140450000D03*
X125250000Y-140450000D03*
D46*
X139850000Y-130850000D03*
%TD*%
D38*
%TO.C,C2*%
X119037500Y-141162500D03*
X116962500Y-141162500D03*
%TD*%
D47*
%TO.C,C16*%
X131702500Y-127800000D03*
X129977500Y-127800000D03*
%TD*%
D14*
%TO.C,R37*%
X147600000Y-77725000D03*
X147600000Y-79550000D03*
%TD*%
D35*
%TO.C,R18*%
X134205000Y-123200000D03*
X132555000Y-123200000D03*
%TD*%
D27*
%TO.C,C8*%
X209775000Y-130625000D03*
X209775000Y-138625000D03*
%TD*%
D11*
%TO.C,R15*%
X181010000Y-90660000D03*
X181010000Y-88835000D03*
%TD*%
D37*
%TO.C,R47*%
X151527500Y-129450000D03*
X153352500Y-129450000D03*
%TD*%
D17*
%TO.C,R2*%
X149312500Y-141700000D03*
X147487500Y-141700000D03*
%TD*%
D48*
%TO.C,D2*%
X119062500Y-122900000D03*
X122037500Y-122900000D03*
%TD*%
D14*
%TO.C,R14*%
X181010000Y-92375000D03*
X181010000Y-94200000D03*
%TD*%
D38*
%TO.C,C19*%
X173510000Y-100400000D03*
X171435000Y-100400000D03*
%TD*%
%TO.C,C18*%
X173510000Y-102500000D03*
X171435000Y-102500000D03*
%TD*%
D41*
%TO.C,Q3*%
X185035000Y-105935000D03*
D42*
X191760000Y-105700000D03*
X191760000Y-111250000D03*
X196610000Y-105700000D03*
X196610000Y-111250000D03*
D41*
X185035000Y-111015000D03*
%TD*%
D14*
%TO.C,R36*%
X149100000Y-77725000D03*
X149100000Y-79550000D03*
%TD*%
D12*
%TO.C,C14*%
X143800000Y-83762500D03*
X143800000Y-82212500D03*
%TD*%
D49*
%TO.C,C5*%
X134370000Y-99600000D03*
X135920000Y-99600000D03*
%TD*%
D14*
%TO.C,R1*%
X169372500Y-93040000D03*
X169372500Y-94865000D03*
%TD*%
D11*
%TO.C,R3*%
X169372500Y-99230000D03*
X169372500Y-97405000D03*
%TD*%
D14*
%TO.C,R10*%
X180985000Y-107592500D03*
X180985000Y-109417500D03*
%TD*%
D39*
%TO.C,C27*%
X146100000Y-78637500D03*
X146100000Y-80187500D03*
%TD*%
D17*
%TO.C,R6*%
X135912500Y-97800000D03*
X134087500Y-97800000D03*
%TD*%
D34*
%TO.C,IC5*%
X157850000Y-93660000D03*
X157850000Y-96200000D03*
X164200000Y-96200000D03*
X164200000Y-93660000D03*
%TD*%
D50*
%TO.C,U1*%
X199575000Y-130625000D03*
X197875000Y-130625000D03*
X196175000Y-130625000D03*
D51*
X198950000Y-137350000D03*
X193400000Y-137350000D03*
X198950000Y-142200000D03*
X193400000Y-142200000D03*
D50*
X194475000Y-130625000D03*
X192775000Y-130625000D03*
%TD*%
D13*
%TO.C,C3*%
X139075000Y-99600000D03*
X137525000Y-99600000D03*
%TD*%
D39*
%TO.C,C10*%
X158530000Y-129235000D03*
X158530000Y-130785000D03*
%TD*%
D11*
%TO.C,R30*%
X134095000Y-85050000D03*
X134095000Y-83225000D03*
%TD*%
D20*
%TO.C,R17*%
X128745000Y-124910000D03*
X130395000Y-124910000D03*
%TD*%
D39*
%TO.C,C28*%
X150600000Y-78637500D03*
X150600000Y-80187500D03*
%TD*%
D11*
%TO.C,R38*%
X180985000Y-75385000D03*
X180985000Y-73560000D03*
%TD*%
D35*
%TO.C,R19*%
X136075000Y-127800000D03*
X134425000Y-127800000D03*
%TD*%
D52*
%TO.C,D1*%
X144100000Y-141700000D03*
X145850000Y-141700000D03*
%TD*%
D53*
%TO.C,U3*%
X158510000Y-87410000D03*
X161050000Y-87410000D03*
X163590000Y-87410000D03*
X166130000Y-87410000D03*
X168670000Y-87410000D03*
X171210000Y-87410000D03*
X173750000Y-87410000D03*
X176290000Y-87410000D03*
X176290000Y-79790000D03*
X173750000Y-79790000D03*
X171210000Y-79790000D03*
X168670000Y-79790000D03*
X166130000Y-79790000D03*
X163590000Y-79790000D03*
X161050000Y-79790000D03*
X158510000Y-79790000D03*
%TD*%
D49*
%TO.C,C25*%
X148465000Y-130950000D03*
X150015000Y-130950000D03*
%TD*%
D14*
%TO.C,R54*%
X137500000Y-70875000D03*
X137500000Y-72700000D03*
%TD*%
D11*
%TO.C,R13*%
X154000000Y-112425000D03*
X154000000Y-110600000D03*
%TD*%
D37*
%TO.C,R53*%
X142537500Y-90700000D03*
X144362500Y-90700000D03*
%TD*%
%TO.C,R52*%
X142537500Y-92248750D03*
X144362500Y-92248750D03*
%TD*%
D11*
%TO.C,R35*%
X150600000Y-87225000D03*
X150600000Y-85400000D03*
%TD*%
D54*
%TO.C,D9*%
X207275000Y-108435000D03*
X207275000Y-112435000D03*
%TD*%
D41*
%TO.C,Q4*%
X185060000Y-90660000D03*
D42*
X191785000Y-90425000D03*
X191785000Y-95975000D03*
X196635000Y-90425000D03*
X196635000Y-95975000D03*
D41*
X185060000Y-95740000D03*
%TD*%
D55*
%TO.C,L1*%
X191875000Y-121300000D03*
X182575000Y-121300000D03*
%TD*%
M02*
