%TF.GenerationSoftware,KiCad,Pcbnew,7.0.8-7.0.8~ubuntu22.04.1*%
%TF.CreationDate,2023-11-08T13:27:41+08:00*%
%TF.ProjectId,ECU,4543552e-6b69-4636-9164-5f7063625858,rev?*%
%TF.SameCoordinates,Original*%
%TF.FileFunction,Profile,NP*%
%FSLAX46Y46*%
G04 Gerber Fmt 4.6, Leading zero omitted, Abs format (unit mm)*
G04 Created by KiCad (PCBNEW 7.0.8-7.0.8~ubuntu22.04.1) date 2023-11-08 13:27:41*
%MOMM*%
%LPD*%
G01*
G04 APERTURE LIST*
%TA.AperFunction,Profile*%
%ADD10C,0.100000*%
%TD*%
G04 APERTURE END LIST*
D10*
X224000000Y-150000000D02*
G75*
G03*
X225000000Y-149000000I0J1000000D01*
G01*
X120000000Y-51000000D02*
G75*
G03*
X119000000Y-50000000I-1000000J0D01*
G01*
X121000000Y-145000000D02*
X214000000Y-145000000D01*
X216000000Y-50000000D02*
G75*
G03*
X215000000Y-51000000I0J-1000000D01*
G01*
X215000000Y-146000000D02*
G75*
G03*
X214000000Y-145000000I-1000000J0D01*
G01*
X225000000Y-51000000D02*
G75*
G03*
X224000000Y-50000000I-1000000J0D01*
G01*
X214000000Y-55000000D02*
X121000000Y-55000000D01*
X111000000Y-50000000D02*
G75*
G03*
X110000000Y-51000000I0J-1000000D01*
G01*
X216000000Y-150000000D02*
X224000000Y-150000000D01*
X120000000Y-51000000D02*
X120000000Y-54000000D01*
X110000000Y-51000000D02*
X110000000Y-149000000D01*
X111000000Y-50000000D02*
X119000000Y-50000000D01*
X119000000Y-150000000D02*
G75*
G03*
X120000000Y-149000000I0J1000000D01*
G01*
X224000000Y-50000000D02*
X216000000Y-50000000D01*
X111000000Y-150000000D02*
X119000000Y-150000000D01*
X121000000Y-145000000D02*
G75*
G03*
X120000000Y-146000000I0J-1000000D01*
G01*
X215000000Y-149000000D02*
G75*
G03*
X216000000Y-150000000I1000000J0D01*
G01*
X120000000Y-149000000D02*
X120000000Y-146000000D01*
X215000000Y-51000000D02*
X215000000Y-54000000D01*
X110000000Y-149000000D02*
G75*
G03*
X111000000Y-150000000I1000000J0D01*
G01*
X120000000Y-54000000D02*
G75*
G03*
X121000000Y-55000000I1000000J0D01*
G01*
X214000000Y-55000000D02*
G75*
G03*
X215000000Y-54000000I0J1000000D01*
G01*
X225000000Y-149000000D02*
X225000000Y-51000000D01*
X215000000Y-149000000D02*
X215000000Y-146000000D01*
M02*
