%TF.GenerationSoftware,KiCad,Pcbnew,7.0.8-7.0.8~ubuntu22.04.1*%
%TF.CreationDate,2023-11-09T12:37:36+08:00*%
%TF.ProjectId,ECU,4543552e-6b69-4636-9164-5f7063625858,rev?*%
%TF.SameCoordinates,Original*%
%TF.FileFunction,Soldermask,Top*%
%TF.FilePolarity,Negative*%
%FSLAX46Y46*%
G04 Gerber Fmt 4.6, Leading zero omitted, Abs format (unit mm)*
G04 Created by KiCad (PCBNEW 7.0.8-7.0.8~ubuntu22.04.1) date 2023-11-09 12:37:36*
%MOMM*%
%LPD*%
G01*
G04 APERTURE LIST*
G04 Aperture macros list*
%AMRoundRect*
0 Rectangle with rounded corners*
0 $1 Rounding radius*
0 $2 $3 $4 $5 $6 $7 $8 $9 X,Y pos of 4 corners*
0 Add a 4 corners polygon primitive as box body*
4,1,4,$2,$3,$4,$5,$6,$7,$8,$9,$2,$3,0*
0 Add four circle primitives for the rounded corners*
1,1,$1+$1,$2,$3*
1,1,$1+$1,$4,$5*
1,1,$1+$1,$6,$7*
1,1,$1+$1,$8,$9*
0 Add four rect primitives between the rounded corners*
20,1,$1+$1,$2,$3,$4,$5,0*
20,1,$1+$1,$4,$5,$6,$7,0*
20,1,$1+$1,$6,$7,$8,$9,0*
20,1,$1+$1,$8,$9,$2,$3,0*%
G04 Aperture macros list end*
%ADD10C,0.300000*%
%ADD11R,1.525000X0.650000*%
%ADD12RoundRect,0.237500X0.237500X-0.250000X0.237500X0.250000X-0.237500X0.250000X-0.237500X-0.250000X0*%
%ADD13RoundRect,0.225000X0.250000X-0.225000X0.250000X0.225000X-0.250000X0.225000X-0.250000X-0.225000X0*%
%ADD14RoundRect,0.250000X0.600000X0.725000X-0.600000X0.725000X-0.600000X-0.725000X0.600000X-0.725000X0*%
%ADD15O,1.700000X1.950000*%
%ADD16RoundRect,0.250000X-0.750000X0.600000X-0.750000X-0.600000X0.750000X-0.600000X0.750000X0.600000X0*%
%ADD17O,2.000000X1.700000*%
%ADD18RoundRect,0.225000X0.225000X0.250000X-0.225000X0.250000X-0.225000X-0.250000X0.225000X-0.250000X0*%
%ADD19RoundRect,0.237500X-0.237500X0.250000X-0.237500X-0.250000X0.237500X-0.250000X0.237500X0.250000X0*%
%ADD20R,1.100000X0.250000*%
%ADD21RoundRect,0.250000X0.650000X-0.412500X0.650000X0.412500X-0.650000X0.412500X-0.650000X-0.412500X0*%
%ADD22RoundRect,0.237500X0.250000X0.237500X-0.250000X0.237500X-0.250000X-0.237500X0.250000X-0.237500X0*%
%ADD23R,0.650000X1.050000*%
%ADD24RoundRect,0.250000X-1.000000X-0.650000X1.000000X-0.650000X1.000000X0.650000X-1.000000X0.650000X0*%
%ADD25RoundRect,0.200000X-0.200000X-0.275000X0.200000X-0.275000X0.200000X0.275000X-0.200000X0.275000X0*%
%ADD26RoundRect,0.150000X-0.150000X0.512500X-0.150000X-0.512500X0.150000X-0.512500X0.150000X0.512500X0*%
%ADD27RoundRect,0.250000X1.850000X-1.330000X1.850000X1.330000X-1.850000X1.330000X-1.850000X-1.330000X0*%
%ADD28O,4.200000X3.160000*%
%ADD29R,0.900000X1.500000*%
%ADD30R,1.500000X0.900000*%
%ADD31R,0.900000X0.900000*%
%ADD32RoundRect,0.250000X1.000000X-1.400000X1.000000X1.400000X-1.000000X1.400000X-1.000000X-1.400000X0*%
%ADD33RoundRect,0.250000X1.400000X1.000000X-1.400000X1.000000X-1.400000X-1.000000X1.400000X-1.000000X0*%
%ADD34RoundRect,0.250000X-1.000000X1.750000X-1.000000X-1.750000X1.000000X-1.750000X1.000000X1.750000X0*%
%ADD35RoundRect,0.250000X0.650000X-1.000000X0.650000X1.000000X-0.650000X1.000000X-0.650000X-1.000000X0*%
%ADD36RoundRect,0.237500X0.287500X0.237500X-0.287500X0.237500X-0.287500X-0.237500X0.287500X-0.237500X0*%
%ADD37R,1.500000X2.000000*%
%ADD38R,3.800000X2.000000*%
%ADD39R,5.500000X2.850000*%
%ADD40RoundRect,0.250000X-0.337500X-0.475000X0.337500X-0.475000X0.337500X0.475000X-0.337500X0.475000X0*%
%ADD41R,1.500000X0.600000*%
%ADD42RoundRect,0.200000X0.200000X0.275000X-0.200000X0.275000X-0.200000X-0.275000X0.200000X-0.275000X0*%
%ADD43RoundRect,0.250001X0.624999X-0.462499X0.624999X0.462499X-0.624999X0.462499X-0.624999X-0.462499X0*%
%ADD44R,1.400000X1.400000*%
%ADD45C,1.400000*%
%ADD46C,3.000000*%
%ADD47RoundRect,0.237500X-0.250000X-0.237500X0.250000X-0.237500X0.250000X0.237500X-0.250000X0.237500X0*%
%ADD48RoundRect,0.250000X0.337500X0.475000X-0.337500X0.475000X-0.337500X-0.475000X0.337500X-0.475000X0*%
%ADD49RoundRect,0.225000X-0.250000X0.225000X-0.250000X-0.225000X0.250000X-0.225000X0.250000X0.225000X0*%
%ADD50RoundRect,0.150000X0.150000X-0.512500X0.150000X0.512500X-0.150000X0.512500X-0.150000X-0.512500X0*%
%ADD51RoundRect,0.250000X-1.850000X1.330000X-1.850000X-1.330000X1.850000X-1.330000X1.850000X1.330000X0*%
%ADD52RoundRect,0.250000X-2.050000X-0.300000X2.050000X-0.300000X2.050000X0.300000X-2.050000X0.300000X0*%
%ADD53RoundRect,0.250002X-4.449998X-5.149998X4.449998X-5.149998X4.449998X5.149998X-4.449998X5.149998X0*%
%ADD54R,1.700000X1.700000*%
%ADD55O,1.700000X1.700000*%
%ADD56C,1.000000*%
%ADD57R,0.700000X1.600000*%
%ADD58R,1.200000X1.400000*%
%ADD59R,1.200000X2.200000*%
%ADD60R,1.600000X1.400000*%
%ADD61RoundRect,0.237500X0.300000X0.237500X-0.300000X0.237500X-0.300000X-0.237500X0.300000X-0.237500X0*%
%ADD62RoundRect,0.250001X-0.462499X-0.624999X0.462499X-0.624999X0.462499X0.624999X-0.462499X0.624999X0*%
%ADD63RoundRect,0.225000X-0.225000X-0.250000X0.225000X-0.250000X0.225000X0.250000X-0.225000X0.250000X0*%
%ADD64RoundRect,0.250000X-0.300000X2.050000X-0.300000X-2.050000X0.300000X-2.050000X0.300000X2.050000X0*%
%ADD65RoundRect,0.250002X-5.149998X4.449998X-5.149998X-4.449998X5.149998X-4.449998X5.149998X4.449998X0*%
%ADD66RoundRect,0.237500X-0.287500X-0.237500X0.287500X-0.237500X0.287500X0.237500X-0.287500X0.237500X0*%
%ADD67R,1.600000X1.600000*%
%ADD68RoundRect,0.250000X-0.650000X1.000000X-0.650000X-1.000000X0.650000X-1.000000X0.650000X1.000000X0*%
%ADD69R,2.200000X3.050000*%
G04 APERTURE END LIST*
D10*
X159754510Y-60385114D02*
X160254510Y-60385114D01*
X160468796Y-61170828D02*
X159754510Y-61170828D01*
X159754510Y-61170828D02*
X159754510Y-59670828D01*
X159754510Y-59670828D02*
X160468796Y-59670828D01*
X161968796Y-61027971D02*
X161897368Y-61099400D01*
X161897368Y-61099400D02*
X161683082Y-61170828D01*
X161683082Y-61170828D02*
X161540225Y-61170828D01*
X161540225Y-61170828D02*
X161325939Y-61099400D01*
X161325939Y-61099400D02*
X161183082Y-60956542D01*
X161183082Y-60956542D02*
X161111653Y-60813685D01*
X161111653Y-60813685D02*
X161040225Y-60527971D01*
X161040225Y-60527971D02*
X161040225Y-60313685D01*
X161040225Y-60313685D02*
X161111653Y-60027971D01*
X161111653Y-60027971D02*
X161183082Y-59885114D01*
X161183082Y-59885114D02*
X161325939Y-59742257D01*
X161325939Y-59742257D02*
X161540225Y-59670828D01*
X161540225Y-59670828D02*
X161683082Y-59670828D01*
X161683082Y-59670828D02*
X161897368Y-59742257D01*
X161897368Y-59742257D02*
X161968796Y-59813685D01*
X162611653Y-59670828D02*
X162611653Y-60885114D01*
X162611653Y-60885114D02*
X162683082Y-61027971D01*
X162683082Y-61027971D02*
X162754511Y-61099400D01*
X162754511Y-61099400D02*
X162897368Y-61170828D01*
X162897368Y-61170828D02*
X163183082Y-61170828D01*
X163183082Y-61170828D02*
X163325939Y-61099400D01*
X163325939Y-61099400D02*
X163397368Y-61027971D01*
X163397368Y-61027971D02*
X163468796Y-60885114D01*
X163468796Y-60885114D02*
X163468796Y-59670828D01*
X165183082Y-60170828D02*
X165540225Y-61170828D01*
X165540225Y-61170828D02*
X165897368Y-60170828D01*
X166754511Y-59670828D02*
X166897368Y-59670828D01*
X166897368Y-59670828D02*
X167040225Y-59742257D01*
X167040225Y-59742257D02*
X167111654Y-59813685D01*
X167111654Y-59813685D02*
X167183082Y-59956542D01*
X167183082Y-59956542D02*
X167254511Y-60242257D01*
X167254511Y-60242257D02*
X167254511Y-60599400D01*
X167254511Y-60599400D02*
X167183082Y-60885114D01*
X167183082Y-60885114D02*
X167111654Y-61027971D01*
X167111654Y-61027971D02*
X167040225Y-61099400D01*
X167040225Y-61099400D02*
X166897368Y-61170828D01*
X166897368Y-61170828D02*
X166754511Y-61170828D01*
X166754511Y-61170828D02*
X166611654Y-61099400D01*
X166611654Y-61099400D02*
X166540225Y-61027971D01*
X166540225Y-61027971D02*
X166468796Y-60885114D01*
X166468796Y-60885114D02*
X166397368Y-60599400D01*
X166397368Y-60599400D02*
X166397368Y-60242257D01*
X166397368Y-60242257D02*
X166468796Y-59956542D01*
X166468796Y-59956542D02*
X166540225Y-59813685D01*
X166540225Y-59813685D02*
X166611654Y-59742257D01*
X166611654Y-59742257D02*
X166754511Y-59670828D01*
X167897367Y-61027971D02*
X167968796Y-61099400D01*
X167968796Y-61099400D02*
X167897367Y-61170828D01*
X167897367Y-61170828D02*
X167825939Y-61099400D01*
X167825939Y-61099400D02*
X167897367Y-61027971D01*
X167897367Y-61027971D02*
X167897367Y-61170828D01*
X168540225Y-59813685D02*
X168611653Y-59742257D01*
X168611653Y-59742257D02*
X168754511Y-59670828D01*
X168754511Y-59670828D02*
X169111653Y-59670828D01*
X169111653Y-59670828D02*
X169254511Y-59742257D01*
X169254511Y-59742257D02*
X169325939Y-59813685D01*
X169325939Y-59813685D02*
X169397368Y-59956542D01*
X169397368Y-59956542D02*
X169397368Y-60099400D01*
X169397368Y-60099400D02*
X169325939Y-60313685D01*
X169325939Y-60313685D02*
X168468796Y-61170828D01*
X168468796Y-61170828D02*
X169397368Y-61170828D01*
X159683082Y-63157257D02*
X160397368Y-63157257D01*
X159540225Y-63585828D02*
X160040225Y-62085828D01*
X160040225Y-62085828D02*
X160540225Y-63585828D01*
X161683082Y-62585828D02*
X161683082Y-63585828D01*
X161040224Y-62585828D02*
X161040224Y-63371542D01*
X161040224Y-63371542D02*
X161111653Y-63514400D01*
X161111653Y-63514400D02*
X161254510Y-63585828D01*
X161254510Y-63585828D02*
X161468796Y-63585828D01*
X161468796Y-63585828D02*
X161611653Y-63514400D01*
X161611653Y-63514400D02*
X161683082Y-63442971D01*
X162183082Y-62585828D02*
X162754510Y-62585828D01*
X162397367Y-62085828D02*
X162397367Y-63371542D01*
X162397367Y-63371542D02*
X162468796Y-63514400D01*
X162468796Y-63514400D02*
X162611653Y-63585828D01*
X162611653Y-63585828D02*
X162754510Y-63585828D01*
X163254510Y-63585828D02*
X163254510Y-62085828D01*
X163897368Y-63585828D02*
X163897368Y-62800114D01*
X163897368Y-62800114D02*
X163825939Y-62657257D01*
X163825939Y-62657257D02*
X163683082Y-62585828D01*
X163683082Y-62585828D02*
X163468796Y-62585828D01*
X163468796Y-62585828D02*
X163325939Y-62657257D01*
X163325939Y-62657257D02*
X163254510Y-62728685D01*
X164825939Y-63585828D02*
X164683082Y-63514400D01*
X164683082Y-63514400D02*
X164611653Y-63442971D01*
X164611653Y-63442971D02*
X164540225Y-63300114D01*
X164540225Y-63300114D02*
X164540225Y-62871542D01*
X164540225Y-62871542D02*
X164611653Y-62728685D01*
X164611653Y-62728685D02*
X164683082Y-62657257D01*
X164683082Y-62657257D02*
X164825939Y-62585828D01*
X164825939Y-62585828D02*
X165040225Y-62585828D01*
X165040225Y-62585828D02*
X165183082Y-62657257D01*
X165183082Y-62657257D02*
X165254511Y-62728685D01*
X165254511Y-62728685D02*
X165325939Y-62871542D01*
X165325939Y-62871542D02*
X165325939Y-63300114D01*
X165325939Y-63300114D02*
X165254511Y-63442971D01*
X165254511Y-63442971D02*
X165183082Y-63514400D01*
X165183082Y-63514400D02*
X165040225Y-63585828D01*
X165040225Y-63585828D02*
X164825939Y-63585828D01*
X165968796Y-63585828D02*
X165968796Y-62585828D01*
X165968796Y-62871542D02*
X166040225Y-62728685D01*
X166040225Y-62728685D02*
X166111654Y-62657257D01*
X166111654Y-62657257D02*
X166254511Y-62585828D01*
X166254511Y-62585828D02*
X166397368Y-62585828D01*
X166897367Y-63442971D02*
X166968796Y-63514400D01*
X166968796Y-63514400D02*
X166897367Y-63585828D01*
X166897367Y-63585828D02*
X166825939Y-63514400D01*
X166825939Y-63514400D02*
X166897367Y-63442971D01*
X166897367Y-63442971D02*
X166897367Y-63585828D01*
X166897367Y-62657257D02*
X166968796Y-62728685D01*
X166968796Y-62728685D02*
X166897367Y-62800114D01*
X166897367Y-62800114D02*
X166825939Y-62728685D01*
X166825939Y-62728685D02*
X166897367Y-62657257D01*
X166897367Y-62657257D02*
X166897367Y-62800114D01*
X169611653Y-63442971D02*
X169540225Y-63514400D01*
X169540225Y-63514400D02*
X169325939Y-63585828D01*
X169325939Y-63585828D02*
X169183082Y-63585828D01*
X169183082Y-63585828D02*
X168968796Y-63514400D01*
X168968796Y-63514400D02*
X168825939Y-63371542D01*
X168825939Y-63371542D02*
X168754510Y-63228685D01*
X168754510Y-63228685D02*
X168683082Y-62942971D01*
X168683082Y-62942971D02*
X168683082Y-62728685D01*
X168683082Y-62728685D02*
X168754510Y-62442971D01*
X168754510Y-62442971D02*
X168825939Y-62300114D01*
X168825939Y-62300114D02*
X168968796Y-62157257D01*
X168968796Y-62157257D02*
X169183082Y-62085828D01*
X169183082Y-62085828D02*
X169325939Y-62085828D01*
X169325939Y-62085828D02*
X169540225Y-62157257D01*
X169540225Y-62157257D02*
X169611653Y-62228685D01*
X170468796Y-63585828D02*
X170325939Y-63514400D01*
X170325939Y-63514400D02*
X170254510Y-63442971D01*
X170254510Y-63442971D02*
X170183082Y-63300114D01*
X170183082Y-63300114D02*
X170183082Y-62871542D01*
X170183082Y-62871542D02*
X170254510Y-62728685D01*
X170254510Y-62728685D02*
X170325939Y-62657257D01*
X170325939Y-62657257D02*
X170468796Y-62585828D01*
X170468796Y-62585828D02*
X170683082Y-62585828D01*
X170683082Y-62585828D02*
X170825939Y-62657257D01*
X170825939Y-62657257D02*
X170897368Y-62728685D01*
X170897368Y-62728685D02*
X170968796Y-62871542D01*
X170968796Y-62871542D02*
X170968796Y-63300114D01*
X170968796Y-63300114D02*
X170897368Y-63442971D01*
X170897368Y-63442971D02*
X170825939Y-63514400D01*
X170825939Y-63514400D02*
X170683082Y-63585828D01*
X170683082Y-63585828D02*
X170468796Y-63585828D01*
X171825939Y-63585828D02*
X171683082Y-63514400D01*
X171683082Y-63514400D02*
X171611653Y-63371542D01*
X171611653Y-63371542D02*
X171611653Y-62085828D01*
X172611653Y-63585828D02*
X172468796Y-63514400D01*
X172468796Y-63514400D02*
X172397367Y-63371542D01*
X172397367Y-63371542D02*
X172397367Y-62085828D01*
X173040224Y-62585828D02*
X173397367Y-63585828D01*
X173754510Y-62585828D02*
X173397367Y-63585828D01*
X173397367Y-63585828D02*
X173254510Y-63942971D01*
X173254510Y-63942971D02*
X173183081Y-64014400D01*
X173183081Y-64014400D02*
X173040224Y-64085828D01*
X174325938Y-62585828D02*
X174325938Y-63585828D01*
X174325938Y-62728685D02*
X174397367Y-62657257D01*
X174397367Y-62657257D02*
X174540224Y-62585828D01*
X174540224Y-62585828D02*
X174754510Y-62585828D01*
X174754510Y-62585828D02*
X174897367Y-62657257D01*
X174897367Y-62657257D02*
X174968796Y-62800114D01*
X174968796Y-62800114D02*
X174968796Y-63585828D01*
D11*
%TO.C,IC1*%
X171560500Y-93595000D03*
X171560500Y-94865000D03*
X171560500Y-96135000D03*
X171560500Y-97405000D03*
X176984500Y-97405000D03*
X176984500Y-96135000D03*
X176984500Y-94865000D03*
X176984500Y-93595000D03*
%TD*%
D12*
%TO.C,R11*%
X180985000Y-105935000D03*
X180985000Y-104110000D03*
%TD*%
D13*
%TO.C,C29*%
X152900000Y-83762500D03*
X152900000Y-82212500D03*
%TD*%
D12*
%TO.C,R4*%
X145300000Y-137925000D03*
X145300000Y-136100000D03*
%TD*%
D14*
%TO.C,J1*%
X154600000Y-72700000D03*
D15*
X152100000Y-72700000D03*
X149600000Y-72700000D03*
X147100000Y-72700000D03*
X144600000Y-72700000D03*
X142100000Y-72700000D03*
%TD*%
D16*
%TO.C,J8*%
X146000000Y-96100000D03*
D17*
X146000000Y-98600000D03*
%TD*%
D18*
%TO.C,C26*%
X147550000Y-92248750D03*
X146000000Y-92248750D03*
%TD*%
D13*
%TO.C,C24*%
X154640000Y-134150000D03*
X154640000Y-132600000D03*
%TD*%
D12*
%TO.C,R41*%
X147675000Y-115137500D03*
X147675000Y-113312500D03*
%TD*%
%TO.C,R9*%
X154000000Y-98025000D03*
X154000000Y-96200000D03*
%TD*%
D19*
%TO.C,R33*%
X143800000Y-78900000D03*
X143800000Y-80725000D03*
%TD*%
D20*
%TO.C,U5*%
X151690000Y-134600000D03*
X151690000Y-134100000D03*
X151690000Y-133600000D03*
X151690000Y-133100000D03*
X151690000Y-132600000D03*
X147390000Y-132600000D03*
X147390000Y-133100000D03*
X147390000Y-133600000D03*
X147390000Y-134100000D03*
X147390000Y-134600000D03*
%TD*%
D14*
%TO.C,J7*%
X174600000Y-72700000D03*
D15*
X172100000Y-72700000D03*
X169600000Y-72700000D03*
X167100000Y-72700000D03*
%TD*%
D21*
%TO.C,C20*%
X203775000Y-108435000D03*
X203775000Y-105310000D03*
%TD*%
D22*
%TO.C,R50*%
X153352500Y-130950000D03*
X151527500Y-130950000D03*
%TD*%
D21*
%TO.C,C17*%
X200875000Y-108435000D03*
X200875000Y-105310000D03*
%TD*%
D12*
%TO.C,R32*%
X149100000Y-87225000D03*
X149100000Y-85400000D03*
%TD*%
%TO.C,R40*%
X143900000Y-113862500D03*
X143900000Y-112037500D03*
%TD*%
D23*
%TO.C,SW2*%
X135695000Y-83450000D03*
X135695000Y-79300000D03*
X137845000Y-83450000D03*
X137845000Y-79300000D03*
%TD*%
D24*
%TO.C,D10*%
X157700000Y-143200000D03*
X161700000Y-143200000D03*
%TD*%
D19*
%TO.C,R34*%
X152900000Y-78900000D03*
X152900000Y-80725000D03*
%TD*%
%TO.C,R26*%
X146100000Y-85400000D03*
X146100000Y-87225000D03*
%TD*%
D25*
%TO.C,R16*%
X126725000Y-127800000D03*
X128375000Y-127800000D03*
%TD*%
D26*
%TO.C,U7*%
X123530000Y-96402500D03*
X122580000Y-96402500D03*
X121630000Y-96402500D03*
X121630000Y-98677500D03*
X122580000Y-98677500D03*
X123530000Y-98677500D03*
%TD*%
D27*
%TO.C,J5*%
X165380000Y-124210000D03*
D28*
X165380000Y-120250000D03*
%TD*%
D29*
%TO.C,IC4*%
X138460000Y-102300000D03*
X137190000Y-102300000D03*
X135920000Y-102300000D03*
X134650000Y-102300000D03*
X133380000Y-102300000D03*
X132110000Y-102300000D03*
X130840000Y-102300000D03*
X129570000Y-102300000D03*
X128300000Y-102300000D03*
X127030000Y-102300000D03*
X125760000Y-102300000D03*
X124490000Y-102300000D03*
X123220000Y-102300000D03*
X121950000Y-102300000D03*
D30*
X120700000Y-104065000D03*
X120700000Y-105335000D03*
X120700000Y-106605000D03*
X120700000Y-107875000D03*
X120700000Y-109145000D03*
X120700000Y-110415000D03*
X120700000Y-111685000D03*
X120700000Y-112955000D03*
X120700000Y-114225000D03*
X120700000Y-115495000D03*
X120700000Y-116765000D03*
X120700000Y-118035000D03*
D29*
X121950000Y-119800000D03*
X123220000Y-119800000D03*
X124490000Y-119800000D03*
X125760000Y-119800000D03*
X127030000Y-119800000D03*
X128300000Y-119800000D03*
X129570000Y-119800000D03*
X130840000Y-119800000D03*
X132110000Y-119800000D03*
X133380000Y-119800000D03*
X134650000Y-119800000D03*
X135920000Y-119800000D03*
X137190000Y-119800000D03*
X138460000Y-119800000D03*
D31*
X130740000Y-109550000D03*
X132140000Y-108150000D03*
X130740000Y-108150000D03*
X129340000Y-108150000D03*
X129340000Y-109550000D03*
X129340000Y-110950000D03*
X130740000Y-110950000D03*
X132140000Y-110950000D03*
X132140000Y-109550000D03*
%TD*%
D22*
%TO.C,R42*%
X153515000Y-136350000D03*
X151690000Y-136350000D03*
%TD*%
D12*
%TO.C,R5*%
X143800000Y-137012500D03*
X143800000Y-135187500D03*
%TD*%
D22*
%TO.C,R24*%
X145652500Y-132050000D03*
X143827500Y-132050000D03*
%TD*%
D23*
%TO.C,SW1*%
X137845000Y-89875000D03*
X137845000Y-94025000D03*
X135695000Y-89875000D03*
X135695000Y-94025000D03*
%TD*%
D12*
%TO.C,R12*%
X154000000Y-105225000D03*
X154000000Y-103400000D03*
%TD*%
D32*
%TO.C,D3*%
X197875000Y-124200000D03*
X204675000Y-124200000D03*
%TD*%
D33*
%TO.C,D6*%
X203200000Y-100000000D03*
X203200000Y-93200000D03*
%TD*%
D12*
%TO.C,R23*%
X180985000Y-78920000D03*
X180985000Y-77095000D03*
%TD*%
D34*
%TO.C,C9*%
X182575000Y-130625000D03*
X182575000Y-138625000D03*
%TD*%
D35*
%TO.C,D7*%
X114740000Y-126260000D03*
X114740000Y-122260000D03*
%TD*%
D36*
%TO.C,D5*%
X144890000Y-118400000D03*
X143140000Y-118400000D03*
%TD*%
D22*
%TO.C,R51*%
X145652500Y-133650000D03*
X143827500Y-133650000D03*
%TD*%
D37*
%TO.C,U2*%
X115700000Y-136200000D03*
X118000000Y-136200000D03*
D38*
X118000000Y-129900000D03*
D37*
X120300000Y-136200000D03*
%TD*%
D39*
%TO.C,R45*%
X165380000Y-137700000D03*
X165380000Y-129500000D03*
%TD*%
D18*
%TO.C,C4*%
X139075000Y-97985000D03*
X137525000Y-97985000D03*
%TD*%
D19*
%TO.C,R44*%
X151450000Y-117137500D03*
X151450000Y-118962500D03*
%TD*%
D40*
%TO.C,C1*%
X118000000Y-125200000D03*
X120075000Y-125200000D03*
%TD*%
D22*
%TO.C,R31*%
X148487500Y-118400000D03*
X146662500Y-118400000D03*
%TD*%
D41*
%TO.C,IC2*%
X157850000Y-100860000D03*
X157850000Y-103400000D03*
X164200000Y-103400000D03*
X164200000Y-100860000D03*
%TD*%
D42*
%TO.C,R20*%
X137175000Y-126140000D03*
X135525000Y-126140000D03*
%TD*%
D33*
%TO.C,D8*%
X203175000Y-84725000D03*
X203175000Y-77925000D03*
%TD*%
D43*
%TO.C,D4*%
X154500000Y-143187500D03*
X154500000Y-140212500D03*
%TD*%
D20*
%TO.C,U4*%
X150500000Y-83712500D03*
X150500000Y-83212500D03*
X150500000Y-82712500D03*
X150500000Y-82212500D03*
X150500000Y-81712500D03*
X146200000Y-81712500D03*
X146200000Y-82212500D03*
X146200000Y-82712500D03*
X146200000Y-83212500D03*
X146200000Y-83712500D03*
%TD*%
D14*
%TO.C,J3*%
X129600000Y-72700000D03*
D15*
X127100000Y-72700000D03*
X124600000Y-72700000D03*
X122100000Y-72700000D03*
X119600000Y-72700000D03*
X117100000Y-72700000D03*
%TD*%
D41*
%TO.C,IC3*%
X157850000Y-108060000D03*
X157850000Y-110600000D03*
X164200000Y-110600000D03*
X164200000Y-108060000D03*
%TD*%
D44*
%TO.C,J4*%
X128410000Y-87900000D03*
D45*
X128410000Y-85400000D03*
X125210000Y-85400000D03*
X125210000Y-87900000D03*
D46*
X125700000Y-80630000D03*
X125700000Y-92670000D03*
%TD*%
D12*
%TO.C,R39*%
X156340000Y-134425000D03*
X156340000Y-132600000D03*
%TD*%
D47*
%TO.C,R28*%
X136020000Y-85050000D03*
X137845000Y-85050000D03*
%TD*%
D22*
%TO.C,R27*%
X135920000Y-95900000D03*
X134095000Y-95900000D03*
%TD*%
D48*
%TO.C,C7*%
X119037500Y-139062500D03*
X116962500Y-139062500D03*
%TD*%
D49*
%TO.C,C12*%
X134095000Y-79300000D03*
X134095000Y-80850000D03*
%TD*%
D50*
%TO.C,U6*%
X158540000Y-134737500D03*
X159490000Y-134737500D03*
X160440000Y-134737500D03*
X160440000Y-132462500D03*
X158540000Y-132462500D03*
%TD*%
D51*
%TO.C,J6*%
X213800000Y-83300000D03*
D28*
X213800000Y-87260000D03*
X213800000Y-91220000D03*
X213800000Y-95180000D03*
X213800000Y-99140000D03*
X213800000Y-103100000D03*
%TD*%
D52*
%TO.C,Q1*%
X185035000Y-75385000D03*
D53*
X194185000Y-77925000D03*
D52*
X185035000Y-80465000D03*
%TD*%
D54*
%TO.C,JP1*%
X117000000Y-118010000D03*
D55*
X117000000Y-115470000D03*
%TD*%
D49*
%TO.C,C11*%
X134095000Y-92475000D03*
X134095000Y-94025000D03*
%TD*%
D40*
%TO.C,C6*%
X118000000Y-127300000D03*
X120075000Y-127300000D03*
%TD*%
D25*
%TO.C,R21*%
X126375000Y-122700000D03*
X128025000Y-122700000D03*
%TD*%
D47*
%TO.C,R43*%
X148227500Y-136350000D03*
X150052500Y-136350000D03*
%TD*%
D19*
%TO.C,R25*%
X147600000Y-85400000D03*
X147600000Y-87225000D03*
%TD*%
D56*
%TO.C,J2*%
X128070000Y-140850000D03*
X136050000Y-140850000D03*
D57*
X135250000Y-130350000D03*
X134150000Y-130350000D03*
X133050000Y-130350000D03*
X131950000Y-130350000D03*
X130850000Y-130350000D03*
X129750000Y-130350000D03*
X128650000Y-130350000D03*
X127550000Y-130350000D03*
X126450000Y-130350000D03*
D58*
X125250000Y-130850000D03*
D59*
X140750000Y-140450000D03*
X125250000Y-140450000D03*
D60*
X139850000Y-130850000D03*
%TD*%
D48*
%TO.C,C2*%
X119037500Y-141162500D03*
X116962500Y-141162500D03*
%TD*%
D61*
%TO.C,C16*%
X131702500Y-127800000D03*
X129977500Y-127800000D03*
%TD*%
D19*
%TO.C,R37*%
X147600000Y-77725000D03*
X147600000Y-79550000D03*
%TD*%
D42*
%TO.C,R18*%
X134205000Y-123200000D03*
X132555000Y-123200000D03*
%TD*%
D34*
%TO.C,C8*%
X209775000Y-130625000D03*
X209775000Y-138625000D03*
%TD*%
D12*
%TO.C,R15*%
X181010000Y-90660000D03*
X181010000Y-88835000D03*
%TD*%
D47*
%TO.C,R47*%
X151527500Y-129450000D03*
X153352500Y-129450000D03*
%TD*%
D22*
%TO.C,R2*%
X149312500Y-141700000D03*
X147487500Y-141700000D03*
%TD*%
D62*
%TO.C,D2*%
X119062500Y-122900000D03*
X122037500Y-122900000D03*
%TD*%
D19*
%TO.C,R14*%
X181010000Y-92375000D03*
X181010000Y-94200000D03*
%TD*%
D48*
%TO.C,C19*%
X173510000Y-100400000D03*
X171435000Y-100400000D03*
%TD*%
%TO.C,C18*%
X173510000Y-102500000D03*
X171435000Y-102500000D03*
%TD*%
D52*
%TO.C,Q3*%
X185035000Y-105935000D03*
D53*
X194185000Y-108475000D03*
D52*
X185035000Y-111015000D03*
%TD*%
D19*
%TO.C,R36*%
X149100000Y-77725000D03*
X149100000Y-79550000D03*
%TD*%
D13*
%TO.C,C14*%
X143800000Y-83762500D03*
X143800000Y-82212500D03*
%TD*%
D63*
%TO.C,C5*%
X134370000Y-99600000D03*
X135920000Y-99600000D03*
%TD*%
D19*
%TO.C,R1*%
X169372500Y-93040000D03*
X169372500Y-94865000D03*
%TD*%
D12*
%TO.C,R3*%
X169372500Y-99230000D03*
X169372500Y-97405000D03*
%TD*%
D19*
%TO.C,R10*%
X180985000Y-107592500D03*
X180985000Y-109417500D03*
%TD*%
D49*
%TO.C,C27*%
X146100000Y-78637500D03*
X146100000Y-80187500D03*
%TD*%
D22*
%TO.C,R6*%
X135912500Y-97800000D03*
X134087500Y-97800000D03*
%TD*%
D41*
%TO.C,IC5*%
X157850000Y-93660000D03*
X157850000Y-96200000D03*
X164200000Y-96200000D03*
X164200000Y-93660000D03*
%TD*%
D64*
%TO.C,U1*%
X199575000Y-130625000D03*
X197875000Y-130625000D03*
X196175000Y-130625000D03*
D65*
X196175000Y-139775000D03*
D64*
X194475000Y-130625000D03*
X192775000Y-130625000D03*
%TD*%
D18*
%TO.C,C3*%
X139075000Y-99600000D03*
X137525000Y-99600000D03*
%TD*%
D49*
%TO.C,C10*%
X158530000Y-129235000D03*
X158530000Y-130785000D03*
%TD*%
D12*
%TO.C,R30*%
X134095000Y-85050000D03*
X134095000Y-83225000D03*
%TD*%
D25*
%TO.C,R17*%
X128745000Y-124910000D03*
X130395000Y-124910000D03*
%TD*%
D49*
%TO.C,C28*%
X150600000Y-78637500D03*
X150600000Y-80187500D03*
%TD*%
D12*
%TO.C,R38*%
X180985000Y-75385000D03*
X180985000Y-73560000D03*
%TD*%
D42*
%TO.C,R19*%
X136075000Y-127800000D03*
X134425000Y-127800000D03*
%TD*%
D66*
%TO.C,D1*%
X144100000Y-141700000D03*
X145850000Y-141700000D03*
%TD*%
D67*
%TO.C,U3*%
X158510000Y-87410000D03*
X161050000Y-87410000D03*
X163590000Y-87410000D03*
X166130000Y-87410000D03*
X168670000Y-87410000D03*
X171210000Y-87410000D03*
X173750000Y-87410000D03*
X176290000Y-87410000D03*
X176290000Y-79790000D03*
X173750000Y-79790000D03*
X171210000Y-79790000D03*
X168670000Y-79790000D03*
X166130000Y-79790000D03*
X163590000Y-79790000D03*
X161050000Y-79790000D03*
X158510000Y-79790000D03*
%TD*%
D63*
%TO.C,C25*%
X148465000Y-130950000D03*
X150015000Y-130950000D03*
%TD*%
D19*
%TO.C,R54*%
X137500000Y-70875000D03*
X137500000Y-72700000D03*
%TD*%
D12*
%TO.C,R13*%
X154000000Y-112425000D03*
X154000000Y-110600000D03*
%TD*%
D47*
%TO.C,R53*%
X142537500Y-90700000D03*
X144362500Y-90700000D03*
%TD*%
%TO.C,R52*%
X142537500Y-92248750D03*
X144362500Y-92248750D03*
%TD*%
D12*
%TO.C,R35*%
X150600000Y-87225000D03*
X150600000Y-85400000D03*
%TD*%
D68*
%TO.C,D9*%
X207275000Y-108435000D03*
X207275000Y-112435000D03*
%TD*%
D52*
%TO.C,Q4*%
X185060000Y-90660000D03*
D53*
X194210000Y-93200000D03*
D52*
X185060000Y-95740000D03*
%TD*%
D69*
%TO.C,L1*%
X191875000Y-121300000D03*
X182575000Y-121300000D03*
%TD*%
G36*
X111943039Y-50019685D02*
G01*
X111988794Y-50072489D01*
X112000000Y-50124000D01*
X112000000Y-149876000D01*
X111980315Y-149943039D01*
X111927511Y-149988794D01*
X111876000Y-150000000D01*
X111003049Y-150000000D01*
X110996968Y-149999701D01*
X110817065Y-149981982D01*
X110793224Y-149977240D01*
X110629001Y-149927424D01*
X110606543Y-149918121D01*
X110455201Y-149837227D01*
X110434989Y-149823722D01*
X110302333Y-149714854D01*
X110285145Y-149697666D01*
X110176277Y-149565010D01*
X110162772Y-149544798D01*
X110081878Y-149393456D01*
X110072575Y-149370998D01*
X110022759Y-149206775D01*
X110018017Y-149182934D01*
X110000299Y-149003032D01*
X110000000Y-148996951D01*
X110000000Y-51003048D01*
X110000299Y-50996967D01*
X110018017Y-50817065D01*
X110022759Y-50793224D01*
X110072575Y-50629001D01*
X110081878Y-50606543D01*
X110162772Y-50455201D01*
X110176277Y-50434989D01*
X110285145Y-50302333D01*
X110302333Y-50285145D01*
X110434989Y-50176277D01*
X110455201Y-50162772D01*
X110606543Y-50081878D01*
X110629001Y-50072575D01*
X110793224Y-50022759D01*
X110817065Y-50018017D01*
X110996969Y-50000299D01*
X111003049Y-50000000D01*
X111876000Y-50000000D01*
X111943039Y-50019685D01*
G37*
G36*
X224003032Y-50000299D02*
G01*
X224182934Y-50018017D01*
X224206775Y-50022759D01*
X224370998Y-50072575D01*
X224393456Y-50081878D01*
X224544798Y-50162772D01*
X224565010Y-50176277D01*
X224697666Y-50285145D01*
X224714854Y-50302333D01*
X224823722Y-50434989D01*
X224837227Y-50455201D01*
X224918121Y-50606543D01*
X224927424Y-50629001D01*
X224977240Y-50793224D01*
X224981982Y-50817065D01*
X224999701Y-50996967D01*
X225000000Y-51003048D01*
X225000000Y-148996951D01*
X224999701Y-149003032D01*
X224981982Y-149182934D01*
X224977240Y-149206775D01*
X224927424Y-149370998D01*
X224918121Y-149393456D01*
X224837227Y-149544798D01*
X224823722Y-149565010D01*
X224714854Y-149697666D01*
X224697666Y-149714854D01*
X224565010Y-149823722D01*
X224544798Y-149837227D01*
X224393456Y-149918121D01*
X224370998Y-149927424D01*
X224206775Y-149977240D01*
X224182934Y-149981982D01*
X224003032Y-149999701D01*
X223996951Y-150000000D01*
X223124000Y-150000000D01*
X223056961Y-149980315D01*
X223011206Y-149927511D01*
X223000000Y-149876000D01*
X223000000Y-50124000D01*
X223019685Y-50056961D01*
X223072489Y-50011206D01*
X223124000Y-50000000D01*
X223996951Y-50000000D01*
X224003032Y-50000299D01*
G37*
M02*
