M48
; DRILL file {KiCad 7.0.6-7.0.6~ubuntu22.04.1} date Sel 05 Sep 2023 04:39:37 
; FORMAT={-:-/ absolute / inch / decimal}
; #@! TF.CreationDate,2023-09-05T16:39:37+08:00
; #@! TF.GenerationSoftware,Kicad,Pcbnew,7.0.6-7.0.6~ubuntu22.04.1
; #@! TF.FileFunction,Plated,1,2,PTH
FMAT,2
INCH
; #@! TA.AperFunction,Plated,PTH,ViaDrill
T1C0.0118
; #@! TA.AperFunction,Plated,PTH,ComponentDrill
T2C0.0197
; #@! TA.AperFunction,Plated,PTH,ComponentDrill
T3C0.1260
%
G90
G05
T1
X5.4232Y-1.935
X5.5276Y-2.3071
X5.5315Y-2.1614
X5.5748Y-2.0374
X5.5768Y-2.3071
X5.6142Y-2.1457
X5.6181Y-2.0728
X5.6496Y-2.0315
X5.7461Y-2.6713
X5.7559Y-2.1457
X5.8268Y-2.6713
X5.8307Y-2.6043
X5.8386Y-2.0325
X5.8504Y-2.5285
X5.8524Y-2.3701
X5.8622Y-2.0945
X5.8819Y-2.3937
X5.9016Y-2.2047
X5.9035Y-2.4213
X5.9055Y-2.1299
X5.9055Y-2.6713
X5.9094Y-2.5846
X5.9193Y-2.1713
X5.9291Y-2.4331
X5.9331Y-2.2047
X5.9469Y-2.1063
X5.9528Y-2.5295
X5.9547Y-2.311
X5.9587Y-2.4331
X5.9685Y-2.0236
X5.9843Y-2.4213
X5.9843Y-2.6713
X6.0039Y-2.5984
X6.0217Y-2.0256
X6.0226Y-2.4813
X6.0472Y-1.9331
X6.0571Y-2.6713
X6.0984Y-1.9331
X6.1654Y-2.315
X6.1654Y-2.3386
X6.1654Y-2.3622
X6.1654Y-2.3858
X6.1654Y-2.4094
X6.189Y-2.315
X6.189Y-2.3386
X6.189Y-2.3622
X6.189Y-2.3858
X6.189Y-2.4094
X6.2126Y-2.315
X6.2126Y-2.3386
X6.2126Y-2.3622
X6.2126Y-2.3858
X6.2126Y-2.4094
X6.2362Y-2.315
X6.2362Y-2.3386
X6.2362Y-2.3622
X6.2362Y-2.3858
X6.2362Y-2.4094
X6.2598Y-2.315
X6.2598Y-2.3386
X6.2598Y-2.3622
X6.2598Y-2.3858
X6.2598Y-2.4094
X6.2835Y-2.315
X6.2835Y-2.3386
X6.2835Y-2.3622
X6.2835Y-2.3858
X6.2835Y-2.4094
X6.3071Y-2.315
X6.3071Y-2.3386
X6.3071Y-2.3622
X6.3071Y-2.3858
X6.3071Y-2.4094
X6.3307Y-2.315
X6.3307Y-2.3386
X6.3307Y-2.3622
X6.3307Y-2.3858
X6.3307Y-2.4094
X6.3543Y-2.315
X6.3543Y-2.3386
X6.3543Y-2.3622
X6.3543Y-2.3858
X6.3543Y-2.4094
X6.378Y-2.315
X6.378Y-2.3386
X6.378Y-2.3622
X6.378Y-2.3858
X6.378Y-2.4094
X6.3858Y-1.937
T2
X5.1614Y-2.3622
X5.1891Y-2.2954
X5.1891Y-2.429
X5.2559Y-2.2677
X5.2559Y-2.4567
X5.3227Y-2.2954
X5.3227Y-2.429
X5.3504Y-2.3622
X6.4606Y-2.3622
X6.4883Y-2.2954
X6.4883Y-2.429
X6.5551Y-2.2677
X6.5551Y-2.4567
X6.6219Y-2.2954
X6.6219Y-2.429
X6.6496Y-2.3622
T3
X5.2559Y-2.3622
X6.5551Y-2.3622
T0
M30
