%TF.GenerationSoftware,KiCad,Pcbnew,7.0.6-7.0.6~ubuntu22.04.1*%
%TF.CreationDate,2023-09-05T16:39:34+08:00*%
%TF.ProjectId,CAM_Module,43414d5f-4d6f-4647-956c-652e6b696361,rev?*%
%TF.SameCoordinates,Original*%
%TF.FileFunction,Copper,L2,Bot*%
%TF.FilePolarity,Positive*%
%FSLAX46Y46*%
G04 Gerber Fmt 4.6, Leading zero omitted, Abs format (unit mm)*
G04 Created by KiCad (PCBNEW 7.0.6-7.0.6~ubuntu22.04.1) date 2023-09-05 16:39:34*
%MOMM*%
%LPD*%
G01*
G04 APERTURE LIST*
G04 Aperture macros list*
%AMRoundRect*
0 Rectangle with rounded corners*
0 $1 Rounding radius*
0 $2 $3 $4 $5 $6 $7 $8 $9 X,Y pos of 4 corners*
0 Add a 4 corners polygon primitive as box body*
4,1,4,$2,$3,$4,$5,$6,$7,$8,$9,$2,$3,0*
0 Add four circle primitives for the rounded corners*
1,1,$1+$1,$2,$3*
1,1,$1+$1,$4,$5*
1,1,$1+$1,$6,$7*
1,1,$1+$1,$8,$9*
0 Add four rect primitives between the rounded corners*
20,1,$1+$1,$2,$3,$4,$5,0*
20,1,$1+$1,$4,$5,$6,$7,0*
20,1,$1+$1,$6,$7,$8,$9,0*
20,1,$1+$1,$8,$9,$2,$3,0*%
G04 Aperture macros list end*
%TA.AperFunction,ComponentPad*%
%ADD10C,0.800000*%
%TD*%
%TA.AperFunction,ComponentPad*%
%ADD11C,6.400000*%
%TD*%
%TA.AperFunction,SMDPad,CuDef*%
%ADD12RoundRect,0.100000X0.100000X-0.637500X0.100000X0.637500X-0.100000X0.637500X-0.100000X-0.637500X0*%
%TD*%
%TA.AperFunction,ViaPad*%
%ADD13C,0.500000*%
%TD*%
%TA.AperFunction,Conductor*%
%ADD14C,0.250000*%
%TD*%
G04 APERTURE END LIST*
D10*
%TO.P,REF\u002A\u002A,1*%
%TO.N,N/C*%
X164100000Y-60000000D03*
X164802944Y-58302944D03*
X164802944Y-61697056D03*
X166500000Y-57600000D03*
D11*
%TO.N,GND*%
X166500000Y-60000000D03*
D10*
%TO.N,N/C*%
X166500000Y-62400000D03*
X168197056Y-58302944D03*
X168197056Y-61697056D03*
X168900000Y-60000000D03*
%TD*%
%TO.P,REF\u002A\u002A,1*%
%TO.N,N/C*%
X131100000Y-60000000D03*
X131802944Y-58302944D03*
X131802944Y-61697056D03*
X133500000Y-57600000D03*
D11*
%TO.N,GND*%
X133500000Y-60000000D03*
D10*
%TO.N,N/C*%
X133500000Y-62400000D03*
X135197056Y-58302944D03*
X135197056Y-61697056D03*
X135900000Y-60000000D03*
%TD*%
D12*
%TO.P,U1,14,I/PWM*%
%TO.N,unconnected-(U1-I{slash}PWM-Pad14)*%
X151950000Y-57137500D03*
%TO.P,U1,13,GND*%
%TO.N,GND*%
X151300000Y-57137500D03*
%TO.P,U1,12,VDD3V3*%
%TO.N,Net-(U1-VDD3V3)*%
X150650000Y-57137500D03*
%TO.P,U1,11,VDD*%
%TO.N,Net-(D3-K)*%
X150000000Y-57137500D03*
%TO.P,U1,10,U*%
%TO.N,unconnected-(U1-U-Pad10)*%
X149350000Y-57137500D03*
%TO.P,U1,9,V*%
%TO.N,unconnected-(U1-V-Pad9)*%
X148700000Y-57137500D03*
%TO.P,U1,8,W/PWM*%
%TO.N,unconnected-(U1-W{slash}PWM-Pad8)*%
X148050000Y-57137500D03*
%TO.P,U1,7,A*%
%TO.N,unconnected-(U1-A-Pad7)*%
X148050000Y-62862500D03*
%TO.P,U1,6,B*%
%TO.N,unconnected-(U1-B-Pad6)*%
X148700000Y-62862500D03*
%TO.P,U1,5,TST*%
%TO.N,Net-(JP1-B)*%
X149350000Y-62862500D03*
%TO.P,U1,4,MOSI*%
%TO.N,/MOSI*%
X150000000Y-62862500D03*
%TO.P,U1,3,MISO*%
%TO.N,/MISO*%
X150650000Y-62862500D03*
%TO.P,U1,2,CLK*%
%TO.N,/CLK*%
X151300000Y-62862500D03*
%TO.P,U1,1,~{CS}*%
%TO.N,/CS*%
X151950000Y-62862500D03*
%TD*%
D13*
%TO.N,GND*%
X142600000Y-54500000D03*
X142700000Y-52650000D03*
X162000000Y-61200000D03*
X161400000Y-61200000D03*
X160800000Y-61200000D03*
X160200000Y-61200000D03*
X159600000Y-61200000D03*
X159000000Y-61200000D03*
X158400000Y-61200000D03*
X157800000Y-61200000D03*
X157200000Y-61200000D03*
X156600000Y-61200000D03*
X162000000Y-60600000D03*
X161400000Y-60600000D03*
X160800000Y-60600000D03*
X160200000Y-60600000D03*
X159600000Y-60600000D03*
X159000000Y-60600000D03*
X158400000Y-60600000D03*
X157800000Y-60600000D03*
X157200000Y-60600000D03*
X156600000Y-60600000D03*
X162000000Y-60000000D03*
X161400000Y-60000000D03*
X160800000Y-60000000D03*
X160200000Y-60000000D03*
X159600000Y-60000000D03*
X159000000Y-60000000D03*
X158400000Y-60000000D03*
X157800000Y-60000000D03*
X157200000Y-60000000D03*
X156600000Y-60000000D03*
X162000000Y-59400000D03*
X161400000Y-59400000D03*
X160800000Y-59400000D03*
X160200000Y-59400000D03*
X159600000Y-59400000D03*
X159000000Y-59400000D03*
X158400000Y-59400000D03*
X157800000Y-59400000D03*
X157200000Y-59400000D03*
X156600000Y-59400000D03*
X162000000Y-58800000D03*
X161400000Y-58800000D03*
X160800000Y-58800000D03*
X160200000Y-58800000D03*
X159600000Y-58800000D03*
X159000000Y-58800000D03*
X158400000Y-58800000D03*
X157800000Y-58800000D03*
X157200000Y-58800000D03*
X156600000Y-58800000D03*
X148300000Y-51625500D03*
X150000000Y-54100000D03*
X151050000Y-53500000D03*
X150350000Y-55150000D03*
X151250000Y-58700000D03*
X146200000Y-54500000D03*
X149400000Y-60800000D03*
X148100000Y-66150000D03*
X152500000Y-66000000D03*
X145950000Y-67850000D03*
X153850000Y-67850000D03*
X152000000Y-67850000D03*
X150000000Y-67850000D03*
X148000000Y-67850000D03*
X150100000Y-65650000D03*
X137750000Y-49150000D03*
X162200000Y-49200000D03*
X151600000Y-51400000D03*
X148900000Y-53200000D03*
X143500000Y-51600000D03*
X141600000Y-51750000D03*
X140500000Y-54900000D03*
X141650000Y-58600000D03*
X140400000Y-58600000D03*
X152950000Y-51450000D03*
X154900000Y-49100000D03*
X153600000Y-49100000D03*
%TO.N,Net-(D3-K)*%
X149900000Y-56000000D03*
%TO.N,GND*%
X148600000Y-64225000D03*
X151200000Y-64250000D03*
X152975000Y-63025000D03*
%TO.N,Net-(U1-VDD3V3)*%
X150700000Y-56000000D03*
%TO.N,Net-(JP1-B)*%
X148650000Y-60200000D03*
%TO.N,/MOSI*%
X149950000Y-61500000D03*
%TO.N,/MISO*%
X150600000Y-61800000D03*
%TO.N,/CLK*%
X151350000Y-61800000D03*
%TO.N,/CS*%
X152000000Y-61500000D03*
%TD*%
D14*
%TO.N,Net-(D3-K)*%
X150000000Y-57137500D02*
X150000000Y-56100000D01*
X150000000Y-56100000D02*
X149900000Y-56000000D01*
%TO.N,Net-(U1-VDD3V3)*%
X150650000Y-57137500D02*
X150650000Y-56050000D01*
X150650000Y-56050000D02*
X150700000Y-56000000D01*
%TO.N,Net-(JP1-B)*%
X149350000Y-61950000D02*
X149350000Y-62862500D01*
X148650000Y-60200000D02*
X148650000Y-61250000D01*
X148650000Y-61250000D02*
X149350000Y-61950000D01*
%TO.N,/MOSI*%
X150000000Y-61550000D02*
X149950000Y-61500000D01*
X150000000Y-62862500D02*
X150000000Y-61550000D01*
%TO.N,/MISO*%
X150650000Y-62862500D02*
X150650000Y-61850000D01*
X150650000Y-61850000D02*
X150600000Y-61800000D01*
%TO.N,/CLK*%
X151300000Y-62862500D02*
X151300000Y-61850000D01*
X151300000Y-61850000D02*
X151350000Y-61800000D01*
%TO.N,/CS*%
X151950000Y-62862500D02*
X151950000Y-61550000D01*
X151950000Y-61550000D02*
X152000000Y-61500000D01*
%TD*%
%TA.AperFunction,Conductor*%
%TO.N,GND*%
G36*
X150807403Y-40018620D02*
G01*
X150986950Y-40026684D01*
X151703049Y-40074964D01*
X151882089Y-40091079D01*
X152595233Y-40171431D01*
X152595242Y-40171432D01*
X152773386Y-40195562D01*
X153407526Y-40296000D01*
X153482220Y-40307831D01*
X153517222Y-40314182D01*
X153659148Y-40339938D01*
X154362220Y-40483893D01*
X154537454Y-40523888D01*
X155233422Y-40699257D01*
X155406692Y-40747076D01*
X156028725Y-40933863D01*
X156094060Y-40953483D01*
X156265050Y-41009040D01*
X156942462Y-41246077D01*
X157110745Y-41309234D01*
X157776847Y-41576427D01*
X157942173Y-41647091D01*
X158390183Y-41850586D01*
X158595557Y-41943872D01*
X158595582Y-41943883D01*
X158757585Y-42021900D01*
X159397029Y-42347713D01*
X159501011Y-42403669D01*
X159555335Y-42432902D01*
X160179494Y-42787061D01*
X160333884Y-42879304D01*
X160941487Y-43261087D01*
X160941518Y-43261106D01*
X161091573Y-43360156D01*
X161681539Y-43768886D01*
X161826916Y-43874509D01*
X162397975Y-44309314D01*
X162538522Y-44421398D01*
X163089405Y-44881308D01*
X163224827Y-44999623D01*
X163754538Y-45483800D01*
X163884489Y-45608046D01*
X164391953Y-46115510D01*
X164516199Y-46245461D01*
X165000376Y-46775172D01*
X165118691Y-46910594D01*
X165578615Y-47461493D01*
X165690701Y-47602045D01*
X166125486Y-48173077D01*
X166231122Y-48318473D01*
X166639840Y-48908422D01*
X166738893Y-49058481D01*
X167120694Y-49666114D01*
X167212931Y-49820492D01*
X167567097Y-50444664D01*
X167652290Y-50602977D01*
X167978099Y-51242414D01*
X168056116Y-51404417D01*
X168352908Y-52057826D01*
X168423572Y-52223152D01*
X168690758Y-52889237D01*
X168753921Y-53057534D01*
X168990958Y-53734946D01*
X169046515Y-53905935D01*
X169252917Y-54593285D01*
X169300741Y-54766572D01*
X169476100Y-55462499D01*
X169495958Y-55549500D01*
X169516107Y-55637781D01*
X169660060Y-56340845D01*
X169692168Y-56517779D01*
X169804432Y-57226583D01*
X169828567Y-57404757D01*
X169896183Y-58004872D01*
X169884129Y-58073694D01*
X169836780Y-58125074D01*
X169769169Y-58142698D01*
X169702763Y-58120972D01*
X169668968Y-58086291D01*
X169497468Y-57822206D01*
X169288904Y-57564649D01*
X169288902Y-57564648D01*
X168878822Y-57974729D01*
X168817499Y-58008214D01*
X168747807Y-58003230D01*
X168692766Y-57962535D01*
X168646960Y-57902841D01*
X168625338Y-57874662D01*
X168537461Y-57807232D01*
X168496261Y-57750806D01*
X168492106Y-57681060D01*
X168525269Y-57621177D01*
X168935350Y-57211096D01*
X168935350Y-57211095D01*
X168677793Y-57002531D01*
X168352543Y-56791310D01*
X168006994Y-56615244D01*
X167644936Y-56476262D01*
X167270330Y-56375887D01*
X167270323Y-56375886D01*
X166887287Y-56315219D01*
X166500001Y-56294922D01*
X166499999Y-56294922D01*
X166112712Y-56315219D01*
X165729676Y-56375886D01*
X165729669Y-56375887D01*
X165355063Y-56476262D01*
X164993005Y-56615244D01*
X164647456Y-56791310D01*
X164322206Y-57002531D01*
X164064648Y-57211095D01*
X164064648Y-57211096D01*
X164474730Y-57621177D01*
X164508215Y-57682500D01*
X164503231Y-57752191D01*
X164462536Y-57807233D01*
X164374662Y-57874661D01*
X164374661Y-57874662D01*
X164307233Y-57962536D01*
X164250805Y-58003738D01*
X164181059Y-58007893D01*
X164121177Y-57974730D01*
X163711096Y-57564648D01*
X163711095Y-57564648D01*
X163502531Y-57822206D01*
X163291310Y-58147456D01*
X163115244Y-58493005D01*
X162976262Y-58855063D01*
X162875887Y-59229669D01*
X162875886Y-59229676D01*
X162815219Y-59612712D01*
X162794922Y-59999999D01*
X162794922Y-60000000D01*
X162815219Y-60387287D01*
X162875886Y-60770323D01*
X162875887Y-60770330D01*
X162976262Y-61144936D01*
X163115244Y-61506994D01*
X163291310Y-61852543D01*
X163502531Y-62177793D01*
X163711095Y-62435350D01*
X163711096Y-62435350D01*
X164121177Y-62025269D01*
X164182500Y-61991784D01*
X164252191Y-61996768D01*
X164307232Y-62037461D01*
X164374662Y-62125338D01*
X164408325Y-62151168D01*
X164462535Y-62192766D01*
X164503737Y-62249194D01*
X164507892Y-62318940D01*
X164474729Y-62378822D01*
X164064648Y-62788902D01*
X164064649Y-62788904D01*
X164322206Y-62997468D01*
X164647456Y-63208689D01*
X164993005Y-63384755D01*
X165355063Y-63523737D01*
X165729669Y-63624112D01*
X165729676Y-63624113D01*
X166112712Y-63684780D01*
X166499999Y-63705078D01*
X166500001Y-63705078D01*
X166887287Y-63684780D01*
X167270323Y-63624113D01*
X167270330Y-63624112D01*
X167644936Y-63523737D01*
X168006994Y-63384755D01*
X168352543Y-63208689D01*
X168677783Y-62997476D01*
X168677785Y-62997475D01*
X168935349Y-62788902D01*
X168525269Y-62378822D01*
X168491784Y-62317499D01*
X168496768Y-62247807D01*
X168537462Y-62192767D01*
X168625338Y-62125338D01*
X168692767Y-62037462D01*
X168749192Y-61996261D01*
X168818938Y-61992106D01*
X168878822Y-62025269D01*
X169288902Y-62435349D01*
X169497475Y-62177785D01*
X169497475Y-62177783D01*
X169668968Y-61913708D01*
X169721989Y-61868205D01*
X169791194Y-61858590D01*
X169854611Y-61887917D01*
X169892105Y-61946875D01*
X169896183Y-61995127D01*
X169828567Y-62595242D01*
X169804432Y-62773416D01*
X169692168Y-63482220D01*
X169660060Y-63659154D01*
X169516107Y-64362218D01*
X169476103Y-64537491D01*
X169300742Y-65233425D01*
X169252917Y-65406714D01*
X169046515Y-66094064D01*
X168990958Y-66265053D01*
X168753921Y-66942465D01*
X168690758Y-67110762D01*
X168423572Y-67776847D01*
X168352908Y-67942173D01*
X168056116Y-68595582D01*
X167978099Y-68757585D01*
X167652290Y-69397022D01*
X167567097Y-69555335D01*
X167212931Y-70179507D01*
X167120694Y-70333885D01*
X166738893Y-70941518D01*
X166639840Y-71091577D01*
X166231122Y-71681526D01*
X166125486Y-71826922D01*
X165690701Y-72397954D01*
X165578615Y-72538506D01*
X165118691Y-73089405D01*
X165000376Y-73224827D01*
X164516199Y-73754538D01*
X164391953Y-73884489D01*
X163884489Y-74391953D01*
X163754538Y-74516199D01*
X163224827Y-75000376D01*
X163089405Y-75118691D01*
X162538506Y-75578615D01*
X162397954Y-75690701D01*
X161826922Y-76125486D01*
X161681526Y-76231122D01*
X161091577Y-76639840D01*
X160941518Y-76738893D01*
X160333885Y-77120694D01*
X160179507Y-77212931D01*
X159555335Y-77567097D01*
X159397022Y-77652290D01*
X158757585Y-77978099D01*
X158595582Y-78056116D01*
X157942173Y-78352908D01*
X157776847Y-78423572D01*
X157110762Y-78690758D01*
X156942465Y-78753921D01*
X156265053Y-78990958D01*
X156094064Y-79046515D01*
X155406714Y-79252917D01*
X155233425Y-79300742D01*
X154537511Y-79476097D01*
X154431289Y-79500342D01*
X154362218Y-79516107D01*
X153659154Y-79660060D01*
X153482220Y-79692168D01*
X152773416Y-79804432D01*
X152595242Y-79828567D01*
X151882090Y-79908920D01*
X151703025Y-79925036D01*
X150986987Y-79973313D01*
X150807386Y-79981379D01*
X150089870Y-79997483D01*
X149910130Y-79997483D01*
X149192613Y-79981379D01*
X149013012Y-79973313D01*
X148296974Y-79925036D01*
X148117909Y-79908920D01*
X147404757Y-79828567D01*
X147226583Y-79804432D01*
X146517779Y-79692168D01*
X146340845Y-79660060D01*
X145637781Y-79516107D01*
X145617397Y-79511454D01*
X145462499Y-79476100D01*
X144766572Y-79300741D01*
X144593285Y-79252917D01*
X143905935Y-79046515D01*
X143734946Y-78990958D01*
X143057534Y-78753921D01*
X142889237Y-78690758D01*
X142223152Y-78423572D01*
X142057826Y-78352908D01*
X141404417Y-78056116D01*
X141242414Y-77978099D01*
X140602989Y-77652296D01*
X140558473Y-77628341D01*
X140444664Y-77567097D01*
X139820492Y-77212931D01*
X139666114Y-77120694D01*
X139058481Y-76738893D01*
X138908422Y-76639840D01*
X138318473Y-76231122D01*
X138173077Y-76125486D01*
X137602045Y-75690701D01*
X137550234Y-75649383D01*
X137461493Y-75578615D01*
X137228481Y-75384082D01*
X136910594Y-75118691D01*
X136775172Y-75000376D01*
X136245461Y-74516199D01*
X136115510Y-74391953D01*
X135608046Y-73884489D01*
X135483800Y-73754538D01*
X134999623Y-73224827D01*
X134881308Y-73089405D01*
X134421398Y-72538522D01*
X134309298Y-72397954D01*
X134295678Y-72380067D01*
X133874509Y-71826916D01*
X133768877Y-71681526D01*
X133360156Y-71091573D01*
X133261106Y-70941518D01*
X132879305Y-70333885D01*
X132787068Y-70179507D01*
X132432902Y-69555335D01*
X132403669Y-69501011D01*
X132347710Y-69397022D01*
X132021900Y-68757585D01*
X131943883Y-68595582D01*
X131647091Y-67942173D01*
X131576427Y-67776847D01*
X131309234Y-67110745D01*
X131246077Y-66942462D01*
X131009040Y-66265050D01*
X130953483Y-66094060D01*
X130933863Y-66028725D01*
X130747076Y-65406692D01*
X130699257Y-65233422D01*
X130523888Y-64537454D01*
X130483893Y-64362218D01*
X130339938Y-63659148D01*
X130307831Y-63482220D01*
X130264508Y-63208689D01*
X130195564Y-62773399D01*
X130171432Y-62595242D01*
X130167096Y-62556762D01*
X130103815Y-61995124D01*
X130115869Y-61926303D01*
X130163218Y-61874923D01*
X130230829Y-61857299D01*
X130297234Y-61879025D01*
X130331030Y-61913706D01*
X130502531Y-62177793D01*
X130711095Y-62435350D01*
X130711096Y-62435350D01*
X131121177Y-62025269D01*
X131182500Y-61991784D01*
X131252191Y-61996768D01*
X131307232Y-62037461D01*
X131374662Y-62125338D01*
X131408325Y-62151168D01*
X131462535Y-62192766D01*
X131503737Y-62249194D01*
X131507892Y-62318940D01*
X131474729Y-62378822D01*
X131064648Y-62788902D01*
X131064649Y-62788904D01*
X131322206Y-62997468D01*
X131647456Y-63208689D01*
X131993005Y-63384755D01*
X132355063Y-63523737D01*
X132729669Y-63624112D01*
X132729676Y-63624113D01*
X133112712Y-63684780D01*
X133499999Y-63705078D01*
X133500001Y-63705078D01*
X133887287Y-63684780D01*
X134270323Y-63624113D01*
X134270330Y-63624112D01*
X134566119Y-63544856D01*
X147649500Y-63544856D01*
X147649502Y-63544882D01*
X147652413Y-63569987D01*
X147652415Y-63569991D01*
X147697793Y-63672764D01*
X147697794Y-63672765D01*
X147777235Y-63752206D01*
X147880009Y-63797585D01*
X147905135Y-63800500D01*
X148194864Y-63800499D01*
X148194879Y-63800497D01*
X148194882Y-63800497D01*
X148219987Y-63797586D01*
X148219987Y-63797585D01*
X148219991Y-63797585D01*
X148322765Y-63752206D01*
X148322766Y-63752204D01*
X148324912Y-63751257D01*
X148394190Y-63742185D01*
X148425085Y-63751257D01*
X148530004Y-63797583D01*
X148530009Y-63797585D01*
X148555135Y-63800500D01*
X148844864Y-63800499D01*
X148844879Y-63800497D01*
X148844882Y-63800497D01*
X148869987Y-63797586D01*
X148869987Y-63797585D01*
X148869991Y-63797585D01*
X148972765Y-63752206D01*
X148972766Y-63752204D01*
X148974912Y-63751257D01*
X149044190Y-63742185D01*
X149075085Y-63751257D01*
X149180004Y-63797583D01*
X149180009Y-63797585D01*
X149205135Y-63800500D01*
X149494864Y-63800499D01*
X149494879Y-63800497D01*
X149494882Y-63800497D01*
X149519987Y-63797586D01*
X149519987Y-63797585D01*
X149519991Y-63797585D01*
X149622765Y-63752206D01*
X149622766Y-63752204D01*
X149624912Y-63751257D01*
X149694190Y-63742185D01*
X149725085Y-63751257D01*
X149830004Y-63797583D01*
X149830009Y-63797585D01*
X149855135Y-63800500D01*
X150144864Y-63800499D01*
X150144879Y-63800497D01*
X150144882Y-63800497D01*
X150169987Y-63797586D01*
X150169987Y-63797585D01*
X150169991Y-63797585D01*
X150272765Y-63752206D01*
X150272766Y-63752204D01*
X150274912Y-63751257D01*
X150344190Y-63742185D01*
X150375085Y-63751257D01*
X150480004Y-63797583D01*
X150480009Y-63797585D01*
X150505135Y-63800500D01*
X150794864Y-63800499D01*
X150794879Y-63800497D01*
X150794882Y-63800497D01*
X150819987Y-63797586D01*
X150819987Y-63797585D01*
X150819991Y-63797585D01*
X150922765Y-63752206D01*
X150922766Y-63752204D01*
X150924912Y-63751257D01*
X150994190Y-63742185D01*
X151025085Y-63751257D01*
X151130004Y-63797583D01*
X151130009Y-63797585D01*
X151155135Y-63800500D01*
X151444864Y-63800499D01*
X151444879Y-63800497D01*
X151444882Y-63800497D01*
X151469987Y-63797586D01*
X151469987Y-63797585D01*
X151469991Y-63797585D01*
X151572765Y-63752206D01*
X151572766Y-63752204D01*
X151574912Y-63751257D01*
X151644190Y-63742185D01*
X151675085Y-63751257D01*
X151780004Y-63797583D01*
X151780009Y-63797585D01*
X151805135Y-63800500D01*
X152094864Y-63800499D01*
X152094879Y-63800497D01*
X152094882Y-63800497D01*
X152119987Y-63797586D01*
X152119988Y-63797585D01*
X152119991Y-63797585D01*
X152222765Y-63752206D01*
X152302206Y-63672765D01*
X152347585Y-63569991D01*
X152350500Y-63544865D01*
X152350499Y-62180136D01*
X152350497Y-62180117D01*
X152347586Y-62155012D01*
X152347585Y-62155011D01*
X152347585Y-62155009D01*
X152319786Y-62092051D01*
X152302207Y-62052236D01*
X152297200Y-62044927D01*
X152275554Y-61978495D01*
X152275500Y-61974850D01*
X152275500Y-61916238D01*
X152295185Y-61849199D01*
X152305777Y-61835047D01*
X152382882Y-61746063D01*
X152436697Y-61628226D01*
X152455133Y-61500000D01*
X152436697Y-61371774D01*
X152382882Y-61253937D01*
X152298049Y-61156033D01*
X152189069Y-61085996D01*
X152189065Y-61085994D01*
X152189064Y-61085994D01*
X152064774Y-61049500D01*
X152064772Y-61049500D01*
X151935228Y-61049500D01*
X151935226Y-61049500D01*
X151810935Y-61085994D01*
X151810932Y-61085995D01*
X151810931Y-61085996D01*
X151804438Y-61090169D01*
X151701950Y-61156033D01*
X151617118Y-61253937D01*
X151617116Y-61253939D01*
X151599344Y-61292854D01*
X151553589Y-61345657D01*
X151486549Y-61365340D01*
X151451619Y-61360318D01*
X151414773Y-61349500D01*
X151414772Y-61349500D01*
X151285228Y-61349500D01*
X151285226Y-61349500D01*
X151160935Y-61385994D01*
X151160932Y-61385995D01*
X151160931Y-61385996D01*
X151073068Y-61442462D01*
X151044490Y-61460828D01*
X151042936Y-61458410D01*
X150992624Y-61481376D01*
X150923467Y-61471420D01*
X150905941Y-61460156D01*
X150905510Y-61460828D01*
X150898049Y-61456033D01*
X150789069Y-61385996D01*
X150789065Y-61385994D01*
X150789064Y-61385994D01*
X150664774Y-61349500D01*
X150664772Y-61349500D01*
X150535228Y-61349500D01*
X150535226Y-61349500D01*
X150498382Y-61360318D01*
X150428512Y-61360318D01*
X150369734Y-61322543D01*
X150350656Y-61292857D01*
X150332882Y-61253937D01*
X150248049Y-61156033D01*
X150139069Y-61085996D01*
X150139065Y-61085994D01*
X150139064Y-61085994D01*
X150014774Y-61049500D01*
X150014772Y-61049500D01*
X149885228Y-61049500D01*
X149885226Y-61049500D01*
X149760935Y-61085994D01*
X149760932Y-61085995D01*
X149760931Y-61085996D01*
X149754438Y-61090169D01*
X149651950Y-61156033D01*
X149567118Y-61253937D01*
X149567117Y-61253938D01*
X149513302Y-61371775D01*
X149513300Y-61371782D01*
X149513206Y-61372439D01*
X149512930Y-61373042D01*
X149510803Y-61380287D01*
X149509760Y-61379980D01*
X149484175Y-61435992D01*
X149425394Y-61473761D01*
X149355524Y-61473755D01*
X149302789Y-61442462D01*
X149011819Y-61151492D01*
X148978334Y-61090169D01*
X148975500Y-61063811D01*
X148975500Y-60558535D01*
X148995185Y-60491496D01*
X149005783Y-60477336D01*
X149032882Y-60446063D01*
X149086697Y-60328226D01*
X149105133Y-60200000D01*
X149086697Y-60071774D01*
X149032882Y-59953937D01*
X148948049Y-59856033D01*
X148839069Y-59785996D01*
X148839065Y-59785994D01*
X148839064Y-59785994D01*
X148714774Y-59749500D01*
X148714772Y-59749500D01*
X148585228Y-59749500D01*
X148585226Y-59749500D01*
X148460935Y-59785994D01*
X148460932Y-59785995D01*
X148460931Y-59785996D01*
X148409677Y-59818934D01*
X148351950Y-59856033D01*
X148267118Y-59953937D01*
X148267117Y-59953938D01*
X148213302Y-60071774D01*
X148194867Y-60200000D01*
X148213302Y-60328225D01*
X148267117Y-60446061D01*
X148267118Y-60446063D01*
X148294213Y-60477333D01*
X148323238Y-60540888D01*
X148324500Y-60558535D01*
X148324500Y-61233078D01*
X148324264Y-61238485D01*
X148320735Y-61278808D01*
X148331212Y-61317910D01*
X148332383Y-61323190D01*
X148339411Y-61363043D01*
X148341235Y-61368055D01*
X148348197Y-61384861D01*
X148350445Y-61389681D01*
X148350446Y-61389684D01*
X148359073Y-61402005D01*
X148373655Y-61422831D01*
X148376561Y-61427392D01*
X148396806Y-61462455D01*
X148427815Y-61488475D01*
X148431804Y-61492130D01*
X148652493Y-61712820D01*
X148685978Y-61774142D01*
X148680994Y-61843834D01*
X148639122Y-61899767D01*
X148573658Y-61924184D01*
X148564821Y-61924500D01*
X148555148Y-61924500D01*
X148555117Y-61924502D01*
X148530013Y-61927413D01*
X148485936Y-61946875D01*
X148427238Y-61972793D01*
X148425086Y-61973743D01*
X148355807Y-61982814D01*
X148324914Y-61973743D01*
X148322765Y-61972794D01*
X148219991Y-61927415D01*
X148194865Y-61924500D01*
X147905143Y-61924500D01*
X147905117Y-61924502D01*
X147880012Y-61927413D01*
X147880008Y-61927415D01*
X147777235Y-61972793D01*
X147697794Y-62052234D01*
X147652415Y-62155006D01*
X147652415Y-62155008D01*
X147649500Y-62180131D01*
X147649500Y-63544856D01*
X134566119Y-63544856D01*
X134644936Y-63523737D01*
X135006994Y-63384755D01*
X135352543Y-63208689D01*
X135677783Y-62997476D01*
X135677785Y-62997475D01*
X135935349Y-62788902D01*
X135525269Y-62378822D01*
X135491784Y-62317499D01*
X135496768Y-62247807D01*
X135537462Y-62192767D01*
X135625338Y-62125338D01*
X135692767Y-62037462D01*
X135749192Y-61996261D01*
X135818938Y-61992106D01*
X135878822Y-62025269D01*
X136288902Y-62435349D01*
X136497475Y-62177785D01*
X136497476Y-62177783D01*
X136708689Y-61852543D01*
X136884755Y-61506994D01*
X137023737Y-61144936D01*
X137124112Y-60770330D01*
X137124113Y-60770323D01*
X137184780Y-60387287D01*
X137205078Y-60000000D01*
X137205078Y-59999999D01*
X137184780Y-59612712D01*
X137124113Y-59229676D01*
X137124112Y-59229669D01*
X137023737Y-58855063D01*
X136884755Y-58493005D01*
X136708689Y-58147456D01*
X136497468Y-57822206D01*
X136495565Y-57819856D01*
X147649500Y-57819856D01*
X147649502Y-57819882D01*
X147652413Y-57844987D01*
X147652415Y-57844991D01*
X147697793Y-57947764D01*
X147697794Y-57947765D01*
X147777235Y-58027206D01*
X147880009Y-58072585D01*
X147905135Y-58075500D01*
X148194864Y-58075499D01*
X148194879Y-58075497D01*
X148194882Y-58075497D01*
X148219987Y-58072586D01*
X148219987Y-58072585D01*
X148219991Y-58072585D01*
X148322765Y-58027206D01*
X148322766Y-58027204D01*
X148324912Y-58026257D01*
X148394190Y-58017185D01*
X148425085Y-58026257D01*
X148485938Y-58053126D01*
X148530009Y-58072585D01*
X148555135Y-58075500D01*
X148844864Y-58075499D01*
X148844879Y-58075497D01*
X148844882Y-58075497D01*
X148869987Y-58072586D01*
X148869987Y-58072585D01*
X148869991Y-58072585D01*
X148972765Y-58027206D01*
X148972766Y-58027204D01*
X148974912Y-58026257D01*
X149044190Y-58017185D01*
X149075085Y-58026257D01*
X149135938Y-58053126D01*
X149180009Y-58072585D01*
X149205135Y-58075500D01*
X149494864Y-58075499D01*
X149494879Y-58075497D01*
X149494882Y-58075497D01*
X149519987Y-58072586D01*
X149519987Y-58072585D01*
X149519991Y-58072585D01*
X149622765Y-58027206D01*
X149622766Y-58027204D01*
X149624912Y-58026257D01*
X149694190Y-58017185D01*
X149725085Y-58026257D01*
X149785938Y-58053126D01*
X149830009Y-58072585D01*
X149855135Y-58075500D01*
X150144864Y-58075499D01*
X150144879Y-58075497D01*
X150144882Y-58075497D01*
X150169987Y-58072586D01*
X150169987Y-58072585D01*
X150169991Y-58072585D01*
X150272765Y-58027206D01*
X150272766Y-58027204D01*
X150274912Y-58026257D01*
X150344190Y-58017185D01*
X150375085Y-58026257D01*
X150435938Y-58053126D01*
X150480009Y-58072585D01*
X150505135Y-58075500D01*
X150613148Y-58075499D01*
X150680186Y-58095183D01*
X150711522Y-58124012D01*
X150772073Y-58202922D01*
X150897414Y-58299100D01*
X151043366Y-58359555D01*
X151043372Y-58359557D01*
X151099998Y-58367011D01*
X151100000Y-58367010D01*
X151100000Y-56235554D01*
X151111206Y-56184042D01*
X151113136Y-56179816D01*
X151136697Y-56128226D01*
X151155133Y-56000000D01*
X151141904Y-55907987D01*
X151500000Y-55907987D01*
X151500000Y-58367010D01*
X151500001Y-58367011D01*
X151556627Y-58359557D01*
X151556633Y-58359555D01*
X151702585Y-58299100D01*
X151827926Y-58202922D01*
X151888478Y-58124012D01*
X151944906Y-58082810D01*
X151986850Y-58075499D01*
X152094864Y-58075499D01*
X152094879Y-58075497D01*
X152094882Y-58075497D01*
X152119987Y-58072586D01*
X152119988Y-58072585D01*
X152119991Y-58072585D01*
X152222765Y-58027206D01*
X152302206Y-57947765D01*
X152347585Y-57844991D01*
X152350500Y-57819865D01*
X152350499Y-56455136D01*
X152350497Y-56455117D01*
X152347586Y-56430012D01*
X152347585Y-56430010D01*
X152347585Y-56430009D01*
X152302206Y-56327235D01*
X152222765Y-56247794D01*
X152195044Y-56235554D01*
X152119992Y-56202415D01*
X152094868Y-56199500D01*
X151986852Y-56199500D01*
X151919813Y-56179815D01*
X151888477Y-56150987D01*
X151827926Y-56072077D01*
X151702586Y-55975899D01*
X151556631Y-55915444D01*
X151500000Y-55907987D01*
X151141904Y-55907987D01*
X151136697Y-55871774D01*
X151082882Y-55753937D01*
X150998049Y-55656033D01*
X150889069Y-55585996D01*
X150889065Y-55585994D01*
X150889064Y-55585994D01*
X150764774Y-55549500D01*
X150764772Y-55549500D01*
X150635228Y-55549500D01*
X150635226Y-55549500D01*
X150510935Y-55585994D01*
X150510932Y-55585995D01*
X150510931Y-55585996D01*
X150469435Y-55612663D01*
X150401948Y-55656034D01*
X150393713Y-55665539D01*
X150334936Y-55703314D01*
X150265066Y-55703314D01*
X150206288Y-55665540D01*
X150206287Y-55665539D01*
X150198051Y-55656034D01*
X150169648Y-55637781D01*
X150089069Y-55585996D01*
X150089065Y-55585994D01*
X150089064Y-55585994D01*
X149964774Y-55549500D01*
X149964772Y-55549500D01*
X149835228Y-55549500D01*
X149835226Y-55549500D01*
X149710935Y-55585994D01*
X149710932Y-55585995D01*
X149710931Y-55585996D01*
X149659677Y-55618934D01*
X149601950Y-55656033D01*
X149517118Y-55753937D01*
X149517117Y-55753938D01*
X149463302Y-55871774D01*
X149444867Y-55999999D01*
X149453185Y-56057853D01*
X149443241Y-56127012D01*
X149397486Y-56179816D01*
X149330448Y-56199500D01*
X149205144Y-56199500D01*
X149205117Y-56199502D01*
X149180013Y-56202413D01*
X149112021Y-56232434D01*
X149077238Y-56247793D01*
X149075086Y-56248743D01*
X149005807Y-56257814D01*
X148974914Y-56248743D01*
X148972765Y-56247794D01*
X148869991Y-56202415D01*
X148844865Y-56199500D01*
X148555143Y-56199500D01*
X148555117Y-56199502D01*
X148530013Y-56202413D01*
X148462021Y-56232434D01*
X148427238Y-56247793D01*
X148425086Y-56248743D01*
X148355807Y-56257814D01*
X148324914Y-56248743D01*
X148322765Y-56247794D01*
X148219991Y-56202415D01*
X148194865Y-56199500D01*
X147905143Y-56199500D01*
X147905117Y-56199502D01*
X147880012Y-56202413D01*
X147880008Y-56202415D01*
X147777235Y-56247793D01*
X147697794Y-56327234D01*
X147652415Y-56430006D01*
X147652415Y-56430008D01*
X147649500Y-56455131D01*
X147649500Y-57819856D01*
X136495565Y-57819856D01*
X136288904Y-57564649D01*
X136288902Y-57564648D01*
X135878822Y-57974729D01*
X135817499Y-58008214D01*
X135747807Y-58003230D01*
X135692766Y-57962535D01*
X135646960Y-57902841D01*
X135625338Y-57874662D01*
X135537461Y-57807232D01*
X135496261Y-57750806D01*
X135492106Y-57681060D01*
X135525269Y-57621177D01*
X135935350Y-57211096D01*
X135935350Y-57211095D01*
X135677793Y-57002531D01*
X135352543Y-56791310D01*
X135006994Y-56615244D01*
X134644936Y-56476262D01*
X134270330Y-56375887D01*
X134270323Y-56375886D01*
X133887287Y-56315219D01*
X133500001Y-56294922D01*
X133499999Y-56294922D01*
X133112712Y-56315219D01*
X132729676Y-56375886D01*
X132729669Y-56375887D01*
X132355063Y-56476262D01*
X131993005Y-56615244D01*
X131647456Y-56791310D01*
X131322206Y-57002531D01*
X131064648Y-57211095D01*
X131064648Y-57211096D01*
X131474730Y-57621177D01*
X131508215Y-57682500D01*
X131503231Y-57752191D01*
X131462536Y-57807233D01*
X131374662Y-57874661D01*
X131374661Y-57874662D01*
X131307233Y-57962536D01*
X131250805Y-58003738D01*
X131181059Y-58007893D01*
X131121177Y-57974730D01*
X130711096Y-57564648D01*
X130711095Y-57564648D01*
X130502534Y-57822202D01*
X130331030Y-58086294D01*
X130278009Y-58131796D01*
X130208804Y-58141410D01*
X130145387Y-58112083D01*
X130107893Y-58053126D01*
X130103815Y-58004874D01*
X130103816Y-58004872D01*
X130171432Y-57404751D01*
X130195562Y-57226617D01*
X130307831Y-56517777D01*
X130315365Y-56476262D01*
X130339931Y-56340886D01*
X130483894Y-55637771D01*
X130523893Y-55462524D01*
X130699259Y-54766567D01*
X130747083Y-54593285D01*
X130953489Y-53905919D01*
X131009028Y-53734984D01*
X131246079Y-53057532D01*
X131309229Y-52889269D01*
X131576434Y-52223135D01*
X131647091Y-52057826D01*
X131943900Y-51404380D01*
X132021880Y-51242453D01*
X132347710Y-50602976D01*
X132432904Y-50444660D01*
X132787084Y-49820464D01*
X132879281Y-49666152D01*
X133261135Y-49058436D01*
X133360132Y-48908462D01*
X133768896Y-48318446D01*
X133874514Y-48173077D01*
X134309315Y-47602023D01*
X134421350Y-47461534D01*
X134881315Y-46910585D01*
X134999623Y-46775172D01*
X135022039Y-46750646D01*
X135483818Y-46245441D01*
X135608024Y-46115532D01*
X136115532Y-45608024D01*
X136245441Y-45483818D01*
X136775172Y-44999623D01*
X136910594Y-44881308D01*
X137461534Y-44421350D01*
X137602023Y-44309315D01*
X138173082Y-43874509D01*
X138318446Y-43768896D01*
X138908462Y-43360132D01*
X139058436Y-43261135D01*
X139666152Y-42879281D01*
X139820464Y-42787084D01*
X140444668Y-42432899D01*
X140602976Y-42347710D01*
X141242453Y-42021880D01*
X141404380Y-41943900D01*
X142057830Y-41647089D01*
X142223153Y-41576427D01*
X142889269Y-41309229D01*
X143057532Y-41246079D01*
X143734984Y-41009028D01*
X143905927Y-40953486D01*
X144593290Y-40747081D01*
X144766567Y-40699259D01*
X145462524Y-40523893D01*
X145637771Y-40483894D01*
X146340886Y-40339931D01*
X146517742Y-40307836D01*
X147226617Y-40195562D01*
X147404737Y-40171434D01*
X148117934Y-40091076D01*
X148296958Y-40074964D01*
X149013013Y-40026686D01*
X149192596Y-40018620D01*
X149910130Y-40002517D01*
X150089870Y-40002517D01*
X150807403Y-40018620D01*
G37*
%TD.AperFunction*%
%TA.AperFunction,Conductor*%
G36*
X132365130Y-61134870D02*
G01*
X132555818Y-61297732D01*
X132484710Y-61368841D01*
X132423387Y-61402326D01*
X132353695Y-61397342D01*
X132298654Y-61356647D01*
X132249703Y-61292854D01*
X132231226Y-61268774D01*
X132143349Y-61201344D01*
X132102149Y-61144918D01*
X132097994Y-61075172D01*
X132131157Y-61015289D01*
X132202266Y-60944179D01*
X132365130Y-61134870D01*
G37*
%TD.AperFunction*%
%TA.AperFunction,Conductor*%
G36*
X165365130Y-61134870D02*
G01*
X165555818Y-61297732D01*
X165484710Y-61368841D01*
X165423387Y-61402326D01*
X165353695Y-61397342D01*
X165298654Y-61356647D01*
X165231226Y-61268774D01*
X165231226Y-61268773D01*
X165143349Y-61201344D01*
X165102148Y-61144918D01*
X165097993Y-61075172D01*
X165131156Y-61015289D01*
X165202265Y-60944179D01*
X165365130Y-61134870D01*
G37*
%TD.AperFunction*%
%TA.AperFunction,Conductor*%
G36*
X134868842Y-61015289D02*
G01*
X134902327Y-61076612D01*
X134897343Y-61146304D01*
X134856648Y-61201345D01*
X134768774Y-61268773D01*
X134768773Y-61268774D01*
X134701345Y-61356648D01*
X134644917Y-61397850D01*
X134575171Y-61402005D01*
X134515289Y-61368842D01*
X134444180Y-61297733D01*
X134634870Y-61134870D01*
X134797733Y-60944180D01*
X134868842Y-61015289D01*
G37*
%TD.AperFunction*%
%TA.AperFunction,Conductor*%
G36*
X167868842Y-61015289D02*
G01*
X167902327Y-61076612D01*
X167897343Y-61146304D01*
X167856648Y-61201345D01*
X167768774Y-61268773D01*
X167768773Y-61268774D01*
X167701345Y-61356648D01*
X167644917Y-61397850D01*
X167575171Y-61402005D01*
X167515289Y-61368842D01*
X167444180Y-61297733D01*
X167634870Y-61134870D01*
X167797733Y-60944180D01*
X167868842Y-61015289D01*
G37*
%TD.AperFunction*%
%TA.AperFunction,Conductor*%
G36*
X132484710Y-58631157D02*
G01*
X132555819Y-58702266D01*
X132365130Y-58865130D01*
X132202266Y-59055819D01*
X132131157Y-58984710D01*
X132097672Y-58923387D01*
X132102656Y-58853695D01*
X132143350Y-58798655D01*
X132231226Y-58731226D01*
X132298655Y-58643350D01*
X132355080Y-58602149D01*
X132424826Y-58597994D01*
X132484710Y-58631157D01*
G37*
%TD.AperFunction*%
%TA.AperFunction,Conductor*%
G36*
X165484710Y-58631157D02*
G01*
X165555819Y-58702266D01*
X165365130Y-58865130D01*
X165202266Y-59055819D01*
X165131157Y-58984710D01*
X165097672Y-58923387D01*
X165102656Y-58853695D01*
X165143350Y-58798655D01*
X165231226Y-58731226D01*
X165298655Y-58643350D01*
X165355080Y-58602149D01*
X165424826Y-58597994D01*
X165484710Y-58631157D01*
G37*
%TD.AperFunction*%
%TA.AperFunction,Conductor*%
G36*
X134646303Y-58602656D02*
G01*
X134701344Y-58643349D01*
X134768774Y-58731226D01*
X134802437Y-58757056D01*
X134856647Y-58798654D01*
X134897849Y-58855082D01*
X134902004Y-58924828D01*
X134868841Y-58984710D01*
X134797732Y-59055818D01*
X134634870Y-58865130D01*
X134444180Y-58702266D01*
X134515289Y-58631157D01*
X134576612Y-58597672D01*
X134646303Y-58602656D01*
G37*
%TD.AperFunction*%
%TA.AperFunction,Conductor*%
G36*
X167646304Y-58602655D02*
G01*
X167701344Y-58643349D01*
X167746018Y-58701570D01*
X167768774Y-58731226D01*
X167856647Y-58798654D01*
X167897849Y-58855082D01*
X167902004Y-58924828D01*
X167868841Y-58984710D01*
X167797732Y-59055818D01*
X167634870Y-58865130D01*
X167444179Y-58702265D01*
X167515289Y-58631156D01*
X167576612Y-58597671D01*
X167646304Y-58602655D01*
G37*
%TD.AperFunction*%
%TD*%
M02*
