%TF.GenerationSoftware,KiCad,Pcbnew,7.0.6-7.0.6~ubuntu22.04.1*%
%TF.CreationDate,2023-09-05T16:39:34+08:00*%
%TF.ProjectId,CAM_Module,43414d5f-4d6f-4647-956c-652e6b696361,rev?*%
%TF.SameCoordinates,Original*%
%TF.FileFunction,Legend,Bot*%
%TF.FilePolarity,Positive*%
%FSLAX46Y46*%
G04 Gerber Fmt 4.6, Leading zero omitted, Abs format (unit mm)*
G04 Created by KiCad (PCBNEW 7.0.6-7.0.6~ubuntu22.04.1) date 2023-09-05 16:39:34*
%MOMM*%
%LPD*%
G01*
G04 APERTURE LIST*
%ADD10C,0.150000*%
%ADD11C,0.120000*%
G04 APERTURE END LIST*
D10*
X155000000Y-60000000D02*
G75*
G03*
X155000000Y-60000000I-5000000J0D01*
G01*
X163000000Y-60000000D02*
G75*
G03*
X163000000Y-60000000I-13000000J0D01*
G01*
X155714286Y-46059580D02*
X155761905Y-46107200D01*
X155761905Y-46107200D02*
X155904762Y-46154819D01*
X155904762Y-46154819D02*
X156000000Y-46154819D01*
X156000000Y-46154819D02*
X156142857Y-46107200D01*
X156142857Y-46107200D02*
X156238095Y-46011961D01*
X156238095Y-46011961D02*
X156285714Y-45916723D01*
X156285714Y-45916723D02*
X156333333Y-45726247D01*
X156333333Y-45726247D02*
X156333333Y-45583390D01*
X156333333Y-45583390D02*
X156285714Y-45392914D01*
X156285714Y-45392914D02*
X156238095Y-45297676D01*
X156238095Y-45297676D02*
X156142857Y-45202438D01*
X156142857Y-45202438D02*
X156000000Y-45154819D01*
X156000000Y-45154819D02*
X155904762Y-45154819D01*
X155904762Y-45154819D02*
X155761905Y-45202438D01*
X155761905Y-45202438D02*
X155714286Y-45250057D01*
X154857143Y-46154819D02*
X154857143Y-45631009D01*
X154857143Y-45631009D02*
X154904762Y-45535771D01*
X154904762Y-45535771D02*
X155000000Y-45488152D01*
X155000000Y-45488152D02*
X155190476Y-45488152D01*
X155190476Y-45488152D02*
X155285714Y-45535771D01*
X154857143Y-46107200D02*
X154952381Y-46154819D01*
X154952381Y-46154819D02*
X155190476Y-46154819D01*
X155190476Y-46154819D02*
X155285714Y-46107200D01*
X155285714Y-46107200D02*
X155333333Y-46011961D01*
X155333333Y-46011961D02*
X155333333Y-45916723D01*
X155333333Y-45916723D02*
X155285714Y-45821485D01*
X155285714Y-45821485D02*
X155190476Y-45773866D01*
X155190476Y-45773866D02*
X154952381Y-45773866D01*
X154952381Y-45773866D02*
X154857143Y-45726247D01*
X154380952Y-46154819D02*
X154380952Y-45488152D01*
X154380952Y-45583390D02*
X154333333Y-45535771D01*
X154333333Y-45535771D02*
X154238095Y-45488152D01*
X154238095Y-45488152D02*
X154095238Y-45488152D01*
X154095238Y-45488152D02*
X154000000Y-45535771D01*
X154000000Y-45535771D02*
X153952381Y-45631009D01*
X153952381Y-45631009D02*
X153952381Y-46154819D01*
X153952381Y-45631009D02*
X153904762Y-45535771D01*
X153904762Y-45535771D02*
X153809524Y-45488152D01*
X153809524Y-45488152D02*
X153666667Y-45488152D01*
X153666667Y-45488152D02*
X153571428Y-45535771D01*
X153571428Y-45535771D02*
X153523809Y-45631009D01*
X153523809Y-45631009D02*
X153523809Y-46154819D01*
X152333333Y-46107200D02*
X152190476Y-46154819D01*
X152190476Y-46154819D02*
X151952381Y-46154819D01*
X151952381Y-46154819D02*
X151857143Y-46107200D01*
X151857143Y-46107200D02*
X151809524Y-46059580D01*
X151809524Y-46059580D02*
X151761905Y-45964342D01*
X151761905Y-45964342D02*
X151761905Y-45869104D01*
X151761905Y-45869104D02*
X151809524Y-45773866D01*
X151809524Y-45773866D02*
X151857143Y-45726247D01*
X151857143Y-45726247D02*
X151952381Y-45678628D01*
X151952381Y-45678628D02*
X152142857Y-45631009D01*
X152142857Y-45631009D02*
X152238095Y-45583390D01*
X152238095Y-45583390D02*
X152285714Y-45535771D01*
X152285714Y-45535771D02*
X152333333Y-45440533D01*
X152333333Y-45440533D02*
X152333333Y-45345295D01*
X152333333Y-45345295D02*
X152285714Y-45250057D01*
X152285714Y-45250057D02*
X152238095Y-45202438D01*
X152238095Y-45202438D02*
X152142857Y-45154819D01*
X152142857Y-45154819D02*
X151904762Y-45154819D01*
X151904762Y-45154819D02*
X151761905Y-45202438D01*
X150952381Y-46107200D02*
X151047619Y-46154819D01*
X151047619Y-46154819D02*
X151238095Y-46154819D01*
X151238095Y-46154819D02*
X151333333Y-46107200D01*
X151333333Y-46107200D02*
X151380952Y-46011961D01*
X151380952Y-46011961D02*
X151380952Y-45631009D01*
X151380952Y-45631009D02*
X151333333Y-45535771D01*
X151333333Y-45535771D02*
X151238095Y-45488152D01*
X151238095Y-45488152D02*
X151047619Y-45488152D01*
X151047619Y-45488152D02*
X150952381Y-45535771D01*
X150952381Y-45535771D02*
X150904762Y-45631009D01*
X150904762Y-45631009D02*
X150904762Y-45726247D01*
X150904762Y-45726247D02*
X151380952Y-45821485D01*
X150476190Y-45488152D02*
X150476190Y-46154819D01*
X150476190Y-45583390D02*
X150428571Y-45535771D01*
X150428571Y-45535771D02*
X150333333Y-45488152D01*
X150333333Y-45488152D02*
X150190476Y-45488152D01*
X150190476Y-45488152D02*
X150095238Y-45535771D01*
X150095238Y-45535771D02*
X150047619Y-45631009D01*
X150047619Y-45631009D02*
X150047619Y-46154819D01*
X149619047Y-46107200D02*
X149523809Y-46154819D01*
X149523809Y-46154819D02*
X149333333Y-46154819D01*
X149333333Y-46154819D02*
X149238095Y-46107200D01*
X149238095Y-46107200D02*
X149190476Y-46011961D01*
X149190476Y-46011961D02*
X149190476Y-45964342D01*
X149190476Y-45964342D02*
X149238095Y-45869104D01*
X149238095Y-45869104D02*
X149333333Y-45821485D01*
X149333333Y-45821485D02*
X149476190Y-45821485D01*
X149476190Y-45821485D02*
X149571428Y-45773866D01*
X149571428Y-45773866D02*
X149619047Y-45678628D01*
X149619047Y-45678628D02*
X149619047Y-45631009D01*
X149619047Y-45631009D02*
X149571428Y-45535771D01*
X149571428Y-45535771D02*
X149476190Y-45488152D01*
X149476190Y-45488152D02*
X149333333Y-45488152D01*
X149333333Y-45488152D02*
X149238095Y-45535771D01*
X148619047Y-46154819D02*
X148714285Y-46107200D01*
X148714285Y-46107200D02*
X148761904Y-46059580D01*
X148761904Y-46059580D02*
X148809523Y-45964342D01*
X148809523Y-45964342D02*
X148809523Y-45678628D01*
X148809523Y-45678628D02*
X148761904Y-45583390D01*
X148761904Y-45583390D02*
X148714285Y-45535771D01*
X148714285Y-45535771D02*
X148619047Y-45488152D01*
X148619047Y-45488152D02*
X148476190Y-45488152D01*
X148476190Y-45488152D02*
X148380952Y-45535771D01*
X148380952Y-45535771D02*
X148333333Y-45583390D01*
X148333333Y-45583390D02*
X148285714Y-45678628D01*
X148285714Y-45678628D02*
X148285714Y-45964342D01*
X148285714Y-45964342D02*
X148333333Y-46059580D01*
X148333333Y-46059580D02*
X148380952Y-46107200D01*
X148380952Y-46107200D02*
X148476190Y-46154819D01*
X148476190Y-46154819D02*
X148619047Y-46154819D01*
X147857142Y-46154819D02*
X147857142Y-45488152D01*
X147857142Y-45678628D02*
X147809523Y-45583390D01*
X147809523Y-45583390D02*
X147761904Y-45535771D01*
X147761904Y-45535771D02*
X147666666Y-45488152D01*
X147666666Y-45488152D02*
X147571428Y-45488152D01*
X146619046Y-45154819D02*
X146285713Y-46154819D01*
X146285713Y-46154819D02*
X145952380Y-45154819D01*
X145095237Y-46154819D02*
X145666665Y-46154819D01*
X145380951Y-46154819D02*
X145380951Y-45154819D01*
X145380951Y-45154819D02*
X145476189Y-45297676D01*
X145476189Y-45297676D02*
X145571427Y-45392914D01*
X145571427Y-45392914D02*
X145666665Y-45440533D01*
X144666665Y-46059580D02*
X144619046Y-46107200D01*
X144619046Y-46107200D02*
X144666665Y-46154819D01*
X144666665Y-46154819D02*
X144714284Y-46107200D01*
X144714284Y-46107200D02*
X144666665Y-46059580D01*
X144666665Y-46059580D02*
X144666665Y-46154819D01*
X144238094Y-45250057D02*
X144190475Y-45202438D01*
X144190475Y-45202438D02*
X144095237Y-45154819D01*
X144095237Y-45154819D02*
X143857142Y-45154819D01*
X143857142Y-45154819D02*
X143761904Y-45202438D01*
X143761904Y-45202438D02*
X143714285Y-45250057D01*
X143714285Y-45250057D02*
X143666666Y-45345295D01*
X143666666Y-45345295D02*
X143666666Y-45440533D01*
X143666666Y-45440533D02*
X143714285Y-45583390D01*
X143714285Y-45583390D02*
X144285713Y-46154819D01*
X144285713Y-46154819D02*
X143666666Y-46154819D01*
D11*
%TO.C,U1*%
X152610000Y-60000000D02*
X152610000Y-57800000D01*
X152610000Y-60000000D02*
X152610000Y-63600000D01*
X147390000Y-60000000D02*
X147390000Y-57800000D01*
X147390000Y-60000000D02*
X147390000Y-62200000D01*
%TD*%
M02*
