M48
; DRILL file {KiCad 7.0.6-7.0.6~ubuntu22.04.1} date Sel 10 Okt 2023 10:40:34 
; FORMAT={-:-/ absolute / inch / decimal}
; #@! TF.CreationDate,2023-10-10T10:40:34+08:00
; #@! TF.GenerationSoftware,Kicad,Pcbnew,7.0.6-7.0.6~ubuntu22.04.1
; #@! TF.FileFunction,Plated,1,2,PTH
FMAT,2
INCH
; #@! TA.AperFunction,Plated,PTH,ViaDrill
T1C0.0118
; #@! TA.AperFunction,Plated,PTH,ComponentDrill
T2C0.0197
; #@! TA.AperFunction,Plated,PTH,ComponentDrill
T3C0.1260
%
G90
G05
T1
X5.6378Y-1.7362
X5.6378Y-1.811
X5.7126Y-1.7362
X5.7126Y-1.9921
X5.7126Y-2.1417
X5.748Y-2.7047
X5.748Y-3.0472
X5.7874Y-2.0669
X5.8268Y-2.7047
X5.8268Y-3.0472
X5.8858Y-2.5276
X5.8937Y-2.5591
X5.9055Y-2.7047
X5.9055Y-3.0472
X5.9213Y-2.5276
X5.9311Y-2.2079
X5.9449Y-2.5591
X5.9567Y-2.3189
X5.9567Y-2.5236
X5.9843Y-2.7047
X5.9843Y-3.0472
X5.9882Y-2.5197
X5.9921Y-2.5591
X5.9961Y-1.6378
X5.9961Y-1.8031
X6.0453Y-2.1161
X6.0453Y-2.1772
X6.063Y-2.7008
X6.063Y-3.0472
X6.0709Y-1.7205
X6.1024Y-2.6929
X6.1024Y-3.0709
T2
X5.1614Y-2.3622
X5.1891Y-2.2954
X5.1891Y-2.429
X5.2559Y-2.2677
X5.2559Y-2.4567
X5.3227Y-2.2954
X5.3227Y-2.429
X5.3504Y-2.3622
X5.3517Y-1.9029
X5.3517Y-2.8215
X5.3794Y-1.8361
X5.3794Y-1.9697
X5.3794Y-2.7547
X5.3794Y-2.8884
X5.4462Y-1.8084
X5.4462Y-1.9974
X5.4462Y-2.7271
X5.4462Y-2.916
X5.513Y-1.8361
X5.513Y-1.9697
X5.513Y-2.7547
X5.513Y-2.8884
X5.5407Y-1.9029
X5.5407Y-2.8215
X6.2704Y-1.9029
X6.2704Y-2.8215
X6.298Y-1.8361
X6.298Y-1.9697
X6.298Y-2.7547
X6.298Y-2.8884
X6.3649Y-1.8084
X6.3649Y-1.9974
X6.3649Y-2.7271
X6.3649Y-2.916
X6.4317Y-1.8361
X6.4317Y-1.9697
X6.4317Y-2.7547
X6.4317Y-2.8884
X6.4593Y-1.9029
X6.4593Y-2.8215
X6.4606Y-2.3622
X6.4883Y-2.2954
X6.4883Y-2.429
X6.5551Y-2.2677
X6.5551Y-2.4567
X6.6219Y-2.2954
X6.6219Y-2.429
X6.6496Y-2.3622
T3
X5.2559Y-2.3622
X5.4462Y-1.9029
X5.4462Y-1.9029
X5.4462Y-2.8215
X5.4462Y-2.8215
X6.3649Y-1.9029
X6.3649Y-1.9029
X6.3649Y-2.8215
X6.3649Y-2.8215
X6.5551Y-2.3622
X6.5551Y-2.3622
T0
M30
