%TF.GenerationSoftware,KiCad,Pcbnew,7.0.6-7.0.6~ubuntu22.04.1*%
%TF.CreationDate,2023-10-10T10:40:32+08:00*%
%TF.ProjectId,CAM,43414d2e-6b69-4636-9164-5f7063625858,rev?*%
%TF.SameCoordinates,Original*%
%TF.FileFunction,Soldermask,Bot*%
%TF.FilePolarity,Negative*%
%FSLAX46Y46*%
G04 Gerber Fmt 4.6, Leading zero omitted, Abs format (unit mm)*
G04 Created by KiCad (PCBNEW 7.0.6-7.0.6~ubuntu22.04.1) date 2023-10-10 10:40:32*
%MOMM*%
%LPD*%
G01*
G04 APERTURE LIST*
G04 Aperture macros list*
%AMRoundRect*
0 Rectangle with rounded corners*
0 $1 Rounding radius*
0 $2 $3 $4 $5 $6 $7 $8 $9 X,Y pos of 4 corners*
0 Add a 4 corners polygon primitive as box body*
4,1,4,$2,$3,$4,$5,$6,$7,$8,$9,$2,$3,0*
0 Add four circle primitives for the rounded corners*
1,1,$1+$1,$2,$3*
1,1,$1+$1,$4,$5*
1,1,$1+$1,$6,$7*
1,1,$1+$1,$8,$9*
0 Add four rect primitives between the rounded corners*
20,1,$1+$1,$2,$3,$4,$5,0*
20,1,$1+$1,$4,$5,$6,$7,0*
20,1,$1+$1,$6,$7,$8,$9,0*
20,1,$1+$1,$8,$9,$2,$3,0*%
G04 Aperture macros list end*
%ADD10C,0.800000*%
%ADD11C,6.400000*%
%ADD12RoundRect,0.100000X0.100000X-0.637500X0.100000X0.637500X-0.100000X0.637500X-0.100000X-0.637500X0*%
G04 APERTURE END LIST*
D10*
%TO.C,REF\u002A\u002A*%
X135932738Y-48332738D03*
X136635682Y-46635682D03*
X136635682Y-50029794D03*
X138332738Y-45932738D03*
D11*
X138332738Y-48332738D03*
D10*
X138332738Y-50732738D03*
X140029794Y-46635682D03*
X140029794Y-50029794D03*
X140732738Y-48332738D03*
%TD*%
D11*
%TO.C,*%
X161667262Y-71667262D03*
%TD*%
%TO.C,*%
X138332738Y-71667262D03*
%TD*%
%TO.C,*%
X166500000Y-60000000D03*
%TD*%
%TO.C,*%
X161667262Y-48332738D03*
%TD*%
D10*
%TO.C,REF\u002A\u002A*%
X164100000Y-60000000D03*
X164802944Y-58302944D03*
X164802944Y-61697056D03*
X166500000Y-57600000D03*
D11*
X166500000Y-60000000D03*
D10*
X166500000Y-62400000D03*
X168197056Y-58302944D03*
X168197056Y-61697056D03*
X168900000Y-60000000D03*
%TD*%
%TO.C,REF\u002A\u002A*%
X131100000Y-60000000D03*
X131802944Y-58302944D03*
X131802944Y-61697056D03*
X133500000Y-57600000D03*
D11*
X133500000Y-60000000D03*
D10*
X133500000Y-62400000D03*
X135197056Y-58302944D03*
X135197056Y-61697056D03*
X135900000Y-60000000D03*
%TD*%
D11*
%TO.C,*%
X138332738Y-48332738D03*
%TD*%
D10*
%TO.C,REF\u002A\u002A*%
X159267262Y-48332738D03*
X159970206Y-46635682D03*
X159970206Y-50029794D03*
X161667262Y-45932738D03*
D11*
X161667262Y-48332738D03*
D10*
X161667262Y-50732738D03*
X163364318Y-46635682D03*
X163364318Y-50029794D03*
X164067262Y-48332738D03*
%TD*%
%TO.C,REF\u002A\u002A*%
X159267262Y-71667262D03*
X159970206Y-69970206D03*
X159970206Y-73364318D03*
X161667262Y-69267262D03*
D11*
X161667262Y-71667262D03*
D10*
X161667262Y-74067262D03*
X163364318Y-69970206D03*
X163364318Y-73364318D03*
X164067262Y-71667262D03*
%TD*%
%TO.C,REF\u002A\u002A*%
X135932738Y-71667262D03*
X136635682Y-69970206D03*
X136635682Y-73364318D03*
X138332738Y-69267262D03*
D11*
X138332738Y-71667262D03*
D10*
X138332738Y-74067262D03*
X140029794Y-69970206D03*
X140029794Y-73364318D03*
X140732738Y-71667262D03*
%TD*%
D12*
%TO.C,U1*%
X151950000Y-62862500D03*
X151300000Y-62862500D03*
X150650000Y-62862500D03*
X150000000Y-62862500D03*
X149350000Y-62862500D03*
X148700000Y-62862500D03*
X148050000Y-62862500D03*
X148050000Y-57137500D03*
X148700000Y-57137500D03*
X149350000Y-57137500D03*
X150000000Y-57137500D03*
X150650000Y-57137500D03*
X151300000Y-57137500D03*
X151950000Y-57137500D03*
%TD*%
M02*
