%TF.GenerationSoftware,KiCad,Pcbnew,7.0.6-7.0.6~ubuntu22.04.1*%
%TF.CreationDate,2023-09-05T16:39:34+08:00*%
%TF.ProjectId,CAM_Module,43414d5f-4d6f-4647-956c-652e6b696361,rev?*%
%TF.SameCoordinates,Original*%
%TF.FileFunction,Copper,L1,Top*%
%TF.FilePolarity,Positive*%
%FSLAX46Y46*%
G04 Gerber Fmt 4.6, Leading zero omitted, Abs format (unit mm)*
G04 Created by KiCad (PCBNEW 7.0.6-7.0.6~ubuntu22.04.1) date 2023-09-05 16:39:34*
%MOMM*%
%LPD*%
G01*
G04 APERTURE LIST*
G04 Aperture macros list*
%AMRoundRect*
0 Rectangle with rounded corners*
0 $1 Rounding radius*
0 $2 $3 $4 $5 $6 $7 $8 $9 X,Y pos of 4 corners*
0 Add a 4 corners polygon primitive as box body*
4,1,4,$2,$3,$4,$5,$6,$7,$8,$9,$2,$3,0*
0 Add four circle primitives for the rounded corners*
1,1,$1+$1,$2,$3*
1,1,$1+$1,$4,$5*
1,1,$1+$1,$6,$7*
1,1,$1+$1,$8,$9*
0 Add four rect primitives between the rounded corners*
20,1,$1+$1,$2,$3,$4,$5,0*
20,1,$1+$1,$4,$5,$6,$7,0*
20,1,$1+$1,$6,$7,$8,$9,0*
20,1,$1+$1,$8,$9,$2,$3,0*%
%AMFreePoly0*
4,1,19,0.500000,-0.750000,0.000000,-0.750000,0.000000,-0.744911,-0.071157,-0.744911,-0.207708,-0.704816,-0.327430,-0.627875,-0.420627,-0.520320,-0.479746,-0.390866,-0.500000,-0.250000,-0.500000,0.250000,-0.479746,0.390866,-0.420627,0.520320,-0.327430,0.627875,-0.207708,0.704816,-0.071157,0.744911,0.000000,0.744911,0.000000,0.750000,0.500000,0.750000,0.500000,-0.750000,0.500000,-0.750000,
$1*%
%AMFreePoly1*
4,1,19,0.000000,0.744911,0.071157,0.744911,0.207708,0.704816,0.327430,0.627875,0.420627,0.520320,0.479746,0.390866,0.500000,0.250000,0.500000,-0.250000,0.479746,-0.390866,0.420627,-0.520320,0.327430,-0.627875,0.207708,-0.704816,0.071157,-0.744911,0.000000,-0.744911,0.000000,-0.750000,-0.500000,-0.750000,-0.500000,0.750000,0.000000,0.750000,0.000000,0.744911,0.000000,0.744911,
$1*%
G04 Aperture macros list end*
%TA.AperFunction,SMDPad,CuDef*%
%ADD10RoundRect,0.250000X-1.000000X-0.650000X1.000000X-0.650000X1.000000X0.650000X-1.000000X0.650000X0*%
%TD*%
%TA.AperFunction,SMDPad,CuDef*%
%ADD11RoundRect,0.250000X-0.375000X-0.625000X0.375000X-0.625000X0.375000X0.625000X-0.375000X0.625000X0*%
%TD*%
%TA.AperFunction,SMDPad,CuDef*%
%ADD12R,1.000000X1.500000*%
%TD*%
%TA.AperFunction,SMDPad,CuDef*%
%ADD13RoundRect,0.237500X0.250000X0.237500X-0.250000X0.237500X-0.250000X-0.237500X0.250000X-0.237500X0*%
%TD*%
%TA.AperFunction,SMDPad,CuDef*%
%ADD14RoundRect,0.237500X0.287500X0.237500X-0.287500X0.237500X-0.287500X-0.237500X0.287500X-0.237500X0*%
%TD*%
%TA.AperFunction,SMDPad,CuDef*%
%ADD15RoundRect,0.237500X0.300000X0.237500X-0.300000X0.237500X-0.300000X-0.237500X0.300000X-0.237500X0*%
%TD*%
%TA.AperFunction,SMDPad,CuDef*%
%ADD16FreePoly0,90.000000*%
%TD*%
%TA.AperFunction,SMDPad,CuDef*%
%ADD17FreePoly1,90.000000*%
%TD*%
%TA.AperFunction,ComponentPad*%
%ADD18C,0.800000*%
%TD*%
%TA.AperFunction,ComponentPad*%
%ADD19C,6.400000*%
%TD*%
%TA.AperFunction,SMDPad,CuDef*%
%ADD20RoundRect,0.237500X-0.250000X-0.237500X0.250000X-0.237500X0.250000X0.237500X-0.250000X0.237500X0*%
%TD*%
%TA.AperFunction,SMDPad,CuDef*%
%ADD21RoundRect,0.237500X-0.300000X-0.237500X0.300000X-0.237500X0.300000X0.237500X-0.300000X0.237500X0*%
%TD*%
%TA.AperFunction,SMDPad,CuDef*%
%ADD22RoundRect,0.237500X-0.287500X-0.237500X0.287500X-0.237500X0.287500X0.237500X-0.287500X0.237500X0*%
%TD*%
%TA.AperFunction,SMDPad,CuDef*%
%ADD23RoundRect,0.250000X-0.250000X-1.500000X0.250000X-1.500000X0.250000X1.500000X-0.250000X1.500000X0*%
%TD*%
%TA.AperFunction,SMDPad,CuDef*%
%ADD24RoundRect,0.250001X-0.499999X-1.449999X0.499999X-1.449999X0.499999X1.449999X-0.499999X1.449999X0*%
%TD*%
%TA.AperFunction,SMDPad,CuDef*%
%ADD25R,1.500000X2.000000*%
%TD*%
%TA.AperFunction,SMDPad,CuDef*%
%ADD26R,3.800000X2.000000*%
%TD*%
%TA.AperFunction,ViaPad*%
%ADD27C,0.500000*%
%TD*%
%TA.AperFunction,Conductor*%
%ADD28C,0.250000*%
%TD*%
G04 APERTURE END LIST*
D10*
%TO.P,D4,1,K*%
%TO.N,Net-(D4-K)*%
X140250000Y-64400000D03*
%TO.P,D4,2,A*%
%TO.N,VDD*%
X144250000Y-64400000D03*
%TD*%
D11*
%TO.P,D3,2,A*%
%TO.N,GND*%
X155100000Y-52850000D03*
%TO.P,D3,1,K*%
%TO.N,Net-(D3-K)*%
X152300000Y-52850000D03*
%TD*%
D12*
%TO.P,JP2,3,B*%
%TO.N,Net-(D3-K)*%
X142350000Y-59907500D03*
%TO.P,JP2,2,C*%
%TO.N,Net-(D4-K)*%
X141050000Y-59907500D03*
%TO.P,JP2,1,A*%
%TO.N,Net-(JP2-A)*%
X139750000Y-59907500D03*
%TD*%
D13*
%TO.P,R2,1*%
%TO.N,Net-(JP2-A)*%
X138911250Y-50097500D03*
%TO.P,R2,2*%
%TO.N,Net-(D2-A)*%
X137086250Y-50097500D03*
%TD*%
D14*
%TO.P,D2,1,K*%
%TO.N,GND*%
X138853750Y-48132500D03*
%TO.P,D2,2,A*%
%TO.N,Net-(D2-A)*%
X137103750Y-48132500D03*
%TD*%
D15*
%TO.P,C4,1*%
%TO.N,Net-(JP2-A)*%
X150000000Y-50500000D03*
%TO.P,C4,2*%
%TO.N,GND*%
X148275000Y-50500000D03*
%TD*%
D16*
%TO.P,JP1,1,A*%
%TO.N,GND*%
X154950000Y-60650000D03*
D17*
%TO.P,JP1,2,B*%
%TO.N,Net-(JP1-B)*%
X154950000Y-59350000D03*
%TD*%
D18*
%TO.P,REF\u002A\u002A,1*%
%TO.N,N/C*%
X164100000Y-60000000D03*
X164802944Y-58302944D03*
X164802944Y-61697056D03*
X166500000Y-57600000D03*
D19*
%TO.N,GND*%
X166500000Y-60000000D03*
D18*
%TO.N,N/C*%
X166500000Y-62400000D03*
X168197056Y-58302944D03*
X168197056Y-61697056D03*
X168900000Y-60000000D03*
%TD*%
D15*
%TO.P,C1,1*%
%TO.N,Net-(D3-K)*%
X149262500Y-55200000D03*
%TO.P,C1,2*%
%TO.N,GND*%
X147537500Y-55200000D03*
%TD*%
D20*
%TO.P,R1,1*%
%TO.N,Net-(D3-K)*%
X161086250Y-50100000D03*
%TO.P,R1,2*%
%TO.N,Net-(D1-A)*%
X162911250Y-50100000D03*
%TD*%
D18*
%TO.P,REF\u002A\u002A,1*%
%TO.N,N/C*%
X131100000Y-60000000D03*
X131802944Y-58302944D03*
X131802944Y-61697056D03*
X133500000Y-57600000D03*
D19*
%TO.N,GND*%
X133500000Y-60000000D03*
D18*
%TO.N,N/C*%
X133500000Y-62400000D03*
X135197056Y-58302944D03*
X135197056Y-61697056D03*
X135900000Y-60000000D03*
%TD*%
D21*
%TO.P,C3,1*%
%TO.N,Net-(D3-K)*%
X152300000Y-50500000D03*
%TO.P,C3,2*%
%TO.N,GND*%
X154025000Y-50500000D03*
%TD*%
D15*
%TO.P,C2,1*%
%TO.N,GND*%
X153162500Y-55200000D03*
%TO.P,C2,2*%
%TO.N,Net-(U1-VDD3V3)*%
X151437500Y-55200000D03*
%TD*%
D22*
%TO.P,D1,1,K*%
%TO.N,GND*%
X161146250Y-48135000D03*
%TO.P,D1,2,A*%
%TO.N,Net-(D1-A)*%
X162896250Y-48135000D03*
%TD*%
D23*
%TO.P,J1,1,Pin_1*%
%TO.N,VDD*%
X145000000Y-70100000D03*
%TO.P,J1,2,Pin_2*%
%TO.N,/MOSI*%
X147000000Y-70100000D03*
%TO.P,J1,3,Pin_3*%
%TO.N,/MISO*%
X149000000Y-70100000D03*
%TO.P,J1,4,Pin_4*%
%TO.N,/CLK*%
X151000000Y-70100000D03*
%TO.P,J1,5,Pin_5*%
%TO.N,/CS*%
X153000000Y-70100000D03*
%TO.P,J1,6,Pin_6*%
%TO.N,GND*%
X155000000Y-70100000D03*
D24*
%TO.P,J1,MP*%
%TO.N,N/C*%
X142650000Y-75850000D03*
X157350000Y-75850000D03*
%TD*%
D25*
%TO.P,U2,1,GND*%
%TO.N,GND*%
X147700000Y-48400000D03*
%TO.P,U2,2,VO*%
%TO.N,Net-(JP2-A)*%
X150000000Y-48400000D03*
D26*
X150000000Y-42100000D03*
D25*
%TO.P,U2,3,VI*%
%TO.N,Net-(D3-K)*%
X152300000Y-48400000D03*
%TD*%
D27*
%TO.N,GND*%
X142600000Y-54500000D03*
X142700000Y-52650000D03*
X162000000Y-61200000D03*
X161400000Y-61200000D03*
X160800000Y-61200000D03*
X160200000Y-61200000D03*
X159600000Y-61200000D03*
X159000000Y-61200000D03*
X158400000Y-61200000D03*
X157800000Y-61200000D03*
X157200000Y-61200000D03*
X156600000Y-61200000D03*
X162000000Y-60600000D03*
X161400000Y-60600000D03*
X160800000Y-60600000D03*
X160200000Y-60600000D03*
X159600000Y-60600000D03*
X159000000Y-60600000D03*
X158400000Y-60600000D03*
X157800000Y-60600000D03*
X157200000Y-60600000D03*
X156600000Y-60600000D03*
X162000000Y-60000000D03*
X161400000Y-60000000D03*
X160800000Y-60000000D03*
X160200000Y-60000000D03*
X159600000Y-60000000D03*
X159000000Y-60000000D03*
X158400000Y-60000000D03*
X157800000Y-60000000D03*
X157200000Y-60000000D03*
X156600000Y-60000000D03*
X162000000Y-59400000D03*
X161400000Y-59400000D03*
X160800000Y-59400000D03*
X160200000Y-59400000D03*
X159600000Y-59400000D03*
X159000000Y-59400000D03*
X158400000Y-59400000D03*
X157800000Y-59400000D03*
X157200000Y-59400000D03*
X156600000Y-59400000D03*
X162000000Y-58800000D03*
X161400000Y-58800000D03*
X160800000Y-58800000D03*
X160200000Y-58800000D03*
X159600000Y-58800000D03*
X159000000Y-58800000D03*
X158400000Y-58800000D03*
X157800000Y-58800000D03*
X157200000Y-58800000D03*
X156600000Y-58800000D03*
X148300000Y-51625500D03*
X150000000Y-54100000D03*
X151050000Y-53500000D03*
X150350000Y-55150000D03*
X151250000Y-58700000D03*
X146200000Y-54500000D03*
X149400000Y-60800000D03*
X148100000Y-66150000D03*
X152500000Y-66000000D03*
X145950000Y-67850000D03*
X153850000Y-67850000D03*
X152000000Y-67850000D03*
X150000000Y-67850000D03*
X148000000Y-67850000D03*
X150100000Y-65650000D03*
X137750000Y-49150000D03*
X162200000Y-49200000D03*
X151600000Y-51400000D03*
X148900000Y-53200000D03*
X143500000Y-51600000D03*
X141600000Y-51750000D03*
X140500000Y-54900000D03*
X141650000Y-58600000D03*
X140400000Y-58600000D03*
X152950000Y-51450000D03*
X154900000Y-49100000D03*
X153600000Y-49100000D03*
%TO.N,Net-(D3-K)*%
X149900000Y-56000000D03*
%TO.N,GND*%
X148600000Y-64225000D03*
X151200000Y-64250000D03*
X152975000Y-63025000D03*
%TO.N,Net-(U1-VDD3V3)*%
X150700000Y-56000000D03*
%TO.N,Net-(JP1-B)*%
X148650000Y-60200000D03*
%TO.N,/MOSI*%
X149950000Y-61500000D03*
%TO.N,/MISO*%
X150600000Y-61800000D03*
%TO.N,/CLK*%
X151350000Y-61800000D03*
%TO.N,/CS*%
X152000000Y-61500000D03*
%TD*%
D28*
%TO.N,Net-(JP2-A)*%
X142700000Y-51700000D02*
X143200000Y-52200000D01*
X143200000Y-52200000D02*
X148850000Y-52200000D01*
X148850000Y-52200000D02*
X150000000Y-51050000D01*
X150000000Y-51050000D02*
X150000000Y-50500000D01*
%TO.N,Net-(D3-K)*%
X155300000Y-48400000D02*
X157000000Y-50100000D01*
X152300000Y-48400000D02*
X155300000Y-48400000D01*
X157000000Y-50100000D02*
X161086250Y-50100000D01*
%TO.N,Net-(JP2-A)*%
X150000000Y-48400000D02*
X150000000Y-42100000D01*
%TO.N,Net-(D1-A)*%
X162896250Y-48135000D02*
X162896250Y-50085000D01*
X162896250Y-50085000D02*
X162911250Y-50100000D01*
%TO.N,Net-(D2-A)*%
X137103750Y-48132500D02*
X137103750Y-50080000D01*
X137103750Y-50080000D02*
X137086250Y-50097500D01*
%TO.N,Net-(JP2-A)*%
X138911250Y-50097500D02*
X141097500Y-50097500D01*
X141097500Y-50097500D02*
X142700000Y-51700000D01*
X139750000Y-54650000D02*
X142700000Y-51700000D01*
X139750000Y-59907500D02*
X139750000Y-54650000D01*
%TO.N,Net-(D3-K)*%
X142350000Y-59907500D02*
X142350000Y-55650000D01*
X144162500Y-53837500D02*
X149262500Y-53837500D01*
X142350000Y-55650000D02*
X144162500Y-53837500D01*
%TO.N,Net-(D4-K)*%
X141050000Y-59907500D02*
X141050000Y-61700000D01*
X141050000Y-61700000D02*
X140250000Y-62500000D01*
X140250000Y-62500000D02*
X140250000Y-64400000D01*
%TO.N,VDD*%
X145000000Y-70100000D02*
X145000000Y-67000000D01*
X145000000Y-67000000D02*
X144250000Y-66250000D01*
X144250000Y-66250000D02*
X144250000Y-64400000D01*
%TO.N,Net-(D3-K)*%
X152300000Y-48400000D02*
X152300000Y-50500000D01*
X149262500Y-53837500D02*
X150250000Y-52850000D01*
X149900000Y-56000000D02*
X149900000Y-55837500D01*
X149900000Y-55837500D02*
X149262500Y-55200000D01*
X149262500Y-55200000D02*
X149262500Y-53837500D01*
X152300000Y-50500000D02*
X152300000Y-52850000D01*
X150250000Y-52850000D02*
X152300000Y-52850000D01*
%TO.N,GND*%
X154975000Y-70795000D02*
X154980000Y-70800000D01*
%TO.N,Net-(U1-VDD3V3)*%
X150700000Y-56000000D02*
X150700000Y-55937500D01*
X150700000Y-55937500D02*
X151437500Y-55200000D01*
%TO.N,Net-(JP1-B)*%
X154950000Y-59350000D02*
X149500000Y-59350000D01*
X149500000Y-59350000D02*
X148650000Y-60200000D01*
%TO.N,Net-(JP2-A)*%
X150000000Y-48400000D02*
X150000000Y-50500000D01*
%TO.N,/MOSI*%
X147000000Y-64450000D02*
X149950000Y-61500000D01*
X147000000Y-70100000D02*
X147000000Y-64450000D01*
%TO.N,/MISO*%
X150600000Y-63550000D02*
X150600000Y-61800000D01*
X149000000Y-70100000D02*
X149000000Y-65150000D01*
X149000000Y-65150000D02*
X150600000Y-63550000D01*
%TO.N,/CLK*%
X151000000Y-66150000D02*
X152100000Y-65050000D01*
X152100000Y-62550000D02*
X151350000Y-61800000D01*
X151000000Y-70100000D02*
X151000000Y-66150000D01*
X152100000Y-65050000D02*
X152100000Y-62550000D01*
%TO.N,/CS*%
X153000000Y-66750000D02*
X154000000Y-65750000D01*
X152900000Y-61500000D02*
X152000000Y-61500000D01*
X154000000Y-62600000D02*
X152900000Y-61500000D01*
X154000000Y-65750000D02*
X154000000Y-62600000D01*
X153000000Y-70100000D02*
X153000000Y-66750000D01*
%TD*%
%TA.AperFunction,Conductor*%
%TO.N,GND*%
G36*
X150807403Y-40018620D02*
G01*
X150986950Y-40026684D01*
X151703049Y-40074964D01*
X151882089Y-40091079D01*
X152595233Y-40171431D01*
X152595242Y-40171432D01*
X152773386Y-40195562D01*
X153407526Y-40296000D01*
X153482220Y-40307831D01*
X153517222Y-40314182D01*
X153659148Y-40339938D01*
X154362220Y-40483893D01*
X154537454Y-40523888D01*
X155233422Y-40699257D01*
X155406692Y-40747076D01*
X156028725Y-40933863D01*
X156094060Y-40953483D01*
X156265050Y-41009040D01*
X156942462Y-41246077D01*
X157110745Y-41309234D01*
X157776847Y-41576427D01*
X157942173Y-41647091D01*
X158390183Y-41850586D01*
X158595557Y-41943872D01*
X158595582Y-41943883D01*
X158757585Y-42021900D01*
X159397029Y-42347713D01*
X159501011Y-42403669D01*
X159555335Y-42432902D01*
X160179494Y-42787061D01*
X160333884Y-42879304D01*
X160941528Y-43261112D01*
X161091573Y-43360156D01*
X161681539Y-43768886D01*
X161826916Y-43874509D01*
X162397975Y-44309314D01*
X162538522Y-44421398D01*
X163089405Y-44881308D01*
X163224827Y-44999623D01*
X163754538Y-45483800D01*
X163884489Y-45608046D01*
X164391953Y-46115510D01*
X164516199Y-46245461D01*
X165000376Y-46775172D01*
X165118691Y-46910594D01*
X165326910Y-47160000D01*
X165577180Y-47459775D01*
X165578605Y-47461481D01*
X165612022Y-47503384D01*
X165690701Y-47602045D01*
X165953794Y-47947582D01*
X166067318Y-48096682D01*
X166125479Y-48173068D01*
X166131827Y-48181805D01*
X166231122Y-48318473D01*
X166639840Y-48908422D01*
X166738893Y-49058481D01*
X167120694Y-49666114D01*
X167212931Y-49820492D01*
X167567097Y-50444664D01*
X167652284Y-50602965D01*
X167715287Y-50726615D01*
X167978099Y-51242414D01*
X168056116Y-51404417D01*
X168352908Y-52057826D01*
X168423572Y-52223152D01*
X168690758Y-52889237D01*
X168753921Y-53057534D01*
X168990958Y-53734946D01*
X169046515Y-53905935D01*
X169252917Y-54593285D01*
X169300741Y-54766572D01*
X169476100Y-55462499D01*
X169498709Y-55561555D01*
X169516107Y-55637781D01*
X169660060Y-56340845D01*
X169692168Y-56517779D01*
X169804432Y-57226583D01*
X169828567Y-57404757D01*
X169896183Y-58004872D01*
X169884129Y-58073694D01*
X169836780Y-58125074D01*
X169769169Y-58142698D01*
X169702763Y-58120972D01*
X169668968Y-58086291D01*
X169497468Y-57822206D01*
X169288904Y-57564649D01*
X169288902Y-57564648D01*
X168878822Y-57974729D01*
X168817499Y-58008214D01*
X168747807Y-58003230D01*
X168692766Y-57962535D01*
X168646960Y-57902841D01*
X168625338Y-57874662D01*
X168537461Y-57807232D01*
X168496261Y-57750806D01*
X168492106Y-57681060D01*
X168525269Y-57621177D01*
X168935350Y-57211096D01*
X168935350Y-57211095D01*
X168677793Y-57002531D01*
X168352543Y-56791310D01*
X168006994Y-56615244D01*
X167644936Y-56476262D01*
X167270330Y-56375887D01*
X167270323Y-56375886D01*
X166887287Y-56315219D01*
X166500001Y-56294922D01*
X166499999Y-56294922D01*
X166112712Y-56315219D01*
X165729676Y-56375886D01*
X165729669Y-56375887D01*
X165355063Y-56476262D01*
X164993005Y-56615244D01*
X164647456Y-56791310D01*
X164322206Y-57002531D01*
X164064648Y-57211095D01*
X164064648Y-57211096D01*
X164474730Y-57621177D01*
X164508215Y-57682500D01*
X164503231Y-57752191D01*
X164462536Y-57807233D01*
X164374662Y-57874661D01*
X164374661Y-57874662D01*
X164307233Y-57962536D01*
X164250805Y-58003738D01*
X164181059Y-58007893D01*
X164121177Y-57974730D01*
X163711096Y-57564648D01*
X163711095Y-57564648D01*
X163502531Y-57822206D01*
X163291310Y-58147456D01*
X163115244Y-58493005D01*
X162976262Y-58855063D01*
X162875887Y-59229669D01*
X162875886Y-59229676D01*
X162815219Y-59612712D01*
X162794922Y-59999999D01*
X162794922Y-60000000D01*
X162815219Y-60387287D01*
X162875886Y-60770323D01*
X162875887Y-60770330D01*
X162976262Y-61144936D01*
X163115244Y-61506994D01*
X163291310Y-61852543D01*
X163502531Y-62177793D01*
X163711095Y-62435350D01*
X163711096Y-62435350D01*
X164121177Y-62025269D01*
X164182500Y-61991784D01*
X164252191Y-61996768D01*
X164307232Y-62037461D01*
X164374662Y-62125338D01*
X164394927Y-62140888D01*
X164462535Y-62192766D01*
X164503737Y-62249194D01*
X164507892Y-62318940D01*
X164474729Y-62378822D01*
X164064648Y-62788902D01*
X164064649Y-62788904D01*
X164322206Y-62997468D01*
X164647456Y-63208689D01*
X164993005Y-63384755D01*
X165355063Y-63523737D01*
X165729669Y-63624112D01*
X165729676Y-63624113D01*
X166112712Y-63684780D01*
X166499999Y-63705078D01*
X166500001Y-63705078D01*
X166887287Y-63684780D01*
X167270323Y-63624113D01*
X167270330Y-63624112D01*
X167644936Y-63523737D01*
X168006994Y-63384755D01*
X168352543Y-63208689D01*
X168677783Y-62997476D01*
X168677785Y-62997475D01*
X168935349Y-62788902D01*
X168525269Y-62378822D01*
X168491784Y-62317499D01*
X168496768Y-62247807D01*
X168537462Y-62192767D01*
X168625338Y-62125338D01*
X168692767Y-62037462D01*
X168749192Y-61996261D01*
X168818938Y-61992106D01*
X168878822Y-62025269D01*
X169288902Y-62435349D01*
X169497475Y-62177785D01*
X169497475Y-62177783D01*
X169668968Y-61913708D01*
X169721989Y-61868205D01*
X169791194Y-61858590D01*
X169854611Y-61887917D01*
X169892105Y-61946875D01*
X169896183Y-61995127D01*
X169828567Y-62595242D01*
X169804432Y-62773416D01*
X169692168Y-63482220D01*
X169660060Y-63659154D01*
X169516107Y-64362218D01*
X169476107Y-64537470D01*
X169393877Y-64863811D01*
X169300742Y-65233425D01*
X169252917Y-65406714D01*
X169046515Y-66094064D01*
X168990958Y-66265053D01*
X168753921Y-66942465D01*
X168690758Y-67110762D01*
X168423572Y-67776847D01*
X168352908Y-67942173D01*
X168056116Y-68595582D01*
X167978099Y-68757585D01*
X167652290Y-69397022D01*
X167567097Y-69555335D01*
X167212931Y-70179507D01*
X167120694Y-70333885D01*
X166738893Y-70941518D01*
X166639840Y-71091577D01*
X166231122Y-71681526D01*
X166125486Y-71826922D01*
X165690701Y-72397954D01*
X165578615Y-72538506D01*
X165118691Y-73089405D01*
X165000376Y-73224827D01*
X164516199Y-73754538D01*
X164391953Y-73884489D01*
X163884489Y-74391953D01*
X163754538Y-74516199D01*
X163224827Y-75000376D01*
X163089405Y-75118691D01*
X162538506Y-75578615D01*
X162397954Y-75690701D01*
X161826922Y-76125486D01*
X161681526Y-76231122D01*
X161091577Y-76639840D01*
X160941518Y-76738893D01*
X160333885Y-77120694D01*
X160179507Y-77212931D01*
X159555335Y-77567097D01*
X159397022Y-77652290D01*
X158757585Y-77978099D01*
X158595582Y-78056116D01*
X157942173Y-78352908D01*
X157776847Y-78423572D01*
X157110762Y-78690758D01*
X156942465Y-78753921D01*
X156265053Y-78990958D01*
X156094064Y-79046515D01*
X155406714Y-79252917D01*
X155233425Y-79300742D01*
X154537511Y-79476097D01*
X154431289Y-79500342D01*
X154362218Y-79516107D01*
X153659154Y-79660060D01*
X153482220Y-79692168D01*
X152773416Y-79804432D01*
X152595242Y-79828567D01*
X151882090Y-79908920D01*
X151703025Y-79925036D01*
X150986987Y-79973313D01*
X150807386Y-79981379D01*
X150089870Y-79997483D01*
X149910130Y-79997483D01*
X149192613Y-79981379D01*
X149013012Y-79973313D01*
X148296974Y-79925036D01*
X148117909Y-79908920D01*
X147404757Y-79828567D01*
X147226583Y-79804432D01*
X146517779Y-79692168D01*
X146340845Y-79660060D01*
X145637781Y-79516107D01*
X145617397Y-79511454D01*
X145462499Y-79476100D01*
X144766572Y-79300741D01*
X144593285Y-79252917D01*
X143905935Y-79046515D01*
X143734946Y-78990958D01*
X143057534Y-78753921D01*
X142889237Y-78690758D01*
X142223152Y-78423572D01*
X142057826Y-78352908D01*
X141404417Y-78056116D01*
X141242414Y-77978099D01*
X140602989Y-77652296D01*
X140546966Y-77622149D01*
X140444664Y-77567097D01*
X140069563Y-77354258D01*
X141699500Y-77354258D01*
X141702354Y-77384698D01*
X141702354Y-77384699D01*
X141747206Y-77512881D01*
X141747207Y-77512882D01*
X141827850Y-77622150D01*
X141937118Y-77702793D01*
X142065302Y-77747646D01*
X142065301Y-77747646D01*
X142069271Y-77748018D01*
X142095735Y-77750500D01*
X143204264Y-77750499D01*
X143234698Y-77747646D01*
X143362882Y-77702793D01*
X143472150Y-77622150D01*
X143552793Y-77512882D01*
X143597646Y-77384698D01*
X143600500Y-77354265D01*
X143600500Y-77354258D01*
X156399500Y-77354258D01*
X156402354Y-77384698D01*
X156402354Y-77384699D01*
X156447206Y-77512881D01*
X156447207Y-77512882D01*
X156527850Y-77622150D01*
X156637118Y-77702793D01*
X156765302Y-77747646D01*
X156765301Y-77747646D01*
X156769271Y-77748018D01*
X156795735Y-77750500D01*
X157904264Y-77750499D01*
X157934698Y-77747646D01*
X158062882Y-77702793D01*
X158172150Y-77622150D01*
X158252793Y-77512882D01*
X158297646Y-77384698D01*
X158300500Y-77354265D01*
X158300499Y-74345736D01*
X158297646Y-74315302D01*
X158252793Y-74187118D01*
X158172150Y-74077850D01*
X158062882Y-73997207D01*
X158062881Y-73997206D01*
X157934695Y-73952353D01*
X157934698Y-73952353D01*
X157904268Y-73949500D01*
X156795741Y-73949500D01*
X156765301Y-73952354D01*
X156765300Y-73952354D01*
X156637118Y-73997206D01*
X156527850Y-74077850D01*
X156447206Y-74187118D01*
X156402353Y-74315302D01*
X156399500Y-74345731D01*
X156399500Y-77354258D01*
X143600500Y-77354258D01*
X143600499Y-74345736D01*
X143597646Y-74315302D01*
X143552793Y-74187118D01*
X143472150Y-74077850D01*
X143362882Y-73997207D01*
X143362881Y-73997206D01*
X143234695Y-73952353D01*
X143234698Y-73952353D01*
X143204268Y-73949500D01*
X142095741Y-73949500D01*
X142065301Y-73952354D01*
X142065300Y-73952354D01*
X141937118Y-73997206D01*
X141827850Y-74077850D01*
X141747206Y-74187118D01*
X141702353Y-74315302D01*
X141699500Y-74345731D01*
X141699500Y-77354258D01*
X140069563Y-77354258D01*
X139820492Y-77212931D01*
X139666114Y-77120694D01*
X139058481Y-76738893D01*
X138908422Y-76639840D01*
X138318473Y-76231122D01*
X138173077Y-76125486D01*
X137602045Y-75690701D01*
X137550234Y-75649383D01*
X137461493Y-75578615D01*
X137228481Y-75384082D01*
X136910594Y-75118691D01*
X136775172Y-75000376D01*
X136245461Y-74516199D01*
X136115510Y-74391953D01*
X135608046Y-73884489D01*
X135483800Y-73754538D01*
X134999623Y-73224827D01*
X134881308Y-73089405D01*
X134421398Y-72538522D01*
X134309298Y-72397954D01*
X134042573Y-72047646D01*
X133874509Y-71826916D01*
X133768877Y-71681526D01*
X133360156Y-71091573D01*
X133261106Y-70941518D01*
X132879305Y-70333885D01*
X132787068Y-70179507D01*
X132432902Y-69555335D01*
X132403669Y-69501011D01*
X132347710Y-69397022D01*
X132021900Y-68757585D01*
X131943883Y-68595582D01*
X131923191Y-68550028D01*
X131800939Y-68280880D01*
X131647091Y-67942173D01*
X131576427Y-67776847D01*
X131309234Y-67110745D01*
X131246077Y-66942462D01*
X131009040Y-66265050D01*
X130953483Y-66094060D01*
X130913963Y-65962453D01*
X130747076Y-65406692D01*
X130699257Y-65233422D01*
X130523888Y-64537454D01*
X130483893Y-64362218D01*
X130339938Y-63659148D01*
X130307831Y-63482220D01*
X130259251Y-63175500D01*
X130195564Y-62773399D01*
X130171432Y-62595242D01*
X130156777Y-62465176D01*
X130103815Y-61995124D01*
X130115869Y-61926303D01*
X130163218Y-61874923D01*
X130230829Y-61857299D01*
X130297234Y-61879025D01*
X130331030Y-61913706D01*
X130502531Y-62177793D01*
X130711095Y-62435350D01*
X130711096Y-62435350D01*
X131121177Y-62025269D01*
X131182500Y-61991784D01*
X131252191Y-61996768D01*
X131307232Y-62037461D01*
X131374662Y-62125338D01*
X131394927Y-62140888D01*
X131462535Y-62192766D01*
X131503737Y-62249194D01*
X131507892Y-62318940D01*
X131474729Y-62378822D01*
X131064648Y-62788902D01*
X131064649Y-62788904D01*
X131322206Y-62997468D01*
X131647456Y-63208689D01*
X131993005Y-63384755D01*
X132355063Y-63523737D01*
X132729669Y-63624112D01*
X132729676Y-63624113D01*
X133112712Y-63684780D01*
X133499999Y-63705078D01*
X133500001Y-63705078D01*
X133887287Y-63684780D01*
X134270323Y-63624113D01*
X134270330Y-63624112D01*
X134644936Y-63523737D01*
X135006994Y-63384755D01*
X135352543Y-63208689D01*
X135677783Y-62997476D01*
X135677785Y-62997475D01*
X135935349Y-62788902D01*
X135525269Y-62378822D01*
X135491784Y-62317499D01*
X135496768Y-62247807D01*
X135537462Y-62192767D01*
X135625338Y-62125338D01*
X135692767Y-62037462D01*
X135749192Y-61996261D01*
X135818938Y-61992106D01*
X135878822Y-62025269D01*
X136288902Y-62435349D01*
X136497475Y-62177785D01*
X136497476Y-62177783D01*
X136708689Y-61852543D01*
X136884755Y-61506994D01*
X137023737Y-61144936D01*
X137124112Y-60770330D01*
X137124113Y-60770323D01*
X137184780Y-60387287D01*
X137205078Y-60000000D01*
X137205078Y-59999999D01*
X137184780Y-59612712D01*
X137124113Y-59229676D01*
X137124112Y-59229669D01*
X137023737Y-58855063D01*
X136884755Y-58493005D01*
X136708689Y-58147456D01*
X136497468Y-57822206D01*
X136288904Y-57564649D01*
X136288902Y-57564648D01*
X135878822Y-57974729D01*
X135817499Y-58008214D01*
X135747807Y-58003230D01*
X135692766Y-57962535D01*
X135646960Y-57902841D01*
X135625338Y-57874662D01*
X135537461Y-57807232D01*
X135496261Y-57750806D01*
X135492106Y-57681060D01*
X135525269Y-57621177D01*
X135935350Y-57211096D01*
X135935350Y-57211095D01*
X135677793Y-57002531D01*
X135352543Y-56791310D01*
X135006994Y-56615244D01*
X134644936Y-56476262D01*
X134270330Y-56375887D01*
X134270323Y-56375886D01*
X133887287Y-56315219D01*
X133500001Y-56294922D01*
X133499999Y-56294922D01*
X133112712Y-56315219D01*
X132729676Y-56375886D01*
X132729669Y-56375887D01*
X132355063Y-56476262D01*
X131993005Y-56615244D01*
X131647456Y-56791310D01*
X131322206Y-57002531D01*
X131064648Y-57211095D01*
X131064648Y-57211096D01*
X131474730Y-57621177D01*
X131508215Y-57682500D01*
X131503231Y-57752191D01*
X131462536Y-57807233D01*
X131374662Y-57874661D01*
X131374661Y-57874662D01*
X131307233Y-57962536D01*
X131250805Y-58003738D01*
X131181059Y-58007893D01*
X131121177Y-57974730D01*
X130711096Y-57564648D01*
X130711095Y-57564648D01*
X130502534Y-57822202D01*
X130331030Y-58086294D01*
X130278009Y-58131796D01*
X130208804Y-58141410D01*
X130145387Y-58112083D01*
X130107893Y-58053126D01*
X130103815Y-58004874D01*
X130103816Y-58004872D01*
X130171432Y-57404751D01*
X130195562Y-57226617D01*
X130307831Y-56517777D01*
X130320040Y-56450500D01*
X130339931Y-56340886D01*
X130483894Y-55637771D01*
X130523893Y-55462524D01*
X130699259Y-54766567D01*
X130747083Y-54593285D01*
X130953489Y-53905919D01*
X130962628Y-53877793D01*
X131009028Y-53734984D01*
X131246079Y-53057532D01*
X131309229Y-52889269D01*
X131576434Y-52223135D01*
X131577986Y-52219506D01*
X131647069Y-52057872D01*
X131943900Y-51404380D01*
X132021880Y-51242453D01*
X132347710Y-50602976D01*
X132432904Y-50444660D01*
X132443776Y-50425500D01*
X132787084Y-49820464D01*
X132879281Y-49666152D01*
X133261135Y-49058436D01*
X133360132Y-48908462D01*
X133696627Y-48422760D01*
X136378250Y-48422760D01*
X136381024Y-48452349D01*
X136424634Y-48576976D01*
X136498850Y-48677535D01*
X136503039Y-48683211D01*
X136609275Y-48761616D01*
X136659416Y-48779161D01*
X136695205Y-48791685D01*
X136751981Y-48832407D01*
X136777728Y-48897360D01*
X136778250Y-48908726D01*
X136778250Y-49328272D01*
X136758565Y-49395311D01*
X136705761Y-49441066D01*
X136695206Y-49445313D01*
X136629273Y-49468384D01*
X136523039Y-49546788D01*
X136523038Y-49546789D01*
X136444634Y-49653023D01*
X136401024Y-49777650D01*
X136398250Y-49807239D01*
X136398250Y-50387760D01*
X136401024Y-50417349D01*
X136444634Y-50541976D01*
X136523038Y-50648210D01*
X136523039Y-50648211D01*
X136629273Y-50726615D01*
X136629274Y-50726615D01*
X136629275Y-50726616D01*
X136753901Y-50770225D01*
X136753900Y-50770225D01*
X136783490Y-50773000D01*
X136783494Y-50773000D01*
X137389010Y-50773000D01*
X137418599Y-50770225D01*
X137418599Y-50770224D01*
X137543225Y-50726616D01*
X137649461Y-50648211D01*
X137727866Y-50541975D01*
X137771475Y-50417349D01*
X137772109Y-50410586D01*
X137774250Y-50387760D01*
X138223250Y-50387760D01*
X138226024Y-50417349D01*
X138269634Y-50541976D01*
X138348038Y-50648210D01*
X138348039Y-50648211D01*
X138454273Y-50726615D01*
X138454274Y-50726615D01*
X138454275Y-50726616D01*
X138578901Y-50770225D01*
X138578900Y-50770225D01*
X138608490Y-50773000D01*
X138608494Y-50773000D01*
X139214010Y-50773000D01*
X139243599Y-50770225D01*
X139368225Y-50726616D01*
X139474461Y-50648211D01*
X139552866Y-50541975D01*
X139565439Y-50506043D01*
X139606161Y-50449269D01*
X139671114Y-50423522D01*
X139682480Y-50423000D01*
X140911312Y-50423000D01*
X140978351Y-50442685D01*
X140998992Y-50459318D01*
X142151993Y-51612320D01*
X142185477Y-51673641D01*
X142180493Y-51743333D01*
X142151992Y-51787680D01*
X139531803Y-54407870D01*
X139527814Y-54411525D01*
X139496805Y-54437545D01*
X139476562Y-54472606D01*
X139473656Y-54477166D01*
X139450446Y-54510313D01*
X139448206Y-54515117D01*
X139441229Y-54531961D01*
X139439410Y-54536959D01*
X139432383Y-54576811D01*
X139431212Y-54582091D01*
X139420735Y-54621191D01*
X139424264Y-54661513D01*
X139424500Y-54666920D01*
X139424500Y-58833000D01*
X139404815Y-58900039D01*
X139352011Y-58945794D01*
X139300500Y-58957000D01*
X139230247Y-58957000D01*
X139171770Y-58968631D01*
X139171769Y-58968632D01*
X139105447Y-59012947D01*
X139061132Y-59079269D01*
X139061131Y-59079270D01*
X139049500Y-59137747D01*
X139049500Y-60677252D01*
X139061131Y-60735729D01*
X139061132Y-60735730D01*
X139105447Y-60802052D01*
X139171769Y-60846367D01*
X139171770Y-60846368D01*
X139230247Y-60857999D01*
X139230250Y-60858000D01*
X139230252Y-60858000D01*
X140269750Y-60858000D01*
X140269751Y-60857999D01*
X140284568Y-60855052D01*
X140328229Y-60846368D01*
X140328231Y-60846367D01*
X140331108Y-60844445D01*
X140338335Y-60842181D01*
X140339513Y-60841694D01*
X140339556Y-60841799D01*
X140397785Y-60823566D01*
X140465165Y-60842050D01*
X140468892Y-60844445D01*
X140471768Y-60846367D01*
X140471770Y-60846368D01*
X140530247Y-60857999D01*
X140530250Y-60858000D01*
X140530252Y-60858000D01*
X140600500Y-60858000D01*
X140667539Y-60877685D01*
X140713294Y-60930489D01*
X140724500Y-60982000D01*
X140724500Y-61513811D01*
X140704815Y-61580850D01*
X140688181Y-61601492D01*
X140031803Y-62257870D01*
X140027814Y-62261525D01*
X139996805Y-62287545D01*
X139976562Y-62322606D01*
X139973656Y-62327166D01*
X139950446Y-62360313D01*
X139948206Y-62365117D01*
X139941229Y-62381961D01*
X139939410Y-62386959D01*
X139932383Y-62426811D01*
X139931212Y-62432091D01*
X139920735Y-62471191D01*
X139924264Y-62511513D01*
X139924500Y-62516920D01*
X139924500Y-63175500D01*
X139904815Y-63242539D01*
X139852011Y-63288294D01*
X139800500Y-63299500D01*
X139195730Y-63299500D01*
X139165300Y-63302353D01*
X139165298Y-63302353D01*
X139037119Y-63347206D01*
X139037117Y-63347207D01*
X138927850Y-63427850D01*
X138847207Y-63537117D01*
X138847206Y-63537119D01*
X138802353Y-63665298D01*
X138802353Y-63665300D01*
X138799500Y-63695730D01*
X138799500Y-65104269D01*
X138802353Y-65134699D01*
X138802353Y-65134701D01*
X138847206Y-65262880D01*
X138847207Y-65262882D01*
X138927850Y-65372150D01*
X139037118Y-65452793D01*
X139079845Y-65467744D01*
X139165299Y-65497646D01*
X139195730Y-65500500D01*
X139195734Y-65500500D01*
X141304270Y-65500500D01*
X141334699Y-65497646D01*
X141334701Y-65497646D01*
X141398790Y-65475219D01*
X141462882Y-65452793D01*
X141572150Y-65372150D01*
X141652793Y-65262882D01*
X141685959Y-65168099D01*
X141697646Y-65134701D01*
X141697646Y-65134699D01*
X141700500Y-65104269D01*
X142799500Y-65104269D01*
X142802353Y-65134699D01*
X142802353Y-65134701D01*
X142847206Y-65262880D01*
X142847207Y-65262882D01*
X142927850Y-65372150D01*
X143037118Y-65452793D01*
X143079845Y-65467744D01*
X143165299Y-65497646D01*
X143195730Y-65500500D01*
X143195734Y-65500500D01*
X143800500Y-65500500D01*
X143867539Y-65520185D01*
X143913294Y-65572989D01*
X143924500Y-65624500D01*
X143924500Y-66233078D01*
X143924264Y-66238485D01*
X143920735Y-66278808D01*
X143931212Y-66317910D01*
X143932383Y-66323190D01*
X143939411Y-66363043D01*
X143941235Y-66368055D01*
X143948197Y-66384861D01*
X143950445Y-66389681D01*
X143950446Y-66389684D01*
X143964452Y-66409687D01*
X143973655Y-66422831D01*
X143976561Y-66427392D01*
X143996806Y-66462455D01*
X144027815Y-66488475D01*
X144031805Y-66492131D01*
X144638182Y-67098508D01*
X144671666Y-67159829D01*
X144674500Y-67186187D01*
X144674500Y-68061152D01*
X144654815Y-68128191D01*
X144602011Y-68173946D01*
X144591456Y-68178193D01*
X144537117Y-68197207D01*
X144427850Y-68277850D01*
X144347207Y-68387117D01*
X144347206Y-68387119D01*
X144302353Y-68515298D01*
X144302353Y-68515300D01*
X144299500Y-68545730D01*
X144299500Y-71654269D01*
X144302353Y-71684699D01*
X144302353Y-71684701D01*
X144347206Y-71812880D01*
X144347207Y-71812882D01*
X144427850Y-71922150D01*
X144537118Y-72002793D01*
X144579845Y-72017744D01*
X144665299Y-72047646D01*
X144695730Y-72050500D01*
X144695734Y-72050500D01*
X145304270Y-72050500D01*
X145334699Y-72047646D01*
X145334701Y-72047646D01*
X145398790Y-72025219D01*
X145462882Y-72002793D01*
X145572150Y-71922150D01*
X145652793Y-71812882D01*
X145675219Y-71748790D01*
X145697646Y-71684701D01*
X145697646Y-71684699D01*
X145700500Y-71654269D01*
X146299500Y-71654269D01*
X146302353Y-71684699D01*
X146302353Y-71684701D01*
X146347206Y-71812880D01*
X146347207Y-71812882D01*
X146427850Y-71922150D01*
X146537118Y-72002793D01*
X146579845Y-72017744D01*
X146665299Y-72047646D01*
X146695730Y-72050500D01*
X146695734Y-72050500D01*
X147304270Y-72050500D01*
X147334699Y-72047646D01*
X147334701Y-72047646D01*
X147398790Y-72025219D01*
X147462882Y-72002793D01*
X147572150Y-71922150D01*
X147652793Y-71812882D01*
X147675219Y-71748790D01*
X147697646Y-71684701D01*
X147697646Y-71684699D01*
X147700500Y-71654269D01*
X147700500Y-68545730D01*
X147697646Y-68515300D01*
X147697646Y-68515298D01*
X147652793Y-68387119D01*
X147652792Y-68387117D01*
X147572150Y-68277850D01*
X147462882Y-68197207D01*
X147408543Y-68178193D01*
X147351768Y-68137471D01*
X147326021Y-68072518D01*
X147325499Y-68061173D01*
X147325499Y-64636186D01*
X147345184Y-64569148D01*
X147361813Y-64548511D01*
X149923506Y-61986819D01*
X149984830Y-61953334D01*
X150011188Y-61950500D01*
X150014772Y-61950500D01*
X150051616Y-61939682D01*
X150121486Y-61939682D01*
X150180264Y-61977457D01*
X150199344Y-62007145D01*
X150217118Y-62046063D01*
X150244213Y-62077333D01*
X150273238Y-62140888D01*
X150274500Y-62158535D01*
X150274500Y-63363811D01*
X150254815Y-63430850D01*
X150238181Y-63451492D01*
X148781803Y-64907870D01*
X148777814Y-64911525D01*
X148746805Y-64937545D01*
X148726562Y-64972606D01*
X148723656Y-64977166D01*
X148700446Y-65010313D01*
X148698206Y-65015117D01*
X148691229Y-65031961D01*
X148689410Y-65036959D01*
X148682383Y-65076811D01*
X148681212Y-65082091D01*
X148670735Y-65121191D01*
X148674264Y-65161513D01*
X148674500Y-65166920D01*
X148674500Y-68061152D01*
X148654815Y-68128191D01*
X148602011Y-68173946D01*
X148591456Y-68178193D01*
X148537117Y-68197207D01*
X148427850Y-68277850D01*
X148347207Y-68387117D01*
X148347206Y-68387119D01*
X148302353Y-68515298D01*
X148302353Y-68515300D01*
X148299500Y-68545730D01*
X148299500Y-71654269D01*
X148302353Y-71684699D01*
X148302353Y-71684701D01*
X148347206Y-71812880D01*
X148347207Y-71812882D01*
X148427850Y-71922150D01*
X148537118Y-72002793D01*
X148579845Y-72017744D01*
X148665299Y-72047646D01*
X148695730Y-72050500D01*
X148695734Y-72050500D01*
X149304270Y-72050500D01*
X149334699Y-72047646D01*
X149334701Y-72047646D01*
X149398790Y-72025219D01*
X149462882Y-72002793D01*
X149572150Y-71922150D01*
X149652793Y-71812882D01*
X149675219Y-71748790D01*
X149697646Y-71684701D01*
X149697646Y-71684699D01*
X149700500Y-71654269D01*
X149700500Y-68545730D01*
X149697646Y-68515300D01*
X149697646Y-68515298D01*
X149652793Y-68387119D01*
X149652792Y-68387117D01*
X149572150Y-68277850D01*
X149462882Y-68197207D01*
X149408544Y-68178193D01*
X149351768Y-68137471D01*
X149326022Y-68072518D01*
X149325500Y-68061152D01*
X149325500Y-65336187D01*
X149345185Y-65269148D01*
X149361819Y-65248506D01*
X150072834Y-64537491D01*
X150818204Y-63792120D01*
X150822166Y-63788489D01*
X150853194Y-63762455D01*
X150873438Y-63727390D01*
X150876335Y-63722841D01*
X150899554Y-63689684D01*
X150899554Y-63689681D01*
X150901819Y-63684824D01*
X150908747Y-63668099D01*
X150910584Y-63663050D01*
X150910588Y-63663045D01*
X150917619Y-63623162D01*
X150918777Y-63617940D01*
X150929264Y-63578807D01*
X150925735Y-63538478D01*
X150925500Y-63533075D01*
X150925500Y-62289790D01*
X150945185Y-62222751D01*
X150997989Y-62176996D01*
X151067147Y-62167052D01*
X151116537Y-62185474D01*
X151160931Y-62214004D01*
X151276056Y-62247807D01*
X151285225Y-62250499D01*
X151285227Y-62250500D01*
X151285228Y-62250500D01*
X151288812Y-62250500D01*
X151292251Y-62251509D01*
X151294005Y-62251762D01*
X151293968Y-62252014D01*
X151355851Y-62270185D01*
X151376492Y-62286819D01*
X151738182Y-62648508D01*
X151771666Y-62709829D01*
X151774500Y-62736187D01*
X151774500Y-64863811D01*
X151754815Y-64930850D01*
X151738181Y-64951492D01*
X150781803Y-65907870D01*
X150777814Y-65911525D01*
X150746805Y-65937545D01*
X150726562Y-65972606D01*
X150723656Y-65977166D01*
X150700446Y-66010313D01*
X150698206Y-66015117D01*
X150691229Y-66031961D01*
X150689410Y-66036959D01*
X150682383Y-66076811D01*
X150681212Y-66082091D01*
X150670735Y-66121191D01*
X150674264Y-66161513D01*
X150674500Y-66166920D01*
X150674500Y-68061152D01*
X150654815Y-68128191D01*
X150602011Y-68173946D01*
X150591456Y-68178193D01*
X150537117Y-68197207D01*
X150427850Y-68277850D01*
X150347207Y-68387117D01*
X150347206Y-68387119D01*
X150302353Y-68515298D01*
X150302353Y-68515300D01*
X150299500Y-68545730D01*
X150299500Y-71654269D01*
X150302353Y-71684699D01*
X150302353Y-71684701D01*
X150347206Y-71812880D01*
X150347207Y-71812882D01*
X150427850Y-71922150D01*
X150537118Y-72002793D01*
X150579845Y-72017744D01*
X150665299Y-72047646D01*
X150695730Y-72050500D01*
X150695734Y-72050500D01*
X151304270Y-72050500D01*
X151334699Y-72047646D01*
X151334701Y-72047646D01*
X151398790Y-72025219D01*
X151462882Y-72002793D01*
X151572150Y-71922150D01*
X151652793Y-71812882D01*
X151675219Y-71748790D01*
X151697646Y-71684701D01*
X151697646Y-71684699D01*
X151700500Y-71654269D01*
X151700500Y-68545730D01*
X151697646Y-68515300D01*
X151697646Y-68515298D01*
X151652793Y-68387119D01*
X151652792Y-68387117D01*
X151572150Y-68277850D01*
X151462882Y-68197207D01*
X151408544Y-68178193D01*
X151351768Y-68137471D01*
X151326022Y-68072518D01*
X151325500Y-68061152D01*
X151325500Y-66336187D01*
X151345185Y-66269148D01*
X151361819Y-66248506D01*
X151600012Y-66010313D01*
X152318215Y-65292109D01*
X152322166Y-65288489D01*
X152353194Y-65262455D01*
X152373438Y-65227390D01*
X152376335Y-65222841D01*
X152399554Y-65189684D01*
X152399554Y-65189681D01*
X152401819Y-65184824D01*
X152408747Y-65168099D01*
X152410584Y-65163050D01*
X152410588Y-65163045D01*
X152417619Y-65123162D01*
X152418777Y-65117940D01*
X152429264Y-65078807D01*
X152425735Y-65038481D01*
X152425500Y-65033078D01*
X152425500Y-62566912D01*
X152425736Y-62561506D01*
X152428539Y-62529474D01*
X152429263Y-62521193D01*
X152429262Y-62521192D01*
X152429263Y-62521191D01*
X152418785Y-62482090D01*
X152417618Y-62476830D01*
X152410588Y-62436955D01*
X152410587Y-62436953D01*
X152408760Y-62431933D01*
X152401820Y-62415176D01*
X152399554Y-62410319D01*
X152399554Y-62410316D01*
X152376337Y-62377159D01*
X152373435Y-62372605D01*
X152353194Y-62337545D01*
X152322182Y-62311522D01*
X152318210Y-62307883D01*
X152132199Y-62121872D01*
X152098714Y-62060549D01*
X152103698Y-61990857D01*
X152145570Y-61934924D01*
X152184950Y-61915213D01*
X152189069Y-61914004D01*
X152296155Y-61845183D01*
X152363194Y-61825500D01*
X152713812Y-61825500D01*
X152780851Y-61845185D01*
X152801493Y-61861819D01*
X153638181Y-62698507D01*
X153671666Y-62759830D01*
X153674500Y-62786188D01*
X153674500Y-65563811D01*
X153654815Y-65630850D01*
X153638181Y-65651492D01*
X152781803Y-66507870D01*
X152777814Y-66511525D01*
X152746805Y-66537545D01*
X152726562Y-66572606D01*
X152723656Y-66577166D01*
X152700446Y-66610313D01*
X152698206Y-66615117D01*
X152691229Y-66631961D01*
X152689410Y-66636959D01*
X152682383Y-66676811D01*
X152681212Y-66682091D01*
X152670735Y-66721191D01*
X152674264Y-66761513D01*
X152674500Y-66766920D01*
X152674500Y-68061152D01*
X152654815Y-68128191D01*
X152602011Y-68173946D01*
X152591456Y-68178193D01*
X152537117Y-68197207D01*
X152427850Y-68277850D01*
X152347207Y-68387117D01*
X152347206Y-68387119D01*
X152302353Y-68515298D01*
X152302353Y-68515300D01*
X152299500Y-68545730D01*
X152299500Y-71654269D01*
X152302353Y-71684699D01*
X152302353Y-71684701D01*
X152347206Y-71812880D01*
X152347207Y-71812882D01*
X152427850Y-71922150D01*
X152537118Y-72002793D01*
X152579845Y-72017744D01*
X152665299Y-72047646D01*
X152695730Y-72050500D01*
X152695734Y-72050500D01*
X153304270Y-72050500D01*
X153334699Y-72047646D01*
X153334701Y-72047646D01*
X153398790Y-72025219D01*
X153462882Y-72002793D01*
X153572150Y-71922150D01*
X153652793Y-71812882D01*
X153675219Y-71748790D01*
X153697646Y-71684701D01*
X153697646Y-71684699D01*
X153700500Y-71654269D01*
X153700500Y-70350000D01*
X154000001Y-70350000D01*
X154000001Y-71649986D01*
X154010494Y-71752697D01*
X154065641Y-71919119D01*
X154065643Y-71919124D01*
X154157684Y-72068345D01*
X154281654Y-72192315D01*
X154430875Y-72284356D01*
X154430880Y-72284358D01*
X154597302Y-72339505D01*
X154597309Y-72339506D01*
X154700019Y-72349999D01*
X154749999Y-72349998D01*
X154750000Y-72349998D01*
X154750000Y-70350000D01*
X155250000Y-70350000D01*
X155250000Y-72349999D01*
X155299972Y-72349999D01*
X155299986Y-72349998D01*
X155402697Y-72339505D01*
X155569119Y-72284358D01*
X155569124Y-72284356D01*
X155718345Y-72192315D01*
X155842315Y-72068345D01*
X155934356Y-71919124D01*
X155934358Y-71919119D01*
X155989505Y-71752697D01*
X155989506Y-71752690D01*
X155999999Y-71649986D01*
X156000000Y-71649973D01*
X156000000Y-70350000D01*
X155250000Y-70350000D01*
X154750000Y-70350000D01*
X154000001Y-70350000D01*
X153700500Y-70350000D01*
X153700500Y-69850000D01*
X154000000Y-69850000D01*
X154750000Y-69850000D01*
X154750000Y-67850000D01*
X155250000Y-67850000D01*
X155250000Y-69850000D01*
X155999999Y-69850000D01*
X155999999Y-68550028D01*
X155999998Y-68550013D01*
X155989505Y-68447302D01*
X155934358Y-68280880D01*
X155934356Y-68280875D01*
X155842315Y-68131654D01*
X155718345Y-68007684D01*
X155569124Y-67915643D01*
X155569119Y-67915641D01*
X155402697Y-67860494D01*
X155402690Y-67860493D01*
X155299986Y-67850000D01*
X155250000Y-67850000D01*
X154750000Y-67850000D01*
X154749999Y-67849999D01*
X154700029Y-67850000D01*
X154700011Y-67850001D01*
X154597302Y-67860494D01*
X154430880Y-67915641D01*
X154430875Y-67915643D01*
X154281654Y-68007684D01*
X154157684Y-68131654D01*
X154065643Y-68280875D01*
X154065641Y-68280880D01*
X154010494Y-68447302D01*
X154010493Y-68447309D01*
X154000000Y-68550013D01*
X154000000Y-69850000D01*
X153700500Y-69850000D01*
X153700500Y-68545730D01*
X153697646Y-68515300D01*
X153697646Y-68515298D01*
X153652793Y-68387119D01*
X153652792Y-68387117D01*
X153572150Y-68277850D01*
X153462882Y-68197207D01*
X153408544Y-68178193D01*
X153351768Y-68137471D01*
X153326022Y-68072518D01*
X153325500Y-68061152D01*
X153325500Y-66936187D01*
X153345185Y-66869148D01*
X153361819Y-66848506D01*
X153573370Y-66636955D01*
X154218215Y-65992109D01*
X154222166Y-65988489D01*
X154253194Y-65962455D01*
X154273438Y-65927390D01*
X154276335Y-65922841D01*
X154299554Y-65889684D01*
X154299554Y-65889681D01*
X154301819Y-65884824D01*
X154308747Y-65868099D01*
X154310584Y-65863050D01*
X154310588Y-65863045D01*
X154317619Y-65823162D01*
X154318777Y-65817940D01*
X154329264Y-65778807D01*
X154325735Y-65738478D01*
X154325500Y-65733075D01*
X154325500Y-62616920D01*
X154325736Y-62611513D01*
X154329264Y-62571193D01*
X154325397Y-62556762D01*
X154318782Y-62532076D01*
X154317616Y-62526818D01*
X154310588Y-62486955D01*
X154310586Y-62486952D01*
X154310586Y-62486950D01*
X154308760Y-62481933D01*
X154301820Y-62465176D01*
X154299554Y-62460319D01*
X154299554Y-62460316D01*
X154276339Y-62427162D01*
X154273433Y-62422599D01*
X154253196Y-62387548D01*
X154253195Y-62387547D01*
X154253194Y-62387545D01*
X154222177Y-62361518D01*
X154218193Y-62357867D01*
X153685826Y-61825500D01*
X153142119Y-61281793D01*
X153138474Y-61277814D01*
X153112456Y-61246807D01*
X153112455Y-61246806D01*
X153101058Y-61240226D01*
X153077392Y-61226561D01*
X153072831Y-61223655D01*
X153059687Y-61214452D01*
X153039684Y-61200446D01*
X153039681Y-61200445D01*
X153034861Y-61198197D01*
X153018055Y-61191235D01*
X153013043Y-61189411D01*
X152973190Y-61182383D01*
X152967910Y-61181212D01*
X152928808Y-61170735D01*
X152893892Y-61173790D01*
X152888481Y-61174264D01*
X152883078Y-61174500D01*
X152363194Y-61174500D01*
X152296155Y-61154816D01*
X152282910Y-61146304D01*
X152189069Y-61085996D01*
X152189065Y-61085994D01*
X152189064Y-61085994D01*
X152064774Y-61049500D01*
X152064772Y-61049500D01*
X151935228Y-61049500D01*
X151935226Y-61049500D01*
X151810935Y-61085994D01*
X151810932Y-61085995D01*
X151810931Y-61085996D01*
X151802563Y-61091374D01*
X151701950Y-61156033D01*
X151617118Y-61253937D01*
X151617116Y-61253939D01*
X151599344Y-61292854D01*
X151553589Y-61345657D01*
X151486549Y-61365340D01*
X151451619Y-61360318D01*
X151414773Y-61349500D01*
X151414772Y-61349500D01*
X151285228Y-61349500D01*
X151285226Y-61349500D01*
X151160935Y-61385994D01*
X151160932Y-61385995D01*
X151160931Y-61385996D01*
X151051951Y-61456033D01*
X151044490Y-61460828D01*
X151042936Y-61458410D01*
X150992624Y-61481376D01*
X150923467Y-61471420D01*
X150905941Y-61460156D01*
X150905510Y-61460828D01*
X150898049Y-61456033D01*
X150789069Y-61385996D01*
X150789065Y-61385994D01*
X150789064Y-61385994D01*
X150664774Y-61349500D01*
X150664772Y-61349500D01*
X150535228Y-61349500D01*
X150535226Y-61349500D01*
X150498382Y-61360318D01*
X150428512Y-61360318D01*
X150369734Y-61322543D01*
X150350656Y-61292857D01*
X150332882Y-61253937D01*
X150248049Y-61156033D01*
X150139069Y-61085996D01*
X150139065Y-61085994D01*
X150139064Y-61085994D01*
X150014774Y-61049500D01*
X150014772Y-61049500D01*
X149885228Y-61049500D01*
X149885226Y-61049500D01*
X149760935Y-61085994D01*
X149760932Y-61085995D01*
X149760931Y-61085996D01*
X149752563Y-61091374D01*
X149651950Y-61156033D01*
X149567118Y-61253937D01*
X149567117Y-61253938D01*
X149513303Y-61371772D01*
X149513302Y-61371777D01*
X149501612Y-61453083D01*
X149472587Y-61516639D01*
X149466555Y-61523117D01*
X146781803Y-64207870D01*
X146777814Y-64211525D01*
X146746805Y-64237545D01*
X146726562Y-64272606D01*
X146723656Y-64277166D01*
X146700446Y-64310313D01*
X146698206Y-64315117D01*
X146691229Y-64331961D01*
X146689410Y-64336959D01*
X146682383Y-64376811D01*
X146681212Y-64382091D01*
X146670735Y-64421191D01*
X146674264Y-64461513D01*
X146674500Y-64466920D01*
X146674500Y-68061152D01*
X146654815Y-68128191D01*
X146602011Y-68173946D01*
X146591456Y-68178193D01*
X146537117Y-68197207D01*
X146427850Y-68277850D01*
X146347207Y-68387117D01*
X146347206Y-68387119D01*
X146302353Y-68515298D01*
X146302353Y-68515300D01*
X146299500Y-68545730D01*
X146299500Y-71654269D01*
X145700500Y-71654269D01*
X145700500Y-68545730D01*
X145697646Y-68515300D01*
X145697646Y-68515298D01*
X145652793Y-68387119D01*
X145652792Y-68387117D01*
X145572150Y-68277850D01*
X145462882Y-68197207D01*
X145408544Y-68178193D01*
X145351768Y-68137471D01*
X145326022Y-68072518D01*
X145325500Y-68061152D01*
X145325500Y-67016912D01*
X145325736Y-67011506D01*
X145329263Y-66971191D01*
X145318785Y-66932090D01*
X145317618Y-66926830D01*
X145310588Y-66886955D01*
X145310587Y-66886953D01*
X145308760Y-66881933D01*
X145301820Y-66865176D01*
X145299554Y-66860319D01*
X145299554Y-66860316D01*
X145276337Y-66827159D01*
X145273435Y-66822605D01*
X145253194Y-66787545D01*
X145222182Y-66761522D01*
X145218210Y-66757883D01*
X144611819Y-66151492D01*
X144578334Y-66090169D01*
X144575500Y-66063811D01*
X144575500Y-65624500D01*
X144595185Y-65557461D01*
X144647989Y-65511706D01*
X144699500Y-65500500D01*
X145304270Y-65500500D01*
X145334699Y-65497646D01*
X145334701Y-65497646D01*
X145398790Y-65475219D01*
X145462882Y-65452793D01*
X145572150Y-65372150D01*
X145652793Y-65262882D01*
X145685959Y-65168099D01*
X145697646Y-65134701D01*
X145697646Y-65134699D01*
X145700500Y-65104269D01*
X145700500Y-63695730D01*
X145697646Y-63665300D01*
X145697646Y-63665298D01*
X145652793Y-63537119D01*
X145652792Y-63537117D01*
X145642917Y-63523737D01*
X145572150Y-63427850D01*
X145462882Y-63347207D01*
X145462880Y-63347206D01*
X145334700Y-63302353D01*
X145304270Y-63299500D01*
X145304266Y-63299500D01*
X143195734Y-63299500D01*
X143195730Y-63299500D01*
X143165300Y-63302353D01*
X143165298Y-63302353D01*
X143037119Y-63347206D01*
X143037117Y-63347207D01*
X142927850Y-63427850D01*
X142847207Y-63537117D01*
X142847206Y-63537119D01*
X142802353Y-63665298D01*
X142802353Y-63665300D01*
X142799500Y-63695730D01*
X142799500Y-65104269D01*
X141700500Y-65104269D01*
X141700500Y-63695730D01*
X141697646Y-63665300D01*
X141697646Y-63665298D01*
X141652793Y-63537119D01*
X141652792Y-63537117D01*
X141642917Y-63523737D01*
X141572150Y-63427850D01*
X141462882Y-63347207D01*
X141462880Y-63347206D01*
X141334700Y-63302353D01*
X141304270Y-63299500D01*
X141304266Y-63299500D01*
X140699500Y-63299500D01*
X140632461Y-63279815D01*
X140586706Y-63227011D01*
X140575500Y-63175500D01*
X140575500Y-62686187D01*
X140595185Y-62619148D01*
X140611819Y-62598506D01*
X140774976Y-62435349D01*
X141268215Y-61942109D01*
X141272166Y-61938489D01*
X141303194Y-61912455D01*
X141323438Y-61877390D01*
X141326335Y-61872841D01*
X141349554Y-61839684D01*
X141349554Y-61839681D01*
X141351819Y-61834824D01*
X141358747Y-61818099D01*
X141360584Y-61813050D01*
X141360588Y-61813045D01*
X141367619Y-61773162D01*
X141368777Y-61767940D01*
X141379264Y-61728807D01*
X141375735Y-61688478D01*
X141375500Y-61683075D01*
X141375500Y-60982000D01*
X141395185Y-60914961D01*
X141447989Y-60869206D01*
X141499500Y-60858000D01*
X141569750Y-60858000D01*
X141569751Y-60857999D01*
X141584568Y-60855052D01*
X141628229Y-60846368D01*
X141628231Y-60846367D01*
X141631108Y-60844445D01*
X141638335Y-60842181D01*
X141639513Y-60841694D01*
X141639556Y-60841799D01*
X141697785Y-60823566D01*
X141765165Y-60842050D01*
X141768892Y-60844445D01*
X141771768Y-60846367D01*
X141771770Y-60846368D01*
X141830247Y-60857999D01*
X141830250Y-60858000D01*
X141830252Y-60858000D01*
X142869750Y-60858000D01*
X142869751Y-60857999D01*
X142884568Y-60855052D01*
X142928229Y-60846368D01*
X142928229Y-60846367D01*
X142928231Y-60846367D01*
X142994552Y-60802052D01*
X143038867Y-60735731D01*
X143038867Y-60735729D01*
X143038868Y-60735729D01*
X143050499Y-60677252D01*
X143050500Y-60677250D01*
X143050500Y-60200000D01*
X148194867Y-60200000D01*
X148213302Y-60328225D01*
X148267117Y-60446061D01*
X148267118Y-60446063D01*
X148351951Y-60543967D01*
X148460931Y-60614004D01*
X148585225Y-60650499D01*
X148585227Y-60650500D01*
X148585228Y-60650500D01*
X148714773Y-60650500D01*
X148714773Y-60650499D01*
X148839069Y-60614004D01*
X148948049Y-60543967D01*
X149032882Y-60446063D01*
X149086697Y-60328226D01*
X149098387Y-60246914D01*
X149127409Y-60183361D01*
X149133428Y-60176896D01*
X149598506Y-59711819D01*
X149659830Y-59678334D01*
X149686188Y-59675500D01*
X153871572Y-59675500D01*
X153938611Y-59695185D01*
X153984366Y-59747989D01*
X153995572Y-59799500D01*
X153995572Y-59850004D01*
X154011131Y-59928229D01*
X154011132Y-59928230D01*
X154055447Y-59994552D01*
X154121769Y-60038867D01*
X154121770Y-60038868D01*
X154199995Y-60054427D01*
X154199999Y-60054428D01*
X154200000Y-60054428D01*
X154640748Y-60054428D01*
X154658394Y-60055690D01*
X154660675Y-60056017D01*
X154670907Y-60057489D01*
X154670908Y-60057489D01*
X154729090Y-60057489D01*
X154729093Y-60057489D01*
X154738138Y-60056188D01*
X154741607Y-60055690D01*
X154759252Y-60054428D01*
X155140748Y-60054428D01*
X155158393Y-60055690D01*
X155162636Y-60056299D01*
X155170907Y-60057489D01*
X155170910Y-60057489D01*
X155229092Y-60057489D01*
X155229093Y-60057489D01*
X155239647Y-60055971D01*
X155241606Y-60055690D01*
X155259252Y-60054428D01*
X155700001Y-60054428D01*
X155700002Y-60054427D01*
X155719824Y-60050484D01*
X155778229Y-60038868D01*
X155778229Y-60038867D01*
X155778231Y-60038867D01*
X155844552Y-59994552D01*
X155888867Y-59928231D01*
X155888867Y-59928229D01*
X155888868Y-59928229D01*
X155904427Y-59850004D01*
X155904428Y-59850001D01*
X155904428Y-59278112D01*
X155904428Y-59278111D01*
X155896147Y-59220517D01*
X155870099Y-59131804D01*
X155855643Y-59082571D01*
X155855642Y-59082569D01*
X155855640Y-59082562D01*
X155831469Y-59029634D01*
X155753737Y-58908680D01*
X155715632Y-58864705D01*
X155606971Y-58770551D01*
X155606965Y-58770547D01*
X155606964Y-58770546D01*
X155558032Y-58739099D01*
X155558021Y-58739093D01*
X155427240Y-58679366D01*
X155371406Y-58662972D01*
X155252989Y-58645946D01*
X155229093Y-58642511D01*
X155170907Y-58642511D01*
X155170903Y-58642511D01*
X155158393Y-58644310D01*
X155140748Y-58645572D01*
X154759252Y-58645572D01*
X154741607Y-58644310D01*
X154729096Y-58642511D01*
X154729093Y-58642511D01*
X154670907Y-58642511D01*
X154528593Y-58662972D01*
X154472759Y-58679366D01*
X154341978Y-58739093D01*
X154341967Y-58739099D01*
X154293035Y-58770546D01*
X154293031Y-58770549D01*
X154293029Y-58770551D01*
X154195496Y-58855063D01*
X154184367Y-58864706D01*
X154146263Y-58908680D01*
X154146262Y-58908680D01*
X154108436Y-58967540D01*
X154055632Y-59013294D01*
X154004121Y-59024500D01*
X149516923Y-59024500D01*
X149511519Y-59024264D01*
X149505618Y-59023747D01*
X149471192Y-59020735D01*
X149432090Y-59031213D01*
X149426809Y-59032384D01*
X149386955Y-59039412D01*
X149381962Y-59041229D01*
X149365117Y-59048206D01*
X149360313Y-59050446D01*
X149327166Y-59073656D01*
X149322606Y-59076562D01*
X149312199Y-59082571D01*
X149287545Y-59096806D01*
X149287543Y-59096808D01*
X149287541Y-59096810D01*
X149261524Y-59127815D01*
X149257869Y-59131804D01*
X148676493Y-59713181D01*
X148615170Y-59746666D01*
X148588812Y-59749500D01*
X148585226Y-59749500D01*
X148460935Y-59785994D01*
X148460932Y-59785995D01*
X148460931Y-59785996D01*
X148409677Y-59818934D01*
X148351950Y-59856033D01*
X148267118Y-59953937D01*
X148267117Y-59953938D01*
X148213302Y-60071774D01*
X148194867Y-60200000D01*
X143050500Y-60200000D01*
X143050500Y-59137749D01*
X143050499Y-59137747D01*
X143038868Y-59079270D01*
X143038867Y-59079269D01*
X142994552Y-59012947D01*
X142928230Y-58968632D01*
X142928229Y-58968631D01*
X142869752Y-58957000D01*
X142869748Y-58957000D01*
X142799500Y-58957000D01*
X142732461Y-58937315D01*
X142686706Y-58884511D01*
X142675500Y-58833000D01*
X142675500Y-55836187D01*
X142695185Y-55769148D01*
X142711819Y-55748506D01*
X143010325Y-55450000D01*
X146500001Y-55450000D01*
X146500001Y-55486654D01*
X146510319Y-55587652D01*
X146564546Y-55751300D01*
X146564551Y-55751311D01*
X146655052Y-55898034D01*
X146655055Y-55898038D01*
X146776961Y-56019944D01*
X146776965Y-56019947D01*
X146923688Y-56110448D01*
X146923699Y-56110453D01*
X147087347Y-56164680D01*
X147188351Y-56174999D01*
X147287500Y-56174998D01*
X147287500Y-55450000D01*
X146500001Y-55450000D01*
X143010325Y-55450000D01*
X144261007Y-54199319D01*
X144322330Y-54165834D01*
X144348688Y-54163000D01*
X146694726Y-54163000D01*
X146761765Y-54182685D01*
X146807520Y-54235489D01*
X146817464Y-54304647D01*
X146788439Y-54368203D01*
X146781732Y-54374611D01*
X146782069Y-54374948D01*
X146655055Y-54501961D01*
X146655052Y-54501965D01*
X146564551Y-54648688D01*
X146564546Y-54648699D01*
X146510319Y-54812347D01*
X146500000Y-54913345D01*
X146500000Y-54950000D01*
X147663500Y-54950000D01*
X147730539Y-54969685D01*
X147776294Y-55022489D01*
X147787500Y-55074000D01*
X147787500Y-56174999D01*
X147886640Y-56174999D01*
X147886654Y-56174998D01*
X147987652Y-56164680D01*
X148151300Y-56110453D01*
X148151311Y-56110448D01*
X148298034Y-56019947D01*
X148298038Y-56019944D01*
X148419945Y-55898037D01*
X148483388Y-55795180D01*
X148535336Y-55748455D01*
X148604298Y-55737232D01*
X148662558Y-55760504D01*
X148704447Y-55791419D01*
X148755525Y-55829116D01*
X148880151Y-55872725D01*
X148880150Y-55872725D01*
X148909740Y-55875500D01*
X148909744Y-55875500D01*
X149320867Y-55875500D01*
X149387906Y-55895185D01*
X149433661Y-55947989D01*
X149443082Y-55991297D01*
X149443605Y-55991222D01*
X149444655Y-55998526D01*
X149444867Y-55999500D01*
X149444867Y-55999999D01*
X149463302Y-56128225D01*
X149500000Y-56208580D01*
X149517118Y-56246063D01*
X149601951Y-56343967D01*
X149710931Y-56414004D01*
X149835225Y-56450499D01*
X149835227Y-56450500D01*
X149835228Y-56450500D01*
X149964773Y-56450500D01*
X149964773Y-56450499D01*
X150089069Y-56414004D01*
X150198049Y-56343967D01*
X150206284Y-56334462D01*
X150265061Y-56296686D01*
X150334930Y-56296684D01*
X150393710Y-56334456D01*
X150393716Y-56334463D01*
X150401949Y-56343966D01*
X150401951Y-56343967D01*
X150510931Y-56414004D01*
X150635225Y-56450499D01*
X150635227Y-56450500D01*
X150635228Y-56450500D01*
X150764773Y-56450500D01*
X150764773Y-56450499D01*
X150889069Y-56414004D01*
X150998049Y-56343967D01*
X151082882Y-56246063D01*
X151136697Y-56128226D01*
X151155133Y-56000000D01*
X151155133Y-55999998D01*
X151155133Y-55999500D01*
X151155273Y-55999021D01*
X151156395Y-55991221D01*
X151157516Y-55991382D01*
X151174818Y-55932461D01*
X151227622Y-55886706D01*
X151279133Y-55875500D01*
X151790260Y-55875500D01*
X151819849Y-55872725D01*
X151819848Y-55872725D01*
X151944475Y-55829116D01*
X152037440Y-55760505D01*
X152103067Y-55736535D01*
X152171238Y-55751850D01*
X152216610Y-55795179D01*
X152280052Y-55898034D01*
X152280055Y-55898038D01*
X152401961Y-56019944D01*
X152401965Y-56019947D01*
X152548688Y-56110448D01*
X152548699Y-56110453D01*
X152712347Y-56164680D01*
X152813351Y-56174999D01*
X152912500Y-56174998D01*
X152912500Y-55450000D01*
X153412500Y-55450000D01*
X153412500Y-56174999D01*
X153511640Y-56174999D01*
X153511654Y-56174998D01*
X153612652Y-56164680D01*
X153776300Y-56110453D01*
X153776311Y-56110448D01*
X153923034Y-56019947D01*
X153923038Y-56019944D01*
X154044944Y-55898038D01*
X154044947Y-55898034D01*
X154135448Y-55751311D01*
X154135453Y-55751300D01*
X154189680Y-55587652D01*
X154199999Y-55486654D01*
X154200000Y-55486641D01*
X154200000Y-55450000D01*
X153412500Y-55450000D01*
X152912500Y-55450000D01*
X152912500Y-54225000D01*
X153412500Y-54225000D01*
X153412500Y-54950000D01*
X154199999Y-54950000D01*
X154199999Y-54913360D01*
X154199998Y-54913345D01*
X154189680Y-54812347D01*
X154135453Y-54648699D01*
X154135448Y-54648688D01*
X154044947Y-54501965D01*
X154044944Y-54501961D01*
X153923038Y-54380055D01*
X153923034Y-54380052D01*
X153776311Y-54289551D01*
X153776300Y-54289546D01*
X153612652Y-54235319D01*
X153511654Y-54225000D01*
X153412500Y-54225000D01*
X152912500Y-54225000D01*
X152912500Y-54224999D01*
X152813360Y-54225000D01*
X152813344Y-54225001D01*
X152712347Y-54235319D01*
X152548699Y-54289546D01*
X152548688Y-54289551D01*
X152401965Y-54380052D01*
X152401961Y-54380055D01*
X152280054Y-54501962D01*
X152216610Y-54604821D01*
X152164662Y-54651545D01*
X152095699Y-54662766D01*
X152037439Y-54639494D01*
X151944474Y-54570883D01*
X151819848Y-54527274D01*
X151819849Y-54527274D01*
X151790260Y-54524500D01*
X151790256Y-54524500D01*
X151084744Y-54524500D01*
X151084740Y-54524500D01*
X151055150Y-54527274D01*
X150930523Y-54570884D01*
X150824289Y-54649288D01*
X150824288Y-54649289D01*
X150745884Y-54755523D01*
X150702274Y-54880150D01*
X150699500Y-54909739D01*
X150699500Y-55426311D01*
X150679815Y-55493350D01*
X150663183Y-55513989D01*
X150652811Y-55524362D01*
X150646911Y-55530262D01*
X150594167Y-55561555D01*
X150510933Y-55585994D01*
X150401948Y-55656034D01*
X150393713Y-55665539D01*
X150334936Y-55703314D01*
X150265066Y-55703314D01*
X150206288Y-55665540D01*
X150206287Y-55665539D01*
X150198054Y-55656038D01*
X150198050Y-55656034D01*
X150198049Y-55656033D01*
X150167509Y-55636405D01*
X150161173Y-55631740D01*
X150122188Y-55599028D01*
X150118199Y-55595372D01*
X150036818Y-55513991D01*
X150003334Y-55452667D01*
X150000500Y-55426310D01*
X150000500Y-54909739D01*
X149997725Y-54880150D01*
X149954115Y-54755523D01*
X149875711Y-54649289D01*
X149875710Y-54649288D01*
X149769476Y-54570884D01*
X149769477Y-54570884D01*
X149671044Y-54536440D01*
X149614268Y-54495717D01*
X149588522Y-54430764D01*
X149588000Y-54419399D01*
X149588000Y-54023688D01*
X149607685Y-53956649D01*
X149624319Y-53936007D01*
X150348507Y-53211819D01*
X150409830Y-53178334D01*
X150436188Y-53175500D01*
X151350500Y-53175500D01*
X151417539Y-53195185D01*
X151463294Y-53247989D01*
X151474500Y-53299500D01*
X151474500Y-53529269D01*
X151477353Y-53559699D01*
X151477353Y-53559701D01*
X151522206Y-53687880D01*
X151522207Y-53687882D01*
X151602850Y-53797150D01*
X151712118Y-53877793D01*
X151754845Y-53892744D01*
X151840299Y-53922646D01*
X151870730Y-53925500D01*
X151870734Y-53925500D01*
X152729270Y-53925500D01*
X152759699Y-53922646D01*
X152759701Y-53922646D01*
X152823790Y-53900219D01*
X152887882Y-53877793D01*
X152997150Y-53797150D01*
X153077793Y-53687882D01*
X153101789Y-53619304D01*
X153122646Y-53559701D01*
X153122646Y-53559699D01*
X153125500Y-53529269D01*
X153125500Y-53100000D01*
X153975001Y-53100000D01*
X153975001Y-53524986D01*
X153985494Y-53627697D01*
X154040641Y-53794119D01*
X154040643Y-53794124D01*
X154132684Y-53943345D01*
X154256654Y-54067315D01*
X154405875Y-54159356D01*
X154405880Y-54159358D01*
X154572302Y-54214505D01*
X154572309Y-54214506D01*
X154675019Y-54224999D01*
X154849999Y-54224999D01*
X154850000Y-54224998D01*
X154850000Y-53100000D01*
X155350000Y-53100000D01*
X155350000Y-54224999D01*
X155524972Y-54224999D01*
X155524986Y-54224998D01*
X155627697Y-54214505D01*
X155794119Y-54159358D01*
X155794124Y-54159356D01*
X155943345Y-54067315D01*
X156067315Y-53943345D01*
X156159356Y-53794124D01*
X156159358Y-53794119D01*
X156214505Y-53627697D01*
X156214506Y-53627690D01*
X156224999Y-53524986D01*
X156225000Y-53524973D01*
X156225000Y-53100000D01*
X155350000Y-53100000D01*
X154850000Y-53100000D01*
X153975001Y-53100000D01*
X153125500Y-53100000D01*
X153125500Y-52600000D01*
X153975000Y-52600000D01*
X154850000Y-52600000D01*
X154850000Y-51475000D01*
X155350000Y-51475000D01*
X155350000Y-52600000D01*
X156224999Y-52600000D01*
X156224999Y-52175028D01*
X156224998Y-52175013D01*
X156214505Y-52072302D01*
X156159358Y-51905880D01*
X156159356Y-51905875D01*
X156067315Y-51756654D01*
X155943345Y-51632684D01*
X155794124Y-51540643D01*
X155794119Y-51540641D01*
X155627697Y-51485494D01*
X155627690Y-51485493D01*
X155524986Y-51475000D01*
X155350000Y-51475000D01*
X154850000Y-51475000D01*
X154850000Y-51474999D01*
X154827923Y-51452923D01*
X154794437Y-51391600D01*
X154799421Y-51321908D01*
X154827922Y-51277559D01*
X154907448Y-51198033D01*
X154997948Y-51051311D01*
X154997953Y-51051300D01*
X155052180Y-50887652D01*
X155062499Y-50786654D01*
X155062500Y-50786641D01*
X155062500Y-50750000D01*
X154275000Y-50750000D01*
X154275000Y-51489972D01*
X154290474Y-51518311D01*
X154285490Y-51588003D01*
X154256989Y-51632350D01*
X154132684Y-51756654D01*
X154040643Y-51905875D01*
X154040641Y-51905880D01*
X153985494Y-52072302D01*
X153985493Y-52072309D01*
X153975000Y-52175013D01*
X153975000Y-52600000D01*
X153125500Y-52600000D01*
X153125500Y-52170730D01*
X153122646Y-52140300D01*
X153122646Y-52140298D01*
X153077793Y-52012119D01*
X153077792Y-52012117D01*
X152997150Y-51902850D01*
X152887882Y-51822207D01*
X152887880Y-51822206D01*
X152759700Y-51777353D01*
X152737921Y-51775311D01*
X152673013Y-51749453D01*
X152632388Y-51692607D01*
X152625500Y-51651853D01*
X152625500Y-51280600D01*
X152645185Y-51213561D01*
X152697989Y-51167806D01*
X152708545Y-51163559D01*
X152748440Y-51149598D01*
X152806975Y-51129116D01*
X152899940Y-51060505D01*
X152965567Y-51036535D01*
X153033738Y-51051850D01*
X153079110Y-51095179D01*
X153142552Y-51198034D01*
X153142555Y-51198038D01*
X153264461Y-51319944D01*
X153264465Y-51319947D01*
X153411188Y-51410448D01*
X153411199Y-51410453D01*
X153574847Y-51464680D01*
X153675851Y-51474999D01*
X153775000Y-51474998D01*
X153775000Y-49525000D01*
X154275000Y-49525000D01*
X154275000Y-50250000D01*
X155062499Y-50250000D01*
X155062499Y-50213360D01*
X155062498Y-50213345D01*
X155052180Y-50112347D01*
X154997953Y-49948699D01*
X154997948Y-49948688D01*
X154907447Y-49801965D01*
X154907444Y-49801961D01*
X154785538Y-49680055D01*
X154785534Y-49680052D01*
X154638811Y-49589551D01*
X154638800Y-49589546D01*
X154475152Y-49535319D01*
X154374154Y-49525000D01*
X154275000Y-49525000D01*
X153775000Y-49525000D01*
X153775000Y-49524999D01*
X153675860Y-49525000D01*
X153675844Y-49525001D01*
X153574847Y-49535319D01*
X153405174Y-49591543D01*
X153335345Y-49593945D01*
X153275304Y-49558213D01*
X153244111Y-49495692D01*
X153244553Y-49449644D01*
X153244744Y-49448687D01*
X153250500Y-49419748D01*
X153250500Y-48849499D01*
X153270185Y-48782461D01*
X153322989Y-48736706D01*
X153374500Y-48725500D01*
X155113812Y-48725500D01*
X155180851Y-48745185D01*
X155201493Y-48761819D01*
X156757863Y-50318189D01*
X156761518Y-50322178D01*
X156787541Y-50353190D01*
X156787543Y-50353191D01*
X156787545Y-50353194D01*
X156787547Y-50353195D01*
X156787548Y-50353196D01*
X156822599Y-50373433D01*
X156827162Y-50376339D01*
X156860316Y-50399554D01*
X156860319Y-50399554D01*
X156865176Y-50401820D01*
X156881933Y-50408760D01*
X156886950Y-50410586D01*
X156886952Y-50410586D01*
X156886955Y-50410588D01*
X156926818Y-50417616D01*
X156932076Y-50418782D01*
X156971193Y-50429264D01*
X157011518Y-50425735D01*
X157016922Y-50425500D01*
X160315020Y-50425500D01*
X160382059Y-50445185D01*
X160427814Y-50497989D01*
X160432061Y-50508544D01*
X160444634Y-50544476D01*
X160523038Y-50650710D01*
X160523039Y-50650711D01*
X160629273Y-50729115D01*
X160629274Y-50729115D01*
X160629275Y-50729116D01*
X160753901Y-50772725D01*
X160753900Y-50772725D01*
X160783490Y-50775500D01*
X160783494Y-50775500D01*
X161389010Y-50775500D01*
X161418599Y-50772725D01*
X161418598Y-50772724D01*
X161543225Y-50729116D01*
X161649461Y-50650711D01*
X161727866Y-50544475D01*
X161771475Y-50419849D01*
X161771709Y-50417349D01*
X161774250Y-50390260D01*
X161774250Y-49809739D01*
X161771475Y-49780150D01*
X161748001Y-49713067D01*
X161727866Y-49655525D01*
X161726019Y-49653023D01*
X161649461Y-49549289D01*
X161649460Y-49549288D01*
X161543226Y-49470884D01*
X161418598Y-49427274D01*
X161418599Y-49427274D01*
X161389010Y-49424500D01*
X161389006Y-49424500D01*
X160783494Y-49424500D01*
X160783490Y-49424500D01*
X160753900Y-49427274D01*
X160629273Y-49470884D01*
X160523039Y-49549288D01*
X160523038Y-49549289D01*
X160444634Y-49655523D01*
X160432061Y-49691456D01*
X160391339Y-49748231D01*
X160326386Y-49773978D01*
X160315020Y-49774500D01*
X157186188Y-49774500D01*
X157119149Y-49754815D01*
X157098507Y-49738181D01*
X156339336Y-48979010D01*
X155745326Y-48385000D01*
X160121251Y-48385000D01*
X160121251Y-48421654D01*
X160131569Y-48522652D01*
X160185796Y-48686300D01*
X160185801Y-48686311D01*
X160276302Y-48833034D01*
X160276305Y-48833038D01*
X160398211Y-48954944D01*
X160398215Y-48954947D01*
X160544938Y-49045448D01*
X160544949Y-49045453D01*
X160708597Y-49099680D01*
X160809601Y-49109999D01*
X160896250Y-49109998D01*
X160896250Y-48385000D01*
X160121251Y-48385000D01*
X155745326Y-48385000D01*
X155542119Y-48181793D01*
X155538474Y-48177814D01*
X155512456Y-48146807D01*
X155512455Y-48146806D01*
X155501058Y-48140226D01*
X155477392Y-48126561D01*
X155472831Y-48123655D01*
X155459687Y-48114452D01*
X155439684Y-48100446D01*
X155439681Y-48100445D01*
X155434861Y-48098197D01*
X155418055Y-48091235D01*
X155413043Y-48089411D01*
X155373190Y-48082383D01*
X155367910Y-48081212D01*
X155328808Y-48070735D01*
X155293892Y-48073790D01*
X155288481Y-48074264D01*
X155283078Y-48074500D01*
X153374500Y-48074500D01*
X153307461Y-48054815D01*
X153261706Y-48002011D01*
X153250500Y-47950500D01*
X153250500Y-47885000D01*
X160121250Y-47885000D01*
X160896250Y-47885000D01*
X160896250Y-47160000D01*
X161396250Y-47160000D01*
X161396250Y-49109999D01*
X161482890Y-49109999D01*
X161482904Y-49109998D01*
X161583902Y-49099680D01*
X161747550Y-49045453D01*
X161747561Y-49045448D01*
X161894284Y-48954947D01*
X161894288Y-48954944D01*
X162016194Y-48833038D01*
X162016197Y-48833034D01*
X162096641Y-48702616D01*
X162148589Y-48655891D01*
X162217551Y-48644670D01*
X162281633Y-48672513D01*
X162289860Y-48680032D01*
X162295538Y-48685710D01*
X162295539Y-48685711D01*
X162401775Y-48764116D01*
X162451916Y-48781661D01*
X162487705Y-48794185D01*
X162544481Y-48834907D01*
X162570228Y-48899860D01*
X162570750Y-48911226D01*
X162570750Y-49342145D01*
X162551065Y-49409184D01*
X162498261Y-49454939D01*
X162487705Y-49459186D01*
X162454274Y-49470884D01*
X162454273Y-49470884D01*
X162348039Y-49549288D01*
X162348038Y-49549289D01*
X162269634Y-49655523D01*
X162226024Y-49780150D01*
X162223250Y-49809739D01*
X162223250Y-50390260D01*
X162226024Y-50419849D01*
X162269634Y-50544476D01*
X162348038Y-50650710D01*
X162348039Y-50650711D01*
X162454273Y-50729115D01*
X162454274Y-50729115D01*
X162454275Y-50729116D01*
X162578901Y-50772725D01*
X162578900Y-50772725D01*
X162608490Y-50775500D01*
X162608494Y-50775500D01*
X163214010Y-50775500D01*
X163243599Y-50772725D01*
X163243598Y-50772724D01*
X163368225Y-50729116D01*
X163474461Y-50650711D01*
X163552866Y-50544475D01*
X163596475Y-50419849D01*
X163596709Y-50417349D01*
X163599250Y-50390260D01*
X163599250Y-49809739D01*
X163596475Y-49780150D01*
X163573001Y-49713067D01*
X163552866Y-49655525D01*
X163551019Y-49653023D01*
X163474461Y-49549289D01*
X163474460Y-49549288D01*
X163368227Y-49470885D01*
X163368225Y-49470884D01*
X163346855Y-49463406D01*
X163304792Y-49448687D01*
X163248017Y-49407964D01*
X163222271Y-49343011D01*
X163221749Y-49331646D01*
X163221749Y-49328272D01*
X163221749Y-48911223D01*
X163241434Y-48844187D01*
X163294238Y-48798432D01*
X163304794Y-48794185D01*
X163313591Y-48791106D01*
X163390725Y-48764116D01*
X163496961Y-48685711D01*
X163575366Y-48579475D01*
X163618975Y-48454849D01*
X163621750Y-48425256D01*
X163621750Y-47844744D01*
X163621515Y-47842239D01*
X163618975Y-47815150D01*
X163575365Y-47690523D01*
X163496961Y-47584289D01*
X163496960Y-47584288D01*
X163390726Y-47505884D01*
X163266098Y-47462274D01*
X163266099Y-47462274D01*
X163236510Y-47459500D01*
X163236506Y-47459500D01*
X162555994Y-47459500D01*
X162555990Y-47459500D01*
X162526400Y-47462274D01*
X162401773Y-47505884D01*
X162295541Y-47584286D01*
X162289857Y-47589971D01*
X162228532Y-47623453D01*
X162158841Y-47618466D01*
X162102909Y-47576592D01*
X162096641Y-47567383D01*
X162016197Y-47436965D01*
X162016194Y-47436961D01*
X161894288Y-47315055D01*
X161894284Y-47315052D01*
X161747561Y-47224551D01*
X161747550Y-47224546D01*
X161583902Y-47170319D01*
X161482904Y-47160000D01*
X161396250Y-47160000D01*
X160896250Y-47160000D01*
X160896249Y-47159999D01*
X160809610Y-47160000D01*
X160809593Y-47160001D01*
X160708597Y-47170319D01*
X160544949Y-47224546D01*
X160544938Y-47224551D01*
X160398215Y-47315052D01*
X160398211Y-47315055D01*
X160276305Y-47436961D01*
X160276302Y-47436965D01*
X160185801Y-47583688D01*
X160185796Y-47583699D01*
X160131569Y-47747347D01*
X160121250Y-47848345D01*
X160121250Y-47885000D01*
X153250500Y-47885000D01*
X153250500Y-47380249D01*
X153250499Y-47380247D01*
X153238868Y-47321770D01*
X153238867Y-47321769D01*
X153194552Y-47255447D01*
X153128230Y-47211132D01*
X153128229Y-47211131D01*
X153069752Y-47199500D01*
X153069748Y-47199500D01*
X151530252Y-47199500D01*
X151530247Y-47199500D01*
X151471770Y-47211131D01*
X151471769Y-47211132D01*
X151405447Y-47255447D01*
X151361132Y-47321769D01*
X151361131Y-47321770D01*
X151349500Y-47380247D01*
X151349500Y-49419752D01*
X151361131Y-49478229D01*
X151361132Y-49478230D01*
X151405447Y-49544552D01*
X151471769Y-49588867D01*
X151471770Y-49588868D01*
X151530247Y-49600499D01*
X151530250Y-49600500D01*
X151530252Y-49600500D01*
X151835925Y-49600500D01*
X151902964Y-49620185D01*
X151948719Y-49672989D01*
X151958663Y-49742147D01*
X151929638Y-49805703D01*
X151876880Y-49841541D01*
X151793024Y-49870883D01*
X151793023Y-49870884D01*
X151686789Y-49949288D01*
X151686788Y-49949289D01*
X151608384Y-50055523D01*
X151564774Y-50180150D01*
X151562000Y-50209739D01*
X151562000Y-50790260D01*
X151564774Y-50819849D01*
X151608384Y-50944476D01*
X151686788Y-51050710D01*
X151686789Y-51050711D01*
X151793025Y-51129116D01*
X151849796Y-51148981D01*
X151891455Y-51163559D01*
X151948231Y-51204281D01*
X151973978Y-51269234D01*
X151974500Y-51280600D01*
X151974500Y-51651853D01*
X151954815Y-51718892D01*
X151902011Y-51764647D01*
X151862079Y-51775311D01*
X151840300Y-51777353D01*
X151840298Y-51777353D01*
X151712119Y-51822206D01*
X151712117Y-51822207D01*
X151602850Y-51902850D01*
X151522207Y-52012117D01*
X151522206Y-52012119D01*
X151477353Y-52140298D01*
X151477353Y-52140300D01*
X151474500Y-52170730D01*
X151474500Y-52400500D01*
X151454815Y-52467539D01*
X151402011Y-52513294D01*
X151350500Y-52524500D01*
X150266922Y-52524500D01*
X150261518Y-52524264D01*
X150256107Y-52523790D01*
X150221192Y-52520735D01*
X150221191Y-52520735D01*
X150182091Y-52531212D01*
X150176811Y-52532383D01*
X150136959Y-52539410D01*
X150131961Y-52541229D01*
X150115117Y-52548206D01*
X150110313Y-52550446D01*
X150077166Y-52573656D01*
X150072606Y-52576562D01*
X150037548Y-52596804D01*
X150037545Y-52596806D01*
X150037543Y-52596808D01*
X150037541Y-52596810D01*
X150011524Y-52627815D01*
X150007868Y-52631804D01*
X149582103Y-53057571D01*
X149163993Y-53475681D01*
X149102670Y-53509166D01*
X149076312Y-53512000D01*
X144179422Y-53512000D01*
X144174018Y-53511764D01*
X144168607Y-53511290D01*
X144133692Y-53508235D01*
X144133691Y-53508235D01*
X144094591Y-53518712D01*
X144089311Y-53519883D01*
X144049459Y-53526910D01*
X144044461Y-53528729D01*
X144027617Y-53535706D01*
X144022813Y-53537946D01*
X143989666Y-53561156D01*
X143985106Y-53564062D01*
X143950048Y-53584304D01*
X143950040Y-53584310D01*
X143924023Y-53615315D01*
X143920369Y-53619304D01*
X142131803Y-55407870D01*
X142127814Y-55411525D01*
X142096805Y-55437545D01*
X142076562Y-55472606D01*
X142073656Y-55477166D01*
X142050446Y-55510313D01*
X142048206Y-55515117D01*
X142041229Y-55531961D01*
X142039410Y-55536959D01*
X142032383Y-55576811D01*
X142031212Y-55582091D01*
X142020735Y-55621191D01*
X142024264Y-55661513D01*
X142024500Y-55666920D01*
X142024500Y-58833000D01*
X142004815Y-58900039D01*
X141952011Y-58945794D01*
X141900500Y-58957000D01*
X141830247Y-58957000D01*
X141771770Y-58968631D01*
X141771768Y-58968632D01*
X141768887Y-58970558D01*
X141761655Y-58972822D01*
X141760487Y-58973306D01*
X141760443Y-58973201D01*
X141702209Y-58991433D01*
X141634829Y-58972946D01*
X141631113Y-58970558D01*
X141628231Y-58968632D01*
X141628229Y-58968631D01*
X141569752Y-58957000D01*
X141569748Y-58957000D01*
X140530252Y-58957000D01*
X140530247Y-58957000D01*
X140471770Y-58968631D01*
X140471768Y-58968632D01*
X140468887Y-58970558D01*
X140461655Y-58972822D01*
X140460487Y-58973306D01*
X140460443Y-58973201D01*
X140402209Y-58991433D01*
X140334829Y-58972946D01*
X140331113Y-58970558D01*
X140328231Y-58968632D01*
X140328229Y-58968631D01*
X140269752Y-58957000D01*
X140269748Y-58957000D01*
X140199500Y-58957000D01*
X140132461Y-58937315D01*
X140086706Y-58884511D01*
X140075500Y-58833000D01*
X140075500Y-54836188D01*
X140095185Y-54769149D01*
X140111819Y-54748507D01*
X142612319Y-52248007D01*
X142673642Y-52214522D01*
X142743334Y-52219506D01*
X142787681Y-52248007D01*
X142957863Y-52418189D01*
X142961518Y-52422178D01*
X142987541Y-52453190D01*
X142987543Y-52453191D01*
X142987545Y-52453194D01*
X142987547Y-52453195D01*
X142987548Y-52453196D01*
X143022599Y-52473433D01*
X143027162Y-52476339D01*
X143060316Y-52499554D01*
X143060319Y-52499554D01*
X143065176Y-52501820D01*
X143081933Y-52508760D01*
X143086953Y-52510587D01*
X143086955Y-52510588D01*
X143122806Y-52516909D01*
X143126808Y-52517615D01*
X143132080Y-52518783D01*
X143171193Y-52529264D01*
X143211522Y-52525735D01*
X143216924Y-52525500D01*
X148833078Y-52525500D01*
X148838481Y-52525735D01*
X148878807Y-52529264D01*
X148917940Y-52518777D01*
X148923162Y-52517619D01*
X148963045Y-52510588D01*
X148963050Y-52510584D01*
X148968099Y-52508747D01*
X148984824Y-52501819D01*
X148989681Y-52499554D01*
X148989684Y-52499554D01*
X149022841Y-52476335D01*
X149027390Y-52473438D01*
X149062455Y-52453194D01*
X149062459Y-52453190D01*
X149088476Y-52422182D01*
X149092122Y-52418202D01*
X150218204Y-51292120D01*
X150222166Y-51288489D01*
X150253194Y-51262455D01*
X150268541Y-51235871D01*
X150319108Y-51187656D01*
X150364353Y-51174413D01*
X150379386Y-51173002D01*
X150382349Y-51172725D01*
X150506975Y-51129116D01*
X150613211Y-51050711D01*
X150691616Y-50944475D01*
X150735225Y-50819849D01*
X150738000Y-50790256D01*
X150738000Y-50209744D01*
X150735225Y-50180151D01*
X150691616Y-50055525D01*
X150613211Y-49949289D01*
X150611665Y-49948148D01*
X150506976Y-49870884D01*
X150506975Y-49870883D01*
X150423120Y-49841541D01*
X150366344Y-49800819D01*
X150340597Y-49735866D01*
X150354054Y-49667305D01*
X150402441Y-49616902D01*
X150464075Y-49600500D01*
X150769750Y-49600500D01*
X150769751Y-49600499D01*
X150784568Y-49597552D01*
X150828229Y-49588868D01*
X150828229Y-49588867D01*
X150828231Y-49588867D01*
X150894552Y-49544552D01*
X150938867Y-49478231D01*
X150938867Y-49478229D01*
X150938868Y-49478229D01*
X150950499Y-49419752D01*
X150950500Y-49419750D01*
X150950500Y-47380249D01*
X150950499Y-47380247D01*
X150938868Y-47321770D01*
X150938867Y-47321769D01*
X150894552Y-47255447D01*
X150828230Y-47211132D01*
X150828229Y-47211131D01*
X150769752Y-47199500D01*
X150769748Y-47199500D01*
X150449500Y-47199500D01*
X150382461Y-47179815D01*
X150336706Y-47127011D01*
X150325500Y-47075500D01*
X150325500Y-43424500D01*
X150345185Y-43357461D01*
X150397989Y-43311706D01*
X150449500Y-43300500D01*
X151919750Y-43300500D01*
X151919751Y-43300499D01*
X151934568Y-43297552D01*
X151978229Y-43288868D01*
X151978229Y-43288867D01*
X151978231Y-43288867D01*
X152044552Y-43244552D01*
X152088867Y-43178231D01*
X152088867Y-43178229D01*
X152088868Y-43178229D01*
X152100499Y-43119752D01*
X152100500Y-43119750D01*
X152100500Y-41080249D01*
X152100499Y-41080247D01*
X152088868Y-41021770D01*
X152088867Y-41021769D01*
X152044552Y-40955447D01*
X151978230Y-40911132D01*
X151978229Y-40911131D01*
X151919752Y-40899500D01*
X151919748Y-40899500D01*
X148080252Y-40899500D01*
X148080247Y-40899500D01*
X148021770Y-40911131D01*
X148021769Y-40911132D01*
X147955447Y-40955447D01*
X147911132Y-41021769D01*
X147911131Y-41021770D01*
X147899500Y-41080247D01*
X147899500Y-43119752D01*
X147911131Y-43178229D01*
X147911132Y-43178230D01*
X147955447Y-43244552D01*
X148021769Y-43288867D01*
X148021770Y-43288868D01*
X148080247Y-43300499D01*
X148080250Y-43300500D01*
X148080252Y-43300500D01*
X149550500Y-43300500D01*
X149617539Y-43320185D01*
X149663294Y-43372989D01*
X149674500Y-43424500D01*
X149674500Y-47075500D01*
X149654815Y-47142539D01*
X149602011Y-47188294D01*
X149550500Y-47199500D01*
X149230247Y-47199500D01*
X149171770Y-47211131D01*
X149171769Y-47211132D01*
X149095293Y-47262233D01*
X149092823Y-47258536D01*
X149052244Y-47280550D01*
X148982567Y-47275374D01*
X148926749Y-47233349D01*
X148910038Y-47202645D01*
X148893354Y-47157913D01*
X148893350Y-47157906D01*
X148807190Y-47042812D01*
X148807187Y-47042809D01*
X148692093Y-46956649D01*
X148692086Y-46956645D01*
X148557379Y-46906403D01*
X148557372Y-46906401D01*
X148497844Y-46900000D01*
X147950000Y-46900000D01*
X147950000Y-48526000D01*
X147930315Y-48593039D01*
X147877511Y-48638794D01*
X147826000Y-48650000D01*
X146450000Y-48650000D01*
X146450000Y-49447844D01*
X146456401Y-49507372D01*
X146456403Y-49507379D01*
X146506645Y-49642086D01*
X146506649Y-49642093D01*
X146592809Y-49757187D01*
X146592812Y-49757190D01*
X146707906Y-49843350D01*
X146707913Y-49843354D01*
X146842620Y-49893596D01*
X146842627Y-49893598D01*
X146902155Y-49899999D01*
X146902172Y-49900000D01*
X147146464Y-49900000D01*
X147213503Y-49919685D01*
X147259258Y-49972489D01*
X147269202Y-50041647D01*
X147264170Y-50063004D01*
X147247819Y-50112348D01*
X147237500Y-50213345D01*
X147237500Y-50250000D01*
X148401000Y-50250000D01*
X148468039Y-50269685D01*
X148513794Y-50322489D01*
X148525000Y-50374000D01*
X148525000Y-51474999D01*
X148624140Y-51474999D01*
X148624154Y-51474998D01*
X148725152Y-51464680D01*
X148826506Y-51431095D01*
X148896334Y-51428693D01*
X148956376Y-51464425D01*
X148987569Y-51526945D01*
X148980009Y-51596404D01*
X148953191Y-51636482D01*
X148751493Y-51838181D01*
X148690170Y-51871666D01*
X148663812Y-51874500D01*
X143386188Y-51874500D01*
X143319149Y-51854815D01*
X143298507Y-51838181D01*
X142988188Y-51527862D01*
X142988186Y-51527859D01*
X142889579Y-51429252D01*
X142511037Y-51050710D01*
X142210327Y-50750000D01*
X147237501Y-50750000D01*
X147237501Y-50786654D01*
X147247819Y-50887652D01*
X147302046Y-51051300D01*
X147302051Y-51051311D01*
X147392552Y-51198034D01*
X147392555Y-51198038D01*
X147514461Y-51319944D01*
X147514465Y-51319947D01*
X147661188Y-51410448D01*
X147661199Y-51410453D01*
X147824847Y-51464680D01*
X147925851Y-51474999D01*
X148025000Y-51474998D01*
X148025000Y-50750000D01*
X147237501Y-50750000D01*
X142210327Y-50750000D01*
X141339619Y-49879293D01*
X141335974Y-49875314D01*
X141309956Y-49844307D01*
X141309955Y-49844306D01*
X141298558Y-49837726D01*
X141274892Y-49824061D01*
X141270331Y-49821155D01*
X141257187Y-49811952D01*
X141237184Y-49797946D01*
X141237181Y-49797945D01*
X141232361Y-49795697D01*
X141215555Y-49788735D01*
X141210543Y-49786911D01*
X141170690Y-49779883D01*
X141165410Y-49778712D01*
X141126308Y-49768235D01*
X141091392Y-49771290D01*
X141085981Y-49771764D01*
X141080578Y-49772000D01*
X139682480Y-49772000D01*
X139615441Y-49752315D01*
X139569686Y-49699511D01*
X139565439Y-49688956D01*
X139559852Y-49672989D01*
X139552866Y-49653025D01*
X139528629Y-49620185D01*
X139474461Y-49546789D01*
X139474460Y-49546788D01*
X139368226Y-49468384D01*
X139243598Y-49424774D01*
X139243599Y-49424774D01*
X139214010Y-49422000D01*
X139214006Y-49422000D01*
X138608494Y-49422000D01*
X138608490Y-49422000D01*
X138578900Y-49424774D01*
X138454273Y-49468384D01*
X138348039Y-49546788D01*
X138348038Y-49546789D01*
X138269634Y-49653023D01*
X138226024Y-49777650D01*
X138223250Y-49807239D01*
X138223250Y-50387760D01*
X137774250Y-50387760D01*
X137774250Y-49807239D01*
X137771475Y-49777650D01*
X137734852Y-49672989D01*
X137727866Y-49653025D01*
X137703629Y-49620185D01*
X137649461Y-49546789D01*
X137649460Y-49546788D01*
X137543227Y-49468385D01*
X137543225Y-49468384D01*
X137512293Y-49457560D01*
X137455518Y-49416837D01*
X137429772Y-49351883D01*
X137429250Y-49340519D01*
X137429250Y-48908726D01*
X137448935Y-48841687D01*
X137501739Y-48795932D01*
X137512295Y-48791685D01*
X137539528Y-48782154D01*
X137598225Y-48761616D01*
X137704461Y-48683211D01*
X137704466Y-48683203D01*
X137710135Y-48677535D01*
X137771457Y-48644048D01*
X137841149Y-48649029D01*
X137897084Y-48690899D01*
X137903358Y-48700115D01*
X137983804Y-48830537D01*
X138105711Y-48952444D01*
X138105715Y-48952447D01*
X138252438Y-49042948D01*
X138252449Y-49042953D01*
X138416097Y-49097180D01*
X138517101Y-49107499D01*
X138603750Y-49107498D01*
X138603750Y-48382500D01*
X139103750Y-48382500D01*
X139103750Y-49107499D01*
X139190390Y-49107499D01*
X139190404Y-49107498D01*
X139291402Y-49097180D01*
X139455050Y-49042953D01*
X139455061Y-49042948D01*
X139601784Y-48952447D01*
X139601788Y-48952444D01*
X139723694Y-48830538D01*
X139723697Y-48830534D01*
X139814198Y-48683811D01*
X139814203Y-48683800D01*
X139868430Y-48520152D01*
X139878749Y-48419154D01*
X139878750Y-48419141D01*
X139878750Y-48382500D01*
X139103750Y-48382500D01*
X138603750Y-48382500D01*
X138603750Y-48150000D01*
X146450000Y-48150000D01*
X147450000Y-48150000D01*
X147450000Y-46900000D01*
X146902155Y-46900000D01*
X146842627Y-46906401D01*
X146842620Y-46906403D01*
X146707913Y-46956645D01*
X146707906Y-46956649D01*
X146592812Y-47042809D01*
X146592809Y-47042812D01*
X146506649Y-47157906D01*
X146506645Y-47157913D01*
X146456403Y-47292620D01*
X146456401Y-47292627D01*
X146450000Y-47352155D01*
X146450000Y-48150000D01*
X138603750Y-48150000D01*
X138603750Y-47157500D01*
X139103750Y-47157500D01*
X139103750Y-47882500D01*
X139878749Y-47882500D01*
X139878749Y-47845860D01*
X139878748Y-47845845D01*
X139868430Y-47744847D01*
X139814203Y-47581199D01*
X139814198Y-47581188D01*
X139723697Y-47434465D01*
X139723694Y-47434461D01*
X139601788Y-47312555D01*
X139601784Y-47312552D01*
X139455061Y-47222051D01*
X139455050Y-47222046D01*
X139291402Y-47167819D01*
X139190404Y-47157500D01*
X139103750Y-47157500D01*
X138603750Y-47157500D01*
X138603749Y-47157499D01*
X138517110Y-47157500D01*
X138517093Y-47157501D01*
X138416097Y-47167819D01*
X138252449Y-47222046D01*
X138252438Y-47222051D01*
X138105715Y-47312552D01*
X138105711Y-47312555D01*
X137983804Y-47434462D01*
X137903358Y-47564884D01*
X137851410Y-47611608D01*
X137782447Y-47622829D01*
X137718365Y-47594985D01*
X137710139Y-47587467D01*
X137704460Y-47581788D01*
X137598226Y-47503384D01*
X137473598Y-47459774D01*
X137473599Y-47459774D01*
X137444010Y-47457000D01*
X137444006Y-47457000D01*
X136763494Y-47457000D01*
X136763490Y-47457000D01*
X136733900Y-47459774D01*
X136609273Y-47503384D01*
X136503039Y-47581788D01*
X136503038Y-47581789D01*
X136424634Y-47688023D01*
X136381024Y-47812650D01*
X136378250Y-47842239D01*
X136378250Y-48422760D01*
X133696627Y-48422760D01*
X133768896Y-48318446D01*
X133874521Y-48173068D01*
X134309315Y-47602023D01*
X134421350Y-47461534D01*
X134881315Y-46910585D01*
X134884972Y-46906401D01*
X134999623Y-46775172D01*
X135022039Y-46750646D01*
X135483818Y-46245441D01*
X135608024Y-46115532D01*
X136115532Y-45608024D01*
X136245441Y-45483818D01*
X136775172Y-44999623D01*
X136910594Y-44881308D01*
X137461534Y-44421350D01*
X137602023Y-44309315D01*
X138173082Y-43874509D01*
X138318446Y-43768896D01*
X138908462Y-43360132D01*
X139058436Y-43261135D01*
X139666152Y-42879281D01*
X139820464Y-42787084D01*
X140444668Y-42432899D01*
X140602976Y-42347710D01*
X141242453Y-42021880D01*
X141404380Y-41943900D01*
X142057830Y-41647089D01*
X142223153Y-41576427D01*
X142889269Y-41309229D01*
X143057532Y-41246079D01*
X143734984Y-41009028D01*
X143905927Y-40953486D01*
X144593290Y-40747081D01*
X144766567Y-40699259D01*
X145462524Y-40523893D01*
X145637771Y-40483894D01*
X146340886Y-40339931D01*
X146517742Y-40307836D01*
X147226617Y-40195562D01*
X147404737Y-40171434D01*
X148117934Y-40091076D01*
X148296958Y-40074964D01*
X149013013Y-40026686D01*
X149192596Y-40018620D01*
X149910130Y-40002517D01*
X150089870Y-40002517D01*
X150807403Y-40018620D01*
G37*
%TD.AperFunction*%
%TA.AperFunction,Conductor*%
G36*
X132365130Y-61134870D02*
G01*
X132555818Y-61297732D01*
X132484710Y-61368841D01*
X132423387Y-61402326D01*
X132353695Y-61397342D01*
X132298654Y-61356647D01*
X132249703Y-61292854D01*
X132231226Y-61268774D01*
X132143349Y-61201344D01*
X132102149Y-61144918D01*
X132097994Y-61075172D01*
X132131157Y-61015289D01*
X132202266Y-60944179D01*
X132365130Y-61134870D01*
G37*
%TD.AperFunction*%
%TA.AperFunction,Conductor*%
G36*
X165365130Y-61134870D02*
G01*
X165555818Y-61297732D01*
X165484710Y-61368841D01*
X165423387Y-61402326D01*
X165353695Y-61397342D01*
X165298654Y-61356647D01*
X165231226Y-61268774D01*
X165231226Y-61268773D01*
X165143349Y-61201344D01*
X165102148Y-61144918D01*
X165097993Y-61075172D01*
X165131156Y-61015289D01*
X165202265Y-60944179D01*
X165365130Y-61134870D01*
G37*
%TD.AperFunction*%
%TA.AperFunction,Conductor*%
G36*
X134868842Y-61015289D02*
G01*
X134902327Y-61076612D01*
X134897343Y-61146304D01*
X134856648Y-61201345D01*
X134768774Y-61268773D01*
X134768773Y-61268774D01*
X134701345Y-61356648D01*
X134644917Y-61397850D01*
X134575171Y-61402005D01*
X134515289Y-61368842D01*
X134444180Y-61297733D01*
X134634870Y-61134870D01*
X134797733Y-60944180D01*
X134868842Y-61015289D01*
G37*
%TD.AperFunction*%
%TA.AperFunction,Conductor*%
G36*
X167868842Y-61015289D02*
G01*
X167902327Y-61076612D01*
X167897343Y-61146304D01*
X167856648Y-61201345D01*
X167768774Y-61268773D01*
X167768773Y-61268774D01*
X167701345Y-61356648D01*
X167644917Y-61397850D01*
X167575171Y-61402005D01*
X167515289Y-61368842D01*
X167444180Y-61297733D01*
X167634870Y-61134870D01*
X167797733Y-60944180D01*
X167868842Y-61015289D01*
G37*
%TD.AperFunction*%
%TA.AperFunction,Conductor*%
G36*
X132484710Y-58631157D02*
G01*
X132555819Y-58702266D01*
X132365130Y-58865130D01*
X132202266Y-59055819D01*
X132131157Y-58984710D01*
X132097672Y-58923387D01*
X132102656Y-58853695D01*
X132143350Y-58798655D01*
X132231226Y-58731226D01*
X132298655Y-58643350D01*
X132355080Y-58602149D01*
X132424826Y-58597994D01*
X132484710Y-58631157D01*
G37*
%TD.AperFunction*%
%TA.AperFunction,Conductor*%
G36*
X165484710Y-58631157D02*
G01*
X165555819Y-58702266D01*
X165365130Y-58865130D01*
X165202266Y-59055819D01*
X165131157Y-58984710D01*
X165097672Y-58923387D01*
X165102656Y-58853695D01*
X165143350Y-58798655D01*
X165231226Y-58731226D01*
X165298655Y-58643350D01*
X165355080Y-58602149D01*
X165424826Y-58597994D01*
X165484710Y-58631157D01*
G37*
%TD.AperFunction*%
%TA.AperFunction,Conductor*%
G36*
X134646303Y-58602656D02*
G01*
X134701344Y-58643349D01*
X134768774Y-58731226D01*
X134802437Y-58757056D01*
X134856647Y-58798654D01*
X134897849Y-58855082D01*
X134902004Y-58924828D01*
X134868841Y-58984710D01*
X134797732Y-59055818D01*
X134634870Y-58865130D01*
X134444180Y-58702266D01*
X134515289Y-58631157D01*
X134576612Y-58597672D01*
X134646303Y-58602656D01*
G37*
%TD.AperFunction*%
%TA.AperFunction,Conductor*%
G36*
X167646304Y-58602655D02*
G01*
X167701344Y-58643349D01*
X167716402Y-58662973D01*
X167768774Y-58731226D01*
X167856647Y-58798654D01*
X167897849Y-58855082D01*
X167902004Y-58924828D01*
X167868841Y-58984710D01*
X167797732Y-59055818D01*
X167634870Y-58865130D01*
X167444179Y-58702265D01*
X167515289Y-58631156D01*
X167576612Y-58597671D01*
X167646304Y-58602655D01*
G37*
%TD.AperFunction*%
%TD*%
M02*
