%TF.GenerationSoftware,KiCad,Pcbnew,7.0.6-7.0.6~ubuntu22.04.1*%
%TF.CreationDate,2023-10-10T10:40:32+08:00*%
%TF.ProjectId,CAM,43414d2e-6b69-4636-9164-5f7063625858,rev?*%
%TF.SameCoordinates,Original*%
%TF.FileFunction,Copper,L1,Top*%
%TF.FilePolarity,Positive*%
%FSLAX46Y46*%
G04 Gerber Fmt 4.6, Leading zero omitted, Abs format (unit mm)*
G04 Created by KiCad (PCBNEW 7.0.6-7.0.6~ubuntu22.04.1) date 2023-10-10 10:40:32*
%MOMM*%
%LPD*%
G01*
G04 APERTURE LIST*
G04 Aperture macros list*
%AMRoundRect*
0 Rectangle with rounded corners*
0 $1 Rounding radius*
0 $2 $3 $4 $5 $6 $7 $8 $9 X,Y pos of 4 corners*
0 Add a 4 corners polygon primitive as box body*
4,1,4,$2,$3,$4,$5,$6,$7,$8,$9,$2,$3,0*
0 Add four circle primitives for the rounded corners*
1,1,$1+$1,$2,$3*
1,1,$1+$1,$4,$5*
1,1,$1+$1,$6,$7*
1,1,$1+$1,$8,$9*
0 Add four rect primitives between the rounded corners*
20,1,$1+$1,$2,$3,$4,$5,0*
20,1,$1+$1,$4,$5,$6,$7,0*
20,1,$1+$1,$6,$7,$8,$9,0*
20,1,$1+$1,$8,$9,$2,$3,0*%
G04 Aperture macros list end*
%TA.AperFunction,ComponentPad*%
%ADD10C,0.800000*%
%TD*%
%TA.AperFunction,ComponentPad*%
%ADD11C,6.400000*%
%TD*%
%TA.AperFunction,SMDPad,CuDef*%
%ADD12RoundRect,0.250000X-0.650000X1.000000X-0.650000X-1.000000X0.650000X-1.000000X0.650000X1.000000X0*%
%TD*%
%TA.AperFunction,SMDPad,CuDef*%
%ADD13RoundRect,0.225000X-0.225000X-0.250000X0.225000X-0.250000X0.225000X0.250000X-0.225000X0.250000X0*%
%TD*%
%TA.AperFunction,SMDPad,CuDef*%
%ADD14R,1.500000X2.000000*%
%TD*%
%TA.AperFunction,SMDPad,CuDef*%
%ADD15R,3.800000X2.000000*%
%TD*%
%TA.AperFunction,SMDPad,CuDef*%
%ADD16RoundRect,0.250000X0.400000X0.600000X-0.400000X0.600000X-0.400000X-0.600000X0.400000X-0.600000X0*%
%TD*%
%TA.AperFunction,SMDPad,CuDef*%
%ADD17RoundRect,0.225000X0.335876X0.017678X0.017678X0.335876X-0.335876X-0.017678X-0.017678X-0.335876X0*%
%TD*%
%TA.AperFunction,SMDPad,CuDef*%
%ADD18RoundRect,0.200000X-0.275000X0.200000X-0.275000X-0.200000X0.275000X-0.200000X0.275000X0.200000X0*%
%TD*%
%TA.AperFunction,SMDPad,CuDef*%
%ADD19RoundRect,0.375000X0.375000X-3.625000X0.375000X3.625000X-0.375000X3.625000X-0.375000X-3.625000X0*%
%TD*%
%TA.AperFunction,SMDPad,CuDef*%
%ADD20RoundRect,0.218750X0.256250X-0.218750X0.256250X0.218750X-0.256250X0.218750X-0.256250X-0.218750X0*%
%TD*%
%TA.AperFunction,ViaPad*%
%ADD21C,0.500000*%
%TD*%
%TA.AperFunction,Conductor*%
%ADD22C,0.250000*%
%TD*%
%TA.AperFunction,Conductor*%
%ADD23C,0.750000*%
%TD*%
%TA.AperFunction,Conductor*%
%ADD24C,0.500000*%
%TD*%
%TA.AperFunction,Conductor*%
%ADD25C,1.000000*%
%TD*%
G04 APERTURE END LIST*
D10*
%TO.P,REF\u002A\u002A,1*%
%TO.N,GND*%
X135932738Y-48332738D03*
X136635682Y-46635682D03*
X136635682Y-50029794D03*
X138332738Y-45932738D03*
D11*
X138332738Y-48332738D03*
D10*
X138332738Y-50732738D03*
X140029794Y-46635682D03*
X140029794Y-50029794D03*
X140732738Y-48332738D03*
%TD*%
D11*
%TO.P,,1*%
%TO.N,GND*%
X161667262Y-71667262D03*
%TD*%
%TO.P,,1*%
%TO.N,GND*%
X138332738Y-71667262D03*
%TD*%
%TO.P,,1*%
%TO.N,GND*%
X166500000Y-60000000D03*
%TD*%
%TO.P,,1*%
%TO.N,GND*%
X161667262Y-48332738D03*
%TD*%
D10*
%TO.P,REF\u002A\u002A,1*%
%TO.N,GND*%
X164100000Y-60000000D03*
X164802944Y-58302944D03*
X164802944Y-61697056D03*
X166500000Y-57600000D03*
D11*
X166500000Y-60000000D03*
D10*
X166500000Y-62400000D03*
X168197056Y-58302944D03*
X168197056Y-61697056D03*
X168900000Y-60000000D03*
%TD*%
D12*
%TO.P,D1,1,K*%
%TO.N,Net-(D1-K)*%
X143300000Y-58022500D03*
%TO.P,D1,2,A*%
%TO.N,VDD*%
X143300000Y-62022500D03*
%TD*%
D10*
%TO.P,REF\u002A\u002A,1*%
%TO.N,GND*%
X131100000Y-60000000D03*
X131802944Y-58302944D03*
X131802944Y-61697056D03*
X133500000Y-57600000D03*
D11*
X133500000Y-60000000D03*
D10*
X133500000Y-62400000D03*
X135197056Y-58302944D03*
X135197056Y-61697056D03*
X135900000Y-60000000D03*
%TD*%
D13*
%TO.P,C2,1*%
%TO.N,+3V3*%
X150650000Y-53750000D03*
%TO.P,C2,2*%
%TO.N,GND*%
X152200000Y-53750000D03*
%TD*%
%TO.P,C1,1*%
%TO.N,+3V3*%
X150650000Y-55300000D03*
%TO.P,C1,2*%
%TO.N,GND*%
X152200000Y-55300000D03*
%TD*%
D11*
%TO.P,,1*%
%TO.N,GND*%
X138332738Y-48332738D03*
%TD*%
D10*
%TO.P,REF\u002A\u002A,1*%
%TO.N,GND*%
X159267262Y-48332738D03*
X159970206Y-46635682D03*
X159970206Y-50029794D03*
X161667262Y-45932738D03*
D11*
X161667262Y-48332738D03*
D10*
X161667262Y-50732738D03*
X163364318Y-46635682D03*
X163364318Y-50029794D03*
X164067262Y-48332738D03*
%TD*%
D14*
%TO.P,U2,1,GND*%
%TO.N,GND*%
X152300000Y-43700000D03*
%TO.P,U2,2,VO*%
%TO.N,+3V3*%
X150000000Y-43700000D03*
D15*
X150000000Y-50000000D03*
D14*
%TO.P,U2,3,VI*%
%TO.N,Net-(D1-K)*%
X147700000Y-43700000D03*
%TD*%
D16*
%TO.P,D2,1,K*%
%TO.N,+3V3*%
X148650000Y-52500000D03*
%TO.P,D2,2,A*%
%TO.N,GND*%
X145150000Y-52500000D03*
%TD*%
D17*
%TO.P,C3,1*%
%TO.N,Net-(D1-K)*%
X145248008Y-46148008D03*
%TO.P,C3,2*%
%TO.N,GND*%
X144151992Y-45051992D03*
%TD*%
D10*
%TO.P,REF\u002A\u002A,1*%
%TO.N,GND*%
X159267262Y-71667262D03*
X159970206Y-69970206D03*
X159970206Y-73364318D03*
X161667262Y-69267262D03*
D11*
X161667262Y-71667262D03*
D10*
X161667262Y-74067262D03*
X163364318Y-69970206D03*
X163364318Y-73364318D03*
X164067262Y-71667262D03*
%TD*%
%TO.P,REF\u002A\u002A,1*%
%TO.N,GND*%
X135932738Y-71667262D03*
X136635682Y-69970206D03*
X136635682Y-73364318D03*
X138332738Y-69267262D03*
D11*
X138332738Y-71667262D03*
D10*
X138332738Y-74067262D03*
X140029794Y-69970206D03*
X140029794Y-73364318D03*
X140732738Y-71667262D03*
%TD*%
D18*
%TO.P,R1,1*%
%TO.N,Net-(D3-K)*%
X154800000Y-55575000D03*
%TO.P,R1,2*%
%TO.N,GND*%
X154800000Y-57225000D03*
%TD*%
D19*
%TO.P,J1,1,Pin_1*%
%TO.N,VDD*%
X145000000Y-73023572D03*
%TO.P,J1,2,Pin_2*%
%TO.N,/MOSI*%
X147000000Y-73023572D03*
%TO.P,J1,3,Pin_3*%
%TO.N,/MISO*%
X148998196Y-73000000D03*
%TO.P,J1,4,Pin_4*%
%TO.N,/CLK*%
X151000000Y-73023572D03*
%TO.P,J1,5,Pin_5*%
%TO.N,/CS*%
X153000000Y-73023572D03*
%TO.P,J1,6,Pin_6*%
%TO.N,GND*%
X155000000Y-73023572D03*
%TD*%
D20*
%TO.P,D3,1,K*%
%TO.N,Net-(D3-K)*%
X154800000Y-54075000D03*
%TO.P,D3,2,A*%
%TO.N,+3V3*%
X154800000Y-52500000D03*
%TD*%
D21*
%TO.N,GND*%
X146000000Y-68700000D03*
X147000000Y-52500000D03*
X149700000Y-65000000D03*
X154200000Y-43700000D03*
X153550000Y-53750000D03*
X152000000Y-77400000D03*
X152300000Y-45800000D03*
X151300000Y-58900000D03*
X155000000Y-78000000D03*
X148000000Y-68700000D03*
X152300000Y-41600000D03*
X148000000Y-77400000D03*
X152200000Y-65000000D03*
X146000000Y-77400000D03*
X150000000Y-77400000D03*
X151000000Y-65000000D03*
X145100000Y-50600000D03*
X145100000Y-54400000D03*
X150000000Y-68700000D03*
X155000000Y-68400000D03*
X154000000Y-68600000D03*
X154000000Y-77400000D03*
X152000000Y-68700000D03*
X143200000Y-46000000D03*
X153550000Y-55300000D03*
X143200000Y-44100000D03*
X145100000Y-44100000D03*
%TO.N,+3V3*%
X150650000Y-56080000D03*
%TO.N,/MOSI*%
X149500000Y-64200000D03*
%TO.N,/MISO*%
X150400000Y-64200000D03*
%TO.N,/CLK*%
X151300000Y-64100000D03*
%TO.N,/CS*%
X152100000Y-64000000D03*
%TD*%
D22*
%TO.N,Net-(D3-K)*%
X154800000Y-54075000D02*
X154800000Y-55575000D01*
D23*
%TO.N,GND*%
X155000000Y-73023572D02*
X155000000Y-78000000D01*
X155000000Y-73023572D02*
X155000000Y-68400000D01*
D22*
%TO.N,+3V3*%
X150650000Y-55300000D02*
X150650000Y-56080000D01*
D24*
X148650000Y-51350000D02*
X150000000Y-50000000D01*
D22*
X150650000Y-52500000D02*
X150650000Y-53750000D01*
X150650000Y-53750000D02*
X150650000Y-55300000D01*
D24*
X148650000Y-52500000D02*
X148650000Y-51350000D01*
D25*
X150000000Y-43700000D02*
X150000000Y-50000000D01*
D24*
X148650000Y-52500000D02*
X150650000Y-52500000D01*
X150650000Y-52500000D02*
X154800000Y-52500000D01*
D22*
%TO.N,/MOSI*%
X149500000Y-64200000D02*
X147000000Y-66700000D01*
X147000000Y-66700000D02*
X147000000Y-73023572D01*
%TO.N,/MISO*%
X148998196Y-67001804D02*
X148998196Y-73000000D01*
X150400000Y-65600000D02*
X148998196Y-67001804D01*
X150400000Y-64200000D02*
X150400000Y-65600000D01*
%TO.N,/CLK*%
X151600000Y-64400000D02*
X151300000Y-64100000D01*
X151600000Y-66900000D02*
X151600000Y-64400000D01*
X151000000Y-67500000D02*
X151600000Y-66900000D01*
X151000000Y-73023572D02*
X151000000Y-67500000D01*
%TO.N,/CS*%
X153000000Y-64900000D02*
X152100000Y-64000000D01*
X153000000Y-73023572D02*
X153000000Y-64900000D01*
D25*
%TO.N,Net-(D1-K)*%
X147700000Y-43700000D02*
X143300000Y-48100000D01*
X143300000Y-48100000D02*
X143300000Y-58022500D01*
%TO.N,VDD*%
X145000000Y-66800000D02*
X143300000Y-65100000D01*
X145000000Y-73023572D02*
X145000000Y-66800000D01*
X143300000Y-65100000D02*
X143300000Y-62022500D01*
%TD*%
%TA.AperFunction,Conductor*%
%TO.N,GND*%
G36*
X152130703Y-64491475D02*
G01*
X152137181Y-64497507D01*
X152638181Y-64998507D01*
X152671666Y-65059830D01*
X152674500Y-65086188D01*
X152674500Y-68702844D01*
X152654815Y-68769883D01*
X152602011Y-68815638D01*
X152566686Y-68825783D01*
X152474764Y-68837885D01*
X152474763Y-68837885D01*
X152334770Y-68895872D01*
X152334767Y-68895873D01*
X152334767Y-68895874D01*
X152214549Y-68988121D01*
X152122302Y-69108339D01*
X152122301Y-69108340D01*
X152122301Y-69108341D01*
X152114561Y-69127027D01*
X152070719Y-69181430D01*
X152004425Y-69203494D01*
X151936726Y-69186214D01*
X151889116Y-69135077D01*
X151885439Y-69127027D01*
X151884381Y-69124474D01*
X151877698Y-69108339D01*
X151785451Y-68988121D01*
X151665233Y-68895874D01*
X151665229Y-68895872D01*
X151582935Y-68861785D01*
X151525236Y-68837885D01*
X151493465Y-68833702D01*
X151433314Y-68825783D01*
X151369418Y-68797516D01*
X151330947Y-68739192D01*
X151325500Y-68702844D01*
X151325500Y-67686187D01*
X151345185Y-67619148D01*
X151361819Y-67598506D01*
X151448812Y-67511513D01*
X151818215Y-67142109D01*
X151822166Y-67138489D01*
X151853194Y-67112455D01*
X151873438Y-67077390D01*
X151876335Y-67072841D01*
X151899554Y-67039684D01*
X151899554Y-67039681D01*
X151901819Y-67034824D01*
X151908747Y-67018099D01*
X151910587Y-67013046D01*
X151910588Y-67013045D01*
X151917621Y-66973150D01*
X151918777Y-66967937D01*
X151929263Y-66928807D01*
X151925735Y-66888489D01*
X151925500Y-66883086D01*
X151925500Y-64585188D01*
X151945185Y-64518149D01*
X151997989Y-64472394D01*
X152067147Y-64462450D01*
X152130703Y-64491475D01*
G37*
%TD.AperFunction*%
%TA.AperFunction,Conductor*%
G36*
X150972903Y-64412373D02*
G01*
X150985417Y-64424886D01*
X150997694Y-64439054D01*
X151001951Y-64443967D01*
X151110931Y-64514004D01*
X151125048Y-64518149D01*
X151185434Y-64535880D01*
X151244212Y-64573653D01*
X151273238Y-64637209D01*
X151274500Y-64654857D01*
X151274500Y-66713811D01*
X151254815Y-66780850D01*
X151238181Y-66801492D01*
X150781802Y-67257870D01*
X150777814Y-67261525D01*
X150746805Y-67287545D01*
X150726562Y-67322606D01*
X150723656Y-67327166D01*
X150700446Y-67360313D01*
X150698206Y-67365117D01*
X150691229Y-67381961D01*
X150689410Y-67386959D01*
X150682383Y-67426811D01*
X150681212Y-67432091D01*
X150670735Y-67471191D01*
X150674264Y-67511513D01*
X150674500Y-67516920D01*
X150674500Y-68702844D01*
X150654815Y-68769883D01*
X150602011Y-68815638D01*
X150566686Y-68825783D01*
X150474764Y-68837885D01*
X150474763Y-68837885D01*
X150334770Y-68895872D01*
X150334767Y-68895873D01*
X150334767Y-68895874D01*
X150214554Y-68988117D01*
X150214549Y-68988121D01*
X150122300Y-69108342D01*
X150118538Y-69117424D01*
X150074694Y-69171825D01*
X150008398Y-69193886D01*
X149940700Y-69176603D01*
X149893092Y-69125464D01*
X149889421Y-69117424D01*
X149875894Y-69084767D01*
X149783647Y-68964549D01*
X149663429Y-68872302D01*
X149663425Y-68872300D01*
X149599997Y-68846027D01*
X149523432Y-68814313D01*
X149491661Y-68810130D01*
X149431510Y-68802211D01*
X149367614Y-68773944D01*
X149329143Y-68715620D01*
X149323696Y-68679272D01*
X149323696Y-67187992D01*
X149343381Y-67120953D01*
X149360015Y-67100311D01*
X149670977Y-66789349D01*
X150618221Y-65842104D01*
X150622172Y-65838484D01*
X150653194Y-65812455D01*
X150673444Y-65777379D01*
X150676328Y-65772852D01*
X150699554Y-65739684D01*
X150699554Y-65739681D01*
X150701819Y-65734824D01*
X150708747Y-65718099D01*
X150710587Y-65713046D01*
X150710588Y-65713045D01*
X150717621Y-65673150D01*
X150718777Y-65667937D01*
X150729263Y-65628807D01*
X150725735Y-65588489D01*
X150725500Y-65583086D01*
X150725500Y-64558535D01*
X150745185Y-64491496D01*
X150755783Y-64477336D01*
X150782882Y-64446063D01*
X150782883Y-64446059D01*
X150787386Y-64439054D01*
X150840188Y-64393297D01*
X150909346Y-64383350D01*
X150972903Y-64412373D01*
G37*
%TD.AperFunction*%
%TA.AperFunction,Conductor*%
G36*
X150043711Y-64476753D02*
G01*
X150044211Y-64477330D01*
X150073237Y-64540885D01*
X150074500Y-64558535D01*
X150074500Y-65413811D01*
X150054815Y-65480850D01*
X150038181Y-65501492D01*
X148779999Y-66759674D01*
X148776010Y-66763329D01*
X148745001Y-66789349D01*
X148724758Y-66824410D01*
X148721852Y-66828970D01*
X148698642Y-66862117D01*
X148696402Y-66866921D01*
X148689425Y-66883765D01*
X148687606Y-66888763D01*
X148680579Y-66928615D01*
X148679408Y-66933895D01*
X148668931Y-66972995D01*
X148672460Y-67013317D01*
X148672696Y-67018724D01*
X148672696Y-68679272D01*
X148653011Y-68746311D01*
X148600207Y-68792066D01*
X148564882Y-68802211D01*
X148472960Y-68814313D01*
X148472959Y-68814313D01*
X148332966Y-68872300D01*
X148332963Y-68872301D01*
X148332963Y-68872302D01*
X148212745Y-68964549D01*
X148194658Y-68988121D01*
X148120496Y-69084770D01*
X148108777Y-69113063D01*
X148064936Y-69167466D01*
X147998642Y-69189531D01*
X147930942Y-69172252D01*
X147883332Y-69121114D01*
X147879655Y-69113062D01*
X147877700Y-69108343D01*
X147877700Y-69108342D01*
X147867499Y-69095048D01*
X147785451Y-68988121D01*
X147665233Y-68895874D01*
X147665229Y-68895872D01*
X147582935Y-68861785D01*
X147525236Y-68837885D01*
X147493465Y-68833702D01*
X147433314Y-68825783D01*
X147369418Y-68797516D01*
X147330947Y-68739192D01*
X147325500Y-68702844D01*
X147325500Y-66886187D01*
X147345185Y-66819148D01*
X147361819Y-66798506D01*
X149473507Y-64686819D01*
X149534830Y-64653334D01*
X149561188Y-64650500D01*
X149564773Y-64650500D01*
X149564773Y-64650499D01*
X149689069Y-64614004D01*
X149798049Y-64543967D01*
X149803661Y-64537491D01*
X149856286Y-64476757D01*
X149915063Y-64438981D01*
X149984933Y-64438980D01*
X150043711Y-64476753D01*
G37*
%TD.AperFunction*%
%TA.AperFunction,Conductor*%
G36*
X150807403Y-40018620D02*
G01*
X150986950Y-40026684D01*
X151703049Y-40074964D01*
X151882089Y-40091079D01*
X152595233Y-40171431D01*
X152595242Y-40171432D01*
X152773386Y-40195562D01*
X153407526Y-40296000D01*
X153482220Y-40307831D01*
X153517222Y-40314182D01*
X153659148Y-40339938D01*
X154362220Y-40483893D01*
X154537454Y-40523888D01*
X155233422Y-40699257D01*
X155406692Y-40747076D01*
X156028725Y-40933863D01*
X156094060Y-40953483D01*
X156265050Y-41009040D01*
X156942462Y-41246077D01*
X157110745Y-41309234D01*
X157776847Y-41576427D01*
X157942173Y-41647091D01*
X158390183Y-41850586D01*
X158595557Y-41943872D01*
X158595582Y-41943883D01*
X158757585Y-42021900D01*
X159397029Y-42347713D01*
X159501011Y-42403669D01*
X159555335Y-42432902D01*
X160179494Y-42787061D01*
X160333884Y-42879304D01*
X160941487Y-43261087D01*
X160941518Y-43261106D01*
X161091573Y-43360156D01*
X161681539Y-43768886D01*
X161826916Y-43874509D01*
X162397975Y-44309314D01*
X162538522Y-44421398D01*
X162660970Y-44523625D01*
X162699816Y-44581698D01*
X162701098Y-44651556D01*
X162664409Y-44711017D01*
X162601397Y-44741204D01*
X162549407Y-44738586D01*
X162437592Y-44708625D01*
X162437585Y-44708624D01*
X162054549Y-44647957D01*
X161667263Y-44627660D01*
X161667261Y-44627660D01*
X161279974Y-44647957D01*
X160896938Y-44708624D01*
X160896931Y-44708625D01*
X160522325Y-44809000D01*
X160160267Y-44947982D01*
X159814718Y-45124048D01*
X159489468Y-45335269D01*
X159231910Y-45543833D01*
X159231910Y-45543834D01*
X160129568Y-46441492D01*
X160067751Y-46400187D01*
X159994830Y-46385682D01*
X159945582Y-46385682D01*
X159872661Y-46400187D01*
X159789966Y-46455442D01*
X159734711Y-46538137D01*
X159715308Y-46635682D01*
X159734711Y-46733227D01*
X159776015Y-46795043D01*
X158878358Y-45897386D01*
X158878357Y-45897386D01*
X158669793Y-46154944D01*
X158458572Y-46480194D01*
X158282506Y-46825743D01*
X158143524Y-47187801D01*
X158043149Y-47562407D01*
X158043148Y-47562414D01*
X157982481Y-47945450D01*
X157962184Y-48332737D01*
X157962184Y-48332738D01*
X157982481Y-48720025D01*
X158043148Y-49103061D01*
X158043149Y-49103068D01*
X158143524Y-49477674D01*
X158282506Y-49839732D01*
X158458572Y-50185281D01*
X158669793Y-50510531D01*
X158878356Y-50768087D01*
X158878357Y-50768088D01*
X159776021Y-49870423D01*
X159734711Y-49932249D01*
X159715308Y-50029794D01*
X159734711Y-50127339D01*
X159789966Y-50210034D01*
X159872661Y-50265289D01*
X159945582Y-50279794D01*
X159994830Y-50279794D01*
X160067751Y-50265289D01*
X160129566Y-50223985D01*
X159231910Y-51121641D01*
X159231911Y-51121642D01*
X159489468Y-51330206D01*
X159814718Y-51541427D01*
X160160267Y-51717493D01*
X160522325Y-51856475D01*
X160896931Y-51956850D01*
X160896938Y-51956851D01*
X161279974Y-52017518D01*
X161667261Y-52037816D01*
X161667263Y-52037816D01*
X162054549Y-52017518D01*
X162437585Y-51956851D01*
X162437592Y-51956850D01*
X162812198Y-51856475D01*
X163174256Y-51717493D01*
X163519805Y-51541427D01*
X163845045Y-51330214D01*
X163845047Y-51330213D01*
X164102611Y-51121640D01*
X163204953Y-50223982D01*
X163266773Y-50265289D01*
X163339694Y-50279794D01*
X163388942Y-50279794D01*
X163461863Y-50265289D01*
X163544558Y-50210034D01*
X163599813Y-50127339D01*
X163619216Y-50029794D01*
X163599813Y-49932249D01*
X163558506Y-49870429D01*
X164456164Y-50768087D01*
X164664737Y-50510523D01*
X164664738Y-50510521D01*
X164875951Y-50185281D01*
X165052017Y-49839732D01*
X165190999Y-49477674D01*
X165291374Y-49103068D01*
X165291375Y-49103061D01*
X165352042Y-48720025D01*
X165372340Y-48332738D01*
X165372340Y-48332737D01*
X165352042Y-47945450D01*
X165291375Y-47562414D01*
X165291375Y-47562412D01*
X165261413Y-47450594D01*
X165263076Y-47380744D01*
X165302238Y-47322882D01*
X165366466Y-47295377D01*
X165435368Y-47306963D01*
X165476375Y-47339030D01*
X165578605Y-47461481D01*
X165659091Y-47562407D01*
X165690701Y-47602045D01*
X166084541Y-48119302D01*
X166125486Y-48173077D01*
X166231122Y-48318473D01*
X166639840Y-48908422D01*
X166738893Y-49058481D01*
X167120694Y-49666114D01*
X167212931Y-49820492D01*
X167567097Y-50444664D01*
X167652290Y-50602977D01*
X167978099Y-51242414D01*
X168056116Y-51404417D01*
X168352908Y-52057826D01*
X168423572Y-52223152D01*
X168690758Y-52889237D01*
X168753921Y-53057534D01*
X168990958Y-53734946D01*
X169046515Y-53905935D01*
X169252917Y-54593285D01*
X169300741Y-54766572D01*
X169476100Y-55462499D01*
X169496072Y-55550000D01*
X169516107Y-55637781D01*
X169660060Y-56340845D01*
X169692168Y-56517779D01*
X169804432Y-57226583D01*
X169828567Y-57404757D01*
X169896183Y-58004872D01*
X169884129Y-58073694D01*
X169836780Y-58125074D01*
X169769169Y-58142698D01*
X169702763Y-58120972D01*
X169668968Y-58086291D01*
X169497468Y-57822206D01*
X169288904Y-57564649D01*
X169288903Y-57564648D01*
X168391248Y-58462302D01*
X168432551Y-58400489D01*
X168451954Y-58302944D01*
X168432551Y-58205399D01*
X168377296Y-58122704D01*
X168294601Y-58067449D01*
X168221680Y-58052944D01*
X168172432Y-58052944D01*
X168099511Y-58067449D01*
X168037687Y-58108758D01*
X168935350Y-57211096D01*
X168935350Y-57211095D01*
X168677793Y-57002531D01*
X168352543Y-56791310D01*
X168006994Y-56615244D01*
X167644936Y-56476262D01*
X167270330Y-56375887D01*
X167270323Y-56375886D01*
X166887287Y-56315219D01*
X166500001Y-56294922D01*
X166499999Y-56294922D01*
X166112712Y-56315219D01*
X165729676Y-56375886D01*
X165729669Y-56375887D01*
X165355063Y-56476262D01*
X164993005Y-56615244D01*
X164647456Y-56791310D01*
X164322206Y-57002531D01*
X164064648Y-57211095D01*
X164064648Y-57211096D01*
X164962306Y-58108754D01*
X164900489Y-58067449D01*
X164827568Y-58052944D01*
X164778320Y-58052944D01*
X164705399Y-58067449D01*
X164622704Y-58122704D01*
X164567449Y-58205399D01*
X164548046Y-58302944D01*
X164567449Y-58400489D01*
X164608753Y-58462305D01*
X163711096Y-57564648D01*
X163711095Y-57564648D01*
X163502531Y-57822206D01*
X163291310Y-58147456D01*
X163115244Y-58493005D01*
X162976262Y-58855063D01*
X162875887Y-59229669D01*
X162875886Y-59229676D01*
X162815219Y-59612712D01*
X162794922Y-59999999D01*
X162794922Y-60000000D01*
X162815219Y-60387287D01*
X162875886Y-60770323D01*
X162875887Y-60770330D01*
X162976262Y-61144936D01*
X163115244Y-61506994D01*
X163291310Y-61852543D01*
X163502531Y-62177793D01*
X163711094Y-62435349D01*
X163711095Y-62435350D01*
X164608758Y-61537686D01*
X164567449Y-61599511D01*
X164548046Y-61697056D01*
X164567449Y-61794601D01*
X164622704Y-61877296D01*
X164705399Y-61932551D01*
X164778320Y-61947056D01*
X164827568Y-61947056D01*
X164900489Y-61932551D01*
X164962304Y-61891247D01*
X164064648Y-62788903D01*
X164064649Y-62788904D01*
X164322206Y-62997468D01*
X164647456Y-63208689D01*
X164993005Y-63384755D01*
X165355063Y-63523737D01*
X165729669Y-63624112D01*
X165729676Y-63624113D01*
X166112712Y-63684780D01*
X166499999Y-63705078D01*
X166500001Y-63705078D01*
X166887287Y-63684780D01*
X167270323Y-63624113D01*
X167270330Y-63624112D01*
X167644936Y-63523737D01*
X168006994Y-63384755D01*
X168352543Y-63208689D01*
X168677783Y-62997476D01*
X168677785Y-62997475D01*
X168935349Y-62788902D01*
X168037691Y-61891244D01*
X168099511Y-61932551D01*
X168172432Y-61947056D01*
X168221680Y-61947056D01*
X168294601Y-61932551D01*
X168377296Y-61877296D01*
X168432551Y-61794601D01*
X168451954Y-61697056D01*
X168432551Y-61599511D01*
X168391244Y-61537691D01*
X169288902Y-62435349D01*
X169497475Y-62177785D01*
X169497475Y-62177783D01*
X169668968Y-61913708D01*
X169721989Y-61868205D01*
X169791194Y-61858590D01*
X169854611Y-61887917D01*
X169892105Y-61946875D01*
X169896183Y-61995127D01*
X169828567Y-62595242D01*
X169804432Y-62773416D01*
X169692168Y-63482220D01*
X169660060Y-63659154D01*
X169516107Y-64362218D01*
X169476471Y-64535880D01*
X169476107Y-64537470D01*
X169380497Y-64916912D01*
X169300742Y-65233425D01*
X169252917Y-65406714D01*
X169046515Y-66094064D01*
X168990958Y-66265053D01*
X168753921Y-66942465D01*
X168690758Y-67110762D01*
X168423572Y-67776847D01*
X168352908Y-67942173D01*
X168056116Y-68595582D01*
X167978099Y-68757585D01*
X167652290Y-69397022D01*
X167567097Y-69555335D01*
X167212931Y-70179507D01*
X167120694Y-70333885D01*
X166738893Y-70941518D01*
X166639840Y-71091577D01*
X166231122Y-71681526D01*
X166125486Y-71826922D01*
X165690701Y-72397954D01*
X165578615Y-72538506D01*
X165476377Y-72660967D01*
X165418302Y-72699814D01*
X165348444Y-72701096D01*
X165288982Y-72664407D01*
X165258796Y-72601395D01*
X165261414Y-72549404D01*
X165291375Y-72437587D01*
X165291375Y-72437585D01*
X165352042Y-72054549D01*
X165372340Y-71667262D01*
X165372340Y-71667261D01*
X165352042Y-71279974D01*
X165291375Y-70896938D01*
X165291374Y-70896931D01*
X165190999Y-70522325D01*
X165052017Y-70160267D01*
X164875951Y-69814718D01*
X164664730Y-69489468D01*
X164456166Y-69231911D01*
X164456165Y-69231910D01*
X163558509Y-70129566D01*
X163599813Y-70067751D01*
X163619216Y-69970206D01*
X163599813Y-69872661D01*
X163544558Y-69789966D01*
X163461863Y-69734711D01*
X163388942Y-69720206D01*
X163339694Y-69720206D01*
X163266773Y-69734711D01*
X163204952Y-69776017D01*
X164102612Y-68878358D01*
X164102612Y-68878357D01*
X163845055Y-68669793D01*
X163519805Y-68458572D01*
X163174256Y-68282506D01*
X162812198Y-68143524D01*
X162437592Y-68043149D01*
X162437585Y-68043148D01*
X162054549Y-67982481D01*
X161667263Y-67962184D01*
X161667261Y-67962184D01*
X161279974Y-67982481D01*
X160896938Y-68043148D01*
X160896931Y-68043149D01*
X160522325Y-68143524D01*
X160160267Y-68282506D01*
X159814718Y-68458572D01*
X159489468Y-68669793D01*
X159231910Y-68878357D01*
X159231910Y-68878358D01*
X160129568Y-69776016D01*
X160067751Y-69734711D01*
X159994830Y-69720206D01*
X159945582Y-69720206D01*
X159872661Y-69734711D01*
X159789966Y-69789966D01*
X159734711Y-69872661D01*
X159715308Y-69970206D01*
X159734711Y-70067751D01*
X159776016Y-70129568D01*
X158878358Y-69231910D01*
X158878357Y-69231910D01*
X158669793Y-69489468D01*
X158458572Y-69814718D01*
X158282506Y-70160267D01*
X158143524Y-70522325D01*
X158043149Y-70896931D01*
X158043148Y-70896938D01*
X157982481Y-71279974D01*
X157962184Y-71667261D01*
X157962184Y-71667262D01*
X157982481Y-72054549D01*
X158043148Y-72437585D01*
X158043149Y-72437592D01*
X158143524Y-72812198D01*
X158282506Y-73174256D01*
X158458572Y-73519805D01*
X158669793Y-73845055D01*
X158878357Y-74102612D01*
X158878358Y-74102612D01*
X159776018Y-73204951D01*
X159734711Y-73266773D01*
X159715308Y-73364318D01*
X159734711Y-73461863D01*
X159789966Y-73544558D01*
X159872661Y-73599813D01*
X159945582Y-73614318D01*
X159994830Y-73614318D01*
X160067751Y-73599813D01*
X160129566Y-73558509D01*
X159231910Y-74456165D01*
X159231911Y-74456166D01*
X159489468Y-74664730D01*
X159814718Y-74875951D01*
X160160267Y-75052017D01*
X160522325Y-75190999D01*
X160896931Y-75291374D01*
X160896938Y-75291375D01*
X161279974Y-75352042D01*
X161667261Y-75372340D01*
X161667263Y-75372340D01*
X162054549Y-75352042D01*
X162437585Y-75291375D01*
X162437587Y-75291375D01*
X162549404Y-75261414D01*
X162619254Y-75263077D01*
X162677117Y-75302239D01*
X162704621Y-75366468D01*
X162693035Y-75435370D01*
X162660967Y-75476377D01*
X162538506Y-75578615D01*
X162397954Y-75690701D01*
X161826922Y-76125486D01*
X161681526Y-76231122D01*
X161091577Y-76639840D01*
X160941518Y-76738893D01*
X160333885Y-77120694D01*
X160179507Y-77212931D01*
X159555335Y-77567097D01*
X159397022Y-77652290D01*
X158757585Y-77978099D01*
X158595582Y-78056116D01*
X157942173Y-78352908D01*
X157776847Y-78423572D01*
X157110762Y-78690758D01*
X156942465Y-78753921D01*
X156265053Y-78990958D01*
X156094064Y-79046515D01*
X155406714Y-79252917D01*
X155233425Y-79300742D01*
X154537511Y-79476097D01*
X154431289Y-79500342D01*
X154362218Y-79516107D01*
X153659154Y-79660060D01*
X153482220Y-79692168D01*
X152773416Y-79804432D01*
X152595242Y-79828567D01*
X151882090Y-79908920D01*
X151703025Y-79925036D01*
X150986987Y-79973313D01*
X150807386Y-79981379D01*
X150089870Y-79997483D01*
X149910130Y-79997483D01*
X149192613Y-79981379D01*
X149013012Y-79973313D01*
X148296974Y-79925036D01*
X148117909Y-79908920D01*
X147404757Y-79828567D01*
X147226583Y-79804432D01*
X146517779Y-79692168D01*
X146340845Y-79660060D01*
X145637781Y-79516107D01*
X145617397Y-79511454D01*
X145462499Y-79476100D01*
X144766572Y-79300741D01*
X144593285Y-79252917D01*
X143905935Y-79046515D01*
X143734946Y-78990958D01*
X143057534Y-78753921D01*
X142889237Y-78690758D01*
X142223152Y-78423572D01*
X142057826Y-78352908D01*
X141404417Y-78056116D01*
X141242414Y-77978099D01*
X140602989Y-77652296D01*
X140558473Y-77628341D01*
X140444664Y-77567097D01*
X139820492Y-77212931D01*
X139666114Y-77120694D01*
X139058481Y-76738893D01*
X138908422Y-76639840D01*
X138318473Y-76231122D01*
X138173077Y-76125486D01*
X137602045Y-75690701D01*
X137578301Y-75671766D01*
X137461481Y-75578605D01*
X137339031Y-75476376D01*
X137300184Y-75418301D01*
X137298902Y-75348443D01*
X137335591Y-75288981D01*
X137398603Y-75258795D01*
X137450594Y-75261413D01*
X137562413Y-75291375D01*
X137945450Y-75352042D01*
X138332737Y-75372340D01*
X138332739Y-75372340D01*
X138720025Y-75352042D01*
X139103061Y-75291375D01*
X139103068Y-75291374D01*
X139477674Y-75190999D01*
X139839732Y-75052017D01*
X140185281Y-74875951D01*
X140510521Y-74664738D01*
X140510523Y-74664737D01*
X140768087Y-74456164D01*
X139870429Y-73558506D01*
X139932249Y-73599813D01*
X140005170Y-73614318D01*
X140054418Y-73614318D01*
X140127339Y-73599813D01*
X140210034Y-73544558D01*
X140265289Y-73461863D01*
X140284692Y-73364318D01*
X140265289Y-73266773D01*
X140223982Y-73204953D01*
X141121640Y-74102611D01*
X141330213Y-73845047D01*
X141330214Y-73845045D01*
X141541427Y-73519805D01*
X141717493Y-73174256D01*
X141856475Y-72812198D01*
X141956850Y-72437592D01*
X141956851Y-72437585D01*
X142017518Y-72054549D01*
X142037816Y-71667262D01*
X142037816Y-71667261D01*
X142017518Y-71279974D01*
X141956851Y-70896938D01*
X141956850Y-70896931D01*
X141856475Y-70522325D01*
X141717493Y-70160267D01*
X141541427Y-69814718D01*
X141330206Y-69489468D01*
X141121642Y-69231911D01*
X141121641Y-69231910D01*
X140223985Y-70129565D01*
X140265289Y-70067751D01*
X140284692Y-69970206D01*
X140265289Y-69872661D01*
X140210034Y-69789966D01*
X140127339Y-69734711D01*
X140054418Y-69720206D01*
X140005170Y-69720206D01*
X139932249Y-69734711D01*
X139870425Y-69776020D01*
X140768088Y-68878358D01*
X140768088Y-68878357D01*
X140510531Y-68669793D01*
X140185281Y-68458572D01*
X139839732Y-68282506D01*
X139477674Y-68143524D01*
X139103068Y-68043149D01*
X139103061Y-68043148D01*
X138720025Y-67982481D01*
X138332739Y-67962184D01*
X138332737Y-67962184D01*
X137945450Y-67982481D01*
X137562414Y-68043148D01*
X137562407Y-68043149D01*
X137187801Y-68143524D01*
X136825743Y-68282506D01*
X136480194Y-68458572D01*
X136154944Y-68669793D01*
X135897386Y-68878357D01*
X135897386Y-68878358D01*
X136795044Y-69776016D01*
X136733227Y-69734711D01*
X136660306Y-69720206D01*
X136611058Y-69720206D01*
X136538137Y-69734711D01*
X136455442Y-69789966D01*
X136400187Y-69872661D01*
X136380784Y-69970206D01*
X136400187Y-70067751D01*
X136441491Y-70129567D01*
X135543834Y-69231910D01*
X135543833Y-69231910D01*
X135335269Y-69489468D01*
X135124048Y-69814718D01*
X134947982Y-70160267D01*
X134809000Y-70522325D01*
X134708625Y-70896931D01*
X134708624Y-70896938D01*
X134647957Y-71279974D01*
X134627660Y-71667261D01*
X134627660Y-71667262D01*
X134647957Y-72054549D01*
X134708624Y-72437585D01*
X134708625Y-72437592D01*
X134738586Y-72549407D01*
X134736923Y-72619257D01*
X134697760Y-72677119D01*
X134633532Y-72704623D01*
X134564630Y-72693036D01*
X134523625Y-72660971D01*
X134421385Y-72538506D01*
X134309298Y-72397954D01*
X134295678Y-72380067D01*
X133874509Y-71826916D01*
X133768877Y-71681526D01*
X133360156Y-71091573D01*
X133261106Y-70941518D01*
X132879305Y-70333885D01*
X132787068Y-70179507D01*
X132770578Y-70150446D01*
X132534683Y-69734711D01*
X132432902Y-69555335D01*
X132397457Y-69489468D01*
X132347710Y-69397022D01*
X132062815Y-68837885D01*
X132021900Y-68757585D01*
X131943883Y-68595582D01*
X131912490Y-68526469D01*
X131692956Y-68043148D01*
X131647091Y-67942173D01*
X131576427Y-67776847D01*
X131519458Y-67634825D01*
X131309234Y-67110745D01*
X131246077Y-66942462D01*
X131009040Y-66265050D01*
X130953483Y-66094060D01*
X130933863Y-66028725D01*
X130747076Y-65406692D01*
X130699257Y-65233422D01*
X130523888Y-64537454D01*
X130483893Y-64362218D01*
X130339938Y-63659148D01*
X130307831Y-63482220D01*
X130195567Y-62773416D01*
X130171432Y-62595242D01*
X130160424Y-62497545D01*
X130103815Y-61995124D01*
X130115869Y-61926303D01*
X130163218Y-61874923D01*
X130230829Y-61857299D01*
X130297234Y-61879025D01*
X130331030Y-61913706D01*
X130502531Y-62177793D01*
X130711095Y-62435350D01*
X130711096Y-62435350D01*
X131608756Y-61537689D01*
X131567449Y-61599511D01*
X131548046Y-61697056D01*
X131567449Y-61794601D01*
X131622704Y-61877296D01*
X131705399Y-61932551D01*
X131778320Y-61947056D01*
X131827568Y-61947056D01*
X131900489Y-61932551D01*
X131962304Y-61891247D01*
X131064648Y-62788903D01*
X131064649Y-62788904D01*
X131322206Y-62997468D01*
X131647456Y-63208689D01*
X131993005Y-63384755D01*
X132355063Y-63523737D01*
X132729669Y-63624112D01*
X132729676Y-63624113D01*
X133112712Y-63684780D01*
X133499999Y-63705078D01*
X133500001Y-63705078D01*
X133887287Y-63684780D01*
X134270323Y-63624113D01*
X134270330Y-63624112D01*
X134644936Y-63523737D01*
X135006994Y-63384755D01*
X135352543Y-63208689D01*
X135555682Y-63076769D01*
X142199500Y-63076769D01*
X142202353Y-63107199D01*
X142202353Y-63107201D01*
X142247206Y-63235380D01*
X142247207Y-63235382D01*
X142327850Y-63344650D01*
X142437118Y-63425293D01*
X142516458Y-63453055D01*
X142573231Y-63493775D01*
X142598978Y-63558728D01*
X142599500Y-63570095D01*
X142599500Y-65076951D01*
X142599387Y-65080696D01*
X142595642Y-65142603D01*
X142595642Y-65142605D01*
X142606821Y-65203612D01*
X142607384Y-65207313D01*
X142614859Y-65268870D01*
X142614860Y-65268874D01*
X142618451Y-65278343D01*
X142624474Y-65299946D01*
X142626304Y-65309930D01*
X142651759Y-65366490D01*
X142653189Y-65369941D01*
X142675182Y-65427930D01*
X142675183Y-65427931D01*
X142680936Y-65436266D01*
X142691961Y-65455813D01*
X142696120Y-65465055D01*
X142696124Y-65465060D01*
X142734371Y-65513878D01*
X142736591Y-65516896D01*
X142771812Y-65567924D01*
X142771816Y-65567928D01*
X142771817Y-65567929D01*
X142818250Y-65609064D01*
X142820941Y-65611598D01*
X143592450Y-66383106D01*
X144263181Y-67053837D01*
X144296666Y-67115160D01*
X144299500Y-67141518D01*
X144299500Y-68861785D01*
X144279815Y-68928824D01*
X144250987Y-68960160D01*
X144214552Y-68988117D01*
X144122300Y-69108342D01*
X144064313Y-69248335D01*
X144064313Y-69248336D01*
X144049500Y-69360844D01*
X144049500Y-76686299D01*
X144064313Y-76798807D01*
X144064313Y-76798808D01*
X144114561Y-76920118D01*
X144122302Y-76938805D01*
X144214549Y-77059023D01*
X144334767Y-77151270D01*
X144474764Y-77209259D01*
X144587280Y-77224072D01*
X144587287Y-77224072D01*
X145412713Y-77224072D01*
X145412720Y-77224072D01*
X145525236Y-77209259D01*
X145665233Y-77151270D01*
X145785451Y-77059023D01*
X145877698Y-76938805D01*
X145878592Y-76936645D01*
X145885439Y-76920118D01*
X145929279Y-76865714D01*
X145995574Y-76843649D01*
X146063273Y-76860928D01*
X146110884Y-76912065D01*
X146114561Y-76920118D01*
X146122299Y-76938800D01*
X146122299Y-76938801D01*
X146122301Y-76938803D01*
X146122302Y-76938805D01*
X146214549Y-77059023D01*
X146334767Y-77151270D01*
X146474764Y-77209259D01*
X146587280Y-77224072D01*
X146587287Y-77224072D01*
X147412713Y-77224072D01*
X147412720Y-77224072D01*
X147525236Y-77209259D01*
X147665233Y-77151270D01*
X147785451Y-77059023D01*
X147877698Y-76938805D01*
X147889418Y-76910508D01*
X147933256Y-76856107D01*
X147999549Y-76834040D01*
X148067249Y-76851317D01*
X148114861Y-76902453D01*
X148118538Y-76910504D01*
X148120494Y-76915226D01*
X148120495Y-76915229D01*
X148120497Y-76915232D01*
X148120498Y-76915233D01*
X148212745Y-77035451D01*
X148332963Y-77127698D01*
X148472960Y-77185687D01*
X148585476Y-77200500D01*
X148585483Y-77200500D01*
X149410909Y-77200500D01*
X149410916Y-77200500D01*
X149523432Y-77185687D01*
X149663429Y-77127698D01*
X149783647Y-77035451D01*
X149875894Y-76915233D01*
X149879653Y-76906156D01*
X149923494Y-76851751D01*
X149989788Y-76829685D01*
X150057487Y-76846963D01*
X150105099Y-76898099D01*
X150108777Y-76906154D01*
X150122299Y-76938800D01*
X150122299Y-76938801D01*
X150122301Y-76938803D01*
X150122302Y-76938805D01*
X150214549Y-77059023D01*
X150334767Y-77151270D01*
X150474764Y-77209259D01*
X150587280Y-77224072D01*
X150587287Y-77224072D01*
X151412713Y-77224072D01*
X151412720Y-77224072D01*
X151525236Y-77209259D01*
X151665233Y-77151270D01*
X151785451Y-77059023D01*
X151877698Y-76938805D01*
X151878592Y-76936645D01*
X151885439Y-76920118D01*
X151929279Y-76865714D01*
X151995574Y-76843649D01*
X152063273Y-76860928D01*
X152110884Y-76912065D01*
X152114561Y-76920118D01*
X152122299Y-76938800D01*
X152122299Y-76938801D01*
X152122301Y-76938803D01*
X152122302Y-76938805D01*
X152214549Y-77059023D01*
X152334767Y-77151270D01*
X152474764Y-77209259D01*
X152587280Y-77224072D01*
X152587287Y-77224072D01*
X153412713Y-77224072D01*
X153412720Y-77224072D01*
X153525236Y-77209259D01*
X153665233Y-77151270D01*
X153718243Y-77110593D01*
X153783408Y-77085400D01*
X153851853Y-77099437D01*
X153890374Y-77131283D01*
X154002632Y-77270938D01*
X154002633Y-77270939D01*
X154150974Y-77390179D01*
X154150977Y-77390181D01*
X154321476Y-77474740D01*
X154506175Y-77520674D01*
X154548901Y-77523572D01*
X155451099Y-77523572D01*
X155493824Y-77520674D01*
X155678523Y-77474740D01*
X155849022Y-77390181D01*
X155849025Y-77390179D01*
X155997366Y-77270939D01*
X155997367Y-77270938D01*
X156116607Y-77122597D01*
X156116609Y-77122594D01*
X156201168Y-76952095D01*
X156247102Y-76767396D01*
X156250000Y-76724671D01*
X156250000Y-74627125D01*
X154734128Y-73111253D01*
X154700643Y-73049930D01*
X154702528Y-73023572D01*
X155353553Y-73023572D01*
X156249999Y-73920018D01*
X156250000Y-73920018D01*
X156250000Y-72127125D01*
X156249999Y-72127124D01*
X155353553Y-73023571D01*
X155353553Y-73023572D01*
X154702528Y-73023572D01*
X154705627Y-72980238D01*
X154734128Y-72935891D01*
X155000000Y-72670019D01*
X156249999Y-71420018D01*
X156250000Y-71420017D01*
X156250000Y-69322473D01*
X156247102Y-69279747D01*
X156201168Y-69095048D01*
X156116609Y-68924549D01*
X156116607Y-68924546D01*
X155997367Y-68776205D01*
X155997366Y-68776204D01*
X155849025Y-68656964D01*
X155849022Y-68656962D01*
X155678523Y-68572403D01*
X155493824Y-68526469D01*
X155451099Y-68523572D01*
X154548901Y-68523572D01*
X154506175Y-68526469D01*
X154321476Y-68572403D01*
X154150977Y-68656962D01*
X154150974Y-68656964D01*
X154002635Y-68776203D01*
X153890374Y-68915861D01*
X153833030Y-68955779D01*
X153763208Y-68958359D01*
X153718240Y-68936548D01*
X153665234Y-68895874D01*
X153665230Y-68895872D01*
X153574731Y-68858386D01*
X153525236Y-68837885D01*
X153493465Y-68833702D01*
X153433314Y-68825783D01*
X153369418Y-68797516D01*
X153330947Y-68739192D01*
X153325500Y-68702844D01*
X153325500Y-64916912D01*
X153325736Y-64911506D01*
X153329263Y-64871191D01*
X153318785Y-64832090D01*
X153317618Y-64826830D01*
X153310588Y-64786955D01*
X153310587Y-64786953D01*
X153308760Y-64781933D01*
X153301820Y-64765176D01*
X153299554Y-64760319D01*
X153299554Y-64760316D01*
X153276337Y-64727159D01*
X153273435Y-64722605D01*
X153253194Y-64687545D01*
X153222182Y-64661522D01*
X153218210Y-64657883D01*
X152583442Y-64023116D01*
X152549958Y-63961794D01*
X152548388Y-63953095D01*
X152536697Y-63871774D01*
X152482882Y-63753937D01*
X152398049Y-63656033D01*
X152289069Y-63585996D01*
X152289065Y-63585994D01*
X152289064Y-63585994D01*
X152164774Y-63549500D01*
X152164772Y-63549500D01*
X152035228Y-63549500D01*
X152035226Y-63549500D01*
X151910935Y-63585994D01*
X151910932Y-63585995D01*
X151910931Y-63585996D01*
X151869435Y-63612663D01*
X151801948Y-63656034D01*
X151743724Y-63723230D01*
X151684946Y-63761005D01*
X151615077Y-63761005D01*
X151582974Y-63746344D01*
X151489069Y-63685996D01*
X151489065Y-63685994D01*
X151489064Y-63685994D01*
X151364774Y-63649500D01*
X151364772Y-63649500D01*
X151235228Y-63649500D01*
X151235226Y-63649500D01*
X151110935Y-63685994D01*
X151110932Y-63685995D01*
X151110931Y-63685996D01*
X151081239Y-63705078D01*
X151001950Y-63756033D01*
X150917114Y-63853941D01*
X150912608Y-63860953D01*
X150859802Y-63906706D01*
X150790643Y-63916647D01*
X150727089Y-63887620D01*
X150714582Y-63875112D01*
X150698051Y-63856035D01*
X150698050Y-63856034D01*
X150698049Y-63856033D01*
X150589069Y-63785996D01*
X150589065Y-63785994D01*
X150589064Y-63785994D01*
X150464774Y-63749500D01*
X150464772Y-63749500D01*
X150335228Y-63749500D01*
X150335226Y-63749500D01*
X150210935Y-63785994D01*
X150210932Y-63785995D01*
X150210931Y-63785996D01*
X150159677Y-63818934D01*
X150101950Y-63856033D01*
X150043714Y-63923243D01*
X149984936Y-63961018D01*
X149915066Y-63961018D01*
X149856288Y-63923244D01*
X149856286Y-63923243D01*
X149798049Y-63856033D01*
X149794794Y-63853941D01*
X149689069Y-63785996D01*
X149689065Y-63785994D01*
X149689064Y-63785994D01*
X149564774Y-63749500D01*
X149564772Y-63749500D01*
X149435228Y-63749500D01*
X149435226Y-63749500D01*
X149310935Y-63785994D01*
X149310932Y-63785995D01*
X149310931Y-63785996D01*
X149259677Y-63818934D01*
X149201950Y-63856033D01*
X149117118Y-63953937D01*
X149117117Y-63953938D01*
X149063303Y-64071772D01*
X149063302Y-64071777D01*
X149051612Y-64153083D01*
X149022587Y-64216639D01*
X149016555Y-64223117D01*
X146781803Y-66457870D01*
X146777814Y-66461525D01*
X146746805Y-66487545D01*
X146726562Y-66522606D01*
X146723656Y-66527166D01*
X146700446Y-66560313D01*
X146698206Y-66565117D01*
X146691229Y-66581961D01*
X146689410Y-66586959D01*
X146682383Y-66626811D01*
X146681212Y-66632091D01*
X146670735Y-66671191D01*
X146674264Y-66711513D01*
X146674500Y-66716920D01*
X146674500Y-68702844D01*
X146654815Y-68769883D01*
X146602011Y-68815638D01*
X146566686Y-68825783D01*
X146474764Y-68837885D01*
X146474763Y-68837885D01*
X146334770Y-68895872D01*
X146334767Y-68895873D01*
X146334767Y-68895874D01*
X146214549Y-68988121D01*
X146122302Y-69108339D01*
X146122301Y-69108340D01*
X146122301Y-69108341D01*
X146114561Y-69127027D01*
X146070719Y-69181430D01*
X146004425Y-69203494D01*
X145936726Y-69186214D01*
X145889116Y-69135077D01*
X145885439Y-69127027D01*
X145884381Y-69124474D01*
X145877698Y-69108339D01*
X145785451Y-68988121D01*
X145785448Y-68988119D01*
X145785447Y-68988117D01*
X145749013Y-68960160D01*
X145707811Y-68903732D01*
X145700500Y-68861785D01*
X145700500Y-66823047D01*
X145700613Y-66819302D01*
X145701871Y-66798506D01*
X145704358Y-66757394D01*
X145693175Y-66696370D01*
X145692613Y-66692673D01*
X145685140Y-66631127D01*
X145681548Y-66621656D01*
X145675522Y-66600042D01*
X145673695Y-66590068D01*
X145648234Y-66533496D01*
X145646806Y-66530049D01*
X145645713Y-66527166D01*
X145624818Y-66472070D01*
X145619063Y-66463733D01*
X145608036Y-66444182D01*
X145603879Y-66434946D01*
X145603878Y-66434943D01*
X145586287Y-66412490D01*
X145565630Y-66386122D01*
X145563410Y-66383106D01*
X145528182Y-66332070D01*
X145523148Y-66327610D01*
X145481750Y-66290935D01*
X145479056Y-66288399D01*
X144036819Y-64846161D01*
X144003334Y-64784839D01*
X144000500Y-64758481D01*
X144000500Y-63570095D01*
X144020185Y-63503056D01*
X144072989Y-63457301D01*
X144083523Y-63453061D01*
X144162882Y-63425293D01*
X144272150Y-63344650D01*
X144352793Y-63235382D01*
X144375219Y-63171290D01*
X144397646Y-63107201D01*
X144397646Y-63107199D01*
X144400500Y-63076769D01*
X144400500Y-60968230D01*
X144397646Y-60937800D01*
X144397646Y-60937798D01*
X144352793Y-60809619D01*
X144352792Y-60809617D01*
X144323792Y-60770323D01*
X144272150Y-60700350D01*
X144162882Y-60619707D01*
X144162880Y-60619706D01*
X144034700Y-60574853D01*
X144004270Y-60572000D01*
X144004266Y-60572000D01*
X142595734Y-60572000D01*
X142595730Y-60572000D01*
X142565300Y-60574853D01*
X142565298Y-60574853D01*
X142437119Y-60619706D01*
X142437117Y-60619707D01*
X142327850Y-60700350D01*
X142247207Y-60809617D01*
X142247206Y-60809619D01*
X142202353Y-60937798D01*
X142202353Y-60937800D01*
X142199500Y-60968230D01*
X142199500Y-63076769D01*
X135555682Y-63076769D01*
X135677783Y-62997476D01*
X135677785Y-62997475D01*
X135935349Y-62788902D01*
X135037691Y-61891244D01*
X135099511Y-61932551D01*
X135172432Y-61947056D01*
X135221680Y-61947056D01*
X135294601Y-61932551D01*
X135377296Y-61877296D01*
X135432551Y-61794601D01*
X135451954Y-61697056D01*
X135432551Y-61599511D01*
X135391243Y-61537690D01*
X136288902Y-62435349D01*
X136497475Y-62177785D01*
X136497476Y-62177783D01*
X136708689Y-61852543D01*
X136884755Y-61506994D01*
X137023737Y-61144936D01*
X137124112Y-60770330D01*
X137124113Y-60770323D01*
X137184780Y-60387287D01*
X137205078Y-60000000D01*
X137205078Y-59999999D01*
X137184780Y-59612712D01*
X137124113Y-59229676D01*
X137124112Y-59229669D01*
X137083143Y-59076769D01*
X142199500Y-59076769D01*
X142202353Y-59107199D01*
X142202353Y-59107201D01*
X142245208Y-59229669D01*
X142247207Y-59235382D01*
X142327850Y-59344650D01*
X142437118Y-59425293D01*
X142479845Y-59440243D01*
X142565299Y-59470146D01*
X142595730Y-59473000D01*
X142595734Y-59473000D01*
X144004270Y-59473000D01*
X144034699Y-59470146D01*
X144034701Y-59470146D01*
X144098790Y-59447719D01*
X144162882Y-59425293D01*
X144272150Y-59344650D01*
X144352793Y-59235382D01*
X144375219Y-59171290D01*
X144397646Y-59107201D01*
X144397646Y-59107199D01*
X144400500Y-59076769D01*
X144400500Y-57475000D01*
X153825001Y-57475000D01*
X153825001Y-57481582D01*
X153831408Y-57552102D01*
X153831409Y-57552107D01*
X153881981Y-57714396D01*
X153969927Y-57859877D01*
X154090122Y-57980072D01*
X154235604Y-58068019D01*
X154235603Y-58068019D01*
X154397894Y-58118590D01*
X154397892Y-58118590D01*
X154468418Y-58124999D01*
X154549999Y-58124998D01*
X154550000Y-58124998D01*
X154550000Y-57475000D01*
X155050000Y-57475000D01*
X155050000Y-58124999D01*
X155131581Y-58124999D01*
X155202102Y-58118591D01*
X155202107Y-58118590D01*
X155364396Y-58068018D01*
X155509877Y-57980072D01*
X155630072Y-57859877D01*
X155718019Y-57714395D01*
X155768590Y-57552106D01*
X155775000Y-57481572D01*
X155775000Y-57475000D01*
X155050000Y-57475000D01*
X154550000Y-57475000D01*
X153825001Y-57475000D01*
X144400500Y-57475000D01*
X144400500Y-56975000D01*
X153825000Y-56975000D01*
X155774999Y-56975000D01*
X155774999Y-56968417D01*
X155768591Y-56897897D01*
X155768590Y-56897892D01*
X155718018Y-56735603D01*
X155630072Y-56590122D01*
X155509877Y-56469927D01*
X155364395Y-56381980D01*
X155364396Y-56381980D01*
X155283791Y-56356863D01*
X155225643Y-56318126D01*
X155197669Y-56254100D01*
X155208751Y-56185115D01*
X155255369Y-56133072D01*
X155264369Y-56128002D01*
X155313342Y-56103050D01*
X155403050Y-56013342D01*
X155460646Y-55900304D01*
X155460646Y-55900302D01*
X155460647Y-55900301D01*
X155475499Y-55806524D01*
X155475500Y-55806519D01*
X155475499Y-55343482D01*
X155460646Y-55249696D01*
X155403050Y-55136658D01*
X155403046Y-55136654D01*
X155403045Y-55136652D01*
X155313347Y-55046954D01*
X155313344Y-55046952D01*
X155313342Y-55046950D01*
X155200304Y-54989354D01*
X155200303Y-54989353D01*
X155193205Y-54985737D01*
X155142409Y-54937762D01*
X155125500Y-54875252D01*
X155125500Y-54804987D01*
X155145185Y-54737948D01*
X155193201Y-54694505D01*
X155305751Y-54637158D01*
X155399658Y-54543251D01*
X155459951Y-54424920D01*
X155459951Y-54424918D01*
X155459952Y-54424917D01*
X155475500Y-54326751D01*
X155475500Y-53823248D01*
X155459952Y-53725082D01*
X155443256Y-53692315D01*
X155399658Y-53606749D01*
X155399654Y-53606745D01*
X155399653Y-53606743D01*
X155305756Y-53512846D01*
X155305753Y-53512844D01*
X155305751Y-53512842D01*
X155187420Y-53452549D01*
X155187419Y-53452548D01*
X155187416Y-53452547D01*
X155187417Y-53452547D01*
X155089251Y-53437000D01*
X155089246Y-53437000D01*
X154510754Y-53437000D01*
X154510749Y-53437000D01*
X154412582Y-53452547D01*
X154333692Y-53492744D01*
X154294249Y-53512842D01*
X154294247Y-53512842D01*
X154294248Y-53512843D01*
X154294243Y-53512846D01*
X154200346Y-53606743D01*
X154200343Y-53606748D01*
X154200342Y-53606749D01*
X154180244Y-53646192D01*
X154140047Y-53725082D01*
X154124500Y-53823248D01*
X154124500Y-54326751D01*
X154140047Y-54424917D01*
X154147640Y-54439818D01*
X154200342Y-54543251D01*
X154200344Y-54543253D01*
X154200346Y-54543256D01*
X154294243Y-54637153D01*
X154294247Y-54637156D01*
X154294249Y-54637158D01*
X154406798Y-54694504D01*
X154457591Y-54742476D01*
X154474500Y-54804987D01*
X154474500Y-54875252D01*
X154454815Y-54942291D01*
X154406795Y-54985737D01*
X154399696Y-54989353D01*
X154399696Y-54989354D01*
X154286658Y-55046950D01*
X154286657Y-55046951D01*
X154286652Y-55046954D01*
X154196954Y-55136652D01*
X154196951Y-55136657D01*
X154139352Y-55249698D01*
X154124500Y-55343475D01*
X154124500Y-55806517D01*
X154130768Y-55846090D01*
X154139354Y-55900304D01*
X154196950Y-56013342D01*
X154196952Y-56013344D01*
X154196954Y-56013347D01*
X154286652Y-56103045D01*
X154286654Y-56103046D01*
X154286658Y-56103050D01*
X154335612Y-56127993D01*
X154386408Y-56175968D01*
X154403203Y-56243789D01*
X154380665Y-56309924D01*
X154325950Y-56353375D01*
X154316208Y-56356863D01*
X154235603Y-56381981D01*
X154090122Y-56469927D01*
X153969927Y-56590122D01*
X153881980Y-56735604D01*
X153831409Y-56897893D01*
X153825000Y-56968427D01*
X153825000Y-56975000D01*
X144400500Y-56975000D01*
X144400500Y-56968230D01*
X144397646Y-56937800D01*
X144397646Y-56937798D01*
X144352793Y-56809619D01*
X144352792Y-56809617D01*
X144298168Y-56735604D01*
X144272150Y-56700350D01*
X144162882Y-56619707D01*
X144083544Y-56591945D01*
X144026769Y-56551223D01*
X144001022Y-56486270D01*
X144000500Y-56474904D01*
X144000500Y-53710523D01*
X144020185Y-53643484D01*
X144072989Y-53597729D01*
X144142147Y-53587785D01*
X144205703Y-53616810D01*
X144212181Y-53622842D01*
X144281654Y-53692315D01*
X144430875Y-53784356D01*
X144430880Y-53784358D01*
X144597302Y-53839505D01*
X144597309Y-53839506D01*
X144700019Y-53849999D01*
X144899999Y-53849999D01*
X144900000Y-53849998D01*
X144900000Y-52750000D01*
X145400000Y-52750000D01*
X145400000Y-53849999D01*
X145599972Y-53849999D01*
X145599986Y-53849998D01*
X145702697Y-53839505D01*
X145869119Y-53784358D01*
X145869124Y-53784356D01*
X146018345Y-53692315D01*
X146142315Y-53568345D01*
X146234356Y-53419124D01*
X146234358Y-53419119D01*
X146289505Y-53252697D01*
X146289506Y-53252690D01*
X146299561Y-53154269D01*
X147799500Y-53154269D01*
X147802353Y-53184699D01*
X147802353Y-53184701D01*
X147847206Y-53312880D01*
X147847207Y-53312882D01*
X147927850Y-53422150D01*
X148037118Y-53502793D01*
X148065848Y-53512846D01*
X148165299Y-53547646D01*
X148195730Y-53550500D01*
X148195734Y-53550500D01*
X149104270Y-53550500D01*
X149134699Y-53547646D01*
X149134701Y-53547646D01*
X149198790Y-53525219D01*
X149262882Y-53502793D01*
X149372150Y-53422150D01*
X149452793Y-53312882D01*
X149475925Y-53246774D01*
X149497646Y-53184701D01*
X149497646Y-53184699D01*
X149500500Y-53154269D01*
X149500500Y-53074500D01*
X149520185Y-53007461D01*
X149572989Y-52961706D01*
X149624500Y-52950500D01*
X150073389Y-52950500D01*
X150140428Y-52970185D01*
X150186183Y-53022989D01*
X150196127Y-53092147D01*
X150167102Y-53155703D01*
X150161070Y-53162181D01*
X150076476Y-53246774D01*
X150076473Y-53246778D01*
X150015279Y-53366878D01*
X149999500Y-53466506D01*
X149999500Y-54033493D01*
X150015279Y-54133121D01*
X150015280Y-54133124D01*
X150015281Y-54133126D01*
X150022659Y-54147606D01*
X150076473Y-54253221D01*
X150076476Y-54253225D01*
X150171774Y-54348523D01*
X150171777Y-54348525D01*
X150171780Y-54348528D01*
X150256795Y-54391845D01*
X150307590Y-54439818D01*
X150324500Y-54502329D01*
X150324500Y-54547670D01*
X150304815Y-54614709D01*
X150256795Y-54658154D01*
X150171780Y-54701472D01*
X150171778Y-54701472D01*
X150171779Y-54701473D01*
X150171774Y-54701476D01*
X150076476Y-54796774D01*
X150076473Y-54796778D01*
X150076471Y-54796780D01*
X150076472Y-54796780D01*
X150036489Y-54875252D01*
X150015279Y-54916878D01*
X149999500Y-55016506D01*
X149999500Y-55583493D01*
X150015279Y-55683121D01*
X150015280Y-55683124D01*
X150015281Y-55683126D01*
X150076472Y-55803220D01*
X150170887Y-55897635D01*
X150204371Y-55958956D01*
X150205943Y-56002961D01*
X150194867Y-56079999D01*
X150213302Y-56208225D01*
X150252896Y-56294922D01*
X150267118Y-56326063D01*
X150351951Y-56423967D01*
X150460931Y-56494004D01*
X150585225Y-56530499D01*
X150585227Y-56530500D01*
X150585228Y-56530500D01*
X150714773Y-56530500D01*
X150714773Y-56530499D01*
X150839069Y-56494004D01*
X150948049Y-56423967D01*
X151032882Y-56326063D01*
X151086697Y-56208226D01*
X151105133Y-56080000D01*
X151094056Y-56002960D01*
X151103999Y-55933804D01*
X151129110Y-55897637D01*
X151147174Y-55879573D01*
X151208495Y-55846090D01*
X151278187Y-55851074D01*
X151334120Y-55892946D01*
X151340391Y-55902158D01*
X151402426Y-56002731D01*
X151522267Y-56122572D01*
X151522271Y-56122575D01*
X151666507Y-56211542D01*
X151666518Y-56211547D01*
X151827393Y-56264855D01*
X151926683Y-56274999D01*
X151950000Y-56274998D01*
X151950000Y-55550000D01*
X152450000Y-55550000D01*
X152450000Y-56274999D01*
X152473308Y-56274999D01*
X152473322Y-56274998D01*
X152572607Y-56264855D01*
X152733481Y-56211547D01*
X152733492Y-56211542D01*
X152877728Y-56122575D01*
X152877732Y-56122572D01*
X152997572Y-56002732D01*
X152997575Y-56002728D01*
X153086542Y-55858492D01*
X153086547Y-55858481D01*
X153139855Y-55697606D01*
X153149999Y-55598322D01*
X153150000Y-55598309D01*
X153150000Y-55550000D01*
X152450000Y-55550000D01*
X151950000Y-55550000D01*
X151950000Y-54000000D01*
X152450000Y-54000000D01*
X152450000Y-55050000D01*
X153149999Y-55050000D01*
X153149999Y-55001692D01*
X153149998Y-55001677D01*
X153139855Y-54902392D01*
X153086547Y-54741518D01*
X153086542Y-54741507D01*
X152993782Y-54591121D01*
X152996275Y-54589583D01*
X152975105Y-54537137D01*
X152988133Y-54468493D01*
X152994161Y-54459113D01*
X152993782Y-54458879D01*
X153086542Y-54308492D01*
X153086547Y-54308481D01*
X153139855Y-54147606D01*
X153149999Y-54048322D01*
X153150000Y-54048309D01*
X153150000Y-54000000D01*
X152450000Y-54000000D01*
X151950000Y-54000000D01*
X151950000Y-53624000D01*
X151969685Y-53556961D01*
X152022489Y-53511206D01*
X152074000Y-53500000D01*
X153149999Y-53500000D01*
X153149999Y-53451692D01*
X153149998Y-53451677D01*
X153139855Y-53352392D01*
X153086547Y-53191518D01*
X153086544Y-53191511D01*
X153054523Y-53139598D01*
X153036082Y-53072205D01*
X153057004Y-53005542D01*
X153110646Y-52960772D01*
X153160061Y-52950500D01*
X154131229Y-52950500D01*
X154198268Y-52970185D01*
X154218905Y-52986814D01*
X154294249Y-53062158D01*
X154412580Y-53122451D01*
X154412581Y-53122451D01*
X154412583Y-53122452D01*
X154412582Y-53122452D01*
X154510749Y-53138000D01*
X154510754Y-53138000D01*
X155089251Y-53138000D01*
X155187417Y-53122452D01*
X155187418Y-53122451D01*
X155187420Y-53122451D01*
X155305751Y-53062158D01*
X155399658Y-52968251D01*
X155459951Y-52849920D01*
X155459951Y-52849918D01*
X155459952Y-52849917D01*
X155475500Y-52751751D01*
X155475500Y-52248248D01*
X155459952Y-52150082D01*
X155453451Y-52137323D01*
X155399658Y-52031749D01*
X155399654Y-52031745D01*
X155399653Y-52031743D01*
X155305756Y-51937846D01*
X155305753Y-51937844D01*
X155305751Y-51937842D01*
X155187420Y-51877549D01*
X155187419Y-51877548D01*
X155187416Y-51877547D01*
X155187417Y-51877547D01*
X155089251Y-51862000D01*
X155089246Y-51862000D01*
X154510754Y-51862000D01*
X154510749Y-51862000D01*
X154412582Y-51877547D01*
X154333692Y-51917744D01*
X154294249Y-51937842D01*
X154294248Y-51937843D01*
X154294247Y-51937843D01*
X154275241Y-51956850D01*
X154218908Y-52013182D01*
X154157588Y-52046666D01*
X154131229Y-52049500D01*
X149624500Y-52049500D01*
X149557461Y-52029815D01*
X149511706Y-51977011D01*
X149500500Y-51925500D01*
X149500500Y-51845730D01*
X149497646Y-51815300D01*
X149497646Y-51815298D01*
X149452793Y-51687119D01*
X149452792Y-51687117D01*
X149372150Y-51577850D01*
X149308055Y-51530546D01*
X149265805Y-51474898D01*
X149260346Y-51405242D01*
X149293414Y-51343693D01*
X149293834Y-51343269D01*
X149400286Y-51236816D01*
X149461608Y-51203334D01*
X149487966Y-51200500D01*
X151919750Y-51200500D01*
X151919751Y-51200499D01*
X151934568Y-51197552D01*
X151978229Y-51188868D01*
X151978229Y-51188867D01*
X151978231Y-51188867D01*
X152044552Y-51144552D01*
X152088867Y-51078231D01*
X152088867Y-51078229D01*
X152088868Y-51078229D01*
X152100499Y-51019752D01*
X152100500Y-51019750D01*
X152100500Y-48980249D01*
X152100499Y-48980247D01*
X152088868Y-48921770D01*
X152088867Y-48921769D01*
X152044552Y-48855447D01*
X151978230Y-48811132D01*
X151978229Y-48811131D01*
X151919752Y-48799500D01*
X151919748Y-48799500D01*
X150824500Y-48799500D01*
X150757461Y-48779815D01*
X150711706Y-48727011D01*
X150700500Y-48675500D01*
X150700500Y-45016038D01*
X150720185Y-44948999D01*
X150772989Y-44903244D01*
X150800305Y-44894421D01*
X150828231Y-44888867D01*
X150894552Y-44844552D01*
X150894551Y-44844552D01*
X150904707Y-44837767D01*
X150907209Y-44841512D01*
X150947087Y-44819594D01*
X151016792Y-44824386D01*
X151072841Y-44866103D01*
X151089961Y-44897353D01*
X151106646Y-44942087D01*
X151106649Y-44942093D01*
X151192809Y-45057187D01*
X151192812Y-45057190D01*
X151307906Y-45143350D01*
X151307913Y-45143354D01*
X151442620Y-45193596D01*
X151442627Y-45193598D01*
X151502155Y-45199999D01*
X151502172Y-45200000D01*
X152050000Y-45200000D01*
X152050000Y-43950000D01*
X152550000Y-43950000D01*
X152550000Y-45200000D01*
X153097828Y-45200000D01*
X153097844Y-45199999D01*
X153157372Y-45193598D01*
X153157379Y-45193596D01*
X153292086Y-45143354D01*
X153292093Y-45143350D01*
X153407187Y-45057190D01*
X153407190Y-45057187D01*
X153493350Y-44942093D01*
X153493354Y-44942086D01*
X153543596Y-44807379D01*
X153543598Y-44807372D01*
X153549999Y-44747844D01*
X153550000Y-44747827D01*
X153550000Y-43950000D01*
X152550000Y-43950000D01*
X152050000Y-43950000D01*
X152050000Y-42200000D01*
X152550000Y-42200000D01*
X152550000Y-43450000D01*
X153550000Y-43450000D01*
X153550000Y-42652172D01*
X153549999Y-42652155D01*
X153543598Y-42592627D01*
X153543596Y-42592620D01*
X153493354Y-42457913D01*
X153493350Y-42457906D01*
X153407190Y-42342812D01*
X153407187Y-42342809D01*
X153292093Y-42256649D01*
X153292086Y-42256645D01*
X153157379Y-42206403D01*
X153157372Y-42206401D01*
X153097844Y-42200000D01*
X152550000Y-42200000D01*
X152050000Y-42200000D01*
X151502155Y-42200000D01*
X151442627Y-42206401D01*
X151442620Y-42206403D01*
X151307913Y-42256645D01*
X151307906Y-42256649D01*
X151192812Y-42342809D01*
X151192809Y-42342812D01*
X151106649Y-42457906D01*
X151106644Y-42457916D01*
X151089960Y-42502647D01*
X151048088Y-42558580D01*
X150982624Y-42582996D01*
X150914351Y-42568144D01*
X150905289Y-42561360D01*
X150904707Y-42562233D01*
X150828230Y-42511132D01*
X150828229Y-42511131D01*
X150769752Y-42499500D01*
X150769748Y-42499500D01*
X149230252Y-42499500D01*
X149230247Y-42499500D01*
X149171770Y-42511131D01*
X149171769Y-42511132D01*
X149105447Y-42555447D01*
X149061132Y-42621769D01*
X149061131Y-42621770D01*
X149049500Y-42680247D01*
X149049500Y-44719752D01*
X149061131Y-44778229D01*
X149061132Y-44778230D01*
X149105447Y-44844552D01*
X149137701Y-44866103D01*
X149171769Y-44888867D01*
X149199690Y-44894421D01*
X149261601Y-44926804D01*
X149296176Y-44987519D01*
X149299500Y-45016038D01*
X149299500Y-48675500D01*
X149279815Y-48742539D01*
X149227011Y-48788294D01*
X149175500Y-48799500D01*
X148080247Y-48799500D01*
X148021770Y-48811131D01*
X148021769Y-48811132D01*
X147955447Y-48855447D01*
X147911132Y-48921769D01*
X147911131Y-48921770D01*
X147899500Y-48980247D01*
X147899500Y-51019752D01*
X147911131Y-51078229D01*
X147911132Y-51078230D01*
X147955447Y-51144552D01*
X148021769Y-51188867D01*
X148021770Y-51188868D01*
X148079852Y-51200420D01*
X148080252Y-51200500D01*
X148080257Y-51200500D01*
X148086312Y-51201097D01*
X148086065Y-51203602D01*
X148142539Y-51220185D01*
X148188294Y-51272989D01*
X148199500Y-51324500D01*
X148199500Y-51341575D01*
X148198914Y-51357219D01*
X148176734Y-51423474D01*
X148122255Y-51467221D01*
X148115958Y-51469619D01*
X148058698Y-51489655D01*
X148037118Y-51497207D01*
X148037117Y-51497207D01*
X148037116Y-51497208D01*
X147927850Y-51577850D01*
X147847207Y-51687117D01*
X147847206Y-51687119D01*
X147802353Y-51815298D01*
X147802353Y-51815300D01*
X147799500Y-51845730D01*
X147799500Y-53154269D01*
X146299561Y-53154269D01*
X146299999Y-53149986D01*
X146300000Y-53149973D01*
X146300000Y-52750000D01*
X145400000Y-52750000D01*
X144900000Y-52750000D01*
X144900000Y-51150000D01*
X145400000Y-51150000D01*
X145400000Y-52250000D01*
X146299999Y-52250000D01*
X146299999Y-51850028D01*
X146299998Y-51850013D01*
X146289505Y-51747302D01*
X146234358Y-51580880D01*
X146234356Y-51580875D01*
X146142315Y-51431654D01*
X146018345Y-51307684D01*
X145869124Y-51215643D01*
X145869119Y-51215641D01*
X145702697Y-51160494D01*
X145702690Y-51160493D01*
X145599986Y-51150000D01*
X145400000Y-51150000D01*
X144900000Y-51150000D01*
X144700029Y-51150000D01*
X144700012Y-51150001D01*
X144597302Y-51160494D01*
X144430880Y-51215641D01*
X144430875Y-51215643D01*
X144281654Y-51307684D01*
X144212181Y-51377158D01*
X144150858Y-51410643D01*
X144081166Y-51405659D01*
X144025233Y-51363787D01*
X144000816Y-51298323D01*
X144000500Y-51289477D01*
X144000500Y-48441519D01*
X144020185Y-48374480D01*
X144036819Y-48353838D01*
X147453838Y-44936819D01*
X147515161Y-44903334D01*
X147541519Y-44900500D01*
X148469750Y-44900500D01*
X148469751Y-44900499D01*
X148485569Y-44897353D01*
X148528229Y-44888868D01*
X148528229Y-44888867D01*
X148528231Y-44888867D01*
X148594552Y-44844552D01*
X148638867Y-44778231D01*
X148638867Y-44778229D01*
X148638868Y-44778229D01*
X148650499Y-44719752D01*
X148650500Y-44719750D01*
X148650500Y-42680249D01*
X148650499Y-42680247D01*
X148638868Y-42621770D01*
X148638867Y-42621769D01*
X148594552Y-42555447D01*
X148528230Y-42511132D01*
X148528229Y-42511131D01*
X148469752Y-42499500D01*
X148469748Y-42499500D01*
X146930252Y-42499500D01*
X146930247Y-42499500D01*
X146871770Y-42511131D01*
X146871769Y-42511132D01*
X146805447Y-42555447D01*
X146761132Y-42621769D01*
X146761131Y-42621770D01*
X146749500Y-42680247D01*
X146749500Y-43608480D01*
X146729815Y-43675519D01*
X146713181Y-43696161D01*
X145417274Y-44992067D01*
X145355951Y-45025552D01*
X145286259Y-45020568D01*
X145230326Y-44978696D01*
X145208935Y-44932982D01*
X145173781Y-44784657D01*
X145097723Y-44633213D01*
X145097718Y-44633206D01*
X145034691Y-44555834D01*
X145034677Y-44555819D01*
X145018197Y-44539339D01*
X145018196Y-44539339D01*
X144151992Y-45405545D01*
X143639338Y-45918196D01*
X143655827Y-45934683D01*
X143655838Y-45934693D01*
X143733205Y-45997718D01*
X143733213Y-45997723D01*
X143884657Y-46073781D01*
X144032981Y-46108935D01*
X144093674Y-46143550D01*
X144126018Y-46205482D01*
X144119745Y-46275070D01*
X144092066Y-46317274D01*
X142820966Y-47588375D01*
X142818240Y-47590942D01*
X142771818Y-47632068D01*
X142736586Y-47683109D01*
X142734368Y-47686124D01*
X142696124Y-47734939D01*
X142696119Y-47734948D01*
X142691960Y-47744188D01*
X142680942Y-47763723D01*
X142675187Y-47772061D01*
X142675183Y-47772067D01*
X142675182Y-47772070D01*
X142675180Y-47772074D01*
X142675179Y-47772077D01*
X142653189Y-47830055D01*
X142651757Y-47833513D01*
X142626305Y-47890068D01*
X142624477Y-47900042D01*
X142618453Y-47921653D01*
X142614860Y-47931127D01*
X142614859Y-47931128D01*
X142607384Y-47992685D01*
X142606821Y-47996386D01*
X142595642Y-48057390D01*
X142595642Y-48057395D01*
X142599387Y-48119302D01*
X142599500Y-48123047D01*
X142599500Y-56474904D01*
X142579815Y-56541943D01*
X142527011Y-56587698D01*
X142516456Y-56591945D01*
X142437117Y-56619707D01*
X142327850Y-56700350D01*
X142247207Y-56809617D01*
X142247206Y-56809619D01*
X142202353Y-56937798D01*
X142202353Y-56937800D01*
X142199500Y-56968230D01*
X142199500Y-59076769D01*
X137083143Y-59076769D01*
X137023737Y-58855063D01*
X136884755Y-58493005D01*
X136708689Y-58147456D01*
X136497468Y-57822206D01*
X136288904Y-57564649D01*
X136288903Y-57564648D01*
X135391247Y-58462303D01*
X135432551Y-58400489D01*
X135451954Y-58302944D01*
X135432551Y-58205399D01*
X135377296Y-58122704D01*
X135294601Y-58067449D01*
X135221680Y-58052944D01*
X135172432Y-58052944D01*
X135099511Y-58067449D01*
X135037690Y-58108755D01*
X135935350Y-57211096D01*
X135935350Y-57211095D01*
X135677793Y-57002531D01*
X135352543Y-56791310D01*
X135006994Y-56615244D01*
X134644936Y-56476262D01*
X134270330Y-56375887D01*
X134270323Y-56375886D01*
X133887287Y-56315219D01*
X133500001Y-56294922D01*
X133499999Y-56294922D01*
X133112712Y-56315219D01*
X132729676Y-56375886D01*
X132729669Y-56375887D01*
X132355063Y-56476262D01*
X131993005Y-56615244D01*
X131647456Y-56791310D01*
X131322206Y-57002531D01*
X131064648Y-57211095D01*
X131064648Y-57211096D01*
X131962306Y-58108754D01*
X131900489Y-58067449D01*
X131827568Y-58052944D01*
X131778320Y-58052944D01*
X131705399Y-58067449D01*
X131622704Y-58122704D01*
X131567449Y-58205399D01*
X131548046Y-58302944D01*
X131567449Y-58400489D01*
X131608753Y-58462305D01*
X130711096Y-57564648D01*
X130711095Y-57564648D01*
X130502534Y-57822202D01*
X130331030Y-58086294D01*
X130278009Y-58131796D01*
X130208804Y-58141410D01*
X130145387Y-58112083D01*
X130107893Y-58053126D01*
X130103815Y-58004874D01*
X130103816Y-58004872D01*
X130171432Y-57404751D01*
X130195562Y-57226617D01*
X130307831Y-56517777D01*
X130315365Y-56476262D01*
X130339931Y-56340886D01*
X130483894Y-55637771D01*
X130523893Y-55462524D01*
X130699259Y-54766567D01*
X130747083Y-54593285D01*
X130953489Y-53905919D01*
X131009028Y-53734984D01*
X131246079Y-53057532D01*
X131309229Y-52889269D01*
X131576434Y-52223135D01*
X131647091Y-52057826D01*
X131658936Y-52031748D01*
X131943900Y-51404380D01*
X132021880Y-51242453D01*
X132347710Y-50602976D01*
X132432904Y-50444660D01*
X132526452Y-50279794D01*
X132787084Y-49820464D01*
X132879281Y-49666152D01*
X133261135Y-49058436D01*
X133360132Y-48908462D01*
X133768896Y-48318446D01*
X133874514Y-48173077D01*
X134309315Y-47602023D01*
X134421350Y-47461534D01*
X134523627Y-47339027D01*
X134581697Y-47300182D01*
X134651555Y-47298899D01*
X134711017Y-47335588D01*
X134741204Y-47398600D01*
X134738586Y-47450591D01*
X134708625Y-47562407D01*
X134708624Y-47562414D01*
X134647957Y-47945450D01*
X134627660Y-48332737D01*
X134627660Y-48332738D01*
X134647957Y-48720025D01*
X134708624Y-49103061D01*
X134708625Y-49103068D01*
X134809000Y-49477674D01*
X134947982Y-49839732D01*
X135124048Y-50185281D01*
X135335269Y-50510531D01*
X135543833Y-50768088D01*
X135543834Y-50768088D01*
X136441494Y-49870427D01*
X136400187Y-49932249D01*
X136380784Y-50029794D01*
X136400187Y-50127339D01*
X136455442Y-50210034D01*
X136538137Y-50265289D01*
X136611058Y-50279794D01*
X136660306Y-50279794D01*
X136733227Y-50265289D01*
X136795042Y-50223985D01*
X135897386Y-51121641D01*
X135897387Y-51121642D01*
X136154944Y-51330206D01*
X136480194Y-51541427D01*
X136825743Y-51717493D01*
X137187801Y-51856475D01*
X137562407Y-51956850D01*
X137562414Y-51956851D01*
X137945450Y-52017518D01*
X138332737Y-52037816D01*
X138332739Y-52037816D01*
X138720025Y-52017518D01*
X139103061Y-51956851D01*
X139103068Y-51956850D01*
X139477674Y-51856475D01*
X139839732Y-51717493D01*
X140185281Y-51541427D01*
X140510521Y-51330214D01*
X140510523Y-51330213D01*
X140768087Y-51121640D01*
X139870429Y-50223982D01*
X139932249Y-50265289D01*
X140005170Y-50279794D01*
X140054418Y-50279794D01*
X140127339Y-50265289D01*
X140210034Y-50210034D01*
X140265289Y-50127339D01*
X140284692Y-50029794D01*
X140265289Y-49932249D01*
X140223982Y-49870429D01*
X141121640Y-50768087D01*
X141330213Y-50510523D01*
X141330214Y-50510521D01*
X141541427Y-50185281D01*
X141717493Y-49839732D01*
X141856475Y-49477674D01*
X141956850Y-49103068D01*
X141956851Y-49103061D01*
X142017518Y-48720025D01*
X142037816Y-48332738D01*
X142037816Y-48332737D01*
X142017518Y-47945450D01*
X141956851Y-47562414D01*
X141956850Y-47562407D01*
X141856475Y-47187801D01*
X141717493Y-46825743D01*
X141541427Y-46480194D01*
X141330206Y-46154944D01*
X141121642Y-45897387D01*
X141121641Y-45897386D01*
X140223985Y-46795041D01*
X140265289Y-46733227D01*
X140284692Y-46635682D01*
X140265289Y-46538137D01*
X140210034Y-46455442D01*
X140127339Y-46400187D01*
X140054418Y-46385682D01*
X140005170Y-46385682D01*
X139932249Y-46400187D01*
X139870428Y-46441493D01*
X140768088Y-45543834D01*
X140768088Y-45543833D01*
X140510531Y-45335269D01*
X140232031Y-45154408D01*
X143091116Y-45154408D01*
X143130202Y-45319326D01*
X143206260Y-45470770D01*
X143206265Y-45470777D01*
X143269292Y-45548149D01*
X143269306Y-45548164D01*
X143285785Y-45564644D01*
X143798439Y-45051992D01*
X143798439Y-45051991D01*
X143303464Y-44557017D01*
X143303463Y-44557017D01*
X143269308Y-44591173D01*
X143269291Y-44591192D01*
X143206265Y-44668560D01*
X143206260Y-44668568D01*
X143130202Y-44820012D01*
X143091116Y-44984930D01*
X143091116Y-45154408D01*
X140232031Y-45154408D01*
X140185281Y-45124048D01*
X139839732Y-44947982D01*
X139477674Y-44809000D01*
X139103068Y-44708625D01*
X139103061Y-44708624D01*
X138720025Y-44647957D01*
X138332739Y-44627660D01*
X138332737Y-44627660D01*
X137945450Y-44647957D01*
X137562414Y-44708624D01*
X137562407Y-44708625D01*
X137450591Y-44738586D01*
X137380741Y-44736923D01*
X137322879Y-44697760D01*
X137295375Y-44633531D01*
X137306962Y-44564629D01*
X137339026Y-44523628D01*
X137461534Y-44421350D01*
X137602023Y-44309315D01*
X137741047Y-44203462D01*
X143657017Y-44203462D01*
X144151992Y-44698438D01*
X144664644Y-44185786D01*
X144648156Y-44169300D01*
X144648145Y-44169290D01*
X144570778Y-44106265D01*
X144570770Y-44106260D01*
X144419326Y-44030202D01*
X144254408Y-43991116D01*
X144084931Y-43991116D01*
X143920012Y-44030202D01*
X143768568Y-44106260D01*
X143768561Y-44106265D01*
X143691190Y-44169292D01*
X143691173Y-44169307D01*
X143657017Y-44203462D01*
X137741047Y-44203462D01*
X138173082Y-43874509D01*
X138318446Y-43768896D01*
X138908462Y-43360132D01*
X139058436Y-43261135D01*
X139666152Y-42879281D01*
X139820464Y-42787084D01*
X140444668Y-42432899D01*
X140602976Y-42347710D01*
X141242453Y-42021880D01*
X141404380Y-41943900D01*
X142057830Y-41647089D01*
X142223153Y-41576427D01*
X142889269Y-41309229D01*
X143057532Y-41246079D01*
X143734984Y-41009028D01*
X143905927Y-40953486D01*
X144593290Y-40747081D01*
X144766567Y-40699259D01*
X145462524Y-40523893D01*
X145637771Y-40483894D01*
X146340886Y-40339931D01*
X146517742Y-40307836D01*
X147226617Y-40195562D01*
X147404737Y-40171434D01*
X148117934Y-40091076D01*
X148296958Y-40074964D01*
X149013013Y-40026686D01*
X149192596Y-40018620D01*
X149910130Y-40002517D01*
X150089870Y-40002517D01*
X150807403Y-40018620D01*
G37*
%TD.AperFunction*%
%TA.AperFunction,Conductor*%
G36*
X136400187Y-73266773D02*
G01*
X136380784Y-73364318D01*
X136400187Y-73461863D01*
X136455442Y-73544558D01*
X136538137Y-73599813D01*
X136611058Y-73614318D01*
X136660306Y-73614318D01*
X136733227Y-73599813D01*
X136795046Y-73558506D01*
X136126236Y-74227317D01*
X136064913Y-74260802D01*
X135995221Y-74255818D01*
X135950874Y-74227317D01*
X135772683Y-74049125D01*
X135739198Y-73987802D01*
X135744182Y-73918110D01*
X135772683Y-73873763D01*
X136441495Y-73204950D01*
X136400187Y-73266773D01*
G37*
%TD.AperFunction*%
%TA.AperFunction,Conductor*%
G36*
X137197868Y-72802132D02*
G01*
X137388557Y-72964995D01*
X136829870Y-73523682D01*
X136871177Y-73461863D01*
X136890580Y-73364318D01*
X136871177Y-73266773D01*
X136815922Y-73184078D01*
X136733227Y-73128823D01*
X136660306Y-73114318D01*
X136611058Y-73114318D01*
X136538137Y-73128823D01*
X136476314Y-73170131D01*
X137035004Y-72611441D01*
X137197868Y-72802132D01*
G37*
%TD.AperFunction*%
%TA.AperFunction,Conductor*%
G36*
X140189158Y-73170129D02*
G01*
X140127339Y-73128823D01*
X140054418Y-73114318D01*
X140005170Y-73114318D01*
X139932249Y-73128823D01*
X139849554Y-73184078D01*
X139794299Y-73266773D01*
X139774896Y-73364318D01*
X139794299Y-73461863D01*
X139835605Y-73523682D01*
X139276918Y-72964995D01*
X139467608Y-72802132D01*
X139630471Y-72611442D01*
X140189158Y-73170129D01*
G37*
%TD.AperFunction*%
%TA.AperFunction,Conductor*%
G36*
X160532392Y-72802132D02*
G01*
X160723081Y-72964995D01*
X160164397Y-73523678D01*
X160205701Y-73461863D01*
X160225104Y-73364318D01*
X160205701Y-73266773D01*
X160150446Y-73184078D01*
X160067751Y-73128823D01*
X159994830Y-73114318D01*
X159945582Y-73114318D01*
X159872661Y-73128823D01*
X159810839Y-73170130D01*
X160369528Y-72611442D01*
X160532392Y-72802132D01*
G37*
%TD.AperFunction*%
%TA.AperFunction,Conductor*%
G36*
X160723081Y-70369528D02*
G01*
X160532392Y-70532392D01*
X160369528Y-70723081D01*
X159810843Y-70164395D01*
X159872661Y-70205701D01*
X159945582Y-70220206D01*
X159994830Y-70220206D01*
X160067751Y-70205701D01*
X160150446Y-70150446D01*
X160205701Y-70067751D01*
X160225104Y-69970206D01*
X160205701Y-69872661D01*
X160164395Y-69810843D01*
X160723081Y-70369528D01*
G37*
%TD.AperFunction*%
%TA.AperFunction,Conductor*%
G36*
X137388557Y-70369528D02*
G01*
X137197868Y-70532392D01*
X137035004Y-70723080D01*
X136476320Y-70164396D01*
X136538137Y-70205701D01*
X136611058Y-70220206D01*
X136660306Y-70220206D01*
X136733227Y-70205701D01*
X136815922Y-70150446D01*
X136871177Y-70067751D01*
X136890580Y-69970206D01*
X136871177Y-69872661D01*
X136829871Y-69810843D01*
X137388557Y-70369528D01*
G37*
%TD.AperFunction*%
%TA.AperFunction,Conductor*%
G36*
X139794299Y-69872661D02*
G01*
X139774896Y-69970206D01*
X139794299Y-70067751D01*
X139849554Y-70150446D01*
X139932249Y-70205701D01*
X140005170Y-70220206D01*
X140054418Y-70220206D01*
X140127339Y-70205701D01*
X140189153Y-70164397D01*
X139630470Y-70723080D01*
X139467608Y-70532392D01*
X139276917Y-70369527D01*
X139835608Y-69810837D01*
X139794299Y-69872661D01*
G37*
%TD.AperFunction*%
%TA.AperFunction,Conductor*%
G36*
X163128823Y-69872661D02*
G01*
X163109420Y-69970206D01*
X163128823Y-70067751D01*
X163184078Y-70150446D01*
X163266773Y-70205701D01*
X163339694Y-70220206D01*
X163388942Y-70220206D01*
X163461863Y-70205701D01*
X163523678Y-70164397D01*
X162964995Y-70723080D01*
X162802132Y-70532392D01*
X162611442Y-70369528D01*
X163170129Y-69810840D01*
X163128823Y-69872661D01*
G37*
%TD.AperFunction*%
%TA.AperFunction,Conductor*%
G36*
X135356421Y-61502868D02*
G01*
X135294601Y-61461561D01*
X135221680Y-61447056D01*
X135172432Y-61447056D01*
X135099511Y-61461561D01*
X135016816Y-61516816D01*
X134961561Y-61599511D01*
X134942158Y-61697056D01*
X134961561Y-61794601D01*
X135002867Y-61856420D01*
X134444180Y-61297733D01*
X134634870Y-61134870D01*
X134797733Y-60944180D01*
X135356421Y-61502868D01*
G37*
%TD.AperFunction*%
%TA.AperFunction,Conductor*%
G36*
X168356420Y-61502867D02*
G01*
X168294601Y-61461561D01*
X168221680Y-61447056D01*
X168172432Y-61447056D01*
X168099511Y-61461561D01*
X168016816Y-61516816D01*
X167961561Y-61599511D01*
X167942158Y-61697056D01*
X167961561Y-61794601D01*
X168002867Y-61856420D01*
X167444180Y-61297733D01*
X167634870Y-61134870D01*
X167797733Y-60944180D01*
X168356420Y-61502867D01*
G37*
%TD.AperFunction*%
%TA.AperFunction,Conductor*%
G36*
X132365130Y-61134870D02*
G01*
X132555819Y-61297733D01*
X131997135Y-61856416D01*
X132038439Y-61794601D01*
X132057842Y-61697056D01*
X132038439Y-61599511D01*
X131983184Y-61516816D01*
X131900489Y-61461561D01*
X131827568Y-61447056D01*
X131778320Y-61447056D01*
X131705399Y-61461561D01*
X131643577Y-61502868D01*
X132202266Y-60944180D01*
X132365130Y-61134870D01*
G37*
%TD.AperFunction*%
%TA.AperFunction,Conductor*%
G36*
X165365130Y-61134870D02*
G01*
X165555819Y-61297733D01*
X164997135Y-61856416D01*
X165038439Y-61794601D01*
X165057842Y-61697056D01*
X165038439Y-61599511D01*
X164983184Y-61516816D01*
X164900489Y-61461561D01*
X164827568Y-61447056D01*
X164778320Y-61447056D01*
X164705399Y-61461561D01*
X164643574Y-61502870D01*
X165202265Y-60944179D01*
X165365130Y-61134870D01*
G37*
%TD.AperFunction*%
%TA.AperFunction,Conductor*%
G36*
X132555819Y-58702266D02*
G01*
X132365130Y-58865130D01*
X132202266Y-59055818D01*
X131643582Y-58497134D01*
X131705399Y-58538439D01*
X131778320Y-58552944D01*
X131827568Y-58552944D01*
X131900489Y-58538439D01*
X131983184Y-58483184D01*
X132038439Y-58400489D01*
X132057842Y-58302944D01*
X132038439Y-58205399D01*
X131997133Y-58143581D01*
X132555819Y-58702266D01*
G37*
%TD.AperFunction*%
%TA.AperFunction,Conductor*%
G36*
X134961561Y-58205399D02*
G01*
X134942158Y-58302944D01*
X134961561Y-58400489D01*
X135016816Y-58483184D01*
X135099511Y-58538439D01*
X135172432Y-58552944D01*
X135221680Y-58552944D01*
X135294601Y-58538439D01*
X135356415Y-58497135D01*
X134797732Y-59055818D01*
X134634870Y-58865130D01*
X134444180Y-58702266D01*
X135002867Y-58143578D01*
X134961561Y-58205399D01*
G37*
%TD.AperFunction*%
%TA.AperFunction,Conductor*%
G36*
X165555819Y-58702266D02*
G01*
X165365130Y-58865130D01*
X165202266Y-59055818D01*
X164643582Y-58497134D01*
X164705399Y-58538439D01*
X164778320Y-58552944D01*
X164827568Y-58552944D01*
X164900489Y-58538439D01*
X164983184Y-58483184D01*
X165038439Y-58400489D01*
X165057842Y-58302944D01*
X165038439Y-58205399D01*
X164997133Y-58143581D01*
X165555819Y-58702266D01*
G37*
%TD.AperFunction*%
%TA.AperFunction,Conductor*%
G36*
X167961561Y-58205399D02*
G01*
X167942158Y-58302944D01*
X167961561Y-58400489D01*
X168016816Y-58483184D01*
X168099511Y-58538439D01*
X168172432Y-58552944D01*
X168221680Y-58552944D01*
X168294601Y-58538439D01*
X168356414Y-58497136D01*
X167797732Y-59055818D01*
X167634870Y-58865130D01*
X167444179Y-58702265D01*
X168002870Y-58143575D01*
X167961561Y-58205399D01*
G37*
%TD.AperFunction*%
%TA.AperFunction,Conductor*%
G36*
X140189158Y-49835605D02*
G01*
X140127339Y-49794299D01*
X140054418Y-49779794D01*
X140005170Y-49779794D01*
X139932249Y-49794299D01*
X139849554Y-49849554D01*
X139794299Y-49932249D01*
X139774896Y-50029794D01*
X139794299Y-50127339D01*
X139835605Y-50189158D01*
X139276918Y-49630471D01*
X139467608Y-49467608D01*
X139630471Y-49276918D01*
X140189158Y-49835605D01*
G37*
%TD.AperFunction*%
%TA.AperFunction,Conductor*%
G36*
X163523682Y-49835605D02*
G01*
X163461863Y-49794299D01*
X163388942Y-49779794D01*
X163339694Y-49779794D01*
X163266773Y-49794299D01*
X163184078Y-49849554D01*
X163128823Y-49932249D01*
X163109420Y-50029794D01*
X163128823Y-50127339D01*
X163170129Y-50189158D01*
X162611442Y-49630471D01*
X162802132Y-49467608D01*
X162964995Y-49276918D01*
X163523682Y-49835605D01*
G37*
%TD.AperFunction*%
%TA.AperFunction,Conductor*%
G36*
X137197868Y-49467608D02*
G01*
X137388557Y-49630471D01*
X136829873Y-50189154D01*
X136871177Y-50127339D01*
X136890580Y-50029794D01*
X136871177Y-49932249D01*
X136815922Y-49849554D01*
X136733227Y-49794299D01*
X136660306Y-49779794D01*
X136611058Y-49779794D01*
X136538137Y-49794299D01*
X136476315Y-49835606D01*
X137035004Y-49276918D01*
X137197868Y-49467608D01*
G37*
%TD.AperFunction*%
%TA.AperFunction,Conductor*%
G36*
X160532392Y-49467608D02*
G01*
X160723081Y-49630471D01*
X160164397Y-50189154D01*
X160205701Y-50127339D01*
X160225104Y-50029794D01*
X160205701Y-49932249D01*
X160150446Y-49849554D01*
X160067751Y-49794299D01*
X159994830Y-49779794D01*
X159945582Y-49779794D01*
X159872661Y-49794299D01*
X159810835Y-49835609D01*
X160369527Y-49276917D01*
X160532392Y-49467608D01*
G37*
%TD.AperFunction*%
%TA.AperFunction,Conductor*%
G36*
X137388557Y-47035004D02*
G01*
X137197868Y-47197868D01*
X137035004Y-47388556D01*
X136476320Y-46829872D01*
X136538137Y-46871177D01*
X136611058Y-46885682D01*
X136660306Y-46885682D01*
X136733227Y-46871177D01*
X136815922Y-46815922D01*
X136871177Y-46733227D01*
X136890580Y-46635682D01*
X136871177Y-46538137D01*
X136829870Y-46476317D01*
X137388557Y-47035004D01*
G37*
%TD.AperFunction*%
%TA.AperFunction,Conductor*%
G36*
X139794299Y-46538137D02*
G01*
X139774896Y-46635682D01*
X139794299Y-46733227D01*
X139849554Y-46815922D01*
X139932249Y-46871177D01*
X140005170Y-46885682D01*
X140054418Y-46885682D01*
X140127339Y-46871177D01*
X140189153Y-46829873D01*
X139630470Y-47388556D01*
X139467608Y-47197868D01*
X139276918Y-47035004D01*
X139835605Y-46476316D01*
X139794299Y-46538137D01*
G37*
%TD.AperFunction*%
%TA.AperFunction,Conductor*%
G36*
X160723081Y-47035004D02*
G01*
X160532392Y-47197868D01*
X160369528Y-47388556D01*
X159810844Y-46829872D01*
X159872661Y-46871177D01*
X159945582Y-46885682D01*
X159994830Y-46885682D01*
X160067751Y-46871177D01*
X160150446Y-46815922D01*
X160205701Y-46733227D01*
X160225104Y-46635682D01*
X160205701Y-46538137D01*
X160164395Y-46476319D01*
X160723081Y-47035004D01*
G37*
%TD.AperFunction*%
%TA.AperFunction,Conductor*%
G36*
X136081889Y-45744182D02*
G01*
X136126236Y-45772683D01*
X136795046Y-46441493D01*
X136733227Y-46400187D01*
X136660306Y-46385682D01*
X136611058Y-46385682D01*
X136538137Y-46400187D01*
X136455442Y-46455442D01*
X136400187Y-46538137D01*
X136380784Y-46635682D01*
X136400187Y-46733227D01*
X136441491Y-46795043D01*
X135772683Y-46126235D01*
X135739198Y-46064912D01*
X135744182Y-45995220D01*
X135772681Y-45950875D01*
X135950874Y-45772683D01*
X136012197Y-45739198D01*
X136081889Y-45744182D01*
G37*
%TD.AperFunction*%
%TD*%
M02*
