%TF.GenerationSoftware,KiCad,Pcbnew,7.0.6-7.0.6~ubuntu22.04.1*%
%TF.CreationDate,2023-10-10T10:40:32+08:00*%
%TF.ProjectId,CAM,43414d2e-6b69-4636-9164-5f7063625858,rev?*%
%TF.SameCoordinates,Original*%
%TF.FileFunction,Legend,Top*%
%TF.FilePolarity,Positive*%
%FSLAX46Y46*%
G04 Gerber Fmt 4.6, Leading zero omitted, Abs format (unit mm)*
G04 Created by KiCad (PCBNEW 7.0.6-7.0.6~ubuntu22.04.1) date 2023-10-10 10:40:32*
%MOMM*%
%LPD*%
G01*
G04 APERTURE LIST*
%ADD10C,0.150000*%
%ADD11C,0.100000*%
%ADD12C,0.120000*%
G04 APERTURE END LIST*
D10*
X147454819Y-68263220D02*
X146454819Y-68263220D01*
X146454819Y-68263220D02*
X147169104Y-67929887D01*
X147169104Y-67929887D02*
X146454819Y-67596554D01*
X146454819Y-67596554D02*
X147454819Y-67596554D01*
X146454819Y-66929887D02*
X146454819Y-66739411D01*
X146454819Y-66739411D02*
X146502438Y-66644173D01*
X146502438Y-66644173D02*
X146597676Y-66548935D01*
X146597676Y-66548935D02*
X146788152Y-66501316D01*
X146788152Y-66501316D02*
X147121485Y-66501316D01*
X147121485Y-66501316D02*
X147311961Y-66548935D01*
X147311961Y-66548935D02*
X147407200Y-66644173D01*
X147407200Y-66644173D02*
X147454819Y-66739411D01*
X147454819Y-66739411D02*
X147454819Y-66929887D01*
X147454819Y-66929887D02*
X147407200Y-67025125D01*
X147407200Y-67025125D02*
X147311961Y-67120363D01*
X147311961Y-67120363D02*
X147121485Y-67167982D01*
X147121485Y-67167982D02*
X146788152Y-67167982D01*
X146788152Y-67167982D02*
X146597676Y-67120363D01*
X146597676Y-67120363D02*
X146502438Y-67025125D01*
X146502438Y-67025125D02*
X146454819Y-66929887D01*
X147407200Y-66120363D02*
X147454819Y-65977506D01*
X147454819Y-65977506D02*
X147454819Y-65739411D01*
X147454819Y-65739411D02*
X147407200Y-65644173D01*
X147407200Y-65644173D02*
X147359580Y-65596554D01*
X147359580Y-65596554D02*
X147264342Y-65548935D01*
X147264342Y-65548935D02*
X147169104Y-65548935D01*
X147169104Y-65548935D02*
X147073866Y-65596554D01*
X147073866Y-65596554D02*
X147026247Y-65644173D01*
X147026247Y-65644173D02*
X146978628Y-65739411D01*
X146978628Y-65739411D02*
X146931009Y-65929887D01*
X146931009Y-65929887D02*
X146883390Y-66025125D01*
X146883390Y-66025125D02*
X146835771Y-66072744D01*
X146835771Y-66072744D02*
X146740533Y-66120363D01*
X146740533Y-66120363D02*
X146645295Y-66120363D01*
X146645295Y-66120363D02*
X146550057Y-66072744D01*
X146550057Y-66072744D02*
X146502438Y-66025125D01*
X146502438Y-66025125D02*
X146454819Y-65929887D01*
X146454819Y-65929887D02*
X146454819Y-65691792D01*
X146454819Y-65691792D02*
X146502438Y-65548935D01*
X147454819Y-65120363D02*
X146454819Y-65120363D01*
X153359580Y-67691792D02*
X153407200Y-67739411D01*
X153407200Y-67739411D02*
X153454819Y-67882268D01*
X153454819Y-67882268D02*
X153454819Y-67977506D01*
X153454819Y-67977506D02*
X153407200Y-68120363D01*
X153407200Y-68120363D02*
X153311961Y-68215601D01*
X153311961Y-68215601D02*
X153216723Y-68263220D01*
X153216723Y-68263220D02*
X153026247Y-68310839D01*
X153026247Y-68310839D02*
X152883390Y-68310839D01*
X152883390Y-68310839D02*
X152692914Y-68263220D01*
X152692914Y-68263220D02*
X152597676Y-68215601D01*
X152597676Y-68215601D02*
X152502438Y-68120363D01*
X152502438Y-68120363D02*
X152454819Y-67977506D01*
X152454819Y-67977506D02*
X152454819Y-67882268D01*
X152454819Y-67882268D02*
X152502438Y-67739411D01*
X152502438Y-67739411D02*
X152550057Y-67691792D01*
X153407200Y-67310839D02*
X153454819Y-67167982D01*
X153454819Y-67167982D02*
X153454819Y-66929887D01*
X153454819Y-66929887D02*
X153407200Y-66834649D01*
X153407200Y-66834649D02*
X153359580Y-66787030D01*
X153359580Y-66787030D02*
X153264342Y-66739411D01*
X153264342Y-66739411D02*
X153169104Y-66739411D01*
X153169104Y-66739411D02*
X153073866Y-66787030D01*
X153073866Y-66787030D02*
X153026247Y-66834649D01*
X153026247Y-66834649D02*
X152978628Y-66929887D01*
X152978628Y-66929887D02*
X152931009Y-67120363D01*
X152931009Y-67120363D02*
X152883390Y-67215601D01*
X152883390Y-67215601D02*
X152835771Y-67263220D01*
X152835771Y-67263220D02*
X152740533Y-67310839D01*
X152740533Y-67310839D02*
X152645295Y-67310839D01*
X152645295Y-67310839D02*
X152550057Y-67263220D01*
X152550057Y-67263220D02*
X152502438Y-67215601D01*
X152502438Y-67215601D02*
X152454819Y-67120363D01*
X152454819Y-67120363D02*
X152454819Y-66882268D01*
X152454819Y-66882268D02*
X152502438Y-66739411D01*
X154502438Y-67739411D02*
X154454819Y-67834649D01*
X154454819Y-67834649D02*
X154454819Y-67977506D01*
X154454819Y-67977506D02*
X154502438Y-68120363D01*
X154502438Y-68120363D02*
X154597676Y-68215601D01*
X154597676Y-68215601D02*
X154692914Y-68263220D01*
X154692914Y-68263220D02*
X154883390Y-68310839D01*
X154883390Y-68310839D02*
X155026247Y-68310839D01*
X155026247Y-68310839D02*
X155216723Y-68263220D01*
X155216723Y-68263220D02*
X155311961Y-68215601D01*
X155311961Y-68215601D02*
X155407200Y-68120363D01*
X155407200Y-68120363D02*
X155454819Y-67977506D01*
X155454819Y-67977506D02*
X155454819Y-67882268D01*
X155454819Y-67882268D02*
X155407200Y-67739411D01*
X155407200Y-67739411D02*
X155359580Y-67691792D01*
X155359580Y-67691792D02*
X155026247Y-67691792D01*
X155026247Y-67691792D02*
X155026247Y-67882268D01*
X155454819Y-67263220D02*
X154454819Y-67263220D01*
X154454819Y-67263220D02*
X155454819Y-66691792D01*
X155454819Y-66691792D02*
X154454819Y-66691792D01*
X155454819Y-66215601D02*
X154454819Y-66215601D01*
X154454819Y-66215601D02*
X154454819Y-65977506D01*
X154454819Y-65977506D02*
X154502438Y-65834649D01*
X154502438Y-65834649D02*
X154597676Y-65739411D01*
X154597676Y-65739411D02*
X154692914Y-65691792D01*
X154692914Y-65691792D02*
X154883390Y-65644173D01*
X154883390Y-65644173D02*
X155026247Y-65644173D01*
X155026247Y-65644173D02*
X155216723Y-65691792D01*
X155216723Y-65691792D02*
X155311961Y-65739411D01*
X155311961Y-65739411D02*
X155407200Y-65834649D01*
X155407200Y-65834649D02*
X155454819Y-65977506D01*
X155454819Y-65977506D02*
X155454819Y-66215601D01*
X149454819Y-68263220D02*
X148454819Y-68263220D01*
X148454819Y-68263220D02*
X149169104Y-67929887D01*
X149169104Y-67929887D02*
X148454819Y-67596554D01*
X148454819Y-67596554D02*
X149454819Y-67596554D01*
X149454819Y-67120363D02*
X148454819Y-67120363D01*
X149407200Y-66691792D02*
X149454819Y-66548935D01*
X149454819Y-66548935D02*
X149454819Y-66310840D01*
X149454819Y-66310840D02*
X149407200Y-66215602D01*
X149407200Y-66215602D02*
X149359580Y-66167983D01*
X149359580Y-66167983D02*
X149264342Y-66120364D01*
X149264342Y-66120364D02*
X149169104Y-66120364D01*
X149169104Y-66120364D02*
X149073866Y-66167983D01*
X149073866Y-66167983D02*
X149026247Y-66215602D01*
X149026247Y-66215602D02*
X148978628Y-66310840D01*
X148978628Y-66310840D02*
X148931009Y-66501316D01*
X148931009Y-66501316D02*
X148883390Y-66596554D01*
X148883390Y-66596554D02*
X148835771Y-66644173D01*
X148835771Y-66644173D02*
X148740533Y-66691792D01*
X148740533Y-66691792D02*
X148645295Y-66691792D01*
X148645295Y-66691792D02*
X148550057Y-66644173D01*
X148550057Y-66644173D02*
X148502438Y-66596554D01*
X148502438Y-66596554D02*
X148454819Y-66501316D01*
X148454819Y-66501316D02*
X148454819Y-66263221D01*
X148454819Y-66263221D02*
X148502438Y-66120364D01*
X148454819Y-65501316D02*
X148454819Y-65310840D01*
X148454819Y-65310840D02*
X148502438Y-65215602D01*
X148502438Y-65215602D02*
X148597676Y-65120364D01*
X148597676Y-65120364D02*
X148788152Y-65072745D01*
X148788152Y-65072745D02*
X149121485Y-65072745D01*
X149121485Y-65072745D02*
X149311961Y-65120364D01*
X149311961Y-65120364D02*
X149407200Y-65215602D01*
X149407200Y-65215602D02*
X149454819Y-65310840D01*
X149454819Y-65310840D02*
X149454819Y-65501316D01*
X149454819Y-65501316D02*
X149407200Y-65596554D01*
X149407200Y-65596554D02*
X149311961Y-65691792D01*
X149311961Y-65691792D02*
X149121485Y-65739411D01*
X149121485Y-65739411D02*
X148788152Y-65739411D01*
X148788152Y-65739411D02*
X148597676Y-65691792D01*
X148597676Y-65691792D02*
X148502438Y-65596554D01*
X148502438Y-65596554D02*
X148454819Y-65501316D01*
X144454819Y-68406077D02*
X145454819Y-68072744D01*
X145454819Y-68072744D02*
X144454819Y-67739411D01*
X145454819Y-67406077D02*
X144454819Y-67406077D01*
X144454819Y-67406077D02*
X144454819Y-67167982D01*
X144454819Y-67167982D02*
X144502438Y-67025125D01*
X144502438Y-67025125D02*
X144597676Y-66929887D01*
X144597676Y-66929887D02*
X144692914Y-66882268D01*
X144692914Y-66882268D02*
X144883390Y-66834649D01*
X144883390Y-66834649D02*
X145026247Y-66834649D01*
X145026247Y-66834649D02*
X145216723Y-66882268D01*
X145216723Y-66882268D02*
X145311961Y-66929887D01*
X145311961Y-66929887D02*
X145407200Y-67025125D01*
X145407200Y-67025125D02*
X145454819Y-67167982D01*
X145454819Y-67167982D02*
X145454819Y-67406077D01*
X145454819Y-66406077D02*
X144454819Y-66406077D01*
X144454819Y-66406077D02*
X144454819Y-66167982D01*
X144454819Y-66167982D02*
X144502438Y-66025125D01*
X144502438Y-66025125D02*
X144597676Y-65929887D01*
X144597676Y-65929887D02*
X144692914Y-65882268D01*
X144692914Y-65882268D02*
X144883390Y-65834649D01*
X144883390Y-65834649D02*
X145026247Y-65834649D01*
X145026247Y-65834649D02*
X145216723Y-65882268D01*
X145216723Y-65882268D02*
X145311961Y-65929887D01*
X145311961Y-65929887D02*
X145407200Y-66025125D01*
X145407200Y-66025125D02*
X145454819Y-66167982D01*
X145454819Y-66167982D02*
X145454819Y-66406077D01*
X151359580Y-67691792D02*
X151407200Y-67739411D01*
X151407200Y-67739411D02*
X151454819Y-67882268D01*
X151454819Y-67882268D02*
X151454819Y-67977506D01*
X151454819Y-67977506D02*
X151407200Y-68120363D01*
X151407200Y-68120363D02*
X151311961Y-68215601D01*
X151311961Y-68215601D02*
X151216723Y-68263220D01*
X151216723Y-68263220D02*
X151026247Y-68310839D01*
X151026247Y-68310839D02*
X150883390Y-68310839D01*
X150883390Y-68310839D02*
X150692914Y-68263220D01*
X150692914Y-68263220D02*
X150597676Y-68215601D01*
X150597676Y-68215601D02*
X150502438Y-68120363D01*
X150502438Y-68120363D02*
X150454819Y-67977506D01*
X150454819Y-67977506D02*
X150454819Y-67882268D01*
X150454819Y-67882268D02*
X150502438Y-67739411D01*
X150502438Y-67739411D02*
X150550057Y-67691792D01*
X151454819Y-66787030D02*
X151454819Y-67263220D01*
X151454819Y-67263220D02*
X150454819Y-67263220D01*
X151454819Y-66453696D02*
X150454819Y-66453696D01*
X151454819Y-65882268D02*
X150883390Y-66310839D01*
X150454819Y-65882268D02*
X151026247Y-66453696D01*
X149238095Y-46354819D02*
X149238095Y-47164342D01*
X149238095Y-47164342D02*
X149285714Y-47259580D01*
X149285714Y-47259580D02*
X149333333Y-47307200D01*
X149333333Y-47307200D02*
X149428571Y-47354819D01*
X149428571Y-47354819D02*
X149619047Y-47354819D01*
X149619047Y-47354819D02*
X149714285Y-47307200D01*
X149714285Y-47307200D02*
X149761904Y-47259580D01*
X149761904Y-47259580D02*
X149809523Y-47164342D01*
X149809523Y-47164342D02*
X149809523Y-46354819D01*
X150238095Y-46450057D02*
X150285714Y-46402438D01*
X150285714Y-46402438D02*
X150380952Y-46354819D01*
X150380952Y-46354819D02*
X150619047Y-46354819D01*
X150619047Y-46354819D02*
X150714285Y-46402438D01*
X150714285Y-46402438D02*
X150761904Y-46450057D01*
X150761904Y-46450057D02*
X150809523Y-46545295D01*
X150809523Y-46545295D02*
X150809523Y-46640533D01*
X150809523Y-46640533D02*
X150761904Y-46783390D01*
X150761904Y-46783390D02*
X150190476Y-47354819D01*
X150190476Y-47354819D02*
X150809523Y-47354819D01*
D11*
X149666666Y-71980991D02*
X149666666Y-72695276D01*
X149666666Y-72695276D02*
X149619047Y-72838133D01*
X149619047Y-72838133D02*
X149523809Y-72933372D01*
X149523809Y-72933372D02*
X149380952Y-72980991D01*
X149380952Y-72980991D02*
X149285714Y-72980991D01*
X150666666Y-72980991D02*
X150095238Y-72980991D01*
X150380952Y-72980991D02*
X150380952Y-71980991D01*
X150380952Y-71980991D02*
X150285714Y-72123848D01*
X150285714Y-72123848D02*
X150190476Y-72219086D01*
X150190476Y-72219086D02*
X150095238Y-72266705D01*
D12*
%TO.C,D1*%
X144950000Y-56512500D02*
X141650000Y-56512500D01*
X144950000Y-56512500D02*
X144950000Y-62022500D01*
X141650000Y-56512500D02*
X141650000Y-62022500D01*
%TO.C,C2*%
X151284420Y-53240000D02*
X151565580Y-53240000D01*
X151284420Y-54260000D02*
X151565580Y-54260000D01*
%TO.C,C1*%
X151284420Y-54790000D02*
X151565580Y-54790000D01*
X151284420Y-55810000D02*
X151565580Y-55810000D01*
%TO.C,U2*%
X153410000Y-42750000D02*
X153410000Y-48760000D01*
X146590000Y-45000000D02*
X146590000Y-48760000D01*
X153410000Y-48760000D02*
X152150000Y-48760000D01*
X146590000Y-48760000D02*
X147850000Y-48760000D01*
%TO.C,D2*%
X149560000Y-53610000D02*
X149560000Y-51390000D01*
X149560000Y-51390000D02*
X145150000Y-51390000D01*
X145150000Y-53610000D02*
X149560000Y-53610000D01*
%TO.C,C3*%
X144438781Y-46060030D02*
X144239970Y-45861219D01*
X145160030Y-45338781D02*
X144961219Y-45139970D01*
%TO.C,R1*%
X155322500Y-56162742D02*
X155322500Y-56637258D01*
X154277500Y-56162742D02*
X154277500Y-56637258D01*
%TO.C,D3*%
X154065000Y-54772500D02*
X155535000Y-54772500D01*
X155535000Y-54772500D02*
X155535000Y-52487500D01*
X154065000Y-52487500D02*
X154065000Y-54772500D01*
%TD*%
M02*
